<?xml version="1.0" encoding="UTF-8" standalone="no"?>
<!-- Created with Inkscape (http://www.inkscape.org/) -->

<svg
   xmlns:dc="http://purl.org/dc/elements/1.1/"
   xmlns:cc="http://creativecommons.org/ns#"
   xmlns:rdf="http://www.w3.org/1999/02/22-rdf-syntax-ns#"
   xmlns:svg="http://www.w3.org/2000/svg"
   xmlns="http://www.w3.org/2000/svg"
   xmlns:sodipodi="http://sodipodi.sourceforge.net/DTD/sodipodi-0.dtd"
   xmlns:inkscape="http://www.inkscape.org/namespaces/inkscape"
   id="svg2"
   version="1.1"
   inkscape:version="0.91 r13725"
   width="165.00095"
   height="165.00095"
   viewBox="0 0 165.00095 165.00095"
   sodipodi:docname="kozyrek.svg"
   inkscape:export-filename="C:\Users\Gleb\Desktop\naves.png"
   inkscape:export-xdpi="90"
   inkscape:export-ydpi="90">
  <metadata
     id="metadata8">
    <rdf:RDF>
      <cc:Work
         rdf:about="">
        <dc:format>image/svg+xml</dc:format>
        <dc:type
           rdf:resource="http://purl.org/dc/dcmitype/StillImage" />
        <dc:title></dc:title>
      </cc:Work>
    </rdf:RDF>
  </metadata>
  <defs
     id="defs6" />
  <sodipodi:namedview
     pagecolor="#ffffff"
     bordercolor="#666666"
     borderopacity="1"
     objecttolerance="10"
     gridtolerance="10"
     guidetolerance="10"
     inkscape:pageopacity="0"
     inkscape:pageshadow="2"
     inkscape:window-width="1366"
     inkscape:window-height="705"
     id="namedview4"
     showgrid="false"
     showguides="false"
     inkscape:zoom="2.56"
     inkscape:cx="40.320448"
     inkscape:cy="114.95944"
     inkscape:window-x="-8"
     inkscape:window-y="-8"
     inkscape:window-maximized="1"
     inkscape:current-layer="svg2"
     fit-margin-top="0"
     fit-margin-left="0"
     fit-margin-right="0"
     fit-margin-bottom="0" />
  <path
     style="opacity:1;fill:#1a1a1a;fill-opacity:1;stroke:#000000;stroke-width:1.03409147;stroke-miterlimit:4;stroke-dasharray:none;stroke-opacity:0"
     d="M 82.310547,0.40429688 A 81.982956,81.982956 0 0 0 0.32812499,82.386719 81.982956,81.982956 0 0 0 82.310547,164.37109 81.982956,81.982956 0 0 0 164.29492,82.386719 81.982956,81.982956 0 0 0 82.310547,0.40429688 Z M 100.46094,37.810547 c 0.74891,0.0047 1.54053,0.0247 2.41015,0.05469 5.09034,0.175523 7.96237,0.689793 12.78125,2.283204 7.95004,2.62874 15.80415,7.705388 20.89844,13.509765 2.36757,2.697577 3.86322,4.883304 3.53906,5.173828 -0.22981,0.205965 -3.89674,1.390597 -5.39257,1.742188 -0.54874,0.128983 -0.68528,0.278012 -0.54883,0.595703 0.10004,0.23278 0.2295,1.066431 0.28906,1.853516 0.0848,1.120991 -0.006,1.614938 -0.42188,2.277343 -0.57624,0.917811 -1.53643,1.134774 -2.08593,0.472657 -0.46977,-0.566029 -0.24449,-2.336225 0.31054,-2.441407 0.3536,-0.06701 0.45508,0.09386 0.45508,0.714844 0,0.849927 0.35986,1.0726 0.62305,0.386719 0.27399,-0.714009 0.17226,-1.812003 -0.2168,-2.335938 -0.53093,-0.714984 -1.14117,-0.273392 -2.04297,1.478516 -1.15341,2.240653 -1.15944,6.241698 -0.01,7.390625 0.34795,0.347952 0.47868,0.360619 0.7539,0.07617 0.59114,-0.611002 0.58787,-2.100227 -0.004,-1.873047 -0.6032,0.231465 -0.96174,-0.122476 -0.67188,-0.664063 0.33226,-0.620835 1.17455,-0.824459 1.73047,-0.417968 0.99868,0.730253 0.2666,3.911746 -0.97461,4.236328 -0.38604,0.100959 -0.45505,0.259447 -0.30078,0.685547 0.31732,0.876427 0.16459,2.456583 -0.30664,3.175781 -0.59815,0.912894 -1.69623,0.783285 -2.03516,-0.240235 -0.33347,-1.007023 0.12622,-1.48126 0.82422,-0.849609 0.48065,0.434982 0.51108,0.433759 0.66797,-0.06055 0.38236,-1.20469 -0.5077,-2.51628 -1.16797,-1.720703 -0.16978,0.204576 -0.40447,0.312543 -0.52148,0.240235 -0.11698,-0.07231 -0.29879,0.0063 -0.40235,0.173828 -0.11763,0.190258 -0.0744,0.235095 0.11329,0.11914 0.49827,-0.307944 0.3402,0.209541 -0.34961,1.144532 -0.35777,0.484924 -0.65039,1.022074 -0.65039,1.191406 0,0.169335 -0.17443,0.450769 -0.38672,0.626953 -1.4445,1.198836 -9.50196,17.961048 -9.50196,19.767578 0,0.2749 -0.11464,0.572896 -0.25585,0.660156 -0.14119,0.0872 -0.6242,1.337097 -1.07227,2.779299 -0.74289,2.39112 -0.78555,2.71232 -0.48242,3.63086 0.35567,1.07763 0.61931,1.25692 0.87304,0.5957 0.27518,-0.71713 0.17134,-1.42123 -0.23242,-1.57617 -0.21468,-0.0824 -0.39062,-0.31765 -0.39062,-0.52149 0,-0.5938 0.75525,-0.71738 1.31054,-0.21484 1.09378,0.98987 0.30051,3.76367 -1.07617,3.76367 -0.60051,0 -0.7317,0.15071 -0.97656,1.12305 -0.35811,1.42218 -1.08496,2.12075 -1.97852,1.89648 -0.60726,-0.15241 -0.66211,-0.28354 -0.6621,-1.59375 0,-1.25264 0.0645,-1.42578 0.52148,-1.42578 0.39867,0 0.51596,0.16864 0.50195,0.7168 -0.0161,0.63405 -0.0441,0.65644 -0.24219,0.19531 -0.12297,-0.2862 -0.23211,-0.38398 -0.24218,-0.2168 -0.009,0.16717 -0.0903,0.49086 -0.17774,0.71876 -0.12258,0.31944 -0.0187,0.3923 0.45313,0.32031 0.91862,-0.1402 1.18662,-1.36662 0.57617,-2.63867 -0.26371,-0.54957 -0.68273,-1.12496 -0.93164,-1.2793 -1.68875,-1.04712 -4.46876,4.72203 -3.31445,6.8789 l 0.32421,0.60743 0.48633,-0.59766 c 0.6752,-0.83384 0.6453,-1.8418 -0.0547,-1.8418 -0.92663,0 -0.50421,-0.89809 0.46679,-0.99218 0.71332,-0.0691 0.8599,0.0181 1.00586,0.59961 0.4206,1.67579 -0.48655,3.54916 -1.76367,3.64257 -0.59247,0.0434 -0.60247,0.0951 -0.67383,3.60157 l -0.0723,3.55468 -0.90235,0 -0.90429,0 0,-25.628902 0,-25.628907 -25.992192,0 c -21.881229,0 -26.012701,0.05851 -26.128906,0.361328 -0.212595,0.554029 0.342849,2.421235 0.859375,2.888672 0.423942,0.383673 0.495978,0.382987 0.882812,-0.0039 0.231662,-0.231668 0.421875,-0.765678 0.421875,-1.1875 0,-0.688156 -0.06675,-0.750003 -0.65039,-0.603516 -0.713913,0.17918 -0.903543,-0.317143 -0.337891,-0.882812 0.452334,-0.452336 1.684505,-0.386639 1.871094,0.09961 0.47462,1.236814 -0.194975,3.582118 -1.105469,3.871094 -0.46324,0.147029 -0.51291,0.322514 -0.390625,1.390625 0.150343,1.313014 -0.255901,2.7899 -0.693359,2.519531 -0.146929,-0.09079 -0.23464,-0.0098 -0.195313,0.179688 0.04171,0.201113 -0.207798,0.376499 -0.597656,0.421875 -0.513004,0.0597 -0.741466,-0.08527 -0.988281,-0.626953 -0.270157,-0.592925 -0.254294,-0.771777 0.09766,-1.119141 0.382588,-0.377623 0.440754,-0.372306 0.679688,0.04883 0.143821,0.253446 0.37153,0.391601 0.505859,0.308594 0.402764,-0.248925 0.276303,-1.851372 -0.175781,-2.226563 -0.360801,-0.29945 -0.494422,-0.258453 -0.945313,0.292969 -0.288723,0.353124 -0.65646,0.604341 -0.816406,0.556641 -0.159973,-0.0477 -0.207742,-0.0028 -0.105469,0.09961 0.22514,0.225146 -0.265465,1.219267 -0.523437,1.060547 -0.100159,-0.06162 -0.208623,0.255882 -0.240235,0.707031 -0.03161,0.451151 -0.277524,1.002072 -0.546875,1.222657 -0.269379,0.220578 -0.629485,0.662351 -0.800781,0.982421 -0.171297,0.32007 -0.422346,0.514633 -0.556641,0.431641 -0.13792,-0.08523 -0.169047,0.04269 -0.07227,0.294922 0.125382,0.326912 0.07854,0.390315 -0.173828,0.234375 -0.21663,-0.133865 -0.281582,-0.112543 -0.175782,0.05859 0.09257,0.149778 -0.377072,1.251204 -1.042968,2.447265 -1.547222,2.779109 -4.683553,9.345846 -5.796875,12.136719 -0.473168,1.186164 -0.905824,2.111756 -0.960938,2.056641 -0.05509,-0.05509 0.08362,-0.541765 0.308594,-1.080078 0.224926,-0.538314 0.367353,-1.021346 0.314453,-1.074219 -0.05282,-0.05295 -0.339618,0.480375 -0.636719,1.183593 -0.464326,1.099064 -0.486806,1.299395 -0.152343,1.427735 0.341771,0.13112 0.344113,0.218589 0.01172,0.730469 -0.344626,0.53098 -1.562522,4.010304 -1.84375,5.267574 -0.112577,0.50302 -0.117273,0.50233 -0.146484,-0.0195 -0.01667,-0.29692 0.263496,-1.40571 0.623047,-2.462888 0.359579,-1.05717 0.619861,-2.023208 0.578125,-2.148438 -0.111243,-0.33353 -1.421182,3.671996 -1.59961,4.890626 -0.08377,0.57242 -0.08185,0.88764 0.0039,0.70117 0.198276,-0.42879 0.864548,0.37243 0.876953,1.05469 0.01201,0.64705 0.502794,0.56536 0.771484,-0.12891 0.153646,-0.39704 0.108904,-0.77127 -0.138672,-1.16211 -0.836815,-1.32106 -0.135278,-1.86446 0.935547,-0.72461 0.42331,0.45057 0.496933,0.65003 0.240235,0.65039 -0.245867,2.5e-4 -0.387202,0.3296 -0.419922,0.97657 -0.03801,0.75202 0.0036,0.85638 0.177734,0.45507 0.156567,-0.3602 0.231482,-0.39812 0.244141,-0.12304 0.03428,0.74609 -0.761042,1.55273 -1.529297,1.55273 -0.635978,0 -0.758966,0.12508 -0.90625,0.91016 -0.0939,0.50031 -0.438739,1.21961 -0.765625,1.59961 -0.473555,0.55057 -0.735169,0.6566 -1.289063,0.51758 -0.647515,-0.16251 -0.695312,-0.273 -0.695312,-1.60157 0,-1.25264 0.06446,-1.42578 0.521484,-1.42578 0.37229,0 0.512732,0.16712 0.498047,0.58594 -0.01201,0.32198 -0.07824,0.43865 -0.150391,0.25977 -0.231889,-0.57472 -0.497427,-0.34694 -0.455078,0.39062 0.04548,0.79278 0.532485,0.84355 1.09961,0.11524 0.767749,-0.986 -0.360276,-3.69336 -1.539063,-3.69336 -0.250256,0 -0.835708,0.3806 -1.300781,0.8457 -0.465099,0.4651 -0.961341,0.8457 -1.103516,0.8457 -0.142188,0 -0.306624,0.17597 -0.365234,0.39063 -0.0947,0.34692 -0.07547,0.34692 0.169922,0 0.364714,-0.51572 0.350455,-0.36939 -0.109375,1.14648 -0.78821,2.59827 -0.259908,5.20773 0.759765,3.75195 0.575621,-0.82184 0.542351,-1.77539 -0.0625,-1.77539 -0.660961,0 -0.874982,-0.27721 -0.53125,-0.6914 0.359832,-0.43357 1.319301,-0.45419 1.736328,-0.0371 0.171746,0.17172 0.296192,0.72634 0.277344,1.23437 l -0.0332,0.92383 -0.193359,-0.91016 -0.191406,-0.91015 -0.0332,0.86328 c -0.01894,0.47451 -0.157589,1.11712 -0.308593,1.42969 -0.265223,0.549 -0.261951,0.55241 0.128906,0.0645 0.222565,-0.27779 0.404297,-0.36055 0.404297,-0.18359 0,0.58549 -1.298424,1.66009 -1.835938,1.51953 -0.482919,-0.12632 -0.505859,0.031 -0.505859,3.48633 l 0,3.61718 -1.039063,0 -1.041015,0 0,-25.904293 -0.002,0 c 0,-17.20343 -0.08694,-25.848982 -0.259766,-25.742188 -0.703083,0.434538 -0.0947,-0.794186 1.361328,-2.75 4.00214,-5.375931 10.511845,-10.66798 16.820313,-13.675781 2.947909,-1.405519 5.48923,-2.326976 9.636718,-3.492187 4.501683,-1.264728 12.059403,-3.394803 17.845703,-5.029297 13.596667,-3.840717 16.77323,-4.593131 22.015628,-4.560547 z m -0.88282,0.759765 c -8.297817,0.1806 -16.598004,2.604457 -23.865229,7.435547 -2.684441,1.784562 -6.028822,4.586294 -7.845703,6.572266 -1.618635,1.769278 -4.127543,5.064673 -4.107422,5.394531 0.008,0.13037 0.26992,-0.104517 0.583984,-0.523437 0.314035,-0.418917 1.228014,-1.532065 2.029297,-2.472657 0.80131,-0.940587 2.264415,-2.491488 3.251953,-3.447265 5.98585,-5.793405 13.563601,-9.69244 22.263672,-11.455078 2.580724,-0.522853 3.696514,-0.596451 8.933598,-0.587891 5.22101,0.0085 6.33329,0.08455 8.71679,0.59961 7.87836,1.702466 15.01936,5.203187 20.74219,10.167968 2.11675,1.83636 5.34495,5.349735 6.41406,6.978516 0.50357,0.767161 1.20508,1.143018 1.20508,0.646484 0,-0.111149 -0.73936,-1.136319 -1.64258,-2.277344 -9.02554,-11.401907 -22.84998,-17.332249 -36.67969,-17.03125 z m -2.792964,1.34375 c -0.19935,0 -0.592329,0.07043 -1.037109,0.212891 -0.52291,0.167467 -0.547246,0.210647 -0.128906,0.216797 0.28623,0.0043 0.752872,-0.09381 1.039062,-0.216797 0.331517,-0.142456 0.326307,-0.212891 0.126953,-0.212891 z m 6.468754,0.138672 c -0.56575,-0.0077 -0.58803,0.07728 -0.36329,0.333985 0.18796,0.21466 0.42853,0.676648 0.53516,1.02539 0.18806,0.615209 0.20439,0.617898 0.5586,0.128907 0.20077,-0.277186 0.61878,-0.696021 0.92773,-0.931641 0.54479,-0.415497 0.51786,-0.43033 -0.90039,-0.519531 -0.3206,-0.02016 -0.56923,-0.03456 -0.75781,-0.03711 z m -3.08789,0.595704 c -1.09731,0 -1.73882,0.561639 -1.94922,1.707031 -0.18318,0.997297 0.02605,1.254665 1.43359,1.746093 1.76957,0.617771 2.31107,0.564704 2.62305,-0.255859 0.58109,-1.528402 -0.51899,-3.197265 -2.10742,-3.197265 z m -7.744145,0.01758 c -0.101126,-0.003 -0.2524,0.07562 -0.384766,0.208984 -0.255058,0.256969 -0.226288,0.287685 0.144532,0.146484 0.256614,-0.09772 0.400411,-0.244108 0.320312,-0.324218 -0.02003,-0.02003 -0.04637,-0.03026 -0.08008,-0.03125 z m 4.869145,0.05273 c -0.09985,0.009 -0.22241,0.03816 -0.3418,0.08398 -0.346511,0.132957 -0.370345,0.242622 -0.121095,0.542969 0.270435,0.325845 0.344235,0.318269 0.550785,-0.05078 0.13119,-0.234435 0.18525,-0.478784 0.12109,-0.542969 -0.0321,-0.03209 -0.10914,-0.04225 -0.20898,-0.0332 z m 11.72656,0.189453 c -0.0134,0.01343 0.0667,0.117877 0.22851,0.324219 0.33991,0.433416 0.55274,0.571571 0.55274,0.357422 0,-0.05403 -0.20465,-0.258674 -0.45508,-0.455078 -0.20634,-0.161824 -0.31274,-0.239993 -0.32617,-0.226563 z m -2.34375,0.259766 c -1.007,0 -2.33985,1.227746 -2.33985,2.15625 0,0.901294 0.94695,2.007812 1.71875,2.007812 0.89651,0 1.066,-0.683266 0.35743,-1.4375 -0.49035,-0.521968 -0.53357,-0.697461 -0.25977,-1.027343 0.47825,-0.576271 0.93612,-0.49181 1.54883,0.287109 0.67329,0.855975 0.68458,1.678129 0.0371,2.472656 l -0.5,0.615235 1.3457,0.294921 c 1.74788,0.384373 1.74303,0.384459 2.59375,0.01758 l 0.72656,-0.3125 -1.11718,-1.576172 c -2.22084,-3.131705 -2.65073,-3.498047 -4.11133,-3.498047 z m 3.57617,0 c -0.12085,0 0.50265,1.053842 1.38477,2.341797 1.62352,2.370368 1.73618,2.458326 2.7832,2.177734 0.42574,-0.114098 0.58398,-0.350939 0.58398,-0.867188 0,-0.390447 0.23776,-0.923466 0.52735,-1.185546 0.28961,-0.262078 0.43493,-0.563115 0.32422,-0.667969 -0.20519,-0.194324 -5.20339,-1.798828 -5.60352,-1.798828 z m -19.525391,0.09375 c -0.05093,-0.05095 -1.342907,0.258395 -2.871093,0.6875 -1.528184,0.429106 -2.981544,0.781011 -3.230469,0.783203 -0.36599,0.0032 -0.382327,0.0487 -0.08594,0.236328 0.463768,0.293586 1.232253,0.194517 3.628907,-0.470703 1.7387,-0.482594 2.799524,-0.995414 2.558593,-1.236328 z m 4.011719,0.167969 c -0.08781,5.56e-4 -0.919409,0.225285 -1.849609,0.5 -1.799979,0.531593 -1.803231,0.528916 0.779297,0.671874 0.357775,0.01978 0.826365,0.106278 1.041015,0.191407 1.208762,0.479361 1.5625,0.532547 1.5625,0.232422 0,-0.2554 -1.289529,-1.597255 -1.533203,-1.595703 z M 91.230469,41.6875 c -0.07155,0 -0.379838,0.35193 -0.685547,0.78125 -0.305709,0.429317 -0.497329,0.78125 -0.425781,0.78125 0.07155,0 0.379837,-0.351933 0.685547,-0.78125 0.30571,-0.42932 0.49733,-0.78125 0.425781,-0.78125 z m 5.36914,0.289062 c -0.02194,0.02194 0.0056,0.12318 0.07617,0.308594 0.0977,0.256607 0.244119,0.400423 0.324219,0.320313 0.0801,-0.08011 9e-5,-0.290299 -0.177734,-0.466797 -0.12849,-0.12753 -0.200718,-0.184052 -0.222657,-0.16211 z m -14.892578,0.03516 c -0.257806,0.01311 -0.784023,0.119134 -1.355469,0.28125 -0.761899,0.216152 -5.424159,1.524575 -10.361328,2.90625 -14.990658,4.195172 -16.78941,4.822909 -21.597656,7.541015 -5.584175,3.156732 -12.030731,8.965149 -14.943359,13.464844 l -0.458985,0.708984 1.261719,-0.36914 c 0.693907,-0.203186 5.945679,-1.659055 11.669922,-3.236328 15.918671,-4.386271 16.900309,-4.675505 17,-4.97461 0.0511,-0.153281 0.804149,-1.238189 1.671875,-2.412109 3.354198,-4.537776 8.113941,-8.746811 13.207031,-11.679687 1.642808,-0.946031 3.259028,-1.801315 3.591797,-1.900391 0.332768,-0.09908 0.546352,-0.238823 0.47461,-0.310547 -0.01793,-0.01793 -0.07422,-0.0239 -0.160157,-0.01953 z m 22.179689,0.55664 c -0.0273,0.02736 -0.0465,0.117976 -0.0527,0.269532 -0.0113,0.274287 0.0503,0.42826 0.13672,0.341797 0.0864,-0.08646 0.0967,-0.312174 0.0215,-0.5 -0.0415,-0.103783 -0.0781,-0.138685 -0.10547,-0.111329 z m -14.414064,0.351563 c -0.115116,-0.01823 -0.293033,-0.01532 -0.503906,0.01563 -0.421777,0.0619 -0.765625,0.15758 -0.765625,0.212891 0,0.198259 1.273426,0.09727 1.402344,-0.111329 0.03622,-0.05861 -0.0177,-0.09896 -0.132813,-0.117187 z m 2.539063,0.07031 c -1.389776,0 -1.852788,0.438425 -0.626953,0.59375 1.221227,0.154741 1.574731,0.09848 1.697265,-0.269531 0.07599,-0.228224 -0.244273,-0.324219 -1.070312,-0.324219 z m 2.126953,0 c -0.07157,0 -0.342535,0.233321 -0.601563,0.519532 -0.258998,0.286212 -0.413346,0.519531 -0.341797,0.519531 0.07157,0 0.342564,-0.233319 0.601563,-0.519531 0.259028,-0.286211 0.413346,-0.519532 0.341797,-0.519532 z M 84.300781,43.25 c -0.01343,0.01343 0.06474,0.117878 0.226563,0.324219 0.339902,0.433416 0.552731,0.571574 0.552734,0.357422 0,-0.05403 -0.204655,-0.258674 -0.455078,-0.455079 C 84.41865,43.31474 84.314211,43.23657 84.300781,43.25 Z m 5.628907,0.259766 c -0.07155,0 -0.379837,0.351931 -0.685547,0.78125 -0.305709,0.429317 -0.497332,0.779296 -0.425782,0.779296 0.07155,0 0.379839,-0.349979 0.685547,-0.779296 0.30571,-0.429319 0.497332,-0.78125 0.425782,-0.78125 z m 4.554687,0.05078 c -0.179243,0.02639 -0.296875,0.08247 -0.296875,0.175781 0,0.225819 0.501082,0.372204 1.777344,0.515625 0.19081,0.02146 0.298994,-0.108228 0.240234,-0.287109 -0.09553,-0.290736 -1.182974,-0.483479 -1.720703,-0.404297 z m 24.316405,0.04687 c -0.0344,0.04064 0.0538,0.239951 0.23828,0.521484 0.5208,0.794855 0.78993,0.914566 0.39453,0.175782 -0.14889,-0.278244 -0.39947,-0.584499 -0.55664,-0.681641 -0.0393,-0.02428 -0.0647,-0.02917 -0.0762,-0.01563 z m -36.58203,0.162109 c -0.01343,-0.01343 -0.119821,0.06474 -0.326172,0.226563 -0.433406,0.339907 -0.571571,0.554687 -0.357422,0.554687 0.05401,0 0.260615,-0.204645 0.457032,-0.455078 0.161819,-0.206339 0.239992,-0.312741 0.226562,-0.326172 z m 37.58984,0.183594 c -0.0793,-0.0149 -0.12304,-0.0094 -0.12304,0.01953 0,0.115565 0.61586,0.519783 1.36718,0.898438 1.382,0.696525 1.75586,0.823039 1.75586,0.59375 0,-0.06949 -0.7019,-0.480625 -1.56054,-0.914063 -0.64398,-0.325078 -1.20162,-0.552948 -1.43946,-0.597656 z m -32.630856,0.07617 c -1.554911,0 -1.576172,0.01052 -1.576172,0.732422 0,0.744646 -1.152571,2.130859 -1.771484,2.130859 -0.441675,0 -0.38511,-0.914699 0.08008,-1.300781 0.214678,-0.178153 0.390625,-0.494618 0.390625,-0.703125 0,-0.291488 -0.195513,-0.33686 -0.845703,-0.197266 -1.053899,0.226267 -1.757812,0.584213 -1.757812,0.896485 0,0.13133 0.129046,0.518708 0.285156,0.861328 0.216452,0.475055 0.664603,0.719646 1.886719,1.02539 0.881435,0.22051 1.689551,0.413661 1.796875,0.429688 0.107321,0.01602 0.411625,-0.186996 0.675781,-0.451172 0.425162,-0.425161 1.701161,-2.2037 2.222656,-3.097656 0.143099,-0.245281 -0.197769,-0.326172 -1.386719,-0.326172 z m 30.169926,0 c -0.60622,-0.07752 -1.04493,0.114872 -1.04493,0.521484 0,0.614349 0.18207,0.637536 1.29883,0.167969 0.66441,-0.27936 0.74636,-0.386018 0.39844,-0.519531 -0.22925,-0.08797 -0.45027,-0.144082 -0.65234,-0.169922 z m 6.42187,0.0039 c -0.1862,0.0025 -0.15442,0.106258 0.0801,0.257813 0.49987,0.323035 0.59026,0.323035 0.39062,0 -0.0884,-0.143109 -0.30027,-0.260006 -0.4707,-0.257813 z m -25.67969,0.257813 c -0.01343,0.01343 0.06478,0.117877 0.22657,0.324218 0.33991,0.433416 0.55468,0.571574 0.55468,0.357422 0,-0.05403 -0.20464,-0.258674 -0.45507,-0.455078 -0.20635,-0.161823 -0.31274,-0.239993 -0.32618,-0.226562 z m -7.544918,0.0078 c -0.512115,0.0013 -0.885896,0.360292 -1.757813,1.6875 -0.609114,0.92721 -1.049371,1.685547 -0.978515,1.685547 0.07088,0 0.978472,-0.222767 2.017578,-0.496094 1.039105,-0.273332 2.197988,-0.565618 2.574219,-0.648437 0.682829,-0.150303 0.682874,-0.15096 0.259765,-1.042969 -0.429131,-0.904685 -0.93536,-1.188924 -2.115234,-1.185547 z m -9.798828,0.0098 c -0.183478,0.03667 -0.506661,0.174182 -0.869141,0.392578 l -0.650391,0.390625 0.650391,-0.169922 c 0.357776,-0.09361 0.760519,-0.273371 0.896485,-0.400391 0.198717,-0.185665 0.156133,-0.249561 -0.02734,-0.21289 z M 99.06445,44.4375 c -0.09746,0.01467 -0.0535,0.09881 0.08008,0.259766 0.17093,0.20597 0.66594,0.373047 1.10156,0.373046 0.43566,0 0.74322,-0.04498 0.6836,-0.101562 -0.0597,-0.05658 -0.55462,-0.225612 -1.10157,-0.375 -0.42742,-0.116738 -0.66621,-0.170916 -0.76367,-0.15625 z m 4.04102,0.236328 c -0.0359,-0.0022 -0.0709,0.0052 -0.10352,0.02539 -0.27285,0.168623 -0.0538,0.632812 0.29883,0.632812 0.13017,0 0.16991,-0.176787 0.0879,-0.390625 -0.0616,-0.160377 -0.17544,-0.26091 -0.2832,-0.267578 z m -10.089845,0.0059 0.496094,0.585937 c 0.465794,0.550167 0.675781,0.704315 0.675781,0.496094 0,-0.04938 -0.263936,-0.313323 -0.585938,-0.585938 l -0.585937,-0.496093 z m 3.773437,0.130859 c -0.01342,-0.01343 -0.117893,0.06474 -0.324218,0.226562 -0.25042,0.196403 -0.457031,0.401047 -0.457032,0.455079 0,0.214148 0.214788,0.07794 0.554688,-0.355469 0.16182,-0.206339 0.239986,-0.312742 0.226562,-0.326172 z m -2.554687,0.02734 c -0.193833,0 -0.273721,0.07711 -0.177734,0.232421 0.08845,0.143105 0.476215,0.252247 0.861328,0.242188 0.62519,-0.01631 0.644377,-0.04251 0.179687,-0.242188 -0.361424,-0.155315 -0.669448,-0.232421 -0.863281,-0.232421 z m 21.417965,0.103515 0.4961,0.583985 c 0.4658,0.550165 0.67578,0.704313 0.67578,0.496093 0,-0.04938 -0.26394,-0.313322 -0.58594,-0.585937 l -0.58594,-0.494141 z m 5.10547,0.128906 c -0.14309,0 -0.33343,0.118612 -0.42187,0.261719 -0.0884,0.143106 -0.0436,0.259766 0.0996,0.259766 0.1431,0 0.33342,-0.116657 0.42187,-0.259766 0.0884,-0.143107 0.0436,-0.261719 -0.0996,-0.261719 z m 4.65039,0.03125 c 0.003,0.07668 0.77669,0.668739 2.08399,1.583985 4.04254,2.830217 9.84713,8.860631 10.96875,11.394531 0.3788,0.855772 0.43271,0.884194 0.98437,0.535156 0.64509,-0.40814 -2.9911,-4.796665 -6.9375,-8.373046 -1.48425,-1.345084 -5.5788,-4.361075 -6.83789,-5.03711 -0.17837,-0.09577 -0.26285,-0.129074 -0.26172,-0.103516 z m -6.89258,0.01367 c -0.28619,0.0043 -0.81411,0.102226 -1.17187,0.216797 l -0.65039,0.207031 0.65039,0.0078 c 0.35776,0.0043 0.88567,-0.09381 1.17187,-0.216797 l 0,0.002 c 0.5204,-0.223615 0.5204,-0.224442 0,-0.216797 z m -16.00976,0.353516 c -0.1434,-0.03314 -0.30661,-0.001 -0.38086,0.119141 -0.0899,0.14544 0.0191,0.263672 0.24219,0.263671 0.22311,0 0.40625,-0.05213 0.40625,-0.115234 0,-0.137313 -0.12418,-0.234443 -0.26758,-0.267578 z m -5.62109,0.04492 c -0.117436,0.0154 -0.206914,0.04764 -0.240239,0.101562 -0.0802,0.129676 0.153312,0.236329 0.519529,0.236328 0.36621,0 0.66602,-0.04475 0.66602,-0.09961 0,-0.173236 -0.59302,-0.284495 -0.94531,-0.238281 z m -18.308598,0.36914 c -0.165059,0 -0.329866,0.0161 -0.455078,0.04883 -0.250451,0.06544 -0.04579,0.11914 0.455078,0.11914 0.500876,0 0.705527,-0.0537 0.455078,-0.11914 -0.125213,-0.03272 -0.290019,-0.04883 -0.455078,-0.04883 z m 43.710938,0 c -0.16506,0 -0.32985,0.0161 -0.45508,0.04883 -0.25043,0.06544 -0.0458,0.11914 0.45508,0.11914 0.50088,0 0.70746,-0.0537 0.45703,-0.11914 -0.12522,-0.03272 -0.29197,-0.04883 -0.45703,-0.04883 z m -3.77149,0.0059 c -0.28619,0 -0.75478,0.09967 -1.04101,0.222656 -0.52039,0.223617 -0.52039,0.22461 0,0.22461 0.28623,0 0.75481,-0.101618 1.04101,-0.22461 0.5204,-0.223615 0.5204,-0.222656 0,-0.222656 z m -3.1289,0.07813 c -0.21628,0.0029 -0.56987,0.08901 -0.93945,0.257812 l -0.875,0.400391 0.91015,-0.15625 c 0.50088,-0.08642 0.95988,-0.202976 1.01953,-0.257812 0.18083,-0.166297 0.10105,-0.247005 -0.11523,-0.244141 z m -38.056642,0.164062 c -0.101126,-0.003 -0.252401,0.07562 -0.384766,0.208985 -0.25506,0.256971 -0.226288,0.285732 0.144532,0.144531 0.256612,-0.09772 0.402362,-0.242157 0.322265,-0.322266 -0.02003,-0.02003 -0.04832,-0.03026 -0.08203,-0.03125 z m 23.910152,0.08203 c -8.275022,-0.136123 -16.584621,2.159123 -22.974605,6.847656 -1.778721,1.305105 -5.154297,4.450272 -5.154297,4.802734 0,0.434833 0.351535,0.184281 2.304688,-1.646484 5.020042,-4.705512 11.744656,-7.810368 19.324218,-8.919922 11.520676,-1.686485 23.514936,1.789609 30.957036,8.970703 1.04033,1.00383 2.01553,1.774559 2.16796,1.714844 0.46957,-0.183957 -3.79297,-4.144313 -6.14453,-5.708984 -5.90366,-3.928161 -13.17897,-5.940439 -20.48047,-6.060547 z m 22.73829,0.0293 0.49609,0.585937 c 0.4658,0.550166 0.67578,0.702363 0.67578,0.494141 0,-0.04938 -0.26395,-0.311369 -0.58594,-0.583985 l -0.58593,-0.496093 z m -8.32618,0.425781 c -0.28619,0 -0.75284,0.101617 -1.03906,0.224609 -0.52038,0.223615 -0.52038,0.222656 0,0.222656 0.28622,0 0.75287,-0.09967 1.03906,-0.222656 0.52039,-0.223617 0.52039,-0.224609 0,-0.224609 z m 2.79102,0.105469 c -0.71505,0.04525 -3.21258,0.616771 -3.43359,0.816406 -0.24748,0.223554 0.66729,0.595741 1.47461,0.599609 0.50817,0.0025 1.11421,-0.240813 1.56054,-0.625 0.40154,-0.345587 0.66465,-0.694485 0.58399,-0.775391 -0.0176,-0.01764 -0.0834,-0.02209 -0.18555,-0.01562 z m -40.281251,0.01172 c -0.252213,-0.01627 -0.474802,-0.0081 -0.632812,0.0332 -0.827704,0.216447 -0.593628,0.553752 0.460937,0.664063 2.080209,0.217595 2.520997,0.200672 2.230469,-0.08984 -0.285982,-0.285993 -1.301953,-0.558623 -2.058594,-0.607422 z m 43.935551,0.0332 c -1.40398,0.01789 -2.7147,1.066953 -2.13868,2.582032 0.32941,0.866404 0.67706,1.125448 1.51368,1.130859 0.49648,0.0032 0.58444,-0.09802 0.45507,-0.517578 -0.0883,-0.286213 -0.22942,-0.74362 -0.31445,-1.017578 -0.10564,-0.340454 0.0146,-0.589104 0.38086,-0.785156 0.46466,-0.24868 0.58943,-0.182987 0.93555,0.486328 0.57694,1.115688 0.49462,1.774041 -0.31641,2.533203 -0.67825,0.634861 -0.69027,0.684648 -0.22851,0.96289 0.26793,0.161444 1.08652,0.782595 1.81835,1.38086 0.73181,0.598269 1.37233,1.045635 1.42383,0.99414 0.0515,-0.0515 -0.10457,-1.359688 -0.3457,-2.908203 -0.2556,-1.641512 -0.64743,-3.159066 -0.94141,-3.638672 -0.52298,-0.853211 -1.3998,-1.213857 -2.24218,-1.203125 z m -34.455082,0.07422 c -0.07155,0 -0.404134,0.292625 -0.740234,0.650391 -0.3361,0.357764 -0.553972,0.65039 -0.482422,0.65039 0.07155,0 0.406087,-0.292626 0.742187,-0.65039 0.336099,-0.357766 0.55202,-0.650391 0.480469,-0.650391 z m 24.238282,0.0332 c -0.1179,0 -0.23672,0.0186 -0.32617,0.05469 -0.17887,0.07219 -0.0316,0.130859 0.32617,0.130859 0.35778,0 0.50309,-0.05867 0.32422,-0.130859 -0.0895,-0.03608 -0.20632,-0.05469 -0.32422,-0.05469 z m -30.312501,0.0957 0.63086,0.716797 c 0.589577,0.668772 0.798828,0.834922 0.798828,0.63086 0,-0.0466 -0.321321,-0.369862 -0.714844,-0.716797 l -0.714844,-0.63086 z m 43.949221,0.197266 c -0.0662,0.06618 0.90627,0.943107 2.16211,1.949219 1.25583,1.006113 2.56713,2.136184 2.91406,2.509765 0.34693,0.373581 0.81552,0.673467 1.04102,0.667969 0.24746,-0.006 -0.10542,-0.472989 -0.89063,-1.177734 -1.8026,-1.617818 -5.08094,-4.094835 -5.22656,-3.949219 z m -44.207033,0.01953 c -0.02264,-0.0056 -0.0435,-0.0014 -0.06055,0.01563 -0.06823,0.0682 -0.04745,0.249715 0.04687,0.402344 0.256557,0.415126 0.4064,0.333486 0.230469,-0.125 -0.06355,-0.165624 -0.148863,-0.276269 -0.216797,-0.292969 z m 32.394533,0.171875 c -0.0219,0.0099 0.0594,0.117529 0.22461,0.328125 0.19641,0.250436 0.47752,0.455078 0.62695,0.455078 0.14946,0 0.22368,-0.03372 0.16406,-0.07422 -0.0596,-0.04049 -0.34269,-0.245137 -0.6289,-0.455079 -0.24068,-0.176541 -0.36478,-0.263799 -0.38672,-0.253906 z m -13.57031,0.0918 c -3.10667,-0.02703 -8.075142,0.588536 -10.726567,1.380859 -0.363103,0.108509 -0.133224,0.290948 0.910156,0.720704 0.768228,0.316427 1.865076,0.826606 2.4375,1.132812 0.572425,0.306208 1.216992,0.559786 1.431641,0.564453 0.214648,0.0047 2.659284,-0.631024 5.43359,-1.412109 2.77431,-0.781083 5.09463,-1.469615 5.15625,-1.53125 0.21343,-0.213423 -1.62229,-0.642251 -3.4375,-0.802734 -0.35559,-0.03144 -0.76127,-0.04887 -1.20507,-0.05273 z m -17.001958,0.253906 c -0.06194,0.01421 -0.01556,0.06958 0.126954,0.166016 0.351364,0.237765 1.540376,0.402907 1.279296,0.177734 -0.05965,-0.05142 -0.459346,-0.171546 -0.888671,-0.267578 -0.285019,-0.06376 -0.455635,-0.09038 -0.517579,-0.07617 z m -8.263671,0.152344 c -0.191574,-0.03654 -1.048708,0.525653 -2.326172,1.548828 -1.733868,1.388756 -3.634537,3.229414 -2.900391,2.808594 0.467541,-0.267988 1.574547,0.255904 2.039063,0.964844 0.371542,0.567065 0.374884,0.737251 0.03906,1.541015 -0.440426,1.054073 -0.882305,1.400888 -1.279297,1.003907 -0.203186,-0.203209 -0.193777,-0.474822 0.03125,-0.96875 0.382032,-0.838476 0.01876,-1.410157 -0.896484,-1.410157 -0.708862,0 -1.148438,0.681587 -1.148438,1.78125 0,1.632364 2.623777,2.755374 4.070313,1.742188 0.761484,-0.533364 1.021976,-1.358075 1.648437,-5.19336 0.302018,-1.848816 0.610101,-3.459234 0.683594,-3.578124 0.09316,-0.150729 0.102921,-0.228054 0.03906,-0.240235 z m 30.654299,0.05469 c -0.10073,0.01254 0.44474,0.385791 1.71484,1.111328 3.47855,1.98709 6.66553,4.320142 9.13867,6.6875 2.21698,2.122114 3.33942,2.956227 2.50586,1.863281 -1.74669,-2.290279 -6.90684,-6.255685 -11.19726,-8.605469 -1.31462,-0.719994 -2.06139,-1.069177 -2.16211,-1.05664 z m -28.849612,0.05078 c -0.36876,-0.02512 -0.613719,0.03774 -0.705078,0.185547 -0.103546,0.167549 -0.382948,1.551817 -0.623047,3.076172 -0.240071,1.524359 -0.506305,3.121698 -0.589844,3.548828 l -0.15039,0.777343 1.009765,-0.912109 c 0.555385,-0.500736 1.565308,-1.308295 2.244141,-1.794922 l 1.232422,-0.884765 -0.753906,-0.458985 c -0.975467,-0.59322 -1.177044,-1.27745 -0.707032,-2.402343 l 0.376953,-0.90625 -0.923828,-0.173829 c -0.149627,-0.02807 -0.287236,-0.04631 -0.410156,-0.05469 z m 2.837891,0.470703 c -0.322547,0.03088 -0.471134,0.258103 -0.689453,0.785156 -0.300685,0.725951 -0.286198,0.853536 0.146484,1.169922 0.643113,0.470257 0.811961,0.451709 1.427734,-0.164062 0.696707,-0.6967 0.667302,-1.462104 -0.06445,-1.658203 -0.371441,-0.09954 -0.626784,-0.151343 -0.820312,-0.132813 z m 29.023441,0.107422 c -0.0677,0.01869 -0.12694,0.05711 -0.16407,0.117187 -0.0899,0.145438 0.0192,0.265625 0.24219,0.265625 0.22312,0 0.4043,-0.05213 0.4043,-0.115234 0,-0.205971 -0.27933,-0.323636 -0.48242,-0.267578 z m 9.90429,0.15625 c -0.0991,-0.02766 -0.28419,0.07159 -0.65039,0.267578 -0.54977,0.294229 -0.55178,0.305463 -0.0488,0.501953 0.78818,0.307935 0.87626,0.27784 0.83399,-0.283203 -0.0229,-0.30466 -0.0357,-0.458664 -0.13477,-0.486328 z m -39.892575,0.02539 c -0.03843,-0.03385 -0.12643,0.04017 -0.230469,0.201171 -0.138714,0.21466 -0.253906,0.507283 -0.253906,0.650391 0,0.143105 0.115189,0.08381 0.253906,-0.130859 0.138714,-0.21466 0.251953,-0.507286 0.251953,-0.650391 0,-0.03578 -0.0087,-0.05903 -0.02148,-0.07031 z m 47.744145,0.01367 c -0.0731,0.07307 0.0519,1.287279 0.27929,2.697266 0.22744,1.409986 0.47452,2.934511 0.54688,3.388672 0.0824,0.517791 0.48209,1.134392 1.07422,1.654297 0.81252,0.71339 1.08785,0.810986 1.96484,0.693359 0.56059,-0.07519 1.24442,-0.340878 1.51953,-0.589844 1.05052,-0.950697 0.29989,-3.234375 -1.0625,-3.234375 -0.57596,0 -0.70193,0.735521 -0.26562,1.550782 0.18473,0.34516 0.15173,0.563354 -0.125,0.792968 -0.56544,0.469266 -1.11878,0.135169 -1.37696,-0.833984 -0.2774,-1.041334 0.0329,-1.847724 0.88672,-2.304688 0.34196,-0.183008 0.6211,-0.413995 0.6211,-0.513671 0,-0.275672 -3.91036,-3.452917 -4.0625,-3.300782 z m -20.48047,0.01563 c -0.18317,-0.183156 -11.427857,3.021327 -11.753909,3.34961 -0.174295,0.175503 -0.08882,0.212307 0.259765,0.109375 0.286226,-0.0845 2.219872,-0.630289 4.294924,-1.212891 6.03062,-1.693218 7.34207,-2.103239 7.19922,-2.246094 z m 3.90429,0.283204 c -0.0786,-0.01151 -0.13981,-0.0051 -0.17968,0.01953 -0.16471,0.101813 0.74628,0.881667 2.13476,1.828125 2.60983,1.779008 7.3156,5.801194 7.76172,6.634765 0.15051,0.281254 0.52933,0.511719 0.8418,0.511719 0.47669,0 0.31671,-0.254754 -0.98633,-1.589844 -3.07503,-3.150683 -8.39357,-7.231637 -9.57227,-7.404296 z m -27.203121,0.04102 c -0.385001,-0.03888 -0.496191,0.123002 -0.626953,0.623047 -0.166273,0.635765 -0.121071,0.641235 0.93164,0.08789 l 0.833985,-0.439453 -0.652344,-0.169922 c -0.199544,-0.0527 -0.357995,-0.0886 -0.486328,-0.101563 z m 24.228511,0.107422 c -0.34454,0 -12.378766,3.402465 -12.531246,3.542969 -0.329744,0.303878 1.224747,-0.07334 6.597656,-1.59961 5.53199,-1.571454 6.66754,-1.943359 5.93359,-1.943359 z m 19.00391,0.09766 c -0.0273,0.02736 -0.0465,0.119929 -0.0527,0.271485 -0.0107,0.274285 0.0503,0.426304 0.13671,0.339843 0.0864,-0.08646 0.0948,-0.310219 0.0195,-0.498047 -0.0416,-0.103782 -0.0762,-0.140638 -0.10352,-0.113281 z m -37.783202,0.03906 c -0.145047,-0.02132 -0.239811,-0.018 -0.271485,0.01367 -0.156476,0.156465 0.87168,0.725052 2.798828,1.546875 2.790099,1.189818 3.959181,1.409057 2.75,0.515625 -0.82818,-0.611927 -4.26202,-1.926927 -5.277343,-2.076172 z m 23.707032,0.123047 c -0.0716,0 0.68182,0.570924 1.67383,1.267578 2.13336,1.498198 4.33135,3.436854 6.44726,5.6875 l 1.53516,1.630859 2.21875,0 2.21875,0 -0.63086,-0.68164 c -1.77938,-1.925757 -6.16613,-4.956181 -9.05859,-6.257813 -1.38204,-0.621937 -4.12268,-1.646484 -4.4043,-1.646484 z m 2.16406,0.06445 c 0.0657,0.08355 0.85371,0.489479 2.35742,1.207031 3.28535,1.567723 6.16006,3.496749 8.39649,5.636719 1.70087,1.627497 2.125,1.915259 2.125,1.441406 0,-0.294657 -2.30228,-2.382798 -4.03321,-3.658203 -1.98062,-1.459389 -4.73093,-3.021864 -6.86523,-3.900391 -1.38898,-0.571737 -2.04622,-0.810114 -1.98047,-0.726562 z m -6.25391,0.197265 -5.39453,1.496094 c -2.96678,0.822586 -5.394217,1.556339 -5.394528,1.632813 0,0.07647 0.380608,0.362202 0.845708,0.632812 1.03611,0.602853 4.93412,3.614005 5.39062,4.164063 0.28372,0.341866 1.38055,0.398437 7.58594,0.398437 4.01401,0 7.2539,-0.101543 7.2539,-0.228516 0,-0.571224 -5.9844,-5.471336 -8.7207,-7.140624 l -1.56641,-0.955079 z m -20.833979,0.113282 c -0.191086,-0.0028 0.608813,0.399434 2.175781,1.03125 2.8337,1.142553 6.802417,3.436242 9.429688,5.451171 2.46782,1.892647 3.70115,2.372991 1.50977,0.587891 -2.9462,-2.399938 -7.779266,-5.134443 -11.652349,-6.591797 -0.876413,-0.329775 -1.348239,-0.476839 -1.46289,-0.478515 z M 81.4375,50.013672 c -0.01343,-0.01343 -0.117868,0.06669 -0.324219,0.228516 -0.250423,0.196404 -0.457031,0.401046 -0.457031,0.455078 0,0.214149 0.214784,0.07599 0.554688,-0.357422 0.161819,-0.20634 0.239992,-0.312742 0.226562,-0.326172 z m 4.207031,0.02148 -2.501953,1.273438 c -2.958677,1.506356 -5.115373,3.00567 -7.429687,5.167968 l -1.691407,1.580079 12.980469,0.01172 12.980467,0.01172 -1.01172,-0.816406 C 96.177983,55.007513 90.892825,52.010414 87.357422,50.679688 l -1.712891,-0.644532 z m 37.164059,0.240235 c -0.0134,-0.01343 -0.1198,0.06474 -0.32617,0.226562 -0.25043,0.196404 -0.45508,0.401047 -0.45508,0.455078 0,0.214149 0.21478,0.07599 0.55469,-0.357422 0.16183,-0.206338 0.24,-0.310788 0.22656,-0.324218 z m -48.062496,1.398437 c -0.02736,0.02736 -0.04649,0.119929 -0.05273,0.271484 -0.01134,0.274286 0.05027,0.426305 0.136719,0.339844 0.08645,-0.08646 0.09468,-0.310218 0.01953,-0.498047 -0.04153,-0.103782 -0.07616,-0.140638 -0.103515,-0.113281 z m -4.304688,0.94336 c -0.136772,0 0.02742,0.230265 0.365235,0.511718 0.795122,0.662392 0.948559,0.66527 0.353515,0.0078 -0.258999,-0.286211 -0.581951,-0.519531 -0.71875,-0.519531 z m -0.734375,0.03125 c -0.09039,-0.0037 -0.19319,0.0132 -0.287109,0.05078 -0.207572,0.08306 -0.144897,0.143767 0.158203,0.15625 0.274292,0.01134 0.426297,-0.05025 0.339844,-0.136719 -0.04322,-0.04323 -0.120546,-0.06659 -0.210938,-0.07031 z m 62.208989,0.228515 c -0.0134,0.01343 0.0648,0.117877 0.22656,0.324219 0.33991,0.433415 0.55273,0.571571 0.55273,0.357422 0,-0.05403 -0.20465,-0.258676 -0.45508,-0.455078 -0.20634,-0.161824 -0.31078,-0.239993 -0.32421,-0.226563 z m -36.261723,0.203125 c -0.04903,8.24e-4 -0.08964,0.0091 -0.119141,0.02734 -0.2217,0.137023 0.160898,0.503978 1.179688,1.132812 0.828586,0.511437 2.324506,1.583258 3.326176,2.382813 1.00166,0.79955 2.0556,1.451615 2.34179,1.447265 0.45436,-0.0069 0.42179,-0.09252 -0.25976,-0.669921 -2.87234,-2.433454 -5.733329,-4.332665 -6.468753,-4.320313 z m 37.611323,0.650391 c -0.0213,0.0024 -0.0312,0.02155 -0.0312,0.05664 -2.8e-4,0.680883 2.76064,4.292969 3.28124,4.292969 0.23325,0 -0.0676,-0.563633 -0.79687,-1.496094 -1.60893,-2.057203 -2.30433,-2.870359 -2.45313,-2.853515 z m -66.291011,1.242187 c -0.158842,-0.02115 -0.515761,0.357359 -1.21289,1.25586 -0.679748,0.876116 -1.236328,1.651295 -1.236328,1.722656 0,0.07136 0.953393,0.128906 2.11914,0.128906 l 2.119141,0 -0.677734,-0.626953 c -0.624104,-0.578393 -0.808794,-1.005577 -1.013672,-2.332031 -0.01413,-0.09152 -0.04471,-0.141387 -0.09766,-0.148438 z m 66.617191,0.636719 c -0.10871,0.01578 -0.17796,0.17525 -0.26368,0.445313 -0.1019,0.32119 -0.53266,0.908269 -0.95703,1.304687 l -0.77148,0.720703 1.99609,0 1.99414,0 -0.85546,-1.191406 c -0.66879,-0.931261 -0.96141,-1.305592 -1.14258,-1.279297 z m -0.8086,0.488281 c -0.0234,-5.9e-4 -0.053,0.01041 -0.0898,0.0332 -0.14147,0.08743 -0.25781,0.269637 -0.25781,0.404297 0,0.374269 0.1864,0.290607 0.35937,-0.160156 0.0666,-0.173662 0.0586,-0.275572 -0.0117,-0.277344 z m -58.93945,0.16211 c -0.07157,0 -0.342536,0.23332 -0.601562,0.519531 -0.259001,0.286213 -0.413347,0.521484 -0.341797,0.521484 0.07157,0 0.342562,-0.235271 0.601562,-0.521484 0.259027,-0.286211 0.413346,-0.519531 0.341797,-0.519531 z m 26.88672,2.257812 c -18.670266,0.0023 -37.376054,0.108474 -37.583986,0.316406 -0.208404,0.208396 9.972653,0.28711 37.384766,0.28711 27.99823,0 37.64742,-0.07531 37.57422,-0.294922 -0.0693,-0.207892 -18.70474,-0.310859 -37.375,-0.308594 z m -39.207032,0.894531 c -0.132664,0 -0.413832,0.07678 -0.771485,0.230469 -0.343121,0.147446 -0.386233,0.226896 -0.128906,0.236328 0.21465,0.0079 0.564641,-0.09761 0.779297,-0.236328 0.237809,-0.153686 0.253757,-0.230469 0.121094,-0.230469 z m 41.316402,0.335938 c -0.0681,0.06809 0.89436,1.331713 2.13868,2.806641 1.24429,1.474926 2.43567,2.898073 2.64843,3.162109 0.73787,0.915671 0.68395,0.17345 -0.0664,-0.912109 -0.93267,-1.349331 -4.55153,-5.225834 -4.72071,-5.056641 z m 31.7793,0 c -0.51321,-0.158148 -5.01441,0.948638 -13.97852,3.433594 l -11.66601,3.234375 -26.648438,0.06055 -26.646484,0.06055 0,-0.59375 c 0,-0.326583 0.176013,-1.01886 0.392578,-1.537109 0.216535,-0.518246 0.345392,-0.988597 0.287109,-1.046875 -0.122674,-0.122674 -0.82945,1.791366 -1.0625,2.875 -0.08723,0.405532 -0.06131,0.675666 0.05859,0.601563 0.1199,-0.07409 0.384965,-0.03091 0.589843,0.0957 0.20921,0.129303 11.855102,0.234175 26.56836,0.240234 l 26.195308,0.01172 6.85352,-1.919922 c 3.77009,-1.055523 9.5484,-2.655519 12.83984,-3.556641 3.29144,-0.901123 6.07814,-1.717786 6.19336,-1.814453 0.0881,-0.07393 0.0968,-0.121939 0.0234,-0.144531 z m -32.49609,0.130859 -19.615238,0.01367 c -17.22776,0.01307 -19.791239,0.06546 -21.074218,0.433594 -1.911466,0.548472 -1.874194,0.513784 -1.445313,1.335937 0.508397,0.97457 0.467731,2.110494 -0.117187,3.257813 l -0.492188,0.96289 23.712891,0.06641 c 13.042643,0.03653 23.803543,0.03134 23.912113,-0.01367 0.10857,-0.045 -0.31715,-0.74887 -0.94532,-1.5625 -0.62819,-0.813631 -1.77069,-2.156922 -2.53906,-2.986328 l -1.39648,-1.507813 z m 2.15039,0.02344 c -0.44165,0 -0.28439,0.26786 0.88086,1.496094 0.78069,0.822862 1.92517,2.169327 2.54297,2.992187 1.45037,1.931735 2.28587,2.050735 0.90429,0.128906 -1.8412,-2.561121 -3.76935,-4.617187 -4.32812,-4.617187 z m 1.03515,0 1.01563,1.105468 c 0.55783,0.608202 1.59598,1.895362 2.30859,2.861329 0.71258,0.965961 1.36754,1.757809 1.45508,1.757812 0.0875,0 2.64308,-0.692696 5.67969,-1.539062 3.03662,-0.846366 5.58148,-1.599066 5.6543,-1.671875 0.0728,-0.07281 -0.2584,-0.663088 -0.73633,-1.3125 l -0.86914,-1.181641 -7.25391,-0.0098 -7.25391,-0.0098 z m 16.55469,0 c -0.28834,0 -0.1985,0.268718 0.34375,1.035156 0.40282,0.569371 0.88494,1.037963 1.07227,1.041016 0.1999,0.0032 0.26275,-0.12941 0.15234,-0.320313 -0.62402,-1.078906 -1.22888,-1.755859 -1.56836,-1.755859 z m 0.93945,0 0.58789,0.90625 c 0.32331,0.499102 0.7065,0.903355 0.84961,0.898437 0.14311,-0.0049 1.60623,-0.404121 3.25196,-0.888672 l 2.99219,-0.880859 -3.83985,-0.01758 -3.8418,-0.01758 z M 59.841797,59.9375 c -0.21465,0 -0.62393,0.101617 -0.910156,0.224609 -0.327996,0.140952 -0.376876,0.222657 -0.13086,0.222657 0.214648,0 0.623957,-0.09966 0.910157,-0.222657 0.328023,-0.14095 0.376876,-0.224609 0.130859,-0.224609 z m 60.851563,0.0078 c -0.0461,-0.01457 -0.0831,-0.01246 -0.10547,0.0098 -0.21286,0.210972 1.35812,2.289063 1.73047,2.289063 0.15309,0 0.15085,-0.173416 -0.008,-0.455079 -0.45441,-0.806724 -1.29419,-1.741776 -1.61719,-1.84375 z m -62.695313,0.509766 c -0.09039,-0.0037 -0.19319,0.01125 -0.287109,0.04883 -0.207572,0.08306 -0.144898,0.145719 0.158203,0.158203 0.274291,0.01134 0.428251,-0.05025 0.341797,-0.136718 -0.04322,-0.04323 -0.1225,-0.06659 -0.212891,-0.07031 z m -1.494141,1.195313 -0.607422,0.173828 c -0.334516,0.09497 -0.928001,0.240815 -1.318359,0.326172 l -0.708984,0.15625 0.513671,0.654297 c 0.283007,0.359813 0.515626,0.814405 0.515626,1.009765 0,0.633053 0.238865,0.380872 0.929687,-0.982422 l 0.675781,-1.33789 z m 74.205074,0.08008 c -0.0818,0.01502 -0.20025,0.04561 -0.35546,0.08789 -0.35776,0.09746 -0.95608,0.244085 -1.33008,0.326172 l -0.67969,0.150391 0.54883,1.015625 0.55078,1.013672 0.34961,-0.845703 c 0.19202,-0.465059 0.542,-1.066946 0.7793,-1.339844 0.30885,-0.355187 0.38214,-0.453271 0.13671,-0.408203 z m -77.394527,0.02539 c -0.09039,-0.0037 -0.19319,0.0132 -0.287109,0.05078 -0.207572,0.08306 -0.144898,0.143767 0.158203,0.15625 0.274292,0.01134 0.428252,-0.05025 0.341797,-0.136719 -0.04322,-0.04323 -0.1225,-0.06659 -0.212891,-0.07031 z m 5.130859,0.03711 c -0.229665,0.0311 -0.539225,0.190702 -0.783203,0.419922 -0.325332,0.305625 -0.657833,0.488632 -0.740234,0.40625 -0.08238,-0.08238 -0.237713,-0.0067 -0.345703,0.167968 -0.125475,0.203021 -0.08844,0.251449 0.103516,0.132813 0.404345,-0.249886 0.386532,-0.155216 -0.240235,1.261719 -0.622881,1.408133 -0.540529,1.890264 0.320313,1.857421 0.536595,-0.02049 0.625727,-0.179115 0.740234,-1.324218 0.150065,-1.500717 0.808618,-1.826644 1.048828,-0.519532 l 0.144531,0.78125 0.337891,-0.613281 c 0.411645,-0.745762 0.168405,-2.342868 -0.388672,-2.55664 -0.05351,-0.02054 -0.12071,-0.02404 -0.197266,-0.01367 z m 1.320313,0.152343 c -0.07544,-0.06117 -0.102424,0.201651 -0.08594,0.81836 0.01721,0.643977 -0.05088,1.521852 -0.152344,1.951172 l -0.183594,0.78125 0.367188,-0.78125 c 0.202325,-0.42932 0.364936,-1.071924 0.361328,-1.429688 -0.0036,-0.357766 -0.100352,-0.885663 -0.214844,-1.171875 -0.03654,-0.09136 -0.06665,-0.14758 -0.0918,-0.167969 z m 74.390625,0.365235 c -0.0602,0.08728 -0.14132,0.541441 -0.22656,1.333984 -0.0836,0.777053 -0.0477,1.130449 0.0918,0.910157 0.12552,-0.198184 0.23023,-0.818406 0.23243,-1.378907 0.002,-0.672901 -0.0374,-0.95251 -0.0977,-0.865234 z m -83.363281,0.974609 c -0.08443,0 -1.06639,0.245421 -2.183594,0.546875 l -2.03125,0.548828 0.537109,0.6875 c 0.550999,0.704786 1.507785,1.042726 2.470704,0.871094 0.389029,-0.06935 0.660079,-0.460529 0.953124,-1.376953 0.224928,-0.703325 0.338339,-1.277344 0.253907,-1.277344 z m 74.441411,0 c -0.0838,0 -1.07573,0.252997 -2.20508,0.5625 l -2.05274,0.5625 0.50782,0.542969 c 1.47368,1.573529 1.43089,5.407287 -0.082,7.304687 -0.68358,0.857297 -2.24461,1.019057 -2.95703,0.306641 -0.63334,-0.633346 -0.62615,-3.439907 0.01,-4.412109 0.61237,-0.934563 1.91443,-0.992439 2.2539,-0.09961 0.24431,0.642607 0.02,2.291244 -0.30859,2.269532 -0.10737,-0.0071 -0.31197,-0.01172 -0.45508,-0.01172 -0.14311,0 -0.25976,-0.4334 -0.25976,-0.962891 0,-1.204989 -0.4704,-0.850336 -0.69336,0.523438 -0.20873,1.286377 0.47155,2.396113 1.22265,1.99414 1.75973,-0.941784 1.61016,-6.193723 -0.18359,-6.449218 -0.88255,-0.125701 -2.10364,1.184273 -2.74023,2.941406 -0.4518,1.247124 -0.56888,2.164366 -0.58204,4.554687 -0.0183,3.318458 0.35626,4.575847 1.82813,6.148438 1.18171,1.262593 1.78226,1.376617 3.35937,0.636719 l 0.002,0 c 0.57243,-0.268557 1.36255,-0.798069 1.75781,-1.177735 0.39543,-0.379813 0.85403,-0.608904 1.01758,-0.507812 0.18857,0.116579 0.22573,0.0682 0.10156,-0.132813 -0.19881,-0.321683 0.56786,-1.396443 0.86523,-1.21289 0.0882,0.05445 0.17789,-0.191663 0.19922,-0.546875 0.0213,-0.355214 0.27734,-0.90013 0.56836,-1.210938 1.59127,-1.699496 2.63674,-6.747075 2.03711,-9.832031 -0.21062,-1.08357 -0.95437,-1.875798 -1.54687,-1.648438 -0.39354,0.151021 -1.01861,1.250657 -1.32422,2.328125 -0.0812,0.286211 -0.0979,0.05289 -0.0371,-0.519531 0.0763,-0.717705 0.0362,-0.911386 -0.12891,-0.625 -0.39022,0.676838 -0.60126,2.494148 -0.31054,2.673828 0.15909,0.09832 0.21097,-0.04356 0.1289,-0.357422 -0.075,-0.286409 -0.0145,-0.521484 0.13672,-0.521484 0.15073,0 0.31064,0.372096 0.35547,0.826172 0.10351,1.048316 0.63279,1.237407 1.0293,0.367187 0.25187,-0.552805 0.2311,-0.752936 -0.125,-1.146484 -0.51171,-0.565428 -0.56965,-1.347656 -0.0996,-1.347656 0.18281,0 0.59209,0.183479 0.91015,0.40625 1.24122,0.869392 0.29411,3.757812 -1.23242,3.757812 -1.52404,0 -2.1179,-2.382388 -1.21484,-4.878906 0.22001,-0.608199 0.33181,-1.105469 0.24805,-1.105469 z m -72.349614,0.07813 c -0.171287,-0.0024 -0.361405,0.0607 -0.580078,0.177735 -0.686099,0.367196 -1.351693,2.345703 -0.789063,2.345703 0.143098,0 0.259766,-0.175965 0.259766,-0.390625 0,-0.534962 0.601566,-0.490302 1.330078,0.09961 0.692183,0.560488 1.306219,0.457552 1.101562,-0.185547 -0.461166,-1.449094 -0.808407,-2.039771 -1.322265,-2.046875 z m 5.248046,0.527344 c -0.03386,0.0057 -0.07489,0.03192 -0.121093,0.07813 -0.147817,0.147798 -0.19313,0.464536 -0.101563,0.703125 0.241016,0.628076 0.3711,0.533125 0.371094,-0.269531 0,-0.362412 -0.04687,-0.528958 -0.148438,-0.511719 z m 74.175778,0.126953 c -0.0445,-0.04614 -0.0781,0.115513 -0.082,0.4375 -0.005,0.42932 0.0479,0.637095 0.11914,0.460938 0.0712,-0.17616 0.0764,-0.528093 0.01,-0.78125 -0.0165,-0.06329 -0.032,-0.101808 -0.0469,-0.117188 z m -3.36914,0.132813 c -0.0246,-0.01287 -0.0466,-0.01203 -0.0644,0.0059 -0.0715,0.07155 -0.0489,0.38167 0.0488,0.689453 0.0976,0.307782 0.23508,0.50124 0.30664,0.429688 0.0715,-0.07155 0.0508,-0.381671 -0.0469,-0.689453 -0.0732,-0.230837 -0.17041,-0.396948 -0.24414,-0.435547 z M 51.111328,64.5 c -0.0199,0.01091 -0.04588,0.03918 -0.07617,0.08594 -0.13908,0.214659 -0.333523,0.818236 -0.43164,1.341796 -0.149444,0.797669 -0.09934,0.969477 0.302734,1.056641 0.86661,0.187875 1.474697,0.0783 1.595703,-0.285156 0.09045,-0.271663 -0.106807,-0.329849 -0.824219,-0.246094 -0.760571,0.08879 -0.921848,0.03185 -0.826172,-0.292969 C 51.139501,65.182221 51.250637,64.423635 51.111328,64.5 Z M 45.25,64.617188 c -0.09039,-0.0037 -0.193186,0.0132 -0.287109,0.05078 -0.207573,0.08306 -0.146853,0.143766 0.15625,0.15625 0.274279,0.01134 0.428257,-0.05025 0.341797,-0.136719 -0.04322,-0.04323 -0.120544,-0.06659 -0.210938,-0.07031 z m 9.460938,0.06641 c -0.02736,0.02736 -0.04649,0.117975 -0.05273,0.269531 -0.01134,0.274283 0.05027,0.428256 0.136719,0.341797 0.08645,-0.08646 0.09663,-0.310221 0.02148,-0.498047 -0.04154,-0.103781 -0.07811,-0.140638 -0.105468,-0.113281 z m 75.318362,0.162109 c -0.027,0 -0.0833,0.130432 -0.19532,0.390625 -0.12298,0.286211 -0.22099,0.812157 -0.21679,1.169922 l 0.008,0.650391 0.20898,-0.650391 c 0.11457,-0.357765 0.2126,-0.883711 0.2168,-1.169922 l -0.002,0 c 0.004,-0.260193 0.007,-0.390625 -0.0195,-0.390625 z M 45.390625,65.40625 c -0.168164,0.0031 -0.34649,0.02639 -0.521484,0.07031 -0.3633,0.09118 -0.601811,0.25889 -0.53125,0.373047 0.164717,0.266522 1.971655,0.232418 1.972656,-0.03711 0.002,-0.254454 -0.415429,-0.415547 -0.919922,-0.40625 z m 71.906255,0.01367 c -0.18829,0.06784 -1.9522,0.56839 -3.91993,1.111328 -1.96769,0.542938 -3.57812,1.113518 -3.57812,1.267578 0,0.154056 0.30224,0.576299 0.67187,0.939453 0.36962,0.363154 1.02957,1.180174 1.4668,1.814453 l 0.79492,1.152344 0.38281,-0.958984 c 0.25829,-0.647584 0.59917,-1.01508 1.04493,-1.126953 0.36354,-0.09125 0.86304,-0.03981 1.11132,0.115234 0.39589,0.247231 0.50425,0.100477 0.8711,-1.197266 0.23008,-0.813872 0.6605,-1.875364 0.95703,-2.359375 0.33901,-0.553371 0.41252,-0.835375 0.19727,-0.757812 z m -74.761724,0.07031 c -0.127607,0.0069 -0.278792,0.02548 -0.451172,0.05859 -0.393511,0.0756 -0.716797,0.234617 -0.716796,0.351563 0,0.20622 1.305081,0.06991 1.535156,-0.160157 0.178459,-0.178453 0.01564,-0.270657 -0.367188,-0.25 z m 79.099614,0.316407 c -0.0285,-0.02023 -0.003,0.09385 0.0703,0.339843 0.24465,0.826427 0.24928,3.531342 0.008,4.552735 l -0.18359,0.78125 0.36718,-0.78125 c 0.20232,-0.429317 0.36719,-1.423854 0.36719,-2.210938 0,-0.787083 -0.16822,-1.781619 -0.375,-2.210937 -0.14219,-0.295198 -0.22539,-0.450478 -0.2539,-0.470703 z m -74.324223,0.232421 c -0.07439,0.0016 -0.07655,0.186815 -0.0039,0.542969 0.110976,0.544574 0.176124,0.609674 0.251953,0.251953 0.05629,-0.265635 -0.0092,-0.595619 -0.148438,-0.734375 -0.04073,-0.04073 -0.07481,-0.06109 -0.09961,-0.06055 z m 5.966797,0.158204 c -0.06183,-0.06978 -0.171567,0.314377 -0.306641,1.121093 -0.124862,0.745727 -0.09871,0.93004 0.0918,0.650391 0.146207,-0.214659 0.267345,-0.732997 0.269531,-1.150391 0.002,-0.37492 -0.01759,-0.579225 -0.05469,-0.621093 z M 40.931641,66.40625 c -1.830344,0 -3.207032,0.232828 -3.207032,0.541016 0,0.323586 4.150123,0.09794 4.492188,-0.244141 0.222699,-0.222698 -0.100322,-0.296875 -1.285156,-0.296875 z m 8.003906,0 c -0.968573,0 -1.292759,0.203321 -0.919922,0.576172 0.251737,0.251725 1.783301,0.02326 1.884766,-0.28125 0.06242,-0.187044 -0.289838,-0.294922 -0.964844,-0.294922 z m 5.052734,0 c -0.214648,0 -0.390625,0.116659 -0.390625,0.259766 0,0.143108 0.175977,0.261718 0.390625,0.261718 0.214677,0 0.388672,-0.11861 0.388672,-0.261718 0,-0.143105 -0.173995,-0.259766 -0.388672,-0.259766 z m -9.6875,0.0332 c -0.630914,0.0065 -0.851562,0.09394 -0.851562,0.294922 0,0.423755 3.08262,0.48422 3.1875,0.0625 0.03655,-0.146722 -0.643554,-0.294211 -1.560547,-0.337891 -0.308519,-0.0147 -0.565086,-0.02169 -0.775391,-0.01953 z m 83.365239,0.175781 c -0.0373,-0.05031 -0.18298,0.344355 -0.46094,1.216797 -0.16595,0.52074 -0.16084,0.688104 0.0156,0.511719 0.14431,-0.144311 0.3228,-0.667665 0.39844,-1.164062 0.0524,-0.343655 0.0693,-0.534268 0.0469,-0.564454 z M 43.085938,66.75 c -0.0011,-0.04302 -0.09549,0.06707 -0.283204,0.302734 -0.653959,0.821283 -1.185058,2.956647 -1.296875,5.208985 -0.07803,1.570884 -0.05223,1.793776 0.101563,0.910156 l 0.203125,-1.169922 0.03906,1.175781 c 0.05989,1.801002 0.91498,4.536796 1.720703,5.501954 1.264528,1.514702 2.110172,1.788521 3.595704,1.166015 0.460497,-0.192981 1.204323,-0.661562 1.654296,-1.041015 0.999758,-0.843071 1.392369,-0.899196 0.71875,-0.103516 l -0.496093,0.585937 0.580078,-0.490234 c 0.318615,-0.269557 0.510913,-0.601756 0.427734,-0.736328 -0.205305,-0.332195 0.953797,-1.53172 1.283203,-1.328125 0.144429,0.08925 0.183379,0.03536 0.08789,-0.119141 -0.186819,-0.302262 0.318715,-1.61914 0.621094,-1.61914 0.610142,0 2.51189,-6.002267 2.177734,-6.873047 -0.182816,-0.476429 -0.882812,-0.563448 -0.882812,-0.109375 0,0.58238 -0.867295,1.257812 -1.615235,1.257812 -0.563435,0 -0.863371,-0.195962 -1.195312,-0.779297 -0.368262,-0.64717 -0.60727,-0.779879 -1.417969,-0.78125 -0.947405,-0.0016 -0.97769,0.02721 -1.015625,0.97461 l -0.03906,0.976562 -0.181641,-1.171875 c -0.148377,-0.954402 -0.188838,-1.020203 -0.220703,-0.357422 -0.02134,0.447206 -0.09959,1.208422 -0.173828,1.691407 -0.104974,0.682646 -0.08048,0.761955 0.111328,0.357422 0.387136,-0.816035 0.323472,0.04946 -0.07227,0.984374 -0.724799,1.712453 -2.252028,2.357422 -3.414062,1.44336 -0.670391,-0.527336 -0.70268,-0.650653 -0.591797,-2.273438 0.06442,-0.94386 0.207551,-1.919488 0.316406,-2.169922 0.153579,-0.353426 0.07258,-0.457031 -0.359375,-0.457031 -0.334048,0 -0.649802,0.234597 -0.791016,0.585938 -0.129383,0.321986 -0.242883,0.434034 -0.251953,0.248047 -0.0093,-0.185991 0.165127,-0.713886 0.386719,-1.171875 0.184051,-0.380409 0.274521,-0.576117 0.273438,-0.619141 z m 74.136722,0.535156 c -0.0496,-0.04858 -0.23604,0.3149 -0.52344,1.125 -0.25925,0.730781 -0.47948,2.275627 -0.53125,3.720703 l -0.0898,2.472657 0.22461,-2.341797 c 0.12284,-1.287953 0.40314,-2.922006 0.62305,-3.63086 0.25972,-0.837179 0.34651,-1.297126 0.29688,-1.345703 z m -82.794926,0.421875 c -0.279094,0 -0.341112,1.568467 -0.322265,8.261719 0.02081,7.423722 0.05903,8.131899 0.375,6.980469 0.258913,-0.943416 0.34466,-3.122633 0.322265,-8.261719 -0.02441,-5.602985 -0.09851,-6.980469 -0.375,-6.980469 z m 3.96875,0 c -1.800199,0 -3.273437,0.102929 -3.273437,0.228516 0,0.125581 0.193222,0.389703 0.429687,0.585937 0.236424,0.196237 0.902606,0.997062 1.480469,1.779297 l 1.050781,1.421875 0.277344,-0.667968 c 0.151645,-0.367694 0.436391,-0.862166 0.632813,-1.097657 0.461537,-0.553397 1.49976,-0.55141 1.810547,0.0039 0.27013,0.482709 0.345577,0.329503 0.695312,-1.408204 l 0.169922,-0.845703 -3.273438,0 z m 13.378907,0 c -0.303102,0 -0.479045,0.118612 -0.390625,0.261719 0.08843,0.143108 0.264401,0.259766 0.390625,0.259766 0.126222,0 0.3022,-0.116658 0.390625,-0.259766 0.08845,-0.143104 -0.08753,-0.261719 -0.390625,-0.261719 z m 57.373049,0 c -0.33929,0 -0.38701,1.079835 -0.36328,8.261719 0.0239,7.214295 0.0715,8.129586 0.37109,7.220703 0.24839,-0.753717 0.34882,-3.032804 0.36328,-8.261719 0.0172,-6.253517 -0.0331,-7.220703 -0.37109,-7.220703 z m -64.160159,0.0332 c -0.09039,-0.0037 -0.193187,0.0132 -0.287109,0.05078 -0.207574,0.08306 -0.144901,0.143767 0.158203,0.15625 0.274292,0.01134 0.428257,-0.05025 0.341797,-0.136719 -0.04321,-0.04323 -0.122497,-0.06659 -0.212891,-0.07031 z m 1.814453,0 c -0.07754,-0.0096 -0.174105,-0.0035 -0.294922,0.01367 -0.501685,0.07125 -0.591094,0.250515 -0.621093,1.253906 l -0.03516,1.171876 0.191407,-1.171876 0.191406,-1.169921 0.03906,1.074218 c 0.02281,0.624804 -0.107429,1.194689 -0.310547,1.363282 -0.47689,0.395785 -0.691407,0.110203 -0.691407,-0.919922 0,-1.107818 -0.432798,-1.120129 -0.75,-0.02148 -0.207213,0.717624 -0.247664,0.750415 -0.267578,0.216797 -0.02854,-0.764148 -0.151467,-0.658921 -0.390625,0.335938 -0.146844,0.610922 -0.106697,0.720138 0.222657,0.59375 0.291471,-0.111843 0.404296,0.0092 0.404296,0.435547 0,0.578682 0.430435,1.214843 0.822266,1.214843 0.108975,0 0.419122,-0.237199 0.689453,-0.527343 0.556161,-0.596969 1.089844,-2.178097 1.089844,-3.228516 0,-0.435499 -0.05645,-0.606053 -0.289063,-0.634766 z M 33.5625,67.837891 c -0.359739,0.22234 -0.359739,50.607419 0,50.607419 0.171692,0 0.259766,-8.63546 0.259766,-25.384763 0,-16.856509 -0.08694,-25.329442 -0.259766,-25.222656 z m 86.77539,0.27539 c -0.0774,0.03443 -0.12515,0.332605 -0.12695,0.830078 -0.005,1.284259 0.14692,1.446825 0.31054,0.332032 0.0626,-0.425992 0.0181,-0.92326 -0.0977,-1.105469 -0.0315,-0.04968 -0.0601,-0.06812 -0.0859,-0.05664 z m -65.060546,0.169922 c -0.05723,0.05723 0.01826,0.547823 0.167968,1.089844 0.149677,0.542019 0.317744,0.938101 0.375,0.880859 0.05722,-0.05725 -0.01823,-0.547824 -0.167968,-1.089844 -0.149649,-0.542018 -0.317744,-0.938101 -0.375,-0.880859 z m 74.367186,0.04687 c -0.0663,0.06629 -0.0402,0.489668 0.0586,0.939453 0.23438,1.067086 0.44543,0.856033 0.22852,-0.228515 -0.0915,-0.457142 -0.22083,-0.777229 -0.28711,-0.710938 z m -71.039061,0.330078 c -0.107321,-0.06516 -0.207669,0.464529 -0.222657,1.175782 -0.01665,0.787761 0.05838,1.159046 0.191407,0.949218 0.120113,-0.189448 0.220463,-0.719132 0.222656,-1.175781 0.0028,-0.456648 -0.08408,-0.884062 -0.191406,-0.949219 z m 60.166011,0.226563 c -0.0273,0.01039 -0.0657,0.05118 -0.11328,0.121093 -0.14621,0.21466 -0.26734,0.732998 -0.26953,1.150391 -0.005,0.999787 0.14521,0.792698 0.36133,-0.498047 0.0936,-0.559296 0.10328,-0.804595 0.0215,-0.773437 z m -76.525386,0.357422 c 0.06713,-0.04916 0.06189,0.218318 -0.01563,0.804687 -0.182337,1.378952 -0.350136,1.704595 -0.324219,0.628906 0.0093,-0.417394 0.123218,-0.993085 0.25,-1.279296 0.03847,-0.08687 0.06747,-0.137912 0.08984,-0.154297 z m 90.652346,0.322265 c -0.0601,-0.04325 -0.16624,0.302559 -0.29492,1.003906 -0.11751,0.640705 -0.092,0.794119 0.0879,0.519532 0.14071,-0.214658 0.25757,-0.673691 0.25976,-1.019532 0.002,-0.313169 -0.0166,-0.477957 -0.0527,-0.503906 z m -78.08594,0.07422 c -0.04229,0.02607 -0.106429,0.155425 -0.201172,0.392578 -0.384169,0.961673 -0.06323,2.07319 0.552734,1.912109 0.460355,-0.120379 0.470666,-0.187559 0.117188,-0.871093 -0.210291,-0.406664 -0.391314,-0.949489 -0.400391,-1.207031 -0.0061,-0.174957 -0.02607,-0.25263 -0.06836,-0.226563 z m 55.07422,0.169922 c -0.0488,-0.05962 -0.0839,2.399991 -0.0781,5.464844 l 0.0117,5.572265 0.70508,-0.814453 c 0.38773,-0.448026 1.11437,-1.062491 1.61523,-1.365234 0.50152,-0.30313 1.35424,-0.550235 1.89844,-0.550781 l 0.98828,-0.002 -0.83789,-1.21875 -0.83984,-1.220703 -0.28711,1.025391 c -0.23056,0.825861 -0.41945,1.040457 -0.97656,1.105469 -1.00366,0.117111 -1.33287,-0.644332 -1.02149,-2.357422 0.16086,-0.885052 0.43154,-1.479382 0.77735,-1.708985 0.51833,-0.344162 0.50241,-0.391067 -0.66797,-2.085937 -0.6587,-0.95384 -1.23826,-1.78412 -1.28711,-1.84375 z m 1.02539,0.07813 c -0.0273,0.02736 -0.0465,0.117976 -0.0527,0.269531 -0.0107,0.274284 0.0503,0.428257 0.13671,0.341797 0.0864,-0.08646 0.0966,-0.312176 0.0215,-0.5 -0.0416,-0.103781 -0.0781,-0.138685 -0.10547,-0.111328 z m -74.626954,0.02148 c -0.04706,-0.01753 -0.08008,0.132072 -0.08008,0.400391 0,0.357765 0.0587,0.503101 0.13086,0.324219 0.07216,-0.178885 0.07216,-0.471509 0,-0.650391 -0.01804,-0.04472 -0.03509,-0.06838 -0.05078,-0.07422 z m 92.691404,0.123047 c -0.0316,0.03758 -0.12353,0.379903 -0.30273,1.056641 -0.44808,1.692181 -0.46301,1.825425 -0.14258,1.277344 0.13354,-0.228417 0.30622,-0.93228 0.38281,-1.5625 0.0658,-0.541869 0.0941,-0.809068 0.0625,-0.771485 z m -93.742185,0.01563 c -0.06056,0 -0.111328,2.48804 -0.111328,5.527344 l 0,5.52539 0.693359,-0.972656 c 0.380627,-0.534953 0.797065,-0.972656 0.925782,-0.972656 0.128717,0 0.149017,0.135571 0.04687,0.300781 -0.115912,0.187606 -0.07107,0.228853 0.119141,0.111328 0.167544,-0.103507 0.240673,-0.290839 0.162109,-0.417968 -0.222593,-0.360125 1.30613,-1.035157 2.345704,-1.035157 l 0.935546,0 -0.83789,-1.21875 c -0.732536,-1.064703 -0.863116,-1.154161 -1.035156,-0.714843 -0.133891,0.341857 -0.203597,0.378718 -0.21875,0.113281 -0.01974,-0.346924 -0.04924,-0.346924 -0.273438,0 -0.138707,0.21466 -0.253906,0.564631 -0.253906,0.779297 0,0.34692 0.0297,0.34692 0.253906,0 0.285377,-0.441562 0.338281,-0.247809 0.101563,0.36914 -0.230995,0.602032 -1.331928,0.511098 -1.679688,-0.138671 -0.437675,-0.817808 -0.06347,-2.801418 0.648438,-3.435547 l 0.589843,-0.525391 -1.15039,-1.646484 C 35.862651,70.79112 35.294851,70.048828 35.234375,70.048828 Z m 19.476563,0.619141 c 0.02735,-0.02736 0.06393,0.0095 0.105468,0.113281 0.07516,0.187824 0.06498,0.411586 -0.02148,0.498047 -0.08646,0.08646 -0.14802,-0.06557 -0.136719,-0.339844 0.0063,-0.151555 0.02539,-0.244128 0.05273,-0.271484 z m 59.689452,0.02344 c -0.20776,0.0421 -0.42941,0.505513 -0.43359,1.042969 -0.004,0.48228 0.0195,0.477434 0.40039,-0.06641 0.22294,-0.318303 0.32623,-0.707096 0.22851,-0.865235 -0.0571,-0.09245 -0.12606,-0.12536 -0.19531,-0.111328 z m -74.722656,0.138672 c -0.25023,0 -0.390625,0.252223 -0.390625,0.701172 0,0.671545 0.01446,0.67775 0.38086,0.193359 0.210121,-0.277787 0.386077,-0.591891 0.390625,-0.699218 0.004,-0.107335 -0.166191,-0.195313 -0.38086,-0.195313 z m 7.554688,0.103516 c -0.07928,0.01885 -0.180619,0.147397 -0.253906,0.339844 -0.141188,0.370828 -0.110548,0.401543 0.146484,0.146484 0.177815,-0.176497 0.257872,-0.386684 0.177734,-0.466797 -0.02001,-0.02003 -0.04389,-0.02581 -0.07031,-0.01953 z m 82.164058,0.0098 c -0.0581,0.01297 -0.11139,0.104485 -0.17773,0.277344 -0.26313,0.685724 -0.19612,0.905592 0.22461,0.744141 0.21466,-0.08238 0.38891,-0.224388 0.38672,-0.316406 -0.003,-0.09202 -0.10359,-0.324745 -0.22461,-0.515626 -0.0877,-0.138424 -0.15093,-0.202427 -0.20899,-0.189453 z m -14.11914,0.146485 c -0.15153,0 -0.27539,0.116657 -0.27539,0.259765 0,0.143107 0.0521,0.261719 0.11524,0.261719 0.0631,0 0.18697,-0.118612 0.27539,-0.261719 0.0884,-0.143104 0.0363,-0.259765 -0.11524,-0.259765 z m -74.550778,0.103515 c -0.0793,0.01884 -0.178665,0.149336 -0.251953,0.341797 -0.141188,0.370828 -0.1125,0.399591 0.144532,0.144532 0.177815,-0.176498 0.257858,-0.386686 0.177734,-0.466797 -0.02004,-0.02003 -0.04388,-0.02581 -0.07031,-0.01953 z m 72.757818,0 c -0.20512,0.126756 -0.0965,1.71875 0.11718,1.71875 0.0552,0 0.0996,-0.416464 0.0996,-0.925781 0,-0.509318 -0.0975,-0.866666 -0.21679,-0.792969 z m -74.562505,0.06055 c -0.03245,-8.39e-4 -0.07521,0.0752 -0.132813,0.222656 -0.185924,0.475974 -0.09509,1.435547 0.136719,1.435547 0.05482,0 0.09203,-0.439916 0.08203,-0.976562 -0.0087,-0.464511 -0.03186,-0.680241 -0.08594,-0.681641 z m 15.40625,0.535156 c -0.05818,-0.0066 -0.194781,0.205273 -0.351563,0.566407 -0.209068,0.481524 -0.376173,0.950115 -0.371093,1.041015 0.01887,0.338522 0.752868,-1.15042 0.751953,-1.52539 0,-0.05366 -0.0099,-0.07984 -0.0293,-0.08203 z m -13.53125,0.306641 -0.560547,0.470703 c -0.308185,0.258597 -0.585175,0.47862 -0.617187,0.488282 -0.06816,0.02059 1.220422,1.938927 1.302734,1.939453 0.03068,1.93e-4 0.01433,-0.652255 -0.03516,-1.449219 l -0.08984,-1.449219 z m 88.904295,0.158203 c -0.0436,-0.01823 -0.12836,-0.0073 -0.24414,0.03711 -0.45076,0.172973 -0.53247,0.361328 -0.1582,0.361328 0.13466,0 0.3149,-0.116346 0.40234,-0.257813 0.0456,-0.07375 0.0437,-0.122391 0,-0.140625 z m -14.375,0.05859 c -0.0861,-0.01772 -0.23683,0.104401 -0.53515,0.347656 l -0.59961,0.490235 0.59961,0.818359 0.60156,0.816406 0.082,-0.675781 c 0.0452,-0.372288 0.0452,-0.961603 0,-1.308594 -0.0409,-0.313109 -0.0624,-0.470557 -0.14844,-0.488281 z m 15.73633,0.449219 c -0.0857,-0.0326 -0.0829,0.107049 0.002,0.43164 0.092,0.351834 0.21043,0.468309 0.27539,0.273438 0.0626,-0.187713 -0.01,-0.464036 -0.16211,-0.615235 -0.0483,-0.04827 -0.0867,-0.07898 -0.11523,-0.08984 z m -74.017578,0.320312 c -0.107322,-0.06576 -0.195313,0.502413 -0.195313,1.261719 0,0.759307 0.08627,1.245424 0.191407,1.080078 0.105134,-0.165347 0.19312,-0.733519 0.195312,-1.261719 0.0028,-0.528203 -0.08409,-1.014318 -0.191406,-1.080078 z m -18.455078,0.871094 c -0.127515,0 0.119721,0.470241 0.509765,0.974609 0.447999,0.579279 0.471875,0.345234 0.0332,-0.324218 -0.234409,-0.357765 -0.479437,-0.650391 -0.542968,-0.650391 z m 92.880856,0 c -0.12378,0 -0.22782,0.20464 -0.23242,0.455078 -0.005,0.250433 -0.10112,0.747705 -0.21484,1.105469 -0.13866,0.436311 -0.12097,0.565151 0.0547,0.390625 0.14412,-0.143104 0.34146,-0.640374 0.43946,-1.105469 0.098,-0.465098 0.0768,-0.845703 -0.0469,-0.845703 z m -19.64258,0.779297 c -0.0331,0 -0.0949,0.08826 -0.20703,0.261719 -0.13872,0.21466 -0.24614,0.623945 -0.23828,0.910156 0.0144,0.520387 0.0147,0.520387 0.23828,0 0.12298,-0.286211 0.22848,-0.695496 0.23633,-0.910156 0.007,-0.173463 0.004,-0.261719 -0.0293,-0.261719 z m 1.98633,0 c -0.0715,0 -0.007,0.235271 0.14649,0.521484 0.15317,0.286212 0.33861,0.519532 0.41015,0.519532 0.0715,0 0.005,-0.23332 -0.14843,-0.519532 -0.15317,-0.286213 -0.33667,-0.521484 -0.40821,-0.521484 z m -75.980466,0.0098 c -0.196355,-0.01454 -0.370245,0.08764 -0.373046,0.316406 -0.0027,0.243523 -0.05985,0.238407 -0.22461,-0.02148 -0.175481,-0.276851 -0.252102,-0.25978 -0.384766,0.08594 -0.0915,0.238364 -0.154857,0.687761 -0.140624,0.998047 0.02388,0.518771 0.04278,0.510266 0.234374,-0.08789 0.174628,-0.545251 0.213804,-0.565115 0.242188,-0.128906 0.03121,0.479625 0.05433,0.484126 0.298828,0.06445 0.145883,-0.250438 0.431715,-0.455078 0.634766,-0.455078 0.221286,0 0.308505,-0.156707 0.21875,-0.390625 -0.09043,-0.235674 -0.309504,-0.366323 -0.50586,-0.380859 z m 74.687496,0 c -0.19979,-0.04439 -0.38149,0.0056 -0.38476,0.185546 -0.003,0.107322 -0.069,0.487938 -0.14844,0.845704 -0.12325,0.555184 -0.10187,0.583939 0.14649,0.195312 0.16006,-0.250437 0.4571,-0.455078 0.66015,-0.455078 0.22129,0 0.31046,-0.156707 0.2207,-0.390625 -0.0758,-0.197472 -0.29434,-0.336465 -0.49414,-0.380859 z m -70.822261,0.353515 c -0.06629,0.06629 -0.04011,0.487715 0.05859,0.9375 0.09884,0.449785 0.228154,0.769866 0.28711,0.710938 0.05896,-0.05893 0.03278,-0.480357 -0.05859,-0.9375 -0.0915,-0.457142 -0.220804,-0.777228 -0.287109,-0.710938 z m 74.533201,0.0078 c -0.0857,-0.0326 -0.0829,0.107049 0.002,0.43164 0.092,0.351834 0.20849,0.468309 0.27343,0.273438 0.0626,-0.187714 -0.008,-0.464037 -0.16015,-0.615235 -0.0483,-0.04827 -0.0867,-0.07898 -0.11524,-0.08984 z m -3.36133,0.929687 c -0.035,0 -0.0988,0.08826 -0.21093,0.261719 -0.13872,0.21466 -0.25196,0.564636 -0.25196,0.779297 0,0.34692 0.0277,0.34692 0.25196,0 0.13871,-0.214661 0.2539,-0.564637 0.2539,-0.779297 0,-0.173462 -0.008,-0.261719 -0.043,-0.261719 z m 1.61133,0 c -0.0134,0.01343 0.0648,0.11983 0.22656,0.326172 0.33991,0.433416 0.55469,0.571571 0.55469,0.357422 0,-0.05403 -0.2066,-0.258672 -0.45703,-0.455078 -0.20634,-0.161823 -0.31078,-0.241946 -0.32422,-0.228516 z m 2.1543,0.359375 c -0.0273,0.02736 -0.0465,0.117976 -0.0527,0.269531 -0.0107,0.274279 0.0503,0.428257 0.13672,0.341797 0.0864,-0.08643 0.0965,-0.310223 0.0215,-0.498047 -0.0415,-0.103781 -0.0781,-0.140637 -0.10547,-0.113281 z m -75.943361,0.681641 c -0.07149,0 0.230765,0.527894 0.673829,1.171875 0.443063,0.643968 0.865951,1.169922 0.9375,1.169922 0.07149,0 -0.232719,-0.525954 -0.675782,-1.169922 -0.443064,-0.643981 -0.864,-1.171875 -0.935547,-1.171875 z m 1.585938,0 c -0.04095,0 -0.135744,0.156849 -0.208985,0.347656 -0.07323,0.190807 0.02171,0.345703 0.208985,0.345703 0.187392,0 0.280246,-0.154896 0.207031,-0.345703 -0.07323,-0.190807 -0.166095,-0.347656 -0.207031,-0.347656 z m 73.041013,0.03516 c -0.009,0.0169 0.0815,0.174088 0.25977,0.486328 0.68166,1.193606 0.75428,1.300781 0.8789,1.300781 0.0682,0 0.0102,-0.204635 -0.12695,-0.455078 -0.13767,-0.250429 -0.44724,-0.690345 -0.6875,-0.976562 -0.20968,-0.24981 -0.31572,-0.372374 -0.32422,-0.355469 z m -6.91406,0.332031 c -0.0251,-0.717695 -0.043,5.116469 -0.043,15.634766 -3e-5,14.024368 0.0318,19.799528 0.0703,12.833988 0.0386,-6.965534 0.0386,-18.439201 0,-25.498051 -0.01,-1.764713 -0.019,-2.731471 -0.0273,-2.970703 z M 125.81836,78.375 c -0.0715,0 -0.25502,0.235281 -0.4082,0.521484 -0.15318,0.286217 -0.21999,0.519532 -0.14844,0.519532 0.0715,0 0.25503,-0.233315 0.4082,-0.519532 0.15318,-0.286203 0.22,-0.521484 0.14844,-0.521484 z m -86.271485,0.03516 c -0.117899,0 -0.236724,0.01666 -0.326172,0.05273 -0.178869,0.07216 -0.03162,0.132812 0.326172,0.132812 0.357778,0 0.503101,-0.06065 0.324219,-0.132812 -0.08945,-0.03608 -0.20632,-0.05273 -0.324219,-0.05273 z m 74.675785,0 c -0.1179,0 -0.23673,0.01666 -0.32618,0.05273 -0.17887,0.07216 -0.0316,0.132812 0.32618,0.132812 0.35778,0 0.5031,-0.06065 0.32422,-0.132812 -0.0894,-0.03608 -0.20633,-0.05273 -0.32422,-0.05273 z m -73.804691,0.300782 c -0.05112,0.006 -0.02998,0.07172 0.04883,0.199218 0.151539,0.245215 0.0096,0.289179 -0.566406,0.173828 -1.184669,-0.236918 -2.662876,0.729911 -3.695313,2.419922 -0.516732,0.845832 -0.808785,1.159867 -0.71875,0.773438 0.103239,-0.443224 0.01476,-0.358801 -0.28125,0.261718 -0.487881,1.02314 -0.777607,4.415377 -0.429687,5.03711 0.141788,0.253391 0.210478,-0.347453 0.18164,-1.601563 l -0.04687,-2.005859 0.185547,1.951172 c 0.257139,2.696158 1.211059,3.97729 2.292969,3.080078 0.907082,-0.752249 1.453441,-3.46145 0.958984,-4.75 -0.254085,-0.662148 -1.071672,-0.481974 -1.384765,0.304688 -0.210015,0.527709 -0.255959,0.562838 -0.175782,0.130859 0.05976,-0.322191 0.01688,-0.530565 -0.0957,-0.460938 -0.318269,0.196729 -0.473955,1.363235 -0.232422,1.744141 0.158981,0.250697 0.224234,0.203666 0.242188,-0.177734 0.0136,-0.286203 0.0841,-0.374195 0.15625,-0.195313 0.07216,0.178882 0.342582,0.326172 0.601562,0.326172 0.676047,0 0.865785,0.718154 0.273438,1.035156 -0.726907,0.38903 -1.489906,0.322563 -1.669922,-0.146484 -0.254778,-0.663989 -0.181714,-2.374536 0.130859,-3.060547 0.581704,-1.276718 2.407395,-1.373663 3.021485,-0.160156 0.177922,0.351588 0.307503,1.342548 0.287109,2.201172 l -0.03711,1.560546 -0.154297,-1.734374 c -0.212789,-2.394308 -0.414063,-2.394402 -0.414063,0 0,1.097396 -0.09569,2.229408 -0.21289,2.515624 -0.117245,0.286217 -0.03399,0.226865 0.185547,-0.130859 0.274225,-0.447065 0.401854,-0.518919 0.408203,-0.232422 0.01521,0.691999 -1.130224,2.160891 -1.894532,2.429688 -0.48472,0.170466 -0.96676,0.157721 -1.488281,-0.03906 l -0.771484,-0.291015 0,2.71875 c 0,2.60715 0.02116,2.707517 0.503906,2.449218 0.276787,-0.148151 0.859887,-0.269531 1.294922,-0.269531 1.442261,0 2.045226,2.25617 1.113281,4.16211 -0.576662,1.179422 -1.563931,1.264752 -2.083984,0.179687 -0.192808,-0.40224 -0.286075,-0.899489 -0.207031,-1.105469 0.193247,-0.50359 0.941406,-0.47878 0.941406,0.03125 0,0.2231 -0.116359,0.333534 -0.257813,0.246094 -0.15378,-0.0951 -0.186617,0.02445 -0.08203,0.296875 0.108442,0.28263 0.214432,0.337148 0.279297,0.142578 0.05749,-0.17254 0.207295,-0.250175 0.333984,-0.171875 0.325365,0.20109 0.594974,-1.050947 0.396485,-1.841797 -0.209187,-0.833504 -0.903526,-1.124677 -1.320313,-0.554687 -0.172346,0.23568 -0.376234,0.363996 -0.455078,0.285156 -0.07883,-0.0788 -0.231855,-0.0011 -0.339844,0.173828 -0.125515,0.20302 -0.08842,0.251463 0.103516,0.132813 0.350669,-0.21672 0.388109,0.08382 0.07227,0.582031 -0.121114,0.19111 -0.324056,0.307775 -0.451172,0.259766 -0.326472,-0.12324 -0.436125,2.145585 -0.140625,2.916012 0.183871,0.47937 0.223889,0.21491 0.15625,-1.050778 l -0.08984,-1.691406 0.216797,1.550781 c 0.166971,1.185523 0.378931,1.685973 0.898437,2.132813 0.61541,0.52937 0.75544,0.55227 1.488282,0.24414 0.444785,-0.18702 1.152576,-0.66454 1.574218,-1.0625 0.751436,-0.70923 2.298829,-3.453532 2.298829,-4.076172 0,-0.17356 0.232701,-0.794481 0.515624,-1.378906 1.654503,-3.417728 1.878394,-12.003355 0.357422,-13.708984 -0.209427,-0.234877 -0.410625,-0.709136 -0.447265,-1.052735 -0.08617,-0.807778 -0.32766,-1.182519 -0.990235,-1.537109 -0.209634,-0.112197 -0.333642,-0.166133 -0.384765,-0.160156 z m 74.830081,0.08594 c -0.0882,-0.0048 0.0534,0.158652 0.40429,0.457031 0.89565,0.76216 1.12203,0.861708 0.63868,0.279297 -0.18464,-0.222459 -0.57897,-0.525824 -0.87696,-0.673828 -0.0812,-0.04032 -0.13663,-0.0609 -0.16601,-0.0625 z m -1.31446,0.04102 -1.20703,0.748047 c -1.51731,0.938094 -2.41668,2.601763 -2.85547,5.285156 l -0.32226,1.960937 0.12109,-1.632812 c 0.0667,-0.898039 0.18507,-1.9519 0.26172,-2.341797 0.13667,-0.695041 0.13482,-0.696256 -0.13281,-0.08203 -0.15012,0.344546 -0.34642,1.488549 -0.43555,2.542968 -0.14473,1.712339 -0.11557,1.898997 0.26758,1.751953 0.31268,-0.120046 0.42773,-0.01981 0.42773,0.369141 0,0.293539 0.28567,0.862157 0.63477,1.263672 0.51772,0.595456 0.72122,0.679286 1.10547,0.451172 1.15229,-0.684077 1.81701,-3.756903 1.10156,-5.09375 -0.25802,-0.482093 -0.31772,-0.49014 -0.73633,-0.111328 -0.25067,0.226848 -0.53133,0.335855 -0.62304,0.24414 -0.31048,-0.31048 -0.72097,1.221256 -0.45118,1.683594 0.19811,0.339531 0.26601,0.205411 0.30469,-0.607422 0.0461,-0.970013 0.0565,-0.981489 0.1543,-0.193359 0.0862,0.693974 0.21801,0.84375 0.73828,0.84375 0.7682,0 0.85027,0.648188 0.13086,1.033203 -0.73575,0.393765 -1.50075,0.328763 -1.68164,-0.142578 -0.31808,-0.828933 -0.14237,-2.342651 0.36914,-3.181641 0.46301,-0.759439 0.63974,-0.852184 1.49023,-0.78125 1.20965,0.100839 1.61772,0.815465 1.62305,2.839844 0.004,1.556332 -0.42753,3.18197 -0.78516,2.960938 -0.11925,-0.07376 -0.30074,0.002 -0.40429,0.169921 -0.11764,0.19026 -0.0762,0.235106 0.11132,0.119141 0.59905,-0.370222 0.28322,0.341746 -0.38476,0.867188 -0.74878,0.588973 -1.66792,0.689773 -2.45313,0.269531 -0.48364,-0.258833 -0.5039,-0.155405 -0.5039,2.642578 0,2.804226 0.0183,2.895202 0.47656,2.480469 0.26171,-0.236837 0.84281,-0.429688 1.29297,-0.429688 0.64318,0 0.90485,0.164332 1.2168,0.767578 0.83887,1.6222 0.11395,4.306641 -1.16211,4.306641 -0.70685,0 -1.46413,-1.157751 -1.20313,-1.837891 0.21553,-0.56168 0.8798,-0.451312 1.08008,0.179688 0.13829,0.4358 0.22539,0.477822 0.4043,0.195312 0.34505,-0.54481 0.2803,-1.629016 -0.13086,-2.191406 -0.34922,-0.47758 -0.39118,-0.481522 -0.86719,-0.05078 -0.27499,0.24886 -0.56508,0.386077 -0.64648,0.304687 -0.0814,-0.0814 -0.23771,-0.0048 -0.34571,0.169922 -0.12552,0.20303 -0.0865,0.251463 0.10547,0.132813 0.37413,-0.23122 0.37387,-0.07354 0.006,1.15625 -0.38095,1.27155 -0.0933,2.746629 0.68555,3.525389 0.57609,0.57609 0.67053,0.59281 1.47656,0.25391 0.47409,-0.19935 1.17915,-0.67916 1.56641,-1.06641 0.69341,-0.693399 1.93172,-3.022089 2.55468,-4.804686 1.32131,-3.780948 1.90051,-9.033621 1.33008,-12.064453 -0.37938,-2.015576 -1.48403,-3.805905 -2.72851,-4.421875 l -0.97657,-0.484375 z M 40.75,79.164062 c 0.161355,-0.004 0.43904,0.168143 0.617188,0.382813 0.411304,0.49559 0.244526,0.498831 -0.404297,0.0078 C 40.685104,79.344579 40.588644,79.168624 40.75,79.164062 Z m 9.121094,0.384766 c -0.161082,0.05677 -0.538442,0.271906 -0.97461,0.560547 -0.760453,0.503234 -1.525873,0.742034 -2.726562,0.849609 L 44.5,81.107422 l 1.224609,1.886719 c 0.673165,1.037519 1.255501,1.886718 1.292969,1.886718 0.03748,0 0.433974,-0.728058 0.882813,-1.617187 0.44884,-0.889115 1.095255,-2.056602 1.435547,-2.595703 0.340318,-0.539087 0.61914,-1.042725 0.61914,-1.119141 0,-0.01911 -0.03029,-0.01892 -0.08398,0 z m 74.156246,0.117188 c -0.0175,-0.003 -0.0432,0.01105 -0.0801,0.04297 -0.93377,0.808004 -1.79878,1.12958 -3.39258,1.263672 l -1.60547,0.134766 1.18555,1.755859 c 0.65166,0.965971 1.28432,1.757813 1.40625,1.757813 0.12191,0 0.82207,-1.201138 1.55664,-2.667969 0.70727,-1.412338 1.05225,-2.266452 0.92968,-2.287109 z m -6.1582,0.0078 c -0.0219,0.0099 0.0575,0.11753 0.22266,0.328125 0.19641,0.25043 0.47948,0.455078 0.6289,0.455078 0.14946,0 0.2237,-0.03367 0.16407,-0.07422 -0.0596,-0.04055 -0.34268,-0.245144 -0.62891,-0.455078 -0.24067,-0.176541 -0.36477,-0.2638 -0.38672,-0.253906 z m -67.566406,0.623047 c -0.02345,-5.9e-4 -0.05492,0.0085 -0.0918,0.03125 -0.141495,0.08737 -0.25586,0.269645 -0.25586,0.404297 0,0.374278 0.186415,0.292557 0.359375,-0.158203 0.06662,-0.173657 0.05862,-0.275575 -0.01172,-0.277344 z m 69.644536,0.193359 c -0.1179,0 -0.23673,0.01861 -0.32618,0.05469 -0.17887,0.07216 -0.0317,0.130859 0.32618,0.130859 0.35777,0 0.50309,-0.0587 0.32421,-0.130859 -0.0894,-0.03608 -0.20631,-0.05469 -0.32421,-0.05469 z m -2.21094,0.05273 c -0.0226,-0.0056 -0.0435,-0.0014 -0.0605,0.01563 -0.0682,0.06816 -0.0455,0.249712 0.0488,0.402344 0.25655,0.415132 0.40639,0.333523 0.23047,-0.125 -0.0635,-0.165625 -0.15081,-0.276268 -0.21875,-0.292969 z m -7.27735,0.798828 c -0.0793,0.01884 -0.18061,0.147379 -0.2539,0.339844 -0.14118,0.370823 -0.11055,0.401542 0.14648,0.146484 0.17781,-0.176508 0.25787,-0.386686 0.17774,-0.466797 -0.0201,-0.02004 -0.0439,-0.02581 -0.0703,-0.01953 z m 7.80274,0.203125 c -0.22825,0.0033 -0.33159,0.658615 -0.16211,1.523437 0.14905,0.760586 0.24399,0.93755 0.27344,0.511719 l 0.0449,-0.65039 0.26562,0.65039 c 0.15295,0.373584 0.22542,2.05379 0.16993,3.947266 l -0.0957,3.296875 0.98438,-2.095703 c 0.54156,-1.15215 0.98437,-2.20697 0.98437,-2.345704 0,-0.343305 -1.80464,-3.246913 -2.24609,-3.613281 -0.43289,-0.359258 -0.48149,-1.119263 -0.0547,-0.855469 0.19363,0.119647 0.22833,0.06957 0.0996,-0.138671 -0.0988,-0.159842 -0.18759,-0.23158 -0.26367,-0.230469 z m -75.111329,0.08398 0.189453,0.779297 c 0.10404,0.429326 0.346001,0.873851 0.539062,0.988281 0.217337,0.12885 0.336696,0.626048 0.3125,1.302735 l -0.03906,1.091797 -0.166016,-1.169922 c -0.114444,-0.810525 -0.216632,0.06949 -0.333984,2.861328 -0.09324,2.218147 -0.233251,4.385141 -0.310547,4.814453 -0.117245,0.651437 -0.08679,0.623479 0.179687,-0.160156 0.175601,-0.516426 0.445556,-1.101692 0.601563,-1.300781 0.156033,-0.199105 0.729241,-1.323814 1.273437,-2.5 l 0.990235,-2.138672 -1.013672,-1.429688 C 44.815912,83.980676 44.08876,82.952136 43.755859,82.482422 l -0.605468,-0.853516 z m 5.912109,0.910156 c -0.07149,0 -0.255024,0.233329 -0.408203,0.519532 -0.153166,0.286217 -0.219986,0.521484 -0.148438,0.521484 0.07149,0 0.255038,-0.235267 0.408203,-0.521484 0.15318,-0.286203 0.219986,-0.519532 0.148438,-0.519532 z m -4.238281,0.09766 c -0.02735,0.02736 -0.04649,0.119933 -0.05273,0.271484 -0.01201,0.274292 0.0502,0.426304 0.136719,0.339844 0.08643,-0.08643 0.09463,-0.310228 0.01953,-0.498047 -0.04155,-0.10378 -0.07617,-0.140637 -0.103515,-0.113281 z m 78.591801,0.002 c -0.0234,-5.91e-4 -0.053,0.0085 -0.0898,0.03125 -0.14147,0.0875 -0.25781,0.269632 -0.25781,0.404297 0,0.374264 0.1864,0.292558 0.35937,-0.158203 0.0666,-0.173667 0.0586,-0.275572 -0.0117,-0.277344 z m -88.220708,0.519531 c 0.02742,-0.02736 0.06395,0.0075 0.105469,0.111328 0.07509,0.187819 0.0669,0.41354 -0.01953,0.5 -0.08643,0.08643 -0.148017,-0.06752 -0.136719,-0.341797 0.006,-0.151551 0.02336,-0.242175 0.05078,-0.269531 z m 78.529298,0.757813 c -0.0869,0.06784 -0.15234,0.845056 -0.15234,1.892578 0,1.197167 0.0785,1.975989 0.17578,1.730468 0.0972,-0.245507 0.18356,-1.091817 0.1914,-1.878906 0.008,-0.78709 -0.0707,-1.563945 -0.17578,-1.728515 -0.0131,-0.02057 -0.0267,-0.02532 -0.0391,-0.01563 z M 45.603516,83.9375 c -0.02735,0.02736 -0.04454,0.119933 -0.05078,0.271484 -0.01201,0.274292 0.04826,0.426304 0.134766,0.339844 0.08643,-0.08643 0.09658,-0.310228 0.02148,-0.498047 -0.04155,-0.103786 -0.07812,-0.140638 -0.105468,-0.113281 z m 2.724609,0.01172 c -0.05642,-0.05642 -0.297171,0.305602 -0.535156,0.804687 -0.535099,1.122126 -0.348898,1.206909 0.222656,0.101563 0.228888,-0.44261 0.368949,-0.849788 0.3125,-0.90625 z m 74.404295,0.189453 c -0.0125,-0.01922 -0.10808,0.09782 -0.29883,0.335937 -0.22256,0.277787 -0.40625,0.620153 -0.40625,0.759766 0,0.330581 0.12069,0.183186 0.5,-0.613281 0.14605,-0.306672 0.21761,-0.463206 0.20508,-0.482422 z m -4.18164,0.242187 c -0.0518,0.05962 -0.15262,1.689151 -0.22461,3.621094 -0.078,2.095526 -0.0484,3.040306 0.0742,2.341797 0.11311,-0.643968 0.21596,-2.273509 0.22656,-3.621094 0.0107,-1.347572 -0.0246,-2.401433 -0.0762,-2.341797 z m -71.234374,1.642579 c -0.05872,-0.0086 -0.313488,0.375969 -0.615234,0.939453 -0.344813,0.643968 -0.626953,1.286578 -0.626953,1.429687 0,0.143108 0.28214,-0.266188 0.626953,-0.910156 0.344853,-0.643981 0.626953,-1.288532 0.626953,-1.431641 0,-0.01789 -0.0033,-0.02611 -0.01172,-0.02734 z M 44.351562,86.5625 c 0.01569,0.0058 0.03274,0.0295 0.05078,0.07422 0.07216,0.178882 0.07216,0.471495 0,0.65039 -0.07216,0.178882 -0.13086,0.03358 -0.13086,-0.324218 0,-0.268323 0.03302,-0.417922 0.08008,-0.400391 z m 64.617188,1.580078 c -0.14524,0.06404 -0.16904,1.209595 -0.16992,4.673828 0,4.640665 0.037,5.105079 0.34961,4.292969 0.23005,-0.59734 0.35407,-2.119808 0.35937,-4.423828 0.005,-2.441606 -0.10122,-3.750387 -0.34961,-4.292969 -0.0793,-0.17321 -0.14104,-0.271347 -0.18945,-0.25 z m -74.699219,0.07617 c -0.143419,-0.04856 -0.161634,1.034746 -0.158203,4.466797 0.004,3.917495 0.0698,4.926078 0.291016,4.423828 0.157607,-0.35776 0.314296,-2.196344 0.347656,-4.085937 0.04188,-2.368899 -0.05003,-3.742847 -0.292969,-4.423829 -0.07944,-0.222692 -0.139693,-0.364672 -0.1875,-0.380859 z m 9.845703,0.197266 c 0.01313,0.01989 0.02604,0.0769 0.04102,0.175781 0.05976,0.395499 0.05838,0.980765 -0.0039,1.300781 -0.06176,0.32003 -0.109423,-0.0036 -0.107422,-0.71875 0.002,-0.536647 0.03094,-0.817488 0.07031,-0.757812 z m 76.439456,0.207031 c -0.0234,-5.91e-4 -0.0549,0.0085 -0.0918,0.03125 -0.14146,0.0875 -0.25586,0.269632 -0.25586,0.404297 0,0.374264 0.1864,0.292557 0.35938,-0.158203 0.0666,-0.173667 0.0586,-0.275572 -0.0117,-0.277344 z m -74.824221,0.78125 c -0.07596,0.04543 -0.253326,0.304033 -0.458985,0.679687 -0.274212,0.500873 -0.498047,1.028766 -0.498046,1.171875 0,0.143095 0.223834,-0.149517 0.498046,-0.65039 0.274212,-0.500873 0.498047,-1.028766 0.498047,-1.171875 0,-0.03578 -0.01374,-0.04444 -0.03906,-0.0293 z m 74.138671,0.78125 c -0.0231,-9.6e-5 -0.0904,0.09245 -0.19336,0.253906 -0.30552,0.479024 -2.33203,5.333067 -2.33203,5.585938 0,0.36586 0.35837,-0.369104 1.32227,-2.710938 0.9453,-2.296634 1.27245,-3.128619 1.20312,-3.128906 z m -75.166015,1.541015 c -0.05666,0.0058 -0.190361,0.171143 -0.34375,0.439454 -0.204492,0.357764 -0.371094,0.767048 -0.371094,0.910156 0,0.143109 0.166602,-0.03289 0.371094,-0.390625 0.204518,-0.357764 0.373047,-0.767048 0.373047,-0.910156 0,-0.03577 -0.01041,-0.05076 -0.0293,-0.04883 z m 73.255855,0.06055 c -0.0397,0.03971 -0.0851,0.1906 -0.14062,0.462891 -0.0968,0.474796 -0.0594,0.647291 0.10352,0.484375 0.13876,-0.13876 0.20668,-0.470692 0.15039,-0.736328 -0.0379,-0.178862 -0.0736,-0.250651 -0.11329,-0.210938 z m -81.484371,3.259766 c -0.358658,0.01494 -0.344163,0.05991 0.08008,0.242187 0.696268,0.299195 0.704456,0.299195 0.519531,0 -0.08843,-0.143095 -0.357597,-0.252258 -0.59961,-0.242187 z m 74.863281,0.01367 c -0.0904,-0.0037 -0.19319,0.01323 -0.28711,0.05078 -0.20757,0.0831 -0.1449,0.143765 0.1582,0.15625 0.27429,0.01067 0.4263,-0.05022 0.33985,-0.136719 -0.0432,-0.04322 -0.12054,-0.06659 -0.21094,-0.07031 z m -73.367187,1.074219 c -0.06983,0.07632 -0.120906,0.431165 -0.123047,0.93164 -0.0027,0.66728 -0.09735,1.448155 -0.210937,1.734375 -0.117779,0.29661 -0.03604,0.239861 0.191406,-0.130859 0.219445,-0.35776 0.401415,-1.000368 0.404297,-1.429688 0.0027,-0.42931 -0.08157,-0.917574 -0.1875,-1.083984 -0.02648,-0.04161 -0.05094,-0.04693 -0.07422,-0.02148 z m 74.890627,0.06445 -0.18555,0.910156 c -0.10178,0.50087 -0.26876,1.202787 -0.37109,1.560547 l -0.18555,0.65039 0.39063,-0.65039 c 0.21556,-0.35776 0.38442,-1.059677 0.37304,-1.560547 l -0.0215,-0.910156 z m 4.10351,1.384765 c -0.0174,-0.02367 -0.12307,0.195097 -0.29492,0.566407 -0.58764,1.26964 -1.38829,3.903329 -1.18554,3.900389 0.0923,-0.001 0.4324,-0.86874 0.7539,-1.92773 0.54295,-1.788366 0.75558,-2.499617 0.72656,-2.539066 z m -7.36914,0.150391 c -0.0345,-0.0083 -0.0842,0.120851 -0.15429,0.365234 -0.18181,0.63399 -0.0496,2.652341 0.17382,2.652341 0.0293,0 0.0527,-0.775373 0.0527,-1.722653 0,-0.884238 -0.0147,-1.28108 -0.0723,-1.294922 z m 1.31446,0.445313 c -0.0219,0.02194 0.006,0.12122 0.0762,0.30664 0.0978,0.2566 0.24413,0.402376 0.32422,0.322266 0.0802,-0.0802 7e-5,-0.290307 -0.17774,-0.466797 -0.12849,-0.12753 -0.20071,-0.184052 -0.22265,-0.162109 z m -70.314457,2.466792 -0.796875,0.76368 c -0.736003,0.70514 -0.762551,0.78752 -0.34375,1.09375 0.552973,0.40434 0.753758,0.20764 0.972656,-0.95899 l 0.167969,-0.89844 z m 74.646487,0.0273 -0.78125,0.75 c -0.71946,0.68929 -0.7462,0.77474 -0.33399,1.07617 0.54094,0.39554 0.49672,0.43845 0.83789,-0.81055 l 0.27735,-1.01562 z m -80.978518,0.26562 c -0.100834,0.0555 -0.135286,0.92268 -0.134766,2.93555 0,3.25845 0.02369,3.42804 0.324219,2.33984 0.178215,-0.64518 0.295646,-1.87499 0.259766,-2.73242 -0.03588,-0.85741 -0.183383,-1.91052 -0.326172,-2.33984 -0.0496,-0.14911 -0.08944,-0.22162 -0.123047,-0.20313 z m 74.685548,0.082 c -0.15114,-0.0313 -0.16927,0.68811 -0.16211,2.98243 0.009,3.11999 0.0379,3.31264 0.36133,2.47265 0.19289,-0.50087 0.3555,-1.73067 0.36133,-2.73242 0.007,-1.12015 -0.13261,-2.07065 -0.36133,-2.4707 -0.0841,-0.14708 -0.14884,-0.24151 -0.19922,-0.25196 z m 6.43555,1.41211 c -0.0471,-0.0175 -0.0801,0.1321 -0.0801,0.40039 0,0.35778 0.0587,0.5031 0.13086,0.32422 0.0722,-0.17888 0.0722,-0.47151 0,-0.65039 -0.0181,-0.0447 -0.0351,-0.0684 -0.0508,-0.0742 z m -80.027348,0.19727 c -0.204486,0.0332 -0.233256,0.29311 -0.232422,0.91797 l 0,0.97656 0.626953,-0.78125 c 0.55585,-0.69222 0.577829,-0.80037 0.195313,-0.95703 -0.279754,-0.11421 -0.467474,-0.17614 -0.589844,-0.15625 z m 74.675778,0 c -0.20448,0.0332 -0.23325,0.29311 -0.23242,0.91797 l 0,0.97656 0.62695,-0.78125 c 0.55683,-0.69344 0.57798,-0.79992 0.19336,-0.95703 -0.28098,-0.11479 -0.4652,-0.1762 -0.58789,-0.15625 z m -71.701169,0.0508 c 0.01131,0.036 0.153411,0.15948 0.433594,0.38867 0.728467,0.59585 0.887167,0.66515 0.652344,0.28516 -0.08803,-0.14233 -0.416441,-0.38557 -0.730469,-0.53906 -0.245928,-0.12021 -0.36678,-0.17078 -0.355469,-0.13477 z m 74.740239,0.0156 c -0.0923,-0.0153 -0.15039,0.002 -0.15039,0.0644 0,0.16379 0.6141,0.56764 1.25,0.82031 0.0442,0.0176 0.009,-0.0843 -0.0781,-0.22656 -0.16906,-0.27346 -0.74476,-0.61227 -1.02148,-0.6582 z m 4.66601,0.0957 c -0.0427,-0.0245 -0.0742,0.18492 -0.0742,0.56055 0,0.50087 0.0537,0.7055 0.11914,0.45507 0.0655,-0.25045 0.0655,-0.65971 0,-0.91015 -0.0164,-0.0626 -0.0307,-0.0973 -0.0449,-0.10547 z m -5.9082,0.041 c -0.0716,0 -0.34058,0.23333 -0.59961,0.51954 -0.259,0.28621 -0.41335,0.52148 -0.3418,0.52148 0.0716,0 0.34257,-0.23527 0.60156,-0.52148 0.25903,-0.28621 0.4114,-0.51954 0.33985,-0.51954 z M 40.875,105.08789 c -0.08711,0.0872 -0.258944,0.58599 -0.449219,1.42969 -0.160862,0.71419 -0.192129,1.19597 -0.06836,1.07226 0.123781,-0.12378 0.329915,-0.78046 0.457031,-1.46093 0.150178,-0.80386 0.14766,-1.1282 0.06055,-1.04102 z m 69.4668,0.2168 -0.39258,0.65039 c -0.43679,0.72494 -0.551,1.29587 -0.17969,0.89844 0.12698,-0.13596 0.30678,-0.54068 0.40039,-0.89844 l 0.17188,-0.65039 z m 5.11718,0.13086 c -0.0279,0 -0.0835,0.13043 -0.19531,0.39062 -0.12298,0.28622 -0.22461,0.75482 -0.22461,1.04102 0,0.52039 0.001,0.52039 0.22461,0 0.12298,-0.2862 0.22266,-0.7548 0.22266,-1.04102 0,-0.26019 6.1e-4,-0.39062 -0.0273,-0.39062 z m -80.103511,0.58007 c -0.03843,-0.0339 -0.128381,0.0402 -0.232422,0.20118 -0.13872,0.21465 -0.251953,0.50728 -0.251953,0.65039 0,0.14311 0.113233,0.0838 0.251953,-0.13086 0.138721,-0.21467 0.251953,-0.50728 0.251953,-0.65039 0,-0.0358 -0.0067,-0.059 -0.01953,-0.0703 z m -0.625,1.79297 c -0.02649,0.01 -0.06094,0.13247 -0.109375,0.35938 -0.149351,0.69987 -0.07449,1.95117 0.117187,1.95117 0.04108,0 0.0697,-0.61393 0.0625,-1.36523 -0.0067,-0.66182 -0.02616,-0.96141 -0.07031,-0.94532 z m 74.691411,0.12891 c -0.0389,-0.0386 -0.0664,0.29059 -0.0664,0.88086 0,0.78709 0.0497,1.10838 0.10937,0.71484 0.0596,-0.39355 0.0596,-1.03614 0,-1.42968 -0.0149,-0.0984 -0.03,-0.15317 -0.043,-0.16602 z m 2.6621,0.23047 -0.21875,1.10937 c -0.12031,0.61039 -0.29163,1.25496 -0.38085,1.43164 -0.0892,0.17668 0.0207,0.0941 0.24609,-0.18359 0.22527,-0.27779 0.39653,-0.92235 0.38086,-1.43164 l -0.0273,-0.92578 z m -3.14843,2.73242 c -0.15541,0.0883 -0.17774,0.98842 -0.17774,3.72266 0,3.45562 0.0602,4.08203 0.39063,4.08203 0.32841,0 0.38977,-0.56779 0.38281,-3.57813 -0.007,-2.73291 -0.0987,-3.69621 -0.39063,-4.08203 -0.0853,-0.11275 -0.15327,-0.17398 -0.20507,-0.14453 z m -74.6543,0.043 c -0.164122,-0.0429 -0.180208,0.80549 -0.1875,3.68555 -0.008,3.18349 0.0631,4.09512 0.314453,4.01171 0.231302,-0.0767 0.348214,-1.05567 0.40625,-3.38867 0.06376,-2.56398 -0.0049,-3.44014 -0.314453,-4.01172 -0.09239,-0.17041 -0.164043,-0.28258 -0.21875,-0.29687 z"
     id="path3369"
     inkscape:connector-curvature="0" />
</svg>
