<?xml version="1.0" standalone="no"?>
<!DOCTYPE svg PUBLIC "-//W3C//DTD SVG 20010904//EN"
 "http://www.w3.org/TR/2001/REC-SVG-20010904/DTD/svg10.dtd">
<svg version="1.0" xmlns="http://www.w3.org/2000/svg"
 width="165.000000pt" height="165.000000pt" viewBox="0 0 165.000000 165.000000"
 preserveAspectRatio="xMidYMid meet">

<g transform="translate(0.000000,165.000000) scale(0.100000,-0.100000)"
fill="#000000" stroke="none">
<path d="M705 1640 c-177 -28 -334 -108 -461 -234 -102 -103 -178 -234 -216
-374 -29 -109 -29 -305 0 -414 38 -140 114 -271 216 -374 105 -104 231 -177
377 -215 117 -32 290 -32 407 -1 291 78 516 303 593 592 32 119 32 291 0 409
-66 250 -245 458 -478 555 -126 53 -309 76 -438 56z m-75 -171 c11 -19 9 -44
-6 -83 -4 -11 0 -16 14 -16 11 0 22 -4 24 -8 2 -5 15 -12 31 -16 20 -5 27 -3
27 9 0 16 34 55 49 55 23 0 71 -37 76 -59 6 -22 10 -23 51 -17 38 5 44 3 44
-12 0 -10 -10 -26 -21 -36 -27 -23 -11 -41 28 -31 27 6 27 7 9 21 -11 7 -17
17 -14 20 11 11 48 -7 48 -23 0 -9 6 -13 15 -9 9 3 32 -2 52 -12 28 -13 37
-14 41 -4 2 7 10 19 18 26 8 8 13 25 13 38 -1 16 -3 18 -6 6 -5 -19 -37 -33
-53 -23 -5 3 -10 22 -10 41 0 27 5 37 23 43 48 18 77 -13 77 -81 0 -41 3 -48
20 -48 13 0 20 -7 20 -20 0 -13 -7 -20 -20 -20 -19 0 -19 -9 -22 -254 -3 -231
-2 -253 13 -245 23 12 52 -11 43 -34 -4 -11 -13 -16 -24 -12 -13 4 -19 -1 -24
-21 -8 -29 13 -124 26 -124 4 0 8 -20 8 -45 0 -25 -4 -45 -10 -45 -5 0 -10 -7
-10 -15 0 -8 -13 -29 -28 -47 -33 -38 -47 -69 -29 -63 22 8 39 -11 35 -41 -2
-23 -9 -30 -29 -32 -38 -4 -62 24 -56 64 5 32 5 32 -38 36 -38 3 -45 0 -47
-17 -2 -11 -15 -26 -30 -33 -38 -18 -98 9 -98 43 0 22 -3 23 -32 14 -18 -5
-39 -9 -45 -9 -21 0 -15 30 10 51 l22 19 -40 -6 c-43 -7 -59 -14 -32 -14 9 0
17 -7 17 -15 0 -21 -39 -19 -48 3 -4 9 -18 18 -32 19 -14 2 -44 5 -67 9 l-43
6 0 -46 c0 -33 5 -48 16 -53 18 -7 42 13 29 24 -4 5 -10 2 -12 -4 -3 -7 -9
-13 -14 -13 -15 0 -10 30 7 48 15 15 18 14 35 -7 23 -29 23 -40 0 -69 -39 -46
-91 -10 -99 70 -4 39 -8 48 -24 48 -23 0 -78 55 -78 78 1 46 21 94 54 129 l36
38 -35 3 c-26 2 -35 8 -35 21 0 21 42 46 67 39 17 -5 18 4 15 127 l-3 132 -24
-5 c-17 -3 -27 1 -31 12 -9 22 5 34 17 16 8 -13 10 -13 19 0 12 18 13 110 2
110 -14 0 -32 73 -32 128 0 49 2 53 65 117 42 43 65 75 65 90 0 22 -22 40 -34
28 -12 -12 -6 -22 10 -16 12 4 15 1 12 -13 -2 -12 -13 -20 -31 -22 -25 -3 -27
-1 -27 32 0 36 9 44 52 45 18 1 31 -6 38 -20z"/>
<path d="M1086 1341 c-4 -5 3 -7 14 -4 23 6 26 13 6 13 -8 0 -17 -4 -20 -9z"/>
<path d="M530 1278 l-23 -43 25 23 c16 14 37 22 60 22 20 0 43 3 52 6 27 11
-8 34 -51 34 -36 0 -41 -4 -63 -42z"/>
<path d="M680 1310 c0 -5 5 -10 11 -10 6 0 8 -9 4 -20 -6 -18 -2 -20 34 -20
52 0 59 13 16 30 -19 8 -35 17 -35 22 0 4 -7 8 -15 8 -8 0 -15 -4 -15 -10z"/>
<path d="M577 1195 c-16 -23 -18 -45 -16 -196 2 -143 5 -171 18 -179 14 -9 14
-11 1 -22 -12 -11 -15 -43 -12 -191 l2 -177 26 0 c20 0 25 4 20 16 -5 14 -1
15 31 10 21 -4 67 -9 102 -12 53 -5 65 -4 73 10 11 19 28 21 28 2 0 -21 241
-9 255 13 6 9 12 93 15 186 4 143 3 172 -10 182 -13 10 -13 13 2 25 15 11 17
27 14 118 -2 58 -4 133 -5 168 -1 34 -4 62 -9 62 -4 0 -6 -19 -5 -42 2 -24 0
-37 -3 -30 -3 6 -12 12 -19 12 -20 0 -26 28 -7 33 9 3 -1 5 -24 6 -22 0 -44 5
-50 10 -11 12 -146 17 -163 7 -6 -4 -17 -3 -24 2 -7 5 -59 10 -117 11 -102 1
-106 0 -123 -24z"/>
<path d="M490 680 c0 -5 5 -10 10 -10 6 0 10 5 10 10 0 6 -4 10 -10 10 -5 0
-10 -4 -10 -10z"/>
<path d="M502 590 l-23 -25 21 -3 c28 -5 32 1 28 29 l-3 24 -23 -25z"/>
<path d="M497 510 c6 -23 19 -26 26 -6 6 16 -1 26 -19 26 -7 0 -10 -8 -7 -20z"/>
<path d="M462 493 c4 -23 45 -63 64 -63 8 0 14 10 14 24 0 20 -4 22 -26 18
-20 -3 -26 0 -31 17 -6 25 -25 29 -21 4z"/>
<path d="M930 402 c0 -5 17 -17 38 -26 31 -14 46 -15 92 -6 30 6 61 18 70 26
14 15 13 15 -7 5 -12 -6 -35 -11 -52 -11 -16 0 -33 -4 -36 -10 -9 -15 -25 -12
-25 4 0 8 -7 17 -16 20 -23 9 -64 7 -64 -2z"/>
<path d="M894 369 c-18 -29 18 -75 49 -63 15 5 19 34 5 34 -4 0 -8 -7 -8 -15
0 -8 -4 -15 -9 -15 -15 0 -22 32 -11 45 8 9 6 14 -4 18 -9 4 -18 2 -22 -4z"/>
</g>
</svg>
