<?xml version="1.0" encoding="UTF-8" standalone="no"?>
<!-- Created with Inkscape (http://www.inkscape.org/) -->

<svg
   xmlns:dc="http://purl.org/dc/elements/1.1/"
   xmlns:cc="http://creativecommons.org/ns#"
   xmlns:rdf="http://www.w3.org/1999/02/22-rdf-syntax-ns#"
   xmlns:svg="http://www.w3.org/2000/svg"
   xmlns="http://www.w3.org/2000/svg"
   xmlns:sodipodi="http://sodipodi.sourceforge.net/DTD/sodipodi-0.dtd"
   xmlns:inkscape="http://www.inkscape.org/namespaces/inkscape"
   id="svg3336"
   version="1.1"
   inkscape:version="0.91 r13725"
   width="165.00108"
   height="164.99913"
   viewBox="0 0 165.00108 164.99913"
   sodipodi:docname="unic.svg">
  <metadata
     id="metadata3342">
    <rdf:RDF>
      <cc:Work
         rdf:about="">
        <dc:format>image/svg+xml</dc:format>
        <dc:type
           rdf:resource="http://purl.org/dc/dcmitype/StillImage" />
        <dc:title></dc:title>
      </cc:Work>
    </rdf:RDF>
  </metadata>
  <defs
     id="defs3340" />
  <sodipodi:namedview
     pagecolor="#ffffff"
     bordercolor="#666666"
     borderopacity="1"
     objecttolerance="10"
     gridtolerance="10"
     guidetolerance="10"
     inkscape:pageopacity="0"
     inkscape:pageshadow="2"
     inkscape:window-width="1366"
     inkscape:window-height="705"
     id="namedview3338"
     showgrid="false"
     fit-margin-top="0"
     fit-margin-left="0"
     fit-margin-right="0"
     fit-margin-bottom="0"
     inkscape:zoom="2.09375"
     inkscape:cx="89.69585"
     inkscape:cy="119.30616"
     inkscape:window-x="-8"
     inkscape:window-y="-8"
     inkscape:window-maximized="1"
     inkscape:current-layer="svg3336" />
  <path
     style="opacity:1;fill:#1a1a1a;fill-opacity:1;stroke:#000000;stroke-width:1.05185652;stroke-miterlimit:4;stroke-dasharray:none;stroke-opacity:0"
     d="M 82.50054,0.52592826 A 81.974075,81.974075 0 0 0 0.52592826,82.500537 81.974075,81.974075 0 0 0 82.50054,164.4732 81.974075,81.974075 0 0 0 164.47515,82.500537 81.974075,81.974075 0 0 0 82.50054,0.52592826 Z M 82.09429,33.531788 c 0.21658,-0.02455 0.47487,0.0258 0.78125,0.123047 1.05203,0.333899 1.21658,1.260892 1.22265,6.896484 0.004,3.970854 -0.11331,5.05276 -0.60546,5.544922 -0.7311,0.731094 -1.40104,0.778643 -2.03516,0.144531 -0.32073,-0.320731 -0.4668,-2.254778 -0.4668,-6.177734 0,-4.935995 0.165,-6.424847 1.10352,-6.53125 z m 29.73633,12.173828 c 0.70506,0.09059 1.45312,0.729639 1.45312,1.423828 0,0.856165 -0.60374,1.476676 -5.25195,5.390625 -3.45977,2.913244 -4.03145,3.220787 -4.98438,2.6875 -1.35464,-0.758095 -0.66704,-1.846271 3.45703,-5.46875 2.26326,-1.987984 4.36221,-3.754284 4.66407,-3.923828 0.19569,-0.109914 0.42709,-0.139571 0.66211,-0.109375 z m -59.292973,0.234375 c 0.974542,0.01495 8.998047,7.298262 8.998047,8.167968 0,0.880455 -1.102376,1.550175 -1.986328,1.207032 -1.294903,-0.502668 -8.120629,-6.503516 -8.357422,-7.347656 -0.282043,-1.00547 0.405563,-2.04176 1.345703,-2.027344 z m 29.724613,4.710937 c 2.88516,-0.05048 5.7477,0.328154 8.26171,1.158203 5.71698,1.88756 11.54333,7.131608 14.41993,12.976563 1.89275,3.845862 2.626,7.66584 2.39062,12.464843 -0.31952,6.51442 -2.21176,10.76462 -7.27929,16.34375 -3.07552,3.386 -4.82706,6.644033 -5.53907,10.308593 l -0.49219,2.5293 -10.69921,2.79102 c -5.8849,1.53548 -10.99431,2.80627 -11.35352,2.82226 -0.35921,0.016 -0.9274,-0.2477 -1.26367,-0.58398 -1.63646,-1.63645 -0.59149,-2.12623 10.33398,-4.8457 l 10.20313,-2.53907 0.51562,-2.26758 c 0.70947,-3.123883 2.98528,-7.295643 5.06446,-9.281253 4.71115,-4.49912 7.10076,-9.49348 7.40234,-15.4707 0.3312,-6.564311 -1.46775,-11.517526 -5.92187,-16.296874 -4.27098,-4.582825 -8.52971,-6.607119 -14.5918,-6.933594 -7.62069,-0.410411 -13.62791,2.2129 -18.24414,7.964844 -4.606588,5.739905 -6.087077,12.912532 -4.166018,20.179684 0.832568,3.14951 2.870298,6.57141 5.923828,9.94922 3.27107,3.61845 5.34752,7.49451 6.19531,11.560553 0.66316,3.18053 0.3515,4.3125 -1.18554,4.3125 -0.97586,0 -1.23836,-0.57663 -1.94922,-4.2793 -0.46851,-2.44035 -2.86554,-6.751323 -5.30078,-9.533203 -4.757312,-5.43448 -6.527689,-9.05955 -7.351567,-15.04492 C 56.175795,68.332946 62.06753,57.451899 71.71343,52.938038 74.80471,51.49145 78.55276,50.715837 82.26226,50.650928 Z M 45.998584,70.441944 c 4.532992,0 5.111391,0.07818 5.820313,0.787109 0.625149,0.62515 0.701991,0.945655 0.375,1.556641 -0.38343,0.716444 -0.833749,0.769531 -6.558594,0.769531 -3.380743,0 -6.263585,-0.117101 -6.40625,-0.259766 -0.142666,-0.142662 -0.259765,-0.673112 -0.259765,-1.177734 0,-1.361591 1.320391,-1.675781 7.029296,-1.675781 z m 72.757816,0 c 5.52425,0 6.68473,0.227628 7.13476,1.400391 0.57017,1.485849 -0.35525,1.71289 -6.99804,1.71289 -5.93578,0 -6.38717,-0.05143 -6.77149,-0.769531 -0.32699,-0.610986 -0.25015,-0.931491 0.375,-1.556641 0.71544,-0.715447 1.28512,-0.787109 6.25977,-0.787109 z M 75.76421,82.902877 c 0.73771,-0.0328 1.75219,0.15312 3.06055,0.54688 1.01724,0.30614 2.15645,0.83267 2.53125,1.17187 0.62564,0.56618 0.82338,0.53961 2.39648,-0.33203 2.15692,-1.19513 4.29258,-1.6044 5.36719,-1.02929 1.07124,0.57331 1.04097,1.01591 -0.35352,4.96679 -1.27639,3.61629 -2.32556,8.88967 -2.33398,11.73828 -0.008,2.721063 -0.3321,3.548833 -1.38867,3.548833 -1.19137,0 -1.71875,-1.05216 -1.71875,-3.42578 0,-2.448303 0.93305,-7.810753 1.89648,-10.906253 0.41062,-1.31933 0.69323,-2.39844 0.62891,-2.39844 -0.0643,0 -0.84962,0.61234 -1.7461,1.36133 -0.89647,0.74898 -1.91526,1.36133 -2.26367,1.36133 -0.34841,0 -1.30791,-0.74285 -2.13086,-1.65234 -1.67101,-1.84671 -1.65313,-2.06907 -0.24414,3.20898 0.83762,3.13765 1.41073,9.750393 0.99024,11.425783 -0.18955,0.75522 -0.50748,1.02539 -1.20118,1.02539 -0.51828,0 -1.02565,-0.13761 -1.1289,-0.30469 -0.10326,-0.16705 -0.37474,-2.31124 -0.60352,-4.765623 -0.4197,-4.50271 -1.30021,-8.35503 -2.75,-12.0332 -0.90858,-2.30507 -0.63077,-3.43564 0.99219,-3.50782 z m -19.894532,10.10547 c 0.932836,0 1.552081,1.13524 1.16211,2.13086 -0.450217,1.14945 -8.946352,8.375003 -9.847657,8.375003 -0.366186,0 -0.876017,-0.20999 -1.132812,-0.46679 -0.256796,-0.25679 -0.466797,-0.76812 -0.466797,-1.13477 0,-0.72819 9.443983,-8.904303 10.285156,-8.904303 z m 51.816402,0 c 0.75769,0 10.30395,7.927583 10.80274,8.970713 0.52923,1.1068 0.0108,1.9279 -1.20313,1.90039 -0.77245,-0.0175 -2.19737,-0.9687 -4.97461,-3.32227 -6.01056,-5.093663 -6.25789,-5.377653 -5.7207,-6.556643 0.24846,-0.54531 0.74192,-0.99219 1.0957,-0.99219 z M 93.2603,110.96734 c 0.37459,0.0736 0.87345,0.43707 1.10743,0.80859 0.88041,1.39807 -0.69529,2.02838 -11.82032,4.7207 -5.8849,1.42418 -10.79636,2.58621 -10.91406,2.58399 -0.1177,-0.002 -0.42484,-0.2139 -0.68164,-0.4707 -0.60651,-0.60651 -0.59686,-1.67058 0.0195,-2.15235 0.6852,-0.53558 21.4609,-5.65301 22.28906,-5.49023 z m 0.041,7.14062 c 0.45789,0.10182 0.93852,0.46048 1.06836,0.79883 0.60634,1.58011 -0.26439,1.95116 -10.83008,4.59375 -10.71867,2.68086 -12.54129,2.96554 -12.9043,2.01953 -0.65549,-1.70817 -0.31241,-1.85809 10.94336,-4.77539 5.98979,-1.55245 11.26477,-2.73855 11.72266,-2.63672 z m -4.83203,8.02539 c 0.47985,-0.0432 0.79618,0.19234 1.0664,0.69727 0.54936,1.02648 0.23878,1.62244 -1.40039,2.6875 -3.09423,2.01048 -6.24513,2.47455 -9.34765,1.375 -2.146,-0.76056 -3.72109,-2.24446 -3.5625,-3.35547 0.17822,-1.24851 1.19169,-1.26858 3.63281,-0.0742 2.69052,1.31634 5.22,1.19863 7.5625,-0.35156 0.92587,-0.61271 1.56898,-0.93527 2.04883,-0.97852 z"
     id="path3348"
     inkscape:connector-curvature="0" />
</svg>
