<?xml version="1.0" encoding="UTF-8" standalone="no"?>
<!-- Created with Inkscape (http://www.inkscape.org/) -->

<svg
   xmlns:osb="http://www.openswatchbook.org/uri/2009/osb"
   xmlns:dc="http://purl.org/dc/elements/1.1/"
   xmlns:cc="http://creativecommons.org/ns#"
   xmlns:rdf="http://www.w3.org/1999/02/22-rdf-syntax-ns#"
   xmlns:svg="http://www.w3.org/2000/svg"
   xmlns="http://www.w3.org/2000/svg"
   xmlns:sodipodi="http://sodipodi.sourceforge.net/DTD/sodipodi-0.dtd"
   xmlns:inkscape="http://www.inkscape.org/namespaces/inkscape"
   width="113.75999mm"
   height="111.75729mm"
   viewBox="0 0 403.08665 395.9904"
   id="svg2"
   version="1.1"
   inkscape:version="0.91 r13725"
   sodipodi:docname="map.svg"
   inkscape:export-filename="C:\Users\Gleb\Desktop\drawing.png"
   inkscape:export-xdpi="90"
   inkscape:export-ydpi="90">
  <defs
     id="defs4">
    <linearGradient
       id="linearGradient5829"
       osb:paint="solid">
      <stop
         style="stop-color:#0752cd;stop-opacity:1;"
         offset="0"
         id="stop5831" />
    </linearGradient>
    <linearGradient
       id="linearGradient5775"
       osb:paint="solid">
      <stop
         style="stop-color:#0752cd;stop-opacity:1;"
         offset="0"
         id="stop5777" />
    </linearGradient>
  </defs>
  <sodipodi:namedview
     id="base"
     pagecolor="#ffffff"
     bordercolor="#666666"
     borderopacity="1.0"
     inkscape:pageopacity="0.0"
     inkscape:pageshadow="2"
     inkscape:zoom="0.9899495"
     inkscape:cx="285.51629"
     inkscape:cy="213.31828"
     inkscape:document-units="px"
     inkscape:current-layer="layer1"
     showgrid="false"
     inkscape:window-width="1366"
     inkscape:window-height="705"
     inkscape:window-x="-8"
     inkscape:window-y="-8"
     inkscape:window-maximized="1"
     fit-margin-top="0"
     fit-margin-left="0"
     fit-margin-right="0"
     fit-margin-bottom="0"
     showguides="true"
     inkscape:guide-bbox="true" />
  <metadata
     id="metadata7">
    <rdf:RDF>
      <cc:Work
         rdf:about="">
        <dc:format>image/svg+xml</dc:format>
        <dc:type
           rdf:resource="http://purl.org/dc/dcmitype/StillImage" />
        <dc:title></dc:title>
      </cc:Work>
    </rdf:RDF>
  </metadata>
  <g
     inkscape:label="Layer 1"
     inkscape:groupmode="layer"
     id="layer1"
     transform="translate(-2287.7947,180.11975)">
    <g
       id="g4346"
       transform="translate(2134.0997,-315.49686)">
      <path
         style="opacity:1;fill:#174e6c;fill-opacity:0;stroke:#174e6c;stroke-width:3;stroke-miterlimit:4;stroke-dasharray:none;stroke-opacity:1"
         d="m 283.04648,158.09029 0,63.63671 -117.18164,0 0,329.31641 218.19922,0 0,-291.9375 181.82422,0 0,-101.01562 -282.8418,0 z"
         id="rect5783"
         inkscape:connector-curvature="0"
         transform="translate(-10.606599,-21.213209)" />
      <path
         style="opacity:1;fill:#174e6c;fill-opacity:0;stroke:#174e6c;stroke-width:2.9979229;stroke-miterlimit:4;stroke-dasharray:none;stroke-opacity:1"
         d="m 319.32609,356.56655 0,-49.98472 -153.52551,0 0,126.09304 153.52551,0 0,-59.9688"
         id="rect5862"
         inkscape:connector-curvature="0"
         sodipodi:nodetypes="cccccc"
         transform="translate(-10.606599,-21.213209)" />
      <path
         style="opacity:1;fill:#174e6c;fill-opacity:0;stroke:#174e6c;stroke-width:2.97399998;stroke-miterlimit:4;stroke-dasharray:none;stroke-opacity:1"
         d="m 283.06445,246.67662 0,-24.91602 -117.10351,0 0,84.87891 117.10351,0 0,-43.80078"
         id="rect5864"
         inkscape:connector-curvature="0"
         sodipodi:nodetypes="cccccc"
         transform="translate(-10.606599,-21.213209)" />
      <path
         style="opacity:1;fill:#174e6c;fill-opacity:0;stroke:#174e6c;stroke-width:2.94499898;stroke-miterlimit:4;stroke-dasharray:none;stroke-opacity:1"
         d="m 309.3582,462.65123 0,-29.78711 -143.49805,0 0,118.24414 143.49805,0 m 0,0 0,-72.29492"
         id="rect5866"
         inkscape:connector-curvature="0"
         sodipodi:nodetypes="ccccccc"
         transform="translate(-10.606599,-21.213209)" />
      <path
         style="opacity:1;fill:#174e6c;fill-opacity:0;stroke:#174e6c;stroke-width:3.16982794;stroke-miterlimit:4;stroke-dasharray:none;stroke-opacity:1"
         d="m 342.44089,221.9384 41.57871,0 0,-63.72083 -100.82993,0 0,63.72083 43.33972,0"
         id="rect5870"
         inkscape:connector-curvature="0"
         sodipodi:nodetypes="cccccc"
         transform="translate(-10.606599,-21.213209)" />
      <path
         sodipodi:nodetypes="cc"
         inkscape:connector-curvature="0"
         id="path4161"
         d="m 384.121,221.33846 0,16.22988"
         style="opacity:1;fill:#174e6c;fill-opacity:0;fill-rule:evenodd;stroke:#174e6c;stroke-width:2.97399998;stroke-linecap:butt;stroke-linejoin:miter;stroke-miterlimit:4;stroke-dasharray:none;stroke-opacity:1"
         transform="translate(-10.606599,-21.213209)" />
      <path
         inkscape:connector-curvature="0"
         id="path4176"
         d="m 358.83447,177.97464 0,-0.52668 0.14797,-0.22667 c 0.1143,-0.17508 0.52317,-0.73524 0.799,-1.09463 0.0162,-0.0211 -0.0728,-0.0689 -0.26236,-0.14112 -1.10539,-0.42125 -1.97371,-1.27484 -2.34291,-2.30315 -0.10229,-0.28498 -0.19124,-0.71293 -0.21572,-1.0382 l -0.0206,-0.27259 4.44324,0 4.44324,0 -0.0209,0.24313 c -0.0197,0.23009 -0.0831,0.61494 -0.12081,0.73386 -0.0407,0.12837 0.44393,0.0285 0.62244,-0.12821 0.17385,-0.15264 0.22507,-0.29028 0.32127,-0.86352 0.0245,-0.14587 0.0569,-0.30832 0.0721,-0.361 l 0.0277,-0.0958 -0.29264,0 -0.29264,0 0,-2.82909 0,-2.8291 1.77077,0 1.77079,0 -0.0175,0.1105 c -0.009,0.0607 -0.16322,1.28415 -0.34137,2.7186 -0.17815,1.43444 -0.33176,2.65781 -0.34136,2.71859 l -0.0175,0.1105 -0.66047,0 -0.66048,0 0,0.11587 c 0,0.14282 -0.2624,0.96246 -0.41128,1.28473 -0.20835,0.45096 -0.58606,0.76047 -1.07695,0.88246 -0.2249,0.0559 -0.55119,0.10271 -0.72201,0.10344 -0.12513,5.9e-4 -0.13741,0.008 -0.21755,0.13507 -0.42983,0.68033 -1.15955,1.25588 -1.99562,1.57396 -0.17899,0.0682 -0.3028,0.1312 -0.29762,0.15167 0.004,0.0193 0.11932,0.1888 0.25426,0.37673 0.13495,0.18794 0.32655,0.4673 0.42579,0.62081 l 0.18043,0.27912 0,0.53867 0,0.53868 -2.47547,0 -2.47546,0 0,-0.52668 z m -1.88608,-6.07457 0,-0.23575 3.89001,0 3.89003,0 0,-3.53638 0,-3.53637 0.47151,0 0.47151,0 0,3.77214 0,3.77214 -4.36152,0 -4.36154,0 0,-0.23578 z m 9.19459,-6.24759 0,-0.35364 1.76818,0 1.7682,0 0,0.35364 0,0.35365 -1.7682,0 -1.76818,0 0,-0.35365 z"
         style="fill:#174e6c;fill-opacity:1;stroke:#174e6c;stroke-width:0.02946981;stroke-opacity:1"
         transform="translate(-10.606599,-21.213209)" />
      <path
         style="fill:#174e6c;fill-opacity:1;stroke:#174e6c;stroke-width:0.03001891;stroke-opacity:1"
         d="m 302.08434,178.67883 0,-0.53649 0.15074,-0.2309 c 0.11642,-0.17834 0.53291,-0.74894 0.81388,-1.11503 0.0165,-0.0214 -0.0741,-0.0702 -0.26725,-0.14374 -1.12599,-0.4291 -2.01048,-1.29859 -2.38656,-2.34607 -0.10423,-0.29029 -0.1948,-0.72622 -0.21974,-1.05754 l -0.0209,-0.27767 4.52603,0 4.52603,0 -0.0212,0.24765 c -0.0201,0.23439 -0.0847,0.62641 -0.12307,0.74755 -0.0415,0.13075 0.4522,0.029 0.63404,-0.1306 0.17709,-0.15549 0.22926,-0.2957 0.32726,-0.87962 0.0249,-0.14858 0.058,-0.31407 0.0735,-0.36773 l 0.0282,-0.0976 -0.29809,0 -0.2981,0 0,-2.88181 0,-2.88182 1.80377,0 1.80378,0 -0.0178,0.11257 c -0.01,0.0619 -0.16626,1.30808 -0.34773,2.76925 -0.18146,1.46117 -0.33794,2.70733 -0.34772,2.76924 l -0.0178,0.11257 -0.67279,0 -0.67278,0 0,0.11802 c 0,0.14549 -0.26727,0.9804 -0.41894,1.30867 -0.21223,0.45936 -0.59697,0.77463 -1.09702,0.8989 -0.22908,0.0569 -0.56145,0.10457 -0.73546,0.10541 -0.12746,6.1e-4 -0.13997,0.009 -0.2216,0.13759 -0.43784,0.69301 -1.18116,1.27928 -2.0328,1.60329 -0.18233,0.0694 -0.30845,0.13364 -0.30316,0.15449 0.005,0.0196 0.12152,0.19233 0.25899,0.38376 0.13746,0.19144 0.33264,0.476 0.43372,0.63237 l 0.18379,0.28432 0,0.54871 0,0.54872 -2.52159,0 -2.52159,0 0,-0.5365 z m -1.92121,-6.18775 0,-0.24015 3.96249,0 3.96251,0 0,-3.60226 0,-3.60228 0.4803,0 0.4803,0 0,3.84243 0,3.84242 -4.4428,0 -4.4428,0 0,-0.24016 z m 9.3659,-6.364 0,-0.36023 1.80114,0 1.80113,0 0,0.36023 0,0.36022 -1.80113,0 -1.80114,0 0,-0.36022 z"
         id="path4178"
         inkscape:connector-curvature="0"
         transform="translate(-10.606599,-21.213209)" />
      <path
         inkscape:connector-curvature="0"
         id="path4191"
         d="m 330.68463,179.11387 c -0.043,-0.043 -0.0782,-0.19132 -0.0782,-0.32962 0,-0.23322 1.01652,-4.0484 1.10122,-4.13311 0.0209,-0.0209 0.34683,0.0425 0.72428,0.14074 0.85279,0.22212 1.88738,0.22574 2.80537,0.01 0.38643,-0.0909 0.7141,-0.15376 0.72815,-0.13971 0.014,0.014 0.28333,0.95474 0.59837,2.09041 0.38768,1.39744 0.53893,2.12542 0.46795,2.25225 -0.0919,0.16427 -0.48517,0.18739 -3.18692,0.18739 -1.69515,0 -3.11725,-0.0352 -3.16025,-0.0782 z m 1.56349,-4.71616 c -1.032,-0.33365 -1.64374,-0.70027 -2.35461,-1.41115 -0.68982,-0.68982 -1.05543,-1.29087 -1.3958,-2.29462 -0.17814,-0.52533 -0.24125,-0.5939 -0.5949,-0.64631 -0.27466,-0.0407 -0.45065,-0.15723 -0.5756,-0.3811 -0.16167,-0.28967 -0.16171,-0.35525 -3.5e-4,-0.64494 0.15343,-0.27542 0.27302,-0.33102 0.81982,-0.3811 0.48801,-0.0447 0.64944,-0.10741 0.67912,-0.26383 0.0269,-0.14198 -0.036,-0.20522 -0.20419,-0.20522 -0.30574,0 -0.71218,-0.39674 -0.71218,-0.69519 0,-0.48275 0.29513,-0.59468 1.56797,-0.59468 0.77653,0 1.24903,0.0496 1.34013,0.14071 0.34754,0.34754 0.01,1.14916 -0.48414,1.14916 -0.1178,0 -0.19598,0.0936 -0.19598,0.23453 0,0.22533 0.0782,0.23452 1.99345,0.23452 l 1.99345,0 0,-1.49831 c 0,-1.6795 -0.0922,-1.94361 -0.73814,-2.11565 -0.56064,-0.14931 -1.0119,0.0517 -1.23887,0.55181 -0.16338,0.35996 -0.24971,0.42393 -0.57343,0.4249 -0.33297,5.7e-4 -0.3811,-0.0376 -0.3811,-0.30513 0,-0.39994 0.42898,-1.02669 0.94088,-1.37464 0.33539,-0.22798 0.51758,-0.26825 1.02811,-0.22726 0.65797,0.0528 1.07108,0.28582 1.48298,0.83642 0.20955,0.28012 0.24958,0.54476 0.3004,1.98621 l 0.0586,1.66302 1.26056,0.0333 c 1.14469,0.0302 1.26033,0.014 1.25803,-0.17588 -0.002,-0.1198 -0.16432,-0.28435 -0.38111,-0.38507 -0.27378,-0.12722 -0.38902,-0.26711 -0.41635,-0.50546 -0.0668,-0.5821 0.11826,-0.66716 1.45091,-0.66716 1.28247,0 1.57706,0.11107 1.57706,0.59468 0,0.29845 -0.40643,0.6952 -0.71217,0.6952 -0.16821,0 -0.23113,0.0632 -0.20419,0.20521 0.0297,0.15642 0.1911,0.21913 0.67911,0.26383 0.5468,0.0501 0.66639,0.10567 0.81982,0.3811 0.16136,0.28968 0.16132,0.35526 -3.5e-4,0.64494 -0.12494,0.22388 -0.30095,0.3404 -0.5756,0.3811 -0.35365,0.0524 -0.41676,0.12098 -0.5949,0.64632 -0.64978,1.9162 -2.05809,3.26747 -3.9263,3.76726 -0.81676,0.21849 -2.21296,0.18978 -2.99018,-0.0615 z m 0.0933,-1.44118 c 0.0219,-0.11342 -0.0623,-0.22548 -0.20297,-0.27011 -0.46056,-0.14617 -1.35855,-0.96973 -1.70786,-1.56629 -0.20854,-0.35616 -0.43534,-0.60174 -0.55699,-0.60313 -0.66877,-0.008 0.41191,1.63932 1.55242,2.36581 0.56527,0.36008 0.85575,0.38347 0.9154,0.0737 z m 7.68841,-3.43858 c 0.0371,-0.0967 0.0371,-0.25504 0,-0.35178 -0.0588,-0.15322 -0.85019,-0.1759 -6.1382,-0.1759 -5.25313,0 -6.09037,0.0238 -6.21668,0.1759 -0.11647,0.14033 -0.11647,0.21146 0,0.35178 0.12631,0.15221 0.96355,0.17589 6.21668,0.17589 5.28801,0 6.07941,-0.0227 6.1382,-0.17589 z m -9.60883,-1.77147 c 0.10202,-0.0391 0.18549,-0.17106 0.18549,-0.29315 0,-0.20212 -0.099,-0.22198 -1.10707,-0.22198 -1.12392,0 -1.38186,0.096 -1.11664,0.41556 0.14596,0.17586 1.64816,0.24925 2.03822,0.0996 z m 8.8586,-0.0996 c 0.26162,-0.31525 0.008,-0.41556 -1.0511,-0.41556 -1.03841,0 -1.2568,0.0805 -1.12805,0.41603 0.0937,0.24416 1.97647,0.24374 2.17915,-4e-4 z m -7.85228,-1.35365 c 0,-0.0645 0.0792,-0.11726 0.17589,-0.11726 0.0967,0 0.1759,0.0528 0.1759,0.11726 0,0.0645 -0.0792,0.11726 -0.1759,0.11726 -0.0967,0 -0.17589,-0.0528 -0.17589,-0.11726 z"
         style="fill:#184f6b;fill-opacity:1;stroke:#174e6c;stroke-width:0.11726171;stroke-opacity:1"
         transform="translate(-10.606599,-21.213209)" />
      <path
         inkscape:connector-curvature="0"
         id="path4232"
         d="m 362.92185,212.50795 c -0.27323,-0.0993 -0.47374,-0.29286 -0.45355,-0.43788 0.0227,-0.16298 0.15163,-0.16571 0.46245,-0.01 0.34257,0.17183 0.66464,0.15649 0.9629,-0.0459 0.23577,-0.15996 0.32787,-0.16847 0.39668,-0.0366 0.0699,0.13399 0.0304,0.21181 -0.17831,0.35084 -0.39398,0.26244 -0.79514,0.3229 -1.19017,0.17937 z m -1.03804,-0.70132 c -0.0835,-0.22298 -0.0398,-0.24252 1.39336,-0.62332 0.76265,-0.20265 1.43433,-0.35757 1.49264,-0.34429 0.0583,0.0133 0.11952,0.0603 0.13605,0.10447 0.0772,0.20627 -0.0337,0.25449 -1.37902,0.59944 -1.36475,0.34994 -1.59681,0.38719 -1.64303,0.2637 z m 0.0404,-0.90193 c -0.0772,-0.0792 -0.076,-0.21809 0.002,-0.28097 0.0872,-0.0699 2.73247,-0.73798 2.83791,-0.71673 0.0477,0.01 0.11109,0.0572 0.14088,0.10565 0.11211,0.1825 -0.0885,0.2646 -1.50497,0.61604 -0.7493,0.18591 -1.37462,0.33778 -1.38961,0.33748 -0.015,-3.1e-4 -0.054,-0.028 -0.0867,-0.0615 z m -0.0311,-0.93306 c -0.20836,-0.21362 -0.0752,-0.27762 1.31584,-0.6326 l 1.29901,-0.33149 0.0656,-0.296 c 0.0903,-0.40778 0.3803,-0.95246 0.64503,-1.21165 0.59985,-0.58728 0.90411,-1.23922 0.94251,-2.01945 0.0421,-0.85687 -0.18704,-1.50341 -0.75416,-2.12728 -0.5438,-0.59821 -1.0859,-0.86226 -1.85776,-0.90487 -0.9703,-0.0536 -1.73526,0.28876 -2.32302,1.03958 -0.58653,0.74926 -0.77509,1.6855 -0.53049,2.63411 0.10601,0.41112 0.36543,0.85785 0.75422,1.29876 0.41649,0.47234 0.68097,0.97823 0.78893,1.50899 0.0844,0.41517 0.0448,0.56303 -0.1509,0.56303 -0.12426,0 -0.15773,-0.0754 -0.24825,-0.55868 -0.0597,-0.31855 -0.36481,-0.88119 -0.67488,-1.24432 -0.60572,-0.70939 -0.83128,-1.18255 -0.93618,-1.96384 -0.18583,-1.38407 0.56446,-2.80449 1.79262,-3.3937 0.69974,-0.3357 1.66326,-0.39496 2.39491,-0.14731 0.72791,0.2464 1.46996,0.93093 1.83623,1.69389 0.24099,0.50202 0.33422,1.0006 0.30425,1.62703 -0.0407,0.85036 -0.28168,1.40506 -0.92691,2.13332 -0.3916,0.442 -0.61448,0.86737 -0.70515,1.34572 l -0.0626,0.33013 -1.36234,0.36442 c -0.7493,0.20044 -1.39978,0.36614 -1.44552,0.36823 -0.0457,0.002 -0.11819,-0.0321 -0.16101,-0.0761 z m 5.29725,-1.42357 c -0.76529,-0.6649 -0.79682,-0.70195 -0.72843,-0.85585 0.0316,-0.0712 0.0944,-0.12943 0.13942,-0.12943 0.0965,0 1.31211,1.03467 1.37563,1.17084 0.0674,0.14448 8.1e-4,0.25164 -0.15342,0.24805 -0.0984,-0.002 -0.27959,-0.1264 -0.6332,-0.43361 z m -8.43668,0.32507 c -0.0327,-0.0335 -0.0594,-0.1001 -0.0594,-0.14796 0,-0.0951 1.20262,-1.16239 1.30972,-1.16239 0.11877,0 0.1975,0.14804 0.14785,0.278 -0.0573,0.15004 -1.13915,1.0933 -1.25391,1.0933 -0.0466,0 -0.11152,-0.0274 -0.14422,-0.0609 z m 4.08387,0.0213 c -0.0131,-0.0218 -0.0478,-0.30178 -0.0769,-0.62217 -0.0535,-0.58775 -0.16554,-1.09067 -0.35014,-1.5708 -0.16826,-0.43766 -0.0169,-0.55101 0.51619,-0.38653 0.12951,0.0399 0.27453,0.10888 0.32225,0.15316 0.0796,0.0739 0.10465,0.0704 0.30494,-0.0435 0.27463,-0.156 0.54677,-0.20953 0.68359,-0.13446 0.1364,0.0749 0.13237,0.13261 -0.0452,0.64833 -0.16251,0.47205 -0.29598,1.16057 -0.29706,1.53241 -8.1e-4,0.35519 -0.0422,0.46315 -0.17674,0.46315 -0.1517,0 -0.2189,-0.13727 -0.2189,-0.44711 0,-0.31959 0.11867,-1.01962 0.24133,-1.42369 0.0523,-0.17222 0.0884,-0.31313 0.0802,-0.31313 -0.008,0 -0.10827,0.08 -0.22242,0.17777 -0.11414,0.0978 -0.24383,0.17775 -0.28819,0.17775 -0.0443,0 -0.16639,-0.0971 -0.27117,-0.21585 -0.21276,-0.24106 -0.21061,-0.26995 -0.0312,0.41901 0.10664,0.40958 0.1796,1.27263 0.12606,1.49133 -0.0241,0.0986 -0.0645,0.13392 -0.15277,0.13392 -0.066,0 -0.13074,-0.0179 -0.14389,-0.0397 z m -4.95248,-3.90496 c -0.0182,-0.0186 -0.033,-0.0877 -0.033,-0.15362 0,-0.17773 0.16807,-0.21882 0.89495,-0.21882 0.57717,0 0.65075,0.0102 0.74102,0.10274 0.0796,0.0816 0.0894,0.1234 0.0478,0.20315 -0.0488,0.0935 -0.10615,0.10041 -0.83506,0.10041 -0.43045,0 -0.7975,-0.0152 -0.81567,-0.0338 z m 9.28113,-0.0665 c -0.0417,-0.0797 -0.0318,-0.12155 0.0478,-0.20315 0.0911,-0.0934 0.16364,-0.10275 0.79704,-0.10275 0.70336,0 0.85095,0.0297 0.90825,0.18279 0.0726,0.19395 -0.0452,0.22352 -0.89106,0.22352 -0.75578,0 -0.8131,-0.007 -0.86203,-0.10041 z m -6.69389,-2.28035 c -0.16488,-0.0656 -1.03398,-0.84908 -1.06413,-0.95926 -0.0359,-0.13126 0.0518,-0.26661 0.17146,-0.26472 0.12408,0.002 1.14574,0.95275 1.14574,1.06628 0,0.11492 -0.14052,0.20249 -0.25307,0.1577 z m 5.53848,-0.0141 c -0.17247,-0.099 -0.0848,-0.24105 0.44024,-0.71391 0.28818,-0.2595 0.5554,-0.48992 0.59383,-0.51205 0.0997,-0.0574 0.26936,0.0506 0.26936,0.17142 0,0.11176 -0.0769,0.19273 -0.6688,0.70363 -0.44051,0.38028 -0.51329,0.42052 -0.63463,0.35091 z m -2.74896,-1.17049 c -0.0408,-0.0419 -0.0594,-0.29432 -0.0594,-0.8064 0,-0.793 0.032,-0.90429 0.23998,-0.83659 0.13395,0.0436 0.1549,0.16474 0.15567,0.90038 5.5e-4,0.51834 -0.0145,0.65951 -0.0772,0.72375 -0.0931,0.0954 -0.17828,0.10164 -0.25902,0.0189 z"
         style="fill:#174e6c;fill-opacity:1;stroke:#174e6c;stroke-width:0.05016062;stroke-opacity:1"
         transform="translate(-10.606599,-21.213209)" />
      <path
         inkscape:connector-curvature="0"
         id="path4232-4"
         d="m 305.3133,212.63082 c -0.27323,-0.0993 -0.47374,-0.29286 -0.45355,-0.43788 0.0227,-0.16298 0.15163,-0.16571 0.46245,-0.01 0.34257,0.17183 0.66464,0.15649 0.9629,-0.0459 0.23577,-0.15996 0.32787,-0.16847 0.39668,-0.0366 0.0699,0.13399 0.0304,0.21181 -0.17831,0.35084 -0.39398,0.26244 -0.79514,0.3229 -1.19017,0.17937 z m -1.03804,-0.70132 c -0.0835,-0.22298 -0.0398,-0.24252 1.39336,-0.62332 0.76265,-0.20265 1.43433,-0.35757 1.49264,-0.34429 0.0583,0.0133 0.11952,0.0603 0.13605,0.10447 0.0772,0.20627 -0.0337,0.25449 -1.37902,0.59944 -1.36475,0.34994 -1.59681,0.38719 -1.64303,0.2637 z m 0.0404,-0.90193 c -0.0772,-0.0792 -0.076,-0.21809 0.002,-0.28097 0.0872,-0.0699 2.73247,-0.73798 2.83791,-0.71673 0.0477,0.01 0.11109,0.0572 0.14088,0.10565 0.11211,0.1825 -0.0885,0.2646 -1.50497,0.61604 -0.7493,0.18591 -1.37462,0.33778 -1.38961,0.33748 -0.015,-3.1e-4 -0.054,-0.028 -0.0867,-0.0615 z m -0.0311,-0.93306 c -0.20837,-0.21362 -0.0752,-0.27762 1.31584,-0.6326 l 1.29901,-0.33149 0.0656,-0.296 c 0.0903,-0.40778 0.3803,-0.95246 0.64503,-1.21165 0.59985,-0.58728 0.90411,-1.23922 0.94251,-2.01945 0.0421,-0.85687 -0.18704,-1.50341 -0.75416,-2.12728 -0.5438,-0.59821 -1.0859,-0.86226 -1.85776,-0.90487 -0.9703,-0.0536 -1.73526,0.28876 -2.32303,1.03958 -0.58653,0.74926 -0.77509,1.6855 -0.53049,2.63411 0.10601,0.41112 0.36543,0.85785 0.75422,1.29876 0.4165,0.47234 0.68098,0.97823 0.78894,1.50899 0.0844,0.41517 0.0448,0.56303 -0.1509,0.56303 -0.12426,0 -0.15773,-0.0754 -0.24825,-0.55868 -0.0597,-0.31855 -0.36482,-0.88119 -0.67489,-1.24432 -0.60572,-0.70939 -0.83128,-1.18255 -0.93618,-1.96384 -0.18583,-1.38407 0.56446,-2.80449 1.79263,-3.3937 0.69974,-0.3357 1.66326,-0.39496 2.39491,-0.14731 0.72791,0.2464 1.46996,0.93093 1.83623,1.69389 0.24099,0.50202 0.33422,1.0006 0.30425,1.62703 -0.0407,0.85036 -0.28168,1.40506 -0.92691,2.13332 -0.3916,0.442 -0.61448,0.86737 -0.70515,1.34572 l -0.0626,0.33013 -1.36234,0.36442 c -0.7493,0.20044 -1.39978,0.36614 -1.44552,0.36823 -0.0457,0.002 -0.11819,-0.0321 -0.16101,-0.0761 z m 5.29725,-1.42357 c -0.76529,-0.6649 -0.79682,-0.70195 -0.72843,-0.85585 0.0316,-0.0712 0.0944,-0.12943 0.13942,-0.12943 0.0965,0 1.31211,1.03467 1.37563,1.17084 0.0674,0.14448 8.1e-4,0.25164 -0.15342,0.24805 -0.0984,-0.002 -0.27959,-0.1264 -0.6332,-0.43361 z m -8.43669,0.32507 c -0.0327,-0.0335 -0.0594,-0.1001 -0.0594,-0.14796 0,-0.0951 1.20262,-1.16239 1.30972,-1.16239 0.11877,0 0.1975,0.14804 0.14785,0.278 -0.0573,0.15004 -1.13915,1.0933 -1.25391,1.0933 -0.0466,0 -0.11152,-0.0274 -0.14422,-0.0609 z m 4.08388,0.0213 c -0.0131,-0.0218 -0.0478,-0.30178 -0.0769,-0.62217 -0.0535,-0.58775 -0.16554,-1.09067 -0.35014,-1.5708 -0.16826,-0.43766 -0.0169,-0.55101 0.51619,-0.38653 0.12951,0.0399 0.27453,0.10888 0.32225,0.15316 0.0796,0.0739 0.10465,0.0704 0.30494,-0.0435 0.27463,-0.156 0.54677,-0.20953 0.68359,-0.13446 0.1364,0.0749 0.13237,0.13261 -0.0452,0.64833 -0.16251,0.47205 -0.29598,1.16057 -0.29706,1.53241 -8.1e-4,0.35519 -0.0422,0.46315 -0.17674,0.46315 -0.1517,0 -0.2189,-0.13727 -0.2189,-0.44711 0,-0.31959 0.11867,-1.01962 0.24133,-1.42369 0.0523,-0.17222 0.0884,-0.31313 0.0802,-0.31313 -0.008,0 -0.10827,0.08 -0.22242,0.17777 -0.11414,0.0978 -0.24383,0.17775 -0.28819,0.17775 -0.0443,0 -0.16639,-0.0971 -0.27117,-0.21585 -0.21276,-0.24106 -0.21061,-0.26995 -0.0312,0.41901 0.10664,0.40958 0.1796,1.27263 0.12606,1.49133 -0.0241,0.0986 -0.0645,0.13392 -0.15277,0.13392 -0.066,0 -0.13074,-0.0179 -0.14389,-0.0397 z m -4.95249,-3.90496 c -0.0182,-0.0186 -0.033,-0.0877 -0.033,-0.15362 0,-0.17773 0.16807,-0.21882 0.89495,-0.21882 0.57717,0 0.65075,0.0102 0.74102,0.10274 0.0796,0.0816 0.0894,0.1234 0.0478,0.20315 -0.0488,0.0935 -0.10615,0.10041 -0.83506,0.10041 -0.43045,0 -0.7975,-0.0152 -0.81567,-0.0338 z m 9.28114,-0.0665 c -0.0417,-0.0797 -0.0318,-0.12155 0.0478,-0.20315 0.0911,-0.0934 0.16364,-0.10275 0.79704,-0.10275 0.70336,0 0.85095,0.0297 0.90825,0.18279 0.0726,0.19395 -0.0452,0.22352 -0.89106,0.22352 -0.75578,0 -0.8131,-0.007 -0.86203,-0.10041 z m -6.6939,-2.28035 c -0.16488,-0.0656 -1.03398,-0.84908 -1.06413,-0.95926 -0.0359,-0.13126 0.0518,-0.26661 0.17146,-0.26472 0.12408,0.002 1.14574,0.95275 1.14574,1.06628 0,0.11492 -0.14052,0.20249 -0.25307,0.1577 z m 5.53849,-0.0141 c -0.17247,-0.099 -0.0848,-0.24105 0.44024,-0.71391 0.28818,-0.2595 0.5554,-0.48992 0.59383,-0.51205 0.0997,-0.0574 0.26936,0.0506 0.26936,0.17142 0,0.11176 -0.0769,0.19273 -0.6688,0.70363 -0.44051,0.38028 -0.51329,0.42052 -0.63463,0.35091 z m -2.74896,-1.17049 c -0.0408,-0.0419 -0.0594,-0.29432 -0.0594,-0.8064 0,-0.793 0.032,-0.90429 0.23998,-0.83659 0.13395,0.0436 0.1549,0.16474 0.15567,0.90038 5.5e-4,0.51834 -0.0145,0.65951 -0.0772,0.72375 -0.0931,0.0954 -0.17828,0.10164 -0.25902,0.0189 z"
         style="fill:#174e6c;fill-opacity:1;stroke:#174e6c;stroke-width:0.05016062;stroke-opacity:1"
         transform="translate(-10.606599,-21.213209)" />
      <path
         inkscape:connector-curvature="0"
         id="path4259"
         d="m 319.54341,159.68625 c 0,27.5 0,27.5 0,27.5"
         style="fill:none;fill-opacity:0;fill-rule:evenodd;stroke:#174e6c;stroke-width:1px;stroke-linecap:butt;stroke-linejoin:miter;stroke-opacity:1"
         transform="translate(-10.606599,-21.213209)" />
      <path
         style="fill:none;fill-opacity:0;fill-rule:evenodd;stroke:#174e6c;stroke-width:1.00162208px;stroke-linecap:butt;stroke-linejoin:miter;stroke-opacity:1"
         d="m 349.72199,159.61228 c 0,27.58929 0,27.58929 0,27.58929"
         id="path4261"
         inkscape:connector-curvature="0"
         transform="translate(-10.606599,-21.213209)" />
      <path
         inkscape:connector-curvature="0"
         id="path4259-2"
         d="m 319.50672,200.62101 c 0,19.82142 0,19.82142 0,19.82142"
         style="fill:none;fill-opacity:0;fill-rule:evenodd;stroke:#174e6c;stroke-width:0.84898716px;stroke-linecap:butt;stroke-linejoin:miter;stroke-opacity:1"
         transform="translate(-10.606599,-21.213209)" />
      <path
         inkscape:connector-curvature="0"
         id="path4259-2-2"
         d="m 349.67737,200.62375 c 0,19.82142 0,19.82142 0,19.82142"
         style="fill:none;fill-opacity:0;fill-rule:evenodd;stroke:#174e6c;stroke-width:0.84898716px;stroke-linecap:butt;stroke-linejoin:miter;stroke-opacity:1"
         transform="translate(-10.606599,-21.213209)" />
      <text
         sodipodi:linespacing="125%"
         id="text4175"
         y="519.08392"
         x="317.47491"
         style="font-style:normal;font-weight:normal;font-size:17.10383034px;line-height:125%;font-family:sans-serif;letter-spacing:0px;word-spacing:0px;fill:#174e6c;fill-opacity:1;stroke:none;stroke-width:1px;stroke-linecap:butt;stroke-linejoin:miter;stroke-opacity:1"
         xml:space="preserve"><tspan
           style="fill:#174e6c;fill-opacity:1"
           y="519.08392"
           x="317.47491"
           id="tspan4177"
           sodipodi:role="line">вход</tspan></text>
      <text
         sodipodi:linespacing="125%"
         id="text4179"
         y="246.16057"
         x="182.77808"
         style="font-style:normal;font-weight:normal;font-size:20.41122437px;line-height:125%;font-family:sans-serif;letter-spacing:0px;word-spacing:0px;fill:#174e6c;fill-opacity:1;stroke:none;stroke-width:1px;stroke-linecap:butt;stroke-linejoin:miter;stroke-opacity:1"
         xml:space="preserve"><tspan
           y="246.16057"
           x="182.77808"
           id="tspan4181"
           sodipodi:role="line">кухня</tspan></text>
    </g>
  </g>
</svg>
