<?xml version="1.0" encoding="UTF-8" standalone="no"?>
<!-- Created with Inkscape (http://www.inkscape.org/) -->

<svg
   xmlns:dc="http://purl.org/dc/elements/1.1/"
   xmlns:cc="http://creativecommons.org/ns#"
   xmlns:rdf="http://www.w3.org/1999/02/22-rdf-syntax-ns#"
   xmlns:svg="http://www.w3.org/2000/svg"
   xmlns="http://www.w3.org/2000/svg"
   xmlns:sodipodi="http://sodipodi.sourceforge.net/DTD/sodipodi-0.dtd"
   xmlns:inkscape="http://www.inkscape.org/namespaces/inkscape"
   id="svg2"
   version="1.1"
   inkscape:version="0.91 r13725"
   width="134.13084"
   height="178.5"
   viewBox="0 0 134.13084 178.5"
   sodipodi:docname="course.svg">
  <metadata
     id="metadata8">
    <rdf:RDF>
      <cc:Work
         rdf:about="">
        <dc:format>image/svg+xml</dc:format>
        <dc:type
           rdf:resource="http://purl.org/dc/dcmitype/StillImage" />
        <dc:title></dc:title>
      </cc:Work>
    </rdf:RDF>
  </metadata>
  <defs
     id="defs6" />
  <sodipodi:namedview
     pagecolor="#ffffff"
     bordercolor="#666666"
     borderopacity="1"
     objecttolerance="10"
     gridtolerance="10"
     guidetolerance="10"
     inkscape:pageopacity="0"
     inkscape:pageshadow="2"
     inkscape:window-width="1366"
     inkscape:window-height="705"
     id="namedview4"
     showgrid="false"
     fit-margin-top="0"
     fit-margin-left="0"
     fit-margin-right="0"
     fit-margin-bottom="0"
     inkscape:zoom="1.552346"
     inkscape:cx="-37.323566"
     inkscape:cy="106.48465"
     inkscape:window-x="-8"
     inkscape:window-y="-8"
     inkscape:window-maximized="1"
     inkscape:current-layer="svg2" />
  <path
     style="fill:#f34e4e;fill-opacity:1"
     d="m 0.329241,154.75 c 0.363031,-26.1867 1.046823,-29.7236 7.772922,-40.20532 4.994395,-7.78309 18.812821,-20.025472 22.620344,-20.040402 0.60042,-0.002 1.909167,2.69572 2.908327,5.995722 1.446218,4.77653 2.243169,6.01699 3.908327,6.08333 1.15042,0.0458 3.104173,0.19563 4.341673,0.33288 2.775781,0.30787 2.778888,-0.13217 0.06052,-8.572452 -1.204217,-3.73897 -1.841717,-7.14589 -1.416667,-7.57094 1.009548,-1.00955 52.202751,-1.00955 53.212301,0 0.42505,0.42505 -0.21245,3.83197 -1.41667,7.57094 -2.71079,8.416742 -2.70886,8.698582 0.0605,8.853672 5.4118,0.30308 6.36383,-0.46784 8.243222,-6.67504 1.00289,-3.312322 2.31469,-6.020462 2.91511,-6.018112 3.45707,0.0136 16.657,11.323422 21.59885,18.506162 7.56913,11.00136 8.9668,17.80835 8.98095,43.73956 l 0.0119,21.75 -67.065422,0 L 0,178.5 0.329251,154.75 Z M 98.344328,138.00087 98.057818,115.5 l -6.71457,0 -6.71457,0 -2.04834,-4.25 -2.04835,-4.25 -13.38351,0 -13.383514,0 -2.067065,4.20333 -2.067065,4.20333 -6.713489,0.0467 -6.713488,0.0467 -0.286512,22.50087 -0.286511,22.50087 31.500004,0 31.5,0 -0.28651,-22.50087 z m -37.84678,11.58107 c -4.530694,-2.76269 -6.366714,-5.9165 -6.366714,-10.93641 0,-6.12519 2.977234,-10.58952 8.457954,-12.68262 3.55451,-1.35748 5.00513,-1.45843 7.71015,-0.53655 6.53112,2.22582 9.8319,6.55387 9.8319,12.89178 0,10.20679 -11.0089,16.5227 -19.63329,11.2638 z M 54.209934,77.856922 C 43.957121,74.267771 35.502993,66.615533 30.782084,56.65125 27.869465,50.503671 27.630834,49.204879 27.630834,39.5 c 0,-9.591226 0.254415,-11.019299 2.93952,-16.5 C 34.854547,14.255323 41.732087,7.451815 50.389784,3.393913 57.029868,0.281676 58.419288,0 67.130838,0 c 8.72874,0 10.0935,0.27813 16.8104,3.425879 8.57907,4.020418 15.53576,10.971837 19.841472,19.82646 2.50945,5.160635 2.79762,6.820057 2.82152,16.247661 0.0247,9.733335 -0.20348,10.985646 -3.12464,17.15125 -4.830982,10.196608 -13.127372,17.588488 -23.776892,21.184616 -6.2564,2.112666 -19.48664,2.123596 -25.492764,0.02106 z"
     id="path3338"
     inkscape:connector-curvature="0" />
</svg>
