<?xml version="1.0" encoding="UTF-8" standalone="no"?>
<!-- Created with Inkscape (http://www.inkscape.org/) -->

<svg
   xmlns:dc="http://purl.org/dc/elements/1.1/"
   xmlns:cc="http://creativecommons.org/ns#"
   xmlns:rdf="http://www.w3.org/1999/02/22-rdf-syntax-ns#"
   xmlns:svg="http://www.w3.org/2000/svg"
   xmlns="http://www.w3.org/2000/svg"
   xmlns:sodipodi="http://sodipodi.sourceforge.net/DTD/sodipodi-0.dtd"
   xmlns:inkscape="http://www.inkscape.org/namespaces/inkscape"
   id="svg2"
   version="1.1"
   inkscape:version="0.91 r13725"
   width="123.54152"
   height="123.54152"
   viewBox="0 0 123.54152 123.54152"
   sodipodi:docname="shower.svg">
  <metadata
     id="metadata8">
    <rdf:RDF>
      <cc:Work
         rdf:about="">
        <dc:format>image/svg+xml</dc:format>
        <dc:type
           rdf:resource="http://purl.org/dc/dcmitype/StillImage" />
        <dc:title></dc:title>
      </cc:Work>
    </rdf:RDF>
  </metadata>
  <defs
     id="defs6" />
  <sodipodi:namedview
     pagecolor="#ffffff"
     bordercolor="#666666"
     borderopacity="1"
     objecttolerance="10"
     gridtolerance="10"
     guidetolerance="10"
     inkscape:pageopacity="0"
     inkscape:pageshadow="2"
     inkscape:window-width="1366"
     inkscape:window-height="705"
     id="namedview4"
     showgrid="false"
     inkscape:zoom="2.7015566"
     inkscape:cx="60.642567"
     inkscape:cy="62.451531"
     inkscape:window-x="-8"
     inkscape:window-y="-8"
     inkscape:window-maximized="1"
     inkscape:current-layer="svg2" />
  <path
     style="fill:#f54e4e;fill-opacity:1"
     d="m 64.026525,120.92107 c -42.290284,-0.47398 -21.145142,-0.23699 0,0 z m -1e-5,-2.47065 c -42.290277,1.17312 -21.145139,0.58656 0,0 z m -9.9326,-15.8319 -0.0537,-8.905273 -8.0302,-0.10296 c -5.61816,-0.072 -8.19704,-0.1775 -8.58566,-0.35114 -0.8599,-0.38421 -2.20721,-1.69391 -2.69565,-2.6204 -0.632,-1.19879 -0.63075,-3.5699 0.003,-4.854721 0.32407,-0.65746 3.05904,-3.52074 9.36856,-9.8081 9.60147,-9.56773 9.81511,-9.74355 12.33672,-10.15272 0.79264,-0.12861 6.05864,-0.21316 13.33504,-0.21411 l 12.02511,-0.002 12.47729,-12.561893 C 105.452,41.791825 106.87676,40.427542 107.95265,39.947538 c 4.24992,-1.896076 8.15241,2.014573 6.22324,6.236242 -0.4857,1.062846 -2.1344,2.788419 -14.333125,15.001376 l -13.78431,13.80039 0,18.268931 0,18.268923 -15.95526,0 -15.95525,0 -0.0537,-8.90528 z m 12.84936,-6.427573 c 0.41108,-0.27933 0.96536,-0.85843 1.23174,-1.28689 0.47143,-0.75827 0.48602,-0.92272 0.54821,-6.17766 0.0727,-6.138401 -0.0301,-6.667421 -1.51541,-7.801451 -0.77441,-0.59126 -0.80266,-0.59584 -4.09104,-0.66357 -3.79923,-0.0783 -4.38928,0.0891 -5.07846,1.43996 -0.60789,1.19157 -0.53796,1.33553 0.71142,1.46448 1.29865,0.13403 2.50252,0.7012 3.40589,1.60456 0.92958,0.92959 1.29349,1.750441 1.4079,3.175751 0.18918,2.3568 -1.14782,4.33512 -3.53288,5.22749 -0.64192,0.24017 -1.44162,0.43667 -1.77711,0.43667 -0.7479,0 -0.80413,0.45947 -0.20094,1.64182 0.70633,1.38451 0.91001,1.44672 4.73653,1.44672 3.28228,0 3.43404,-0.0186 4.15415,-0.50788 z m -29.7051,-26.315031 c -1.94897,-1.30199 -1.84838,-4.31266 0.18223,-5.45393 1.04206,-0.58567 1.98148,-0.58518 3.12585,0.002 2.15024,1.10259 2.24349,4.24094 0.16369,5.50901 -0.95131,0.58002 -2.55794,0.55378 -3.47177,-0.0567 z m 28.97884,-6.43428 c -7.55799,-1.91503 -11.47104,-10.157492 -8.153,-17.173495 2.99072,-6.323881 10.68485,-8.835348 16.93999,-5.529447 1.75068,0.925252 3.96742,3.184025 4.92705,5.020489 2.49026,4.765653 1.64234,10.537776 -2.10142,14.305109 -1.50622,1.515704 -2.71064,2.288154 -4.71878,3.026374 -1.74653,0.64206 -5.07603,0.81156 -6.89384,0.35097 z m -32.04225,-1.90098 c -1.13125,-0.56837 -1.70512,-1.587934 -1.60395,-2.849711 0.10862,-1.354826 0.72305,-2.216006 1.90242,-2.666411 1.26147,-0.481761 2.24902,-0.267995 3.21237,0.695355 1.04966,1.049669 1.23634,2.182703 0.57213,3.472635 -0.81166,1.576302 -2.51163,2.137602 -4.08297,1.348132 z m 15.21166,-3.812985 c -1.39441,-0.931526 -1.84897,-2.959911 -0.95701,-4.270468 0.77817,-1.143383 1.48926,-1.543493 2.72214,-1.531694 3.15741,0.03021 4.36581,4.025067 1.75634,5.806266 -0.9384,0.64054 -2.55933,0.63865 -3.52147,-0.0041 z m -18.5061,-4.617922 c -2.75561,-1.427158 -1.83549,-5.494917 1.24294,-5.494917 3.6354,0 3.8696,5.329521 0.25359,5.770836 -0.5094,0.06217 -1.02856,-0.03355 -1.49653,-0.275919 z m 13.806,-2.058575 c -1.12118,-0.59005 -1.55891,-1.349038 -1.55891,-2.703063 0,-1.413447 0.42848,-2.099762 1.70547,-2.731763 2.0046,-0.992106 4.19707,0.497807 4.19707,2.852158 0,2.120306 -2.45196,3.578209 -4.34363,2.582668 z m -16.6497,-6.25172 c -1.80626,-0.387592 -2.67381,-2.5791 -1.6326,-4.124141 0.5752,-0.853546 1.24191,-1.210369 2.26897,-1.214353 1.45257,-0.0056 2.4443,0.83359 2.71967,2.301457 0.34355,1.831278 -1.44258,3.447632 -3.35604,3.037037 z m 11.76093,-0.586006 c -1.01015,-0.466911 -1.50491,-1.139568 -1.6536,-2.248178 -0.22609,-1.68564 1.05279,-3.122782 2.78024,-3.124283 1.70872,-0.0014 2.92234,1.152571 2.92234,2.778914 0,2.140281 -2.10814,3.490641 -4.04898,2.593547 z m 15.47811,-3.398963 c -1.14838,-0.510406 -1.95607,-1.742866 -1.95607,-2.9848 0,-0.892732 0.84947,-2.296631 1.64914,-2.725499 2.19815,-1.178879 4.73117,0.311679 4.73307,2.785167 10e-4,1.301619 -0.5744,2.235177 -1.71922,2.789378 -1.00868,0.48829 -1.82196,0.529077 -2.70692,0.135754 z m 28.97423,-2.728505 c -1.01224,-0.498914 -1.5553,-1.399124 -1.6485,-2.73264 -0.0661,-0.945171 0.004,-1.270233 0.40212,-1.855456 1.77721,-2.615044 5.59137,-1.684894 5.89131,1.436704 0.23737,2.47033 -2.39846,4.258631 -4.64493,3.151392 z m -49.90548,-0.987725 c -1.15256,-0.783185 -1.47684,-2.046202 -0.85942,-3.347316 0.94805,-1.997868 3.80599,-2.013997 4.81957,-0.0272 1.29327,2.535004 -1.58555,4.988094 -3.96015,3.374516 z m -10.2568,-0.98072 c -0.71565,-0.378395 -1.44805,-1.545043 -1.44446,-2.300903 0.007,-1.403421 1.25938,-2.594809 2.72837,-2.594809 0.67495,0 0.95668,0.139298 1.61677,0.799386 0.69849,0.698492 0.79939,0.919773 0.79939,1.753196 0,0.791084 -0.11538,1.079702 -0.67626,1.691733 -0.53676,0.585704 -0.86592,0.756733 -1.59574,0.829109 -0.53575,0.05313 -1.13175,-0.02104 -1.42807,-0.177712 z m 24.34308,-0.704495 c -0.92175,-0.454405 -1.56178,-1.556195 -1.5451,-2.659833 0.0173,-1.145287 0.52886,-1.994652 1.54543,-2.565994 1.56154,-0.877635 3.4895,-0.189064 4.15956,1.485586 1.03793,2.594039 -1.62612,4.98934 -4.15989,3.740241 z m 27.53818,-0.921635 c -1.34273,-0.533843 -2.21546,-2.062289 -1.95879,-3.430476 0.69282,-3.693049 6.07302,-3.16732 6.07607,0.593726 0.002,2.115326 -2.1694,3.611195 -4.11728,2.83675 z m -8.75086,-3.755388 c -0.33974,-0.156914 -0.84935,-0.536218 -1.13246,-0.842897 -0.4332,-0.469248 -0.51476,-0.75887 -0.51476,-1.827898 0,-1.386949 0.35738,-2.089709 1.37014,-2.694243 1.20978,-0.722145 3.21176,-0.171646 3.95045,1.086282 0.51828,0.882608 0.51898,2.369918 0.001,3.06311 -0.95636,1.280942 -2.45795,1.777673 -3.67481,1.215646 z m -37.68016,-0.335232 c -0.71864,-0.472944 -1.3387,-1.522585 -1.3376,-2.264287 0.001,-0.729252 0.69312,-1.778677 1.42122,-2.155193 1.77538,-0.918084 3.72557,0.291326 3.72557,2.310408 0,1.902817 -2.23894,3.142472 -3.80919,2.109072 z m 12.89334,-0.02028 c -1.07527,-0.227407 -1.90118,-1.184389 -2.03323,-2.355902 -0.14921,-1.323795 0.33965,-2.21512 1.53129,-2.791983 1.15298,-0.55815 2.10027,-0.404522 3.08818,0.500829 0.56863,0.521111 0.74704,0.865205 0.82994,1.600656 0.22821,2.024691 -1.3965,3.473536 -3.41618,3.0464 z m -21.86813,-2.922584 c -0.38315,-0.258202 -0.81743,-0.698318 -0.96508,-0.978037 -0.42326,-0.801892 -0.17594,-2.018345 0.55999,-2.754276 0.53867,-0.53867 0.7926,-0.636935 1.6459,-0.636935 0.78565,0 1.12708,0.110965 1.54263,0.501346 1.21354,1.140064 1.04864,3.077512 -0.33367,3.920282 -0.88787,0.541321 -1.59109,0.526286 -2.44977,-0.05238 z m 38.41885,-0.296059 c -0.81053,-0.196909 -1.73447,-1.090359 -1.98202,-1.916623 -0.74448,-2.484836 2.04007,-4.669874 4.144,-3.251798 1.98938,1.340872 1.75935,4.11463 -0.41332,4.983961 -0.8492,0.339785 -1.03056,0.358915 -1.74866,0.18446 z m -23.72898,-2.238821 c -0.80499,-0.410136 -1.49436,-1.458283 -1.49331,-2.270475 10e-4,-1.162174 1.15464,-2.470087 2.26416,-2.568068 1.05901,-0.09352 1.44574,0.03674 2.12465,0.715655 0.85892,0.858912 1.0622,1.731274 0.64261,2.757601 -0.58312,1.426283 -2.19647,2.048844 -3.53811,1.365287 z m -10.08877,-1.072413 c -0.63642,-0.09581 -1.61906,-1.127205 -1.7639,-1.85143 -0.46495,-2.324747 2.41262,-3.864105 4.02079,-2.150926 0.72523,0.772585 0.89202,1.703374 0.46608,2.600985 -0.50747,1.069419 -1.5079,1.584289 -2.72297,1.401371 z m 24.54949,-0.682618 c -0.22795,-0.110904 -0.62174,-0.504155 -0.87509,-0.87389 -0.9821,-1.433287 -0.32426,-3.455215 1.30943,-4.024614 1.03085,-0.359286 1.71707,-0.199347 2.64669,0.61687 1.23044,1.080346 1.23786,2.603967 0.0186,3.823218 -0.59724,0.597235 -0.8196,0.686097 -1.68656,0.673998 -0.54925,-0.0077 -1.18513,-0.104677 -1.41308,-0.215582 z m -34.5743,-1.596453 -1.42665,-1.450024 0.21251,-0.884308 c 0.11688,-0.48637 0.52318,-1.928425 0.9029,-3.204565 l 0.69041,-2.320255 -1.48273,-1.49269 -1.48273,-1.49269 2.98325,-2.9779268 C 17.69457,5.679106 17.829172,4.0853864 20.031155,6.2726714 l 1.51159,1.5015008 3.27322,-1.2465508 3.27323,-1.24655 1.39351,1.382837 c 0.76643,0.7605598 1.39146,1.4779768 1.38894,1.5942607 -0.002,0.116283 -3.22231,3.4856209 -7.15511,7.4874169 l -7.15054,7.275992 z m 12.98829,-2.292387 c -0.79148,-0.694932 -0.99873,-1.377994 -0.72208,-2.379924 0.5692,-2.061479 3.46008,-2.345232 4.36945,-0.428882 0.41865,0.882236 0.42463,1.423949 0.0243,2.198144 -0.68492,1.324487 -2.51246,1.62844 -3.67165,0.610662 z m 12.54249,-0.221325 c -1.21491,-1.066706 -1.18554,-2.652616 0.0707,-3.817461 1.93735,-1.796415 5.03127,0.615175 3.91955,3.05514 -0.34588,0.759128 -1.44678,1.395758 -2.41362,1.395758 -0.66131,0 -1.01873,-0.143601 -1.57662,-0.633437 z m -8.28798,-3.474366 c -0.83385,-0.508433 -1.09413,-1.002369 -1.09413,-2.076327 0,-0.700929 0.12798,-0.985721 0.70007,-1.557806 0.59755,-0.597555 0.84178,-0.700068 1.66781,-0.700068 0.83275,0 1.06898,0.101237 1.69351,0.725774 0.68359,0.68359 0.71984,0.787595 0.62358,1.789418 -0.083,0.863458 -0.22406,1.172516 -0.74962,1.642105 -0.78479,0.70121 -1.87048,0.768809 -2.84122,0.176904 z"
     id="path3338"
     inkscape:connector-curvature="0"
     sodipodi:nodetypes="ccccccssscssccssssccccccccsssccsssssssccscsccssssssssssssssssssssssssssssscsssscsssssssssccssssssccssssscssssssscsccssscccscsssssssssscssssssssssscssssssssscsssscccccssccccccccscscccssccccsssccssssscss" />
</svg>
