<?xml version="1.0" encoding="UTF-8" standalone="no"?>
<!-- Created with Inkscape (http://www.inkscape.org/) -->

<svg
   xmlns:dc="http://purl.org/dc/elements/1.1/"
   xmlns:cc="http://creativecommons.org/ns#"
   xmlns:rdf="http://www.w3.org/1999/02/22-rdf-syntax-ns#"
   xmlns:svg="http://www.w3.org/2000/svg"
   xmlns="http://www.w3.org/2000/svg"
   xmlns:sodipodi="http://sodipodi.sourceforge.net/DTD/sodipodi-0.dtd"
   xmlns:inkscape="http://www.inkscape.org/namespaces/inkscape"
   id="svg2"
   version="1.1"
   inkscape:version="0.91 r13725"
   width="750"
   height="750"
   viewBox="0 0 750 750"
   sodipodi:docname="wifi.svg">
  <metadata
     id="metadata8">
    <rdf:RDF>
      <cc:Work
         rdf:about="">
        <dc:format>image/svg+xml</dc:format>
        <dc:type
           rdf:resource="http://purl.org/dc/dcmitype/StillImage" />
        <dc:title></dc:title>
      </cc:Work>
    </rdf:RDF>
  </metadata>
  <defs
     id="defs6" />
  <sodipodi:namedview
     pagecolor="#ffffff"
     bordercolor="#666666"
     borderopacity="1"
     objecttolerance="10"
     gridtolerance="10"
     guidetolerance="10"
     inkscape:pageopacity="0"
     inkscape:pageshadow="2"
     inkscape:window-width="1366"
     inkscape:window-height="705"
     id="namedview4"
     showgrid="false"
     inkscape:zoom="0.31466667"
     inkscape:cx="-138.24153"
     inkscape:cy="375"
     inkscape:window-x="-8"
     inkscape:window-y="-8"
     inkscape:window-maximized="1"
     inkscape:current-layer="svg2" />
  <path
     style="fill:#f54e4e;fill-opacity:1"
     d="m 339.37497,611.38991 c -46.4454,-7.21844 -90.05847,-28.20862 -122.74724,-59.07612 l -8.99729,-8.49599 -29.75272,-0.0292 C 151.48689,543.7626 146.43009,543.41876 133.125,540.74524 98.957016,533.8795 71.558296,519.31347 47.848966,495.4098 -0.7991739,446.3629 -13.426484,373.80609 15.702056,310.6928 c 18.40386,-39.87596 53.14035,-71.11073 94.922944,-85.3539 21.02359,-7.16669 28.40479,-8.18935 64.57985,-8.94755 l 33.32984,-0.69855 8.54516,-8.2054 c 32.01356,-30.74073 78.26952,-52.536 125.77052,-59.26164 18.5653,-2.62865 47.7482,-2.41601 67.1496,0.48928 46.5316,6.9679 90.4288,27.99871 123.3723,59.10677 l 8.9973,8.49599 29.7527,0.0292 c 26.3908,0.0259 31.4476,0.36981 44.7527,3.04334 34.276,6.88743 61.3812,21.32407 85.2061,45.3821 41.3657,41.77033 56.8911,99.21015 42.3248,156.59042 -13.0565,51.43321 -51.5637,93.85043 -102.1339,112.50475 -20.7314,7.64739 -29.6767,8.95923 -66.8518,9.80378 l -33.9549,0.77139 -8.5451,8.19985 c -31.9583,30.66691 -78.425,52.56356 -125.7705,59.26718 -17.7807,2.51755 -49.8117,2.27184 -67.7747,-0.51992 z m 275.625,-117.84429 c 39.7152,-11.19618 70.7006,-40.67379 82.5503,-78.53333 13.9756,-44.6516 -0.1376,-93.39845 -35.8807,-123.93171 -14.394,-12.29599 -28.9093,-19.74819 -48.5446,-24.92292 l -11.25,-2.96486 -81.875,0 -81.875,0 -5,3.41159 c -2.75,1.87637 -6.4934,5.81387 -8.3187,8.75 -7.0064,11.27012 -8.8438,21.62307 -13.5755,76.49365 -1.3132,15.22863 -3.667,25.90427 -5.8747,26.6448 -0.5396,0.18098 -2.9498,1.31252 -5.3561,2.51452 -8.3585,4.17534 -10.3533,11.39984 -16.2807,58.96326 -4.1012,32.90894 -9.4369,46.64373 -20.959,53.95079 l -5.8794,3.72863 123.1221,-0.37836 123.122,-0.37836 11.875,-3.3477 z m -157.5,-103.47782 0,-83.75 50.625,0 50.625,0 0,16.25 0,16.25 -32.5334,0 -32.5334,0 0.3459,18.4375 0.3459,18.4375 30,0.625 30,0.625 0.3522,14.6875 0.3522,14.6875 -30.6647,0 -30.6647,0 0,33.75 0,33.75 -18.125,0 -18.125,0 0,-83.75 z m 123.75,23.78341 0,-60.03341 18.125,0 18.125,0 0.1521,55.9375 c 0.084,30.76562 0.2037,57.625 0.2666,59.6875 l 0.1145,3.75 -18.3916,0.34591 -18.3915,0.34593 0,-60.03343 z m 13.4416,-78.74916 c -8.7896,-1.66914 -14.2886,-10.08391 -12.9537,-19.82246 1.2725,-9.28445 4.9569,-13.1977 14.4394,-15.33635 12.0966,-2.72822 22.4391,4.37515 23.4632,16.11476 1.1887,13.6259 -9.7024,21.93931 -24.9489,19.04405 z M 160.12909,459.4428 c 3.15831,-13.34526 5.21191,-22.51193 14.14181,-63.125 2.34306,-10.65625 5.22374,-24.88254 6.40149,-31.61396 1.17774,-6.73143 2.31346,-12.06687 2.5238,-11.85652 0.21035,0.21035 1.02915,5.43663 1.81956,11.61397 1.6503,12.89772 7.42622,44.45607 15.15326,82.79401 l 5.35369,26.5625 20.28987,0 c 11.15944,0 20.55773,-0.43338 20.88509,-0.96306 0.32736,-0.52969 3.72459,-13.04531 7.54941,-27.8125 3.8248,-14.76719 9.2361,-35.56819 12.0252,-46.22444 2.7891,-10.65625 8.1824,-31.46875 11.9852,-46.25 3.8028,-14.78125 8.0006,-30.8012 9.3284,-35.59988 1.3278,-4.79868 2.4141,-9.15806 2.4141,-9.6875 0,-0.52945 -8.4495,-0.96262 -18.7768,-0.96262 -18.2909,0 -18.80716,0.0727 -19.9512,2.8125 -1.63702,3.92032 -12.68021,61.00507 -18.19661,94.0625 -2.52396,15.125 -4.79771,27.72114 -5.05277,27.99141 -0.81707,0.86581 -1.50167,-2.60792 -4.16158,-21.11641 -2.29482,-15.96808 -16.05892,-91.50574 -18.30275,-100.44586 l -0.84447,-3.36469 -20.11939,0.34277 -20.11938,0.34278 -0.93328,4.375 c -3.00019,14.06406 -17.64459,87.16231 -20.46969,102.1755 -1.84228,9.79029 -3.77035,17.54048 -4.28459,17.22265 -0.51425,-0.31782 -1.31351,-3.82805 -1.77614,-7.8005 -1.2121,-10.40798 -11.92575,-70.37438 -19.65898,-110.03515 l -1.27958,-6.5625 -19.911384,0 c -16.63115,0 -19.91138,0.30091 -19.91138,1.82659 0,2.10026 2.77684,14.21346 10.75676,46.92341 6.87194,28.1683 8.2241,33.84727 18.601434,78.125 4.51161,19.25 8.74597,36.27959 9.4097,37.84352 1.19386,2.81308 1.42446,2.83985 21.53195,2.5 l 20.32516,-0.34352 3.25409,-13.75 z m 178.62088,-45.65841 0,-60.03343 -18.4375,0.34593 -18.4375,0.34591 -0.3257,58.125 c -0.1791,31.96875 -0.056,58.82812 0.2733,59.6875 0.4412,1.15084 5.3846,1.5625 18.7632,1.5625 l 18.1642,0 0,-60.03341 z M 327.35557,334.982 c 8.7758,-1.88209 13.2694,-7.77925 13.2694,-17.4142 0,-5.30651 -0.6821,-7.78399 -2.9897,-10.85926 -7.0761,-9.42998 -23.4525,-9.8597 -31.3863,-0.82359 -3.2713,3.72583 -3.749,5.2222 -3.749,11.7447 0,6.698 0.4243,7.93784 4.0824,11.92954 3.4213,3.73321 7.5525,5.7373 13.6686,6.63066 0.4818,0.0704 3.6789,-0.47316 7.1046,-1.20785 z"
     id="path4140"
     inkscape:connector-curvature="0" />
  <path
     style="opacity:0;fill:#b63f3a;fill-opacity:0;stroke:#35a1cd;stroke-width:2.425;stroke-miterlimit:4;stroke-dasharray:none;stroke-opacity:0"
     d="m 336.73125,604.32569 c -40.02504,-7.19552 -86.27845,-29.2371 -113.63803,-54.15305 l -12.71186,-11.57647 -38.1356,-1.87481 C 130.60192,534.67411 117.61926,531.88742 91.207627,519.32673 66.075003,507.3743 31.283638,471.74609 18.515015,444.8856 -19.202226,365.54238 13.651705,269.64125 91.658886,231.37752 c 28.065484,-13.76655 47.882264,-17.8182 87.149574,-17.8182 19.93204,0 30.89483,-1.34081 33.72937,-4.12529 13.08062,-12.84961 41.67232,-32.81928 60.7307,-42.41693 35.3454,-17.79966 67.09145,-24.28655 110.31198,-22.54082 56.65115,2.28821 104.27161,20.77602 143.15307,55.57669 l 15.09013,13.50635 30.68536,0 c 38.87291,0 69.17774,6.86874 92.81939,21.03798 78.40945,46.99337 103.75075,137.61504 61.5915,220.25399 -3.77374,7.39713 -15.91542,22.50337 -26.98147,33.56946 -34.18879,34.18878 -74.68415,49.21039 -132.81442,49.26712 l -24.61325,0.0254 -19.50572,15.71791 c -23.94639,19.29623 -54.37628,35.46575 -83.81018,44.53427 -25.54106,7.86912 -76.48459,11.03202 -102.46367,6.36165 l 0,-10e-4 z m 301.54986,-123.0225 c 24.86498,-12.24505 44.39606,-32.19683 56.2303,-57.4415 7.29531,-15.56226 8.45469,-22.1754 8.45469,-48.2261 0,-27.24671 -0.96473,-32.20496 -9.89336,-50.84745 -16.2258,-33.87856 -42.47704,-55.4822 -78.96289,-64.98305 -14.63949,-3.81211 -36.73487,-4.93221 -97.29388,-4.93221 -74.37038,0 -78.77707,0.33366 -86.69822,6.56444 -10.38178,8.16631 -16.83756,30.21409 -19.48026,66.52878 -2.6229,36.04316 -4.47413,44.49153 -9.74908,44.49153 -7.5743,0 -13.37742,16.33944 -17.21329,48.4662 -5.56974,46.64845 -11.89195,63.14514 -26.49811,69.14228 -4.25107,1.74547 45.07418,2.60762 126.58322,2.21253 l 133.54834,-0.64728 20.97254,-10.32817 z m -467.42467,-64.35404 11.4541,-52.43644 3.35192,15.88983 c 1.84356,8.73941 6.66169,32.75013 10.70697,53.35716 l 7.35504,37.46733 22.29647,-0.92072 22.29647,-0.92072 6.88436,-25.42373 c 16.17612,-59.73793 36.21772,-137.79716 36.21772,-141.06294 0,-2.22773 -7.55807,-3.53451 -20.44262,-3.53451 -16.71992,0 -20.74407,1.01276 -22.09797,5.56144 -1.73084,5.81507 -16.79209,85.53001 -18.76379,99.31144 -1.67767,11.72629 -3.51847,4.72243 -13.78173,-52.43644 l -9.12999,-50.84746 -21.49491,-0.94069 c -15.38909,-0.67348 -21.93539,0.22926 -23.04559,3.17797 -0.85287,2.26526 -6.43201,27.71505 -12.39809,56.55509 -5.96607,28.84005 -11.05167,51.7214 -11.30132,50.84746 -0.24966,-0.87394 -5.019,-25.90042 -10.59853,-55.61441 l -10.14461,-54.02542 -18.711954,-0.96617 c -27.613005,-1.42577 -27.595678,-1.44533 -21.059842,23.77442 3.090639,11.9258 12.368346,49.98733 20.617129,84.58117 l 14.997787,62.89789 22.66944,-0.92755 22.66944,-0.92756 11.4541,-52.43644 z m 169.82153,-7.94491 0,-60.38136 -19.86229,-0.94613 -19.86229,-0.94614 0,62.27363 0,62.27361 19.86229,-0.94611 19.86229,-0.94615 0,-60.38135 z m -2.38348,-83.40847 c 5.50335,-7.20454 4.9704,-21.60146 -1.02149,-27.59335 -2.74665,-2.74667 -9.79494,-4.99395 -15.66283,-4.99395 -5.86789,0 -12.91616,2.24728 -15.66283,4.99395 -9.38172,9.38171 -4.83445,29.52013 7.71791,34.18025 7.25552,2.69364 20.18057,-0.76307 24.62924,-6.5869 z"
     id="path3338"
     inkscape:connector-curvature="0" />
</svg>
