<?xml version="1.0" encoding="UTF-8" standalone="no"?>
<!-- Created with Inkscape (http://www.inkscape.org/) -->

<svg
   xmlns:dc="http://purl.org/dc/elements/1.1/"
   xmlns:cc="http://creativecommons.org/ns#"
   xmlns:rdf="http://www.w3.org/1999/02/22-rdf-syntax-ns#"
   xmlns:svg="http://www.w3.org/2000/svg"
   xmlns="http://www.w3.org/2000/svg"
   xmlns:sodipodi="http://sodipodi.sourceforge.net/DTD/sodipodi-0.dtd"
   xmlns:inkscape="http://www.inkscape.org/namespaces/inkscape"
   id="svg2"
   version="1.1"
   inkscape:version="0.91 r13725"
   width="132.78491"
   height="144.92076"
   viewBox="0 0 132.78491 144.92076"
   sodipodi:docname="Ñoffee.svg">
  <metadata
     id="metadata8">
    <rdf:RDF>
      <cc:Work
         rdf:about="">
        <dc:format>image/svg+xml</dc:format>
        <dc:type
           rdf:resource="http://purl.org/dc/dcmitype/StillImage" />
        <dc:title></dc:title>
      </cc:Work>
    </rdf:RDF>
  </metadata>
  <defs
     id="defs6" />
  <sodipodi:namedview
     pagecolor="#ffffff"
     bordercolor="#666666"
     borderopacity="1"
     objecttolerance="10"
     gridtolerance="10"
     guidetolerance="10"
     inkscape:pageopacity="0"
     inkscape:pageshadow="2"
     inkscape:window-width="1366"
     inkscape:window-height="705"
     id="namedview4"
     showgrid="false"
     fit-margin-top="0"
     fit-margin-left="0"
     fit-margin-right="0"
     fit-margin-bottom="0"
     inkscape:zoom="2.1953488"
     inkscape:cx="51.492886"
     inkscape:cy="67.939596"
     inkscape:window-x="-8"
     inkscape:window-y="-8"
     inkscape:window-maximized="1"
     inkscape:current-layer="svg2" />
  <path
     style="fill:#f34e4e;fill-opacity:1"
     d="M 6.0080355,143.72903 C 2.2819929,140.54387 -0.01227986,137.28662 4.9443846e-5,135.19948 0.00924944,134.29462 0.54649764,133.20105 1.2569999,132.65909 l 0.6017464,-0.45897 58.1209617,0 58.121052,0 0.6208,0.68714 c 1.14157,1.26364 1.24379,2.83076 0.31293,4.7979 -0.27318,0.57724 -1.54633,2.4414 -2.82923,4.14256 l -2.33264,3.09304 -53.235316,-2e-5 -53.2352229,-2e-5 -1.3940456,-1.19169 z M 38.378491,128.62239 C 32.583692,127.0506 26.581319,118.99774 20.263627,104.31927 17.313506,97.465054 13.597583,86.514634 11.689478,79.052264 l -0.690721,-2.70096 48.633705,-0.0439 c 26.748543,-0.0241 48.663428,-0.0141 48.699768,0.0221 0.0709,0.0708 -0.95846,4.27898 -1.53951,6.29491 -4.55588,15.80676 -10.813314,30.259096 -16.66451,38.488666 -1.367086,1.92274 -4.909753,5.47055 -6.273895,6.28288 -0.600182,0.35745 -1.54117,0.82004 -2.091023,1.02799 l -0.999782,0.37811 -20.736325,0.0339 c -17.446683,0.0285 -20.881146,-0.006 -21.648694,-0.21361 z m 71.268749,-17.25785 c -2.20217,-0.48258 -4.34352,-1.5617 -6.11812,-3.08322 -1.61405,-1.38387 -1.60043,-1.11168 -0.2165,-4.34778 0.66754,-1.5609 1.29504,-3.0528 1.3945,-3.31535 l 0.18071,-0.47735 0.62798,0.42617 c 2.42317,1.64438 6.18041,1.73115 9.04634,0.20893 1.71249,-0.909616 2.61401,-1.968016 4.61255,-5.415306 2.36982,-4.08762 2.50434,-4.45195 2.41849,-6.55008 -0.0607,-1.47388 -0.13148,-1.77434 -0.64894,-2.73985 -1.57853,-2.94524 -5.26216,-4.68581 -8.6784,-4.10064 -0.64407,0.11033 -1.19429,0.17734 -1.22272,0.14894 -0.069,-0.0686 1.69675,-7.43787 1.86026,-7.76533 0.29029,-0.58132 3.72604,-1.40447 5.81955,-1.39427 6.49122,0.0316 12.02066,4.38799 13.63194,10.73994 0.75752,2.98633 0.50495,6.35258 -0.68419,9.11908 -0.69256,1.61115 -6.1609,11.374296 -7.17366,12.807756 -1.96184,2.77676 -5.05218,4.84048 -8.47855,5.66189 -1.71442,0.41101 -4.68203,0.44664 -6.37124,0.0764 z m -1.07072,-36.451456 c -0.0157,-0.17461 -9.838734,-0.20956 -48.97663,-0.17424 l -48.957304,0.0442 -0.203894,-1.20884 c -0.3973,-2.355109 0.157889,-4.466162 1.389076,-5.281924 l 0.592086,-0.392321 47.243707,0 c 45.797869,0 47.262299,0.0099 47.850889,0.325504 0.95718,0.51313 1.46793,1.685929 1.52562,3.50278 0.0276,0.869931 -0.0553,1.884031 -0.19856,2.444901 -0.13516,0.52713 -0.25441,0.86011 -0.26499,0.73997 z M 66.939631,60.319819 c 4.051115,-5.063833 7.246626,-10.334753 8.285697,-13.666956 0.34467,-1.105051 0.468148,-1.878313 0.475232,-2.974421 0.0138,-2.169479 -0.231958,-2.519504 -3.464918,-4.931172 -8.048771,-6.004095 -12.011647,-10.384826 -13.273014,-14.672545 -0.410733,-1.39596 -0.408893,-3.841944 0,-5.227662 1.184723,-3.977991 5.35315,-9.5915413 10.923628,-14.7107373 2.213488,-2.034159 5.025777,-4.42729297 4.826852,-4.10736797 -0.05889,0.09503 -0.709031,1.07456097 -1.444283,2.17672497 -2.418947,3.626268 -4.207993,7.741503 -4.635012,10.6616653 -0.524734,3.588631 0.680047,5.670033 5.903923,10.199756 6.566856,5.694176 8.780895,8.401151 9.553689,11.680751 0.919549,3.902344 -1.338931,8.794569 -7.351518,15.924821 -1.560401,1.850508 -8.167096,8.613004 -9.740378,9.970172 l -1.03953,0.896758 0.975859,-1.219787 z m -5.370356,0.609899 c 1.626463,-4.638775 2.379198,-7.736967 2.377634,-9.785674 0,-2.864681 -0.473208,-3.404983 -4.006858,-4.596441 -3.656203,-1.232742 -6.963599,-2.928158 -8.515902,-4.36531 -1.353837,-1.253482 -2.186529,-2.685482 -2.382603,-4.097516 -0.276306,-1.989599 0.650236,-5.282963 2.617872,-9.30516 1.168806,-2.389043 2.836121,-5.241237 2.979841,-5.097453 0.0322,0.03248 -0.08557,0.526132 -0.262873,1.097055 -0.843365,2.720253 -1.103478,6.156997 -0.601379,7.94652 0.551694,1.966082 1.730527,2.868287 6.299103,4.820733 1.550647,0.662685 3.254858,1.468822 3.787137,1.791429 3.867095,2.343691 4.670619,5.080008 3.014069,10.263317 -0.714459,2.235321 -2.37285,6.09719 -3.667432,8.540409 -1.06419,2.008268 -1.8103,3.277787 -1.638609,2.788091 z"
     id="path4144"
     inkscape:connector-curvature="0" />
</svg>
