<?xml version="1.0" encoding="UTF-8" standalone="no"?>
<!-- Created with Inkscape (http://www.inkscape.org/) -->

<svg
   xmlns:dc="http://purl.org/dc/elements/1.1/"
   xmlns:cc="http://creativecommons.org/ns#"
   xmlns:rdf="http://www.w3.org/1999/02/22-rdf-syntax-ns#"
   xmlns:svg="http://www.w3.org/2000/svg"
   xmlns="http://www.w3.org/2000/svg"
   xmlns:sodipodi="http://sodipodi.sourceforge.net/DTD/sodipodi-0.dtd"
   xmlns:inkscape="http://www.inkscape.org/namespaces/inkscape"
   id="svg2"
   version="1.1"
   inkscape:version="0.91 r13725"
   width="474.57056"
   height="625"
   viewBox="0 0 474.57056 625"
   sodipodi:docname="protect.svg">
  <metadata
     id="metadata8">
    <rdf:RDF>
      <cc:Work
         rdf:about="">
        <dc:format>image/svg+xml</dc:format>
        <dc:type
           rdf:resource="http://purl.org/dc/dcmitype/StillImage" />
        <dc:title></dc:title>
      </cc:Work>
    </rdf:RDF>
  </metadata>
  <defs
     id="defs6" />
  <sodipodi:namedview
     pagecolor="#ffffff"
     bordercolor="#666666"
     borderopacity="1"
     objecttolerance="10"
     gridtolerance="10"
     guidetolerance="10"
     inkscape:pageopacity="0"
     inkscape:pageshadow="2"
     inkscape:window-width="1366"
     inkscape:window-height="705"
     id="namedview4"
     showgrid="false"
     inkscape:zoom="0.4609375"
     inkscape:cx="301.35084"
     inkscape:cy="252.25597"
     inkscape:window-x="-8"
     inkscape:window-y="-8"
     inkscape:window-maximized="1"
     inkscape:current-layer="svg2"
     fit-margin-top="0"
     fit-margin-left="0"
     fit-margin-right="0"
     fit-margin-bottom="0" />
  <path
     style="fill:#010101"
     d="M 185.73449,593.47548 C 103.61766,543.25912 79.41326,526.8834 55.53328,505.38664 33.49481,485.54764 15.80676,459.28939 7.81172,434.54311 0.05749,410.5422 0,409.12535 0,242.01894 L 0,86.280791 28.42875,85.345144 C 82.87447,83.553193 115.6261,75.853551 156.32163,55.278542 177.33688,44.653582 199.67629,30.034584 221.36518,12.71381 L 237.28528,0 l 15.9201,12.71386 c 21.68847,17.320514 44.02798,31.939552 65.04355,42.564682 40.69554,20.575009 73.44717,28.274651 127.89289,30.066602 l 28.42875,0.935647 0,155.738149 c 0,132.72331 -0.34194,157.72805 -2.31383,169.20352 -5.47451,31.8589 -17.82816,56.69547 -40.85537,82.13825 -18.68275,20.64256 -58.60214,49.09118 -128.16139,91.33441 -19.59688,11.90116 -42.4536,25.83842 -50.7927,30.97168 L 237.28528,625 185.73449,593.47548 Z M 277.67644,528.394 c 88.0462,-53.77991 112.82133,-73.8181 126.34721,-102.18999 9.14769,-19.18818 8.87239,-14.73316 9.47373,-153.30866 l 0.55343,-127.53325 -14.08897,-1.7893 c -48.8663,-6.206 -93.7956,-22.08195 -135.36714,-47.832498 -9.16322,-5.675955 -18.77969,-11.93636 -21.36992,-13.912029 -5.80624,-4.428638 -6.07276,-4.428638 -11.879,0 -2.59023,1.975669 -12.2067,8.236074 -21.36991,13.912029 C 168.40432,121.49085 123.47503,137.3668 74.60872,143.5728 l -14.08896,1.7893 0.55342,127.53325 c 0.60134,138.5755 0.32605,134.12048 9.47374,153.30866 10.10677,21.19998 30.9717,41.08556 70.46329,67.15592 19.64207,12.96671 94.02023,59.04061 95.72883,59.2997 0.53349,0.0808 18.95532,-10.83864 40.9374,-24.26563 z m -119.2272,-160.55732 -46.9775,-46.99584 19.6732,-19.71695 c 10.82027,-10.84433 20.37265,-19.71697 21.22752,-19.71697 0.85488,0 13.4819,11.94221 28.06006,26.53825 l 26.50573,26.53822 62.18964,-62.17608 62.18964,-62.17609 20.06818,20.10957 20.06816,20.10957 -82.25146,82.24107 c -45.2383,45.2326 -82.59441,82.24108 -83.01357,82.24108 -0.41915,0 -21.90198,-21.14812 -47.7396,-46.99583 z"
     id="path3335"
     inkscape:connector-curvature="0" />
</svg>
