<?xml version="1.0" encoding="UTF-8" standalone="no"?>
<!-- Generator: Adobe Illustrator 18.0.0, SVG Export Plug-In . SVG Version: 6.00 Build 0)  -->

<svg
   xmlns:dc="http://purl.org/dc/elements/1.1/"
   xmlns:cc="http://creativecommons.org/ns#"
   xmlns:rdf="http://www.w3.org/1999/02/22-rdf-syntax-ns#"
   xmlns:svg="http://www.w3.org/2000/svg"
   xmlns="http://www.w3.org/2000/svg"
   xmlns:sodipodi="http://sodipodi.sourceforge.net/DTD/sodipodi-0.dtd"
   xmlns:inkscape="http://www.inkscape.org/namespaces/inkscape"
   version="1.1"
   id="Capa_1"
   x="0px"
   y="0px"
   viewBox="0 0 1356.7134 625.87196"
   xml:space="preserve"
   inkscape:version="0.91 r13725"
   sodipodi:docname="tinting.svg"
   width="1356.7134"
   height="625.87195"><metadata
     id="metadata39"><rdf:RDF><cc:Work
         rdf:about=""><dc:format>image/svg+xml</dc:format><dc:type
           rdf:resource="http://purl.org/dc/dcmitype/StillImage" /><dc:title></dc:title></cc:Work></rdf:RDF></metadata><defs
     id="defs37" /><sodipodi:namedview
     pagecolor="#ffffff"
     bordercolor="#666666"
     borderopacity="1"
     objecttolerance="10"
     gridtolerance="10"
     guidetolerance="10"
     inkscape:pageopacity="0"
     inkscape:pageshadow="2"
     inkscape:window-width="1366"
     inkscape:window-height="705"
     id="namedview35"
     showgrid="false"
     fit-margin-top="0"
     fit-margin-left="0"
     fit-margin-right="0"
     fit-margin-bottom="0"
     inkscape:zoom="0.34906291"
     inkscape:cx="1072.1974"
     inkscape:cy="241.1788"
     inkscape:window-x="-8"
     inkscape:window-y="-8"
     inkscape:window-maximized="1"
     inkscape:current-layer="Capa_1" /><g
     id="g5"
     transform="translate(67.852046,265.60946)" /><g
     id="g7"
     transform="translate(67.852046,265.60946)" /><g
     id="g9"
     transform="translate(67.852046,265.60946)" /><g
     id="g11"
     transform="translate(67.852046,265.60946)" /><g
     id="g13"
     transform="translate(67.852046,265.60946)" /><g
     id="g15"
     transform="translate(67.852046,265.60946)" /><g
     id="g17"
     transform="translate(67.852046,265.60946)" /><g
     id="g19"
     transform="translate(67.852046,265.60946)" /><g
     id="g21"
     transform="translate(67.852046,265.60946)" /><g
     id="g23"
     transform="translate(67.852046,265.60946)" /><g
     id="g25"
     transform="translate(67.852046,265.60946)" /><g
     id="g27"
     transform="translate(67.852046,265.60946)" /><g
     id="g29"
     transform="translate(67.852046,265.60946)" /><g
     id="g31"
     transform="translate(67.852046,265.60946)" /><g
     id="g33"
     transform="translate(67.852046,265.60946)" /><path
     style="fill:#020202"
     d="M 7.4879078,617.77472 C -0.26631021,610.02049 -0.56697421,609.24214 0.38104779,599.37593 1.3579318,589.20939 1.7398308,588.70689 29.418115,561.16989 109.84627,481.15224 504.17195,100.47469 518.57266,88.945613 580.38667,39.457903 649.28905,10.627863 727.02058,1.7271233 740.11496,0.22774329 823.49942,-0.27609671 989.59129,0.14062329 l 243.38291,0.61062 16.1582,5.66525001 c 62.79,22.0149197 104.3011,76.4049397 107.436,140.7683967 0.9218,18.9306 -1.9412,44.62851 -26.6671,239.34329 -15.235,119.97461 -28.9061,221.06969 -30.3805,224.6557 -1.4744,3.58602 -5.6893,8.35435 -9.3665,10.59628 -6.6683,4.06554 -8.3462,4.07623 -640.62773,4.08376 l -633.941891,0.008 -8.0967712,-8.09675 z M 273.75971,426.41873 c 84.47853,-81.92711 182.38774,-176.86181 217.57599,-210.96601 35.18825,-34.10419 71.04741,-67.38863 79.68702,-73.9654 50.57214,-38.49726 104.4176,-59.866157 168.54185,-66.886727 12.66201,-1.3863 99.30673,-2.14735 244.47332,-2.14735 245.49981,0 236.51581,-0.40318 258.57761,11.60436 19.8924,10.82682 36.1343,34.838197 40.1132,59.301727 1.9092,11.73913 -0.3053,31.84989 -24.332,220.96431 -14.5378,114.42739 -26.4324,208.72562 -26.4324,209.55162 0,0.82601 4.919,1.50185 10.9312,1.50185 l 10.9312,0 1.2221,-7.57416 c 3.4585,-21.43379 51.6246,-406.4997 51.6027,-412.53896 -0.046,-12.74416 -5.8494,-35.10066 -12.5515,-48.35543 -13.5193,-26.736947 -43.5816,-49.146907 -73.1105,-54.500167 -15.8858,-2.87989 -459.15782,-2.98139 -484.87994,-0.11108 -71.63203,7.99356 -138.3814,36.42869 -191.07268,81.396647 -11.02007,9.40482 -356.73727,343.2648 -447.15206,431.8159 l -10.074817,9.86725 16.176177,0 16.17619,0 153.59734,-148.95838 z m 87.68167,67.93342 0,-81.02498 -31.81145,30.42528 c -17.4963,16.73392 -54.98836,53.147 -83.3157,80.91797 l -51.50426,50.49267 83.31571,0.10705 83.3157,0.10705 0,-81.02496 z m 818.93782,76.48047 c 1.0914,-4.93052 25.3567,-197.04619 25.3389,-200.61582 -0.012,-2.22959 -60.5365,-22.25789 -85.8513,-28.40886 -10.0429,-2.44021 -22.622,-3.42341 -43.4252,-3.39419 -25.1209,0.0353 -32.0219,0.7846 -48.5155,5.26776 -10.5759,2.87462 -23.603,7.10161 -28.94927,9.39326 -12.1689,5.21621 -22.66132,5.29333 -30.96922,0.22765 -12.05672,-7.35149 -11.69088,-3.76528 -12.33095,-120.87644 l -0.58834,-107.64738 -112.51904,0.72988 c -98.42432,0.63845 -114.4166,1.17347 -127.66735,4.27106 -47.81827,11.17828 -93.04629,33.772 -125.22601,62.55678 -4.99894,4.47156 -46.58105,44.43021 -92.40469,88.79701 l -83.31571,80.66689 0,106.78845 0,106.78844 382.70881,0 382.70887,0 1.006,-4.54449 z m 43.4699,-340.79836 c 4.4633,-34.97136 8.1118,-68.14616 8.1076,-73.72177 -0.01,-12.0448 -5.0642,-21.49186 -14.6173,-27.31648 -6.2888,-3.83428 -10.326,-4.01386 -90.3945,-4.02107 l -83.8118,-0.008 85.8293,85.84708 c 47.2062,47.21591 86.0413,85.16243 86.3004,84.3256 0.2591,-0.83684 4.1229,-30.13446 8.5863,-65.1058 z m -185.7832,59.40909 c 21.7841,-3.65262 60.8959,-3.5988 81.7262,0.1125 8.8459,1.57605 16.3091,2.63992 16.5849,2.36418 0.2757,-0.27575 -28.5482,-29.54027 -64.0532,-65.03226 l -64.5545,-64.5309 0,66.38825 0,66.38826 6.5642,-1.40569 c 3.6104,-0.77313 14.2899,-2.70108 23.7324,-4.28434 z"
     id="path3382"
     inkscape:connector-curvature="0" /></svg>