<?xml version="1.0" encoding="UTF-8" standalone="no"?>
<!-- Created with Inkscape (http://www.inkscape.org/) -->

<svg
   xmlns:dc="http://purl.org/dc/elements/1.1/"
   xmlns:cc="http://creativecommons.org/ns#"
   xmlns:rdf="http://www.w3.org/1999/02/22-rdf-syntax-ns#"
   xmlns:svg="http://www.w3.org/2000/svg"
   xmlns="http://www.w3.org/2000/svg"
   xmlns:sodipodi="http://sodipodi.sourceforge.net/DTD/sodipodi-0.dtd"
   xmlns:inkscape="http://www.inkscape.org/namespaces/inkscape"
   id="svg3336"
   version="1.1"
   inkscape:version="0.91 r13725"
   width="624.76404"
   height="624.77863"
   viewBox="0 0 624.76404 624.77863"
   sodipodi:docname="icon.svg">
  <metadata
     id="metadata3342">
    <rdf:RDF>
      <cc:Work
         rdf:about="">
        <dc:format>image/svg+xml</dc:format>
        <dc:type
           rdf:resource="http://purl.org/dc/dcmitype/StillImage" />
        <dc:title></dc:title>
      </cc:Work>
    </rdf:RDF>
  </metadata>
  <defs
     id="defs3340" />
  <sodipodi:namedview
     pagecolor="#ffffff"
     bordercolor="#666666"
     borderopacity="1"
     objecttolerance="10"
     gridtolerance="10"
     guidetolerance="10"
     inkscape:pageopacity="0"
     inkscape:pageshadow="2"
     inkscape:window-width="1366"
     inkscape:window-height="705"
     id="namedview3338"
     showgrid="false"
     fit-margin-top="0"
     fit-margin-left="0"
     fit-margin-right="0"
     fit-margin-bottom="0"
     inkscape:zoom="0.42811502"
     inkscape:cx="140.46229"
     inkscape:cy="389.07265"
     inkscape:window-x="-8"
     inkscape:window-y="-8"
     inkscape:window-maximized="1"
     inkscape:current-layer="svg3336" />
  <path
     style="fill:#000000"
     d="M 110.46144,623.47341 C 80.24964,618.38536 57.97141,607.66062 38.67133,588.91364 14.09657,565.04314 -0.14672007,530.1034 0.00113993,494.05308 c 0.0543,-13.22845 3.37051947,-29.98259 8.12668047,-41.05684 1.09149,-2.54144 2.8152596,-6.8708 3.8305896,-9.6208 1.01533,-2.75 3.25071,-8.6 4.96751,-13 4.37812,-11.22069 13.56242,-35.50915 23.44432,-62 2.05166,-5.5 5.23068,-13.825 7.06446,-18.5 1.83379,-4.675 5.02097,-13 7.08262,-18.5 2.06164,-5.5 5.04931,-13.375 6.63926,-17.5 4.4039,-11.4256 12.76374,-33.54866 16.05986,-42.5 1.6202,-4.4 4.04822,-10.925 5.3956,-14.5 1.34739,-3.575 3.52017,-9.425 4.82842,-13 1.30824,-3.575 5.142679,-13.7 8.520979,-22.5 3.3783,-8.8 7.210021,-18.925 8.514931,-22.5 1.30491,-3.575 3.57525,-9.65 5.0452,-13.5 2.50513,-6.5613 5.25691,-13.99785 10.916,-29.5 2.5372,-6.95022 4.56139,-12.57017 17.46874,-48.5 15.76895,-43.895578 21.19223,-55.084658 33.72729,-69.584608 18.86035,-21.81675 41.5126,-31.82583 83.70673,-36.98650996 13.51475,-1.6529696 41.81256,-0.6464896 56.18246,1.99824996 36.14998,6.65331 58.11524,20.78426 85.47354,54.98783 41.38367,51.738208 67.88823,69.399638 120.05195,79.997118 19.06367,3.87294 31.48293,5.1044 60.91316,6.03999 27.02431,0.85911 32.43585,1.85768 38.38782,7.08358 4.05059,3.55646 7.59316,11.37991 8.31354,18.35971 0.49344,4.78098 -0.69475,12.46002 -6.28282,40.60464 -0.81901,4.125 -2.56941,13.35 -3.88979,20.5 -1.32038,7.15 -3.78927,20.2 -5.48644,29 -1.69716,8.8 -4.17542,21.85 -5.50723,29 -1.33182,7.15 -3.5976,19.075 -5.03508,26.5 -1.43748,7.425 -3.70326,19.35 -5.03508,26.5 -1.33181,7.15 -3.81059,20.2 -5.50839,29 -3.38464,17.54324 -6.32897,33.29347 -10.3751,55.5 -1.45308,7.975 -3.26216,17.2 -4.02017,20.5 -0.75801,3.3 -1.66743,8.025 -2.02092,10.5 -0.35349,2.475 -1.7308,10.125 -3.06069,17 -3.53884,18.29448 -6.87746,35.97759 -10.95055,58 -1.98361,10.725 -4.6751,25.125 -5.9811,32 -1.30599,6.875 -3.5927,19.025 -5.08158,27 -4.03872,21.633 -5.39675,24.49231 -14.43857,30.40009 -3.86273,2.52384 -5.62742,2.96227 -13.60227,3.37941 -17.65727,0.92359 -55.09736,-3.45562 -74.92558,-8.76372 -38.31445,-10.25696 -68.57999,-27.30046 -95.03233,-53.51578 -17.00306,-16.8507 -29.52422,-32.69751 -51.35895,-65 -13.72343,-20.30255 -19.65625,-28.62714 -25.0282,-35.11804 -1.41928,-1.71493 -3.93052,-4.85637 -5.58052,-6.98098 -5.39572,-6.94777 -19.36189,-20.05571 -26.9802,-25.32224 -12.12307,-8.38067 -27.66272,-15.11226 -42.5198,-18.41907 -13.53475,-3.01248 -43.33394,-3.63106 -60,-1.24549 -15.82491,2.26517 -34.90817,8.59204 -44.000001,14.58778 -1.375,0.90676 -4.749999,3.14446 -7.499999,4.97265 -18.74904,12.46436 -33.89286,35.96237 -36.51737,56.66244 -1.32343,10.4381 0.27828,25.1781 3.94503,36.30481 10.25328,31.11347 35.0194,50.02907 69.45538,53.04789 24.08681,2.11156 52.05195,-1.93841 68.91316,-9.98014 11.83774,-5.64586 20.99372,-15.64542 23.69151,-25.87431 1.75677,-6.66098 1.39186,-17.11491 -0.79868,-22.87994 -6.00398,-15.80119 -26.68623,-31.33389 -47.01423,-35.30845 -7.74696,-1.51469 -26.58556,-0.71554 -33.52185,1.42204 -12.9034,3.97648 -16.20419,10.046 -8.49883,15.62773 4.74765,3.43919 8.45711,4.55103 18.34588,5.49887 8.6207,0.8263 14.75179,3.73166 18.98795,8.9979 9.97181,12.39656 6.04608,29.55525 -8.48795,37.09938 -5.43137,2.81924 -19.8446,2.38379 -32.41205,-0.97922 -22.791771,-6.099 -39.38345,-20.3641 -46.22983,-39.74723 -3.7673,-10.66579 -3.76596,-24.50056 0.003,-34.26845 5.86326,-15.19431 14.33925,-24.31504 30.28796,-32.59184 13.2796,-6.89163 28.85768,-10.08324 49.2236,-10.08485 19.82687,-0.002 33.55168,3.2359 51.35206,12.11316 20.99721,10.47154 38.08526,26.24256 48.17891,44.4656 13.86094,25.02449 13.37526,58.32232 -1.21241,83.12292 -14.96475,25.44166 -41.17476,41.50613 -79.69157,48.84403 -17.28155,3.29233 -49.61096,4.3859 -63,2.13102 z"
     id="path3346"
     inkscape:connector-curvature="0" />
</svg>
