<?xml version="1.0" encoding="UTF-8" standalone="no"?>
<svg
   viewBox="0 0 395.98015 197"
   version="1.1"
   id="svg2">
  <metadata
     id="metadata8">
    <rdf:RDF>
      <cc:Work
         rdf:about="">
        <dc:format>image/svg+xml</dc:format>
        <dc:type
           rdf:resource="http://purl.org/dc/dcmitype/StillImage" />
        <dc:title></dc:title>
      </cc:Work>
    </rdf:RDF>
  </metadata>
  <defs
     id="defs6" />
  <path
     id="path3338"
     d="m 185.18249,196.64282 c -19.62441,-2.01228 -36.81225,-9.56601 -48.72955,-21.41572 -2.21097,-2.19842 -4.01994,-4.15642 -4.01994,-4.35111 0,-0.19467 2.28399,0.4212 5.07553,1.36861 10.70678,3.63375 20.49086,5.02039 33.23483,4.71017 9.47009,-0.23052 13.58704,-0.764 22.00977,-2.85203 11.05636,-2.74091 19.6646,-6.44886 28.71916,-12.37059 9.67453,-6.32722 14.47465,-10.50239 33.51994,-29.15577 15.3118,-14.99672 17.21857,-16.79311 22.5509,-21.24521 7.24277,-6.04716 14.25556,-10.79253 21.70355,-14.686182 l 4.25105,-2.22239 -3.07448,-0.25542 c -14.55491,-1.20922 -33.86296,-1.8927 -49.15682,-1.7401 l -12.35397,0.12327 0.0716,0.98048 c 0.0393,0.53926 -0.0992,2.79096 -0.30782,5.00378 -2.30752,24.469972 -25.81116,40.718892 -49.43107,34.173482 -12.49312,-3.46202 -22.53374,-13.19728 -26.6534,-25.84282 -0.88556,-2.71834 -1.21735,-3.30831 -1.7977,-3.19655 -1.42917,0.27525 -11.05833,3.91234 -16.6934,6.30539 -5.0039,2.125 -5.7848,2.57546 -5.7848,3.33696 0,1.93909 1.67704,7.2804 3.33267,10.61445 7.05769,14.2125 23.00123,25.57716 41.73637,29.74997 2.2469,0.50044 3.91261,1.0166 3.70158,1.14703 -0.92381,0.57095 -8.61731,1.85565 -13.42339,2.24151 -21.11837,1.6955 -42.66627,-5.92449 -57.1112,-20.19626 -3.33324,-3.29327 -7.39808,-8.23631 -9.02937,-10.98012 -0.37067,-0.62346 -0.6323,-0.59967 -3.7258,0.33873 -10.79952,3.27601 -23.270912,4.86342 -34.744653,4.42241 -20.70585,-0.79584 -38.84788,-6.17084 -52.903263,-15.67381 C 11.585453,111.88965 3.3577868,103.68604 1.3525058,100.22191 0.54845447,98.832938 -0.05815298,97.645298 0.00444048,97.582698 c 0.06259345,-0.0626 2.79574682,0.4136 6.07366722,1.05822 12.1195363,2.383382 22.8613883,3.307302 31.4231053,2.702752 10.022796,-0.70773 18.803544,-3.067032 27.4752,-7.382332 11.666322,-5.80553 21.212027,-13.14048 42.160357,-32.39609 22.37131,-20.56361 31.56581,-28.22237 44.12133,-36.7519 20.78237,-14.1184 39.70608,-21.3606598 62.94642,-24.09012983 7.30527,-0.85797 24.99254,-0.98077 31.17907,-0.21648 20.81133,2.57108003 37.18001,8.14963003 51.01238,17.38535983 6.06381,4.04878 6.27431,4.34602 2.42752,3.42789 -14.59064,-3.48235 -36.69181,-4.16898 -54.22428,-1.68463 -6.58088,0.93252 -15.66123,2.83439 -22.29915,4.67054 -17.84697,4.93673 -35.48575,14.69833 -55.4743,30.70038 -2.54653,2.03868 -4.56625,3.77052 -4.48822,3.84855 0.078,0.078 2.07334,-0.38275 4.434,-1.02395 9.41437,-2.55712 22.85032,-4.79472 35.66729,-5.93999 12.16202,-1.08674 37.25478,-0.57566 52.94559,1.07838 50.73512,5.34823 98.76601,23.15946 130.21344,48.286892 4.77495,3.81532 10.70065,9.34665 10.36899,9.67889 -0.11747,0.11769 -4.5296,-0.25145 -9.80474,-0.82031 -8.21807,-0.88622 -11.38778,-1.03801 -22.14117,-1.06029 -11.46342,-0.0238 -12.98509,0.0524 -17.57418,0.87911 -9.59684,1.72891 -16.27197,4.03926 -23.87612,8.26383 -8.84994,4.91667 -15.6879,10.74285 -32.59792,27.7745 -7.15982,7.21135 -15.37252,15.25878 -18.2504,17.88317 -23.08654,21.05302 -43.09762,30.69253 -68.10692,32.80769 -5.4088,0.45745 -13.86654,0.4483 -18.43291,-0.0199 z M 207.0191,115.7818 c 3.57056,-1.30193 6.12924,-3.02184 8.89649,-5.98003 3.68633,-3.94067 5.91068,-9.50505 5.92982,-14.833692 l 0.007,-1.89636 -3.03946,0.24875 c -16.26683,1.33131 -25.16725,2.43928 -35.25421,4.38865 l -5.30689,1.02559 0.24257,1.418002 c 0.1334,0.7799 0.96293,2.89743 1.84338,4.70562 2.80604,5.76266 8.3981,10.23171 14.56169,11.63741 3.51709,0.80212 8.81849,0.48984 12.11981,-0.71394 z"
     style="fill:#484848" />
</svg>
