<?xml version="1.0" encoding="UTF-8" standalone="no"?>
<!-- Created with Inkscape (http://www.inkscape.org/) -->

<svg
   xmlns:dc="http://purl.org/dc/elements/1.1/"
   xmlns:cc="http://creativecommons.org/ns#"
   xmlns:rdf="http://www.w3.org/1999/02/22-rdf-syntax-ns#"
   xmlns:svg="http://www.w3.org/2000/svg"
   xmlns="http://www.w3.org/2000/svg"
   xmlns:sodipodi="http://sodipodi.sourceforge.net/DTD/sodipodi-0.dtd"
   xmlns:inkscape="http://www.inkscape.org/namespaces/inkscape"
   width="7.9074569mm"
   height="13.272507mm"
   viewBox="0 0 28.018547 47.028566"
   id="svg4188"
   version="1.1"
   inkscape:version="0.91 r13725"
   sodipodi:docname="arrow.svg">
  <defs
     id="defs4190" />
  <sodipodi:namedview
     id="base"
     pagecolor="#ffffff"
     bordercolor="#666666"
     borderopacity="1.0"
     inkscape:pageopacity="0.0"
     inkscape:pageshadow="2"
     inkscape:zoom="7.9195959"
     inkscape:cx="-0.39587732"
     inkscape:cy="31.490119"
     inkscape:document-units="px"
     inkscape:current-layer="layer1"
     showgrid="false"
     fit-margin-top="0"
     fit-margin-left="0"
     fit-margin-right="0"
     fit-margin-bottom="0"
     inkscape:window-width="1366"
     inkscape:window-height="705"
     inkscape:window-x="-8"
     inkscape:window-y="-8"
     inkscape:window-maximized="1" />
  <metadata
     id="metadata4193">
    <rdf:RDF>
      <cc:Work
         rdf:about="">
        <dc:format>image/svg+xml</dc:format>
        <dc:type
           rdf:resource="http://purl.org/dc/dcmitype/StillImage" />
        <dc:title></dc:title>
      </cc:Work>
    </rdf:RDF>
  </metadata>
  <g
     inkscape:label="Layer 1"
     inkscape:groupmode="layer"
     id="layer1"
     transform="translate(-295.23608,-502.07746)">
    <path
       style="fill:#000000"
       d=""
       id="path4825"
       inkscape:connector-curvature="0" />
    <path
       style="fill:#000000"
       d=""
       id="path4823"
       inkscape:connector-curvature="0" />
    <path
       style="fill:#ff5555"
       d="m 299.82393,548.99254 c 0.55854,-0.24464 23.14788,-22.5178 23.33301,-23.00645 0.0944,-0.24902 0.12587,-0.58347 0.0701,-0.74323 -0.0558,-0.15977 -5.34412,-5.43733 -11.75182,-11.72794 -11.0147,-10.8134 -11.68275,-11.43746 -12.24394,-11.43746 -0.52742,0 -0.78016,0.18353 -2.26757,1.64644 -1.49466,1.47005 -1.67401,1.70976 -1.67401,2.2374 0,0.56088 0.49314,1.07422 9.68246,10.07936 l 9.68246,9.48839 -9.63856,9.45622 c -6.23594,6.11799 -9.67674,9.61028 -9.74673,9.89264 -0.1576,0.6357 0.21314,1.1988 1.80337,2.73906 1.43487,1.3898 2.03438,1.68953 2.75124,1.37557 z"
       id="path4838"
       inkscape:connector-curvature="0" />
  </g>
</svg>
