<?xml version="1.0" encoding="UTF-8" standalone="no"?>
<!-- Created with Inkscape (http://www.inkscape.org/) -->

<svg
   xmlns:dc="http://purl.org/dc/elements/1.1/"
   xmlns:cc="http://creativecommons.org/ns#"
   xmlns:rdf="http://www.w3.org/1999/02/22-rdf-syntax-ns#"
   xmlns:svg="http://www.w3.org/2000/svg"
   xmlns="http://www.w3.org/2000/svg"
   xmlns:sodipodi="http://sodipodi.sourceforge.net/DTD/sodipodi-0.dtd"
   xmlns:inkscape="http://www.inkscape.org/namespaces/inkscape"
   width="12.579578mm"
   height="12.60635mm"
   viewBox="0 0 44.573309 44.668168"
   id="svg4188"
   version="1.1"
   inkscape:version="0.91 r13725"
   sodipodi:docname="dogovor.svg">
  <defs
     id="defs4190" />
  <sodipodi:namedview
     id="base"
     pagecolor="#ffffff"
     bordercolor="#666666"
     borderopacity="1.0"
     inkscape:pageopacity="0.0"
     inkscape:pageshadow="2"
     inkscape:zoom="11.2"
     inkscape:cx="14.593837"
     inkscape:cy="23.644377"
     inkscape:document-units="px"
     inkscape:current-layer="layer1"
     showgrid="false"
     fit-margin-top="0"
     fit-margin-left="0"
     fit-margin-right="0"
     fit-margin-bottom="0"
     inkscape:window-width="1366"
     inkscape:window-height="705"
     inkscape:window-x="-8"
     inkscape:window-y="-8"
     inkscape:window-maximized="1" />
  <metadata
     id="metadata4193">
    <rdf:RDF>
      <cc:Work
         rdf:about="">
        <dc:format>image/svg+xml</dc:format>
        <dc:type
           rdf:resource="http://purl.org/dc/dcmitype/StillImage" />
        <dc:title></dc:title>
      </cc:Work>
    </rdf:RDF>
  </metadata>
  <g
     inkscape:label="Layer 1"
     inkscape:groupmode="layer"
     id="layer1"
     transform="translate(-302.91314,-515.20832)">
    <path
       style="fill:#ffffff"
       d="m 305.61202,559.65053 c -0.98609,-0.29884 -1.86614,-0.97308 -2.29716,-1.75996 -0.36886,-0.67341 -0.40172,-2.33837 -0.40172,-20.35984 0,-19.3142 0.006,-19.63948 0.48128,-20.4457 0.26473,-0.45059 0.84997,-1.03583 1.30056,-1.30055 0.78342,-0.46024 1.25889,-0.48454 10.86894,-0.55546 7.63145,-0.0563 10.27015,-0.003 10.96587,0.22485 0.70465,0.23003 1.64996,1.08882 4.09463,3.71994 5.57392,5.99902 5.74828,6.25662 5.74828,8.49307 0,0.88322 -0.14382,1.17056 -1.09646,2.18887 -0.60304,0.6447 -1.16424,1.17219 -1.24713,1.17219 -0.0829,0 -0.11169,-0.75152 -0.0639,-1.67005 0.0477,-0.91851 0.0225,-1.92938 -0.0578,-2.24639 l -0.14472,-0.57637 -3.76174,0 -3.76175,0 -0.49009,-0.62304 c -0.44903,-0.57086 -0.49008,-0.93732 -0.49008,-4.37456 0,-2.84307 -0.0716,-3.75178 -0.29558,-3.75254 -15.11382,-0.0511 -18.92504,-10e-4 -19.22938,0.25135 -0.28795,0.23897 -0.33741,3.11963 -0.33434,19.46416 0.003,11.67144 0.0914,19.32259 0.22775,19.53839 0.194,0.30691 1.98552,0.36407 13.29744,0.42431 7.19033,0.0383 13.40979,0.009 13.82105,-0.0659 1.145,-0.20751 1.28225,-0.93025 1.25237,-6.59431 l -0.0261,-4.93652 0.77097,-0.79545 c 0.73272,-0.75596 0.79298,-0.77551 1.21443,-0.39411 0.41543,0.37597 0.43884,0.78307 0.37018,6.44079 -0.0842,6.93566 -0.1652,7.25641 -2.07962,8.22673 l -1.04966,0.53206 -13.48741,-0.0203 c -7.41808,-0.0116 -13.76263,-0.10371 -14.09902,-0.20571 z m 7.50304,-5.56716 c -0.50952,-0.50952 -0.49265,-1.72595 0.0452,-3.2575 0.49207,-1.40118 0.43898,-1.82668 -0.22787,-1.82668 -0.69589,0 -1.58037,1.01895 -2.34137,2.69726 -0.71483,1.57657 -1.25208,2.03857 -1.61548,1.38923 -0.47109,-0.84177 1.63669,-4.52422 2.94488,-5.145 1.46136,-0.69344 2.93412,0.0599 2.93412,1.50067 0,0.31535 -0.22798,1.1987 -0.50666,1.963 -0.27867,0.76428 -0.45077,1.4455 -0.38241,1.51386 0.0683,0.0684 0.51268,-0.13932 0.98743,-0.46155 0.47477,-0.32218 1.16787,-0.65269 1.54024,-0.73448 0.73757,-0.16204 2.38129,0.39844 2.38129,0.8119 0,0.13663 0.10641,0.24852 0.23645,0.24852 0.1301,0 0.23646,-0.21584 0.23646,-0.47964 0,-1.58471 2.98605,-6.12468 6.32781,-9.62077 l 1.85671,-1.94245 2.1149,2.13612 2.1149,2.13614 -2.00993,1.88318 c -1.10545,1.03578 -2.70158,2.41648 -3.54695,3.06824 -1.69311,1.30537 -5.75697,3.41559 -6.13171,3.184 -0.13053,-0.0808 -0.37279,0.0702 -0.53841,0.33542 -0.38172,0.61125 -0.93987,0.61469 -1.48786,0.009 -0.57286,-0.63303 -1.44984,-0.59634 -2.47015,0.10332 -1.17564,0.80614 -1.98337,0.96631 -2.46157,0.48808 z m -2.9382,-9.61996 c -0.41369,-0.41369 -0.35507,-1.00535 0.1445,-1.45736 0.37838,-0.34244 1.18,-0.39136 6.41511,-0.39136 l 5.98271,0 -0.82955,1.00497 -0.82953,1.00497 -5.29751,0.0635 c -3.92137,0.0471 -5.37239,-0.0116 -5.5856,-0.22462 z m 20.57461,-2.62215 c -1.07009,-1.07566 -1.94559,-2.04489 -1.94559,-2.15381 0,-0.41715 12.451,-12.58937 13.27767,-12.98039 1.41301,-0.66831 2.19771,-0.5395 3.27475,0.53754 1.37749,1.37747 1.25881,2.41183 -0.5185,4.51962 l -0.98961,1.17362 0.63723,0.63727 0.63726,0.63725 0.5993,-0.64633 c 0.32961,-0.35549 0.69382,-0.64632 0.80932,-0.64632 0.29789,0 0.95315,0.69251 0.95315,1.00733 0,0.36272 -8.54276,8.92413 -8.90467,8.92413 -0.15981,0 -0.45682,-0.23738 -0.66004,-0.52751 -0.35941,-0.51313 -0.28567,-0.61149 2.70592,-3.60924 1.69147,-1.69495 3.07539,-3.19476 3.07539,-3.33291 0,-0.13819 -0.2432,-0.47967 -0.54042,-0.75888 l -0.5404,-0.50769 -4.83913,4.83396 c -2.66153,2.65869 -4.89467,4.83714 -4.96258,4.84104 -0.0679,0.005 -0.99898,-0.87303 -2.06905,-1.94868 z m -20.64221,-4.22222 c -0.19535,-0.365 -0.19897,-0.65667 -0.0135,-1.06406 l 0.25572,-0.56125 9.18773,0 c 5.05324,0 9.25808,0.0704 9.34408,0.15643 0.086,0.086 -0.26034,0.56484 -0.76963,1.06409 l -0.92601,0.90771 -8.4047,0 c -8.32933,0 -8.40712,-0.005 -8.67382,-0.50284 z m 0.19333,-6.37353 c -0.66516,-0.38743 -0.53428,-1.50549 0.21629,-1.84746 0.737,-0.3358 9.17336,-0.33323 9.81739,0.003 0.624,0.32575 0.76768,1.12299 0.29625,1.64389 -0.3819,0.422 -0.76669,0.45546 -5.16439,0.44879 -2.78551,-0.005 -4.92294,-0.10693 -5.16554,-0.24821 z"
       id="path4784"
       inkscape:connector-curvature="0" />
  </g>
</svg>
