<?xml version="1.0" encoding="UTF-8" standalone="no"?>
<!-- Created with Inkscape (http://www.inkscape.org/) -->

<svg
   xmlns:dc="http://purl.org/dc/elements/1.1/"
   xmlns:cc="http://creativecommons.org/ns#"
   xmlns:rdf="http://www.w3.org/1999/02/22-rdf-syntax-ns#"
   xmlns:svg="http://www.w3.org/2000/svg"
   xmlns="http://www.w3.org/2000/svg"
   xmlns:sodipodi="http://sodipodi.sourceforge.net/DTD/sodipodi-0.dtd"
   xmlns:inkscape="http://www.inkscape.org/namespaces/inkscape"
   width="129.28891mm"
   height="144.37141mm"
   viewBox="0 0 458.11031 511.55225"
   id="svg2"
   version="1.1"
   inkscape:version="0.91 r13725"
   sodipodi:docname="goodrespond.svg">
  <defs
     id="defs4" />
  <sodipodi:namedview
     id="base"
     pagecolor="#ffffff"
     bordercolor="#666666"
     borderopacity="1.0"
     inkscape:pageopacity="0.0"
     inkscape:pageshadow="2"
     inkscape:zoom="0.49497475"
     inkscape:cx="219.7392"
     inkscape:cy="278.7506"
     inkscape:document-units="px"
     inkscape:current-layer="layer1"
     showgrid="false"
     fit-margin-top="0"
     fit-margin-left="0"
     fit-margin-right="0"
     fit-margin-bottom="0"
     inkscape:window-width="1366"
     inkscape:window-height="705"
     inkscape:window-x="-8"
     inkscape:window-y="-8"
     inkscape:window-maximized="1" />
  <metadata
     id="metadata7">
    <rdf:RDF>
      <cc:Work
         rdf:about="">
        <dc:format>image/svg+xml</dc:format>
        <dc:type
           rdf:resource="http://purl.org/dc/dcmitype/StillImage" />
        <dc:title></dc:title>
      </cc:Work>
    </rdf:RDF>
  </metadata>
  <g
     inkscape:label="Layer 1"
     inkscape:groupmode="layer"
     id="layer1"
     transform="translate(-130.57514,-135.42559)">
    <path
       style="fill:#ff5555"
       d="m 135.68517,645.51049 c -5.30044,-2.93781 -5.03656,5.4259 -5.07463,-160.83871 l -0.0354,-154.73423 2.91727,-3.26577 2.91728,-3.26578 44.83272,-0.30767 c 40.1313,-0.2754 45.16121,-0.13445 47.9651,1.34413 1.7228,0.90848 3.6353,2.7556 4.25,4.10472 0.80805,1.77347 1.11763,45.11118 1.11763,156.45553 0,167.4506 0.31941,158.06984 -5.47206,160.7086 -3.97181,1.80969 -90.12464,1.62448 -93.41787,-0.20082 z M 213.5751,484.906 l 0,-141 -31,0 -31,0 0,141 0,141 31,0 31,0 0,-141 z m -38.07692,117.07692 c -8.24668,-8.24668 2.06238,-22.21018 11.88347,-16.09603 4.19121,2.60924 6.2634,7.2642 5.09239,11.43951 -2.14845,7.66044 -11.42685,10.20553 -16.97586,4.65652 z m 188.57692,23.30529 c -23.64176,-2.43689 -45.06549,-5.04264 -65.12209,-7.92073 -13.26714,-1.90381 -26.4441,-3.46148 -29.28211,-3.46148 -2.83802,0 -6.6907,-0.63955 -8.5615,-1.42122 -6.98196,-2.91725 -6.5343,6.22062 -6.5343,-133.38124 l 0,-125.90177 2.25,-3.30443 c 1.92567,-2.8281 4.26806,-4.05397 16.25,-8.50427 53.40158,-19.83428 82.34331,-38.27066 102.15179,-65.07246 17.25241,-23.34331 28.21319,-58.49794 28.34605,-90.91461 0.0929,-22.66998 8.59305,-40.23871 22.84104,-47.2096 4.77797,-2.33764 6.90079,-2.75353 14.1415,-2.77047 12.95624,-0.0303 20.73595,1.98923 25.11504,6.51963 4.34809,4.49834 12.60696,20.32921 16.67356,31.96044 13.77457,39.39784 13.49257,91.91326 -0.73569,137 -1.64888,5.225 -3.00591,10.0625 -3.01563,10.75 -0.0138,0.97374 6.89757,1.25 31.27224,1.25 34.62383,0 38.13196,0.44878 49.10058,6.28119 11.94169,6.34983 20.34497,17.39757 26.24042,34.49815 5.77646,16.75542 4.37538,32.36057 -4.31434,48.05301 l -3.50655,6.33236 2.48504,5.73004 c 6.0291,13.90193 7.01288,28.08402 2.79796,40.33492 -2.61043,7.58735 -8.60206,19.36265 -12.09876,23.77759 -2.67377,3.37591 -2.7964,3.91563 -1.8303,8.05554 1.58237,6.78076 1.30316,21.6109 -0.5448,28.9372 -2.58869,10.26292 -8.07917,20.38902 -15.09094,27.83226 -5.65937,6.00761 -6.35477,7.21226 -7.02404,12.16774 -2.59231,19.19425 -13.31577,37.26517 -26.25548,44.2451 -8.61467,4.64692 -39.45131,11.01853 -69.24869,14.30847 -13.79144,1.52272 -76.5885,2.85027 -86.5,1.82864 z m 79.34045,-20.91325 c 27.5617,-2.7444 61.2459,-9.41072 67.8525,-13.42843 6.67468,-4.05911 12.7216,-16.20229 13.85458,-27.82221 1.18917,-12.19616 1.18067,-12.17752 9.06124,-19.85615 10.15636,-9.89608 13.66001,-17.27478 14.21609,-29.93904 0.30603,-6.96977 -0.0874,-10.9517 -1.69491,-17.15312 -2.5897,-9.99067 -1.93074,-12.43849 4.89878,-18.19722 3.60543,-3.04015 6.01807,-6.38083 9.09996,-12.60033 3.7409,-7.54945 4.19749,-9.24673 4.22831,-15.71791 0.0396,-8.32261 -1.95187,-15.14732 -6.52387,-22.35662 -4.60633,-7.26344 -4.31226,-10.40276 1.83549,-19.59441 9.59901,-14.35171 11.13021,-25.32044 5.41686,-38.80352 -5.36354,-12.65754 -12.32808,-20.53798 -20.83345,-23.57325 -2.88702,-1.03027 -12.92757,-1.34908 -43.55169,-1.38286 -42.39575,-0.0468 -44.12487,-0.23157 -46.6707,-4.9885 -1.76017,-3.28892 -1.18621,-6.5141 3.87436,-21.77076 10.07435,-30.37222 13.65859,-54.01757 12.77615,-84.28463 -0.80221,-27.5151 -5.27779,-48.05913 -14.75661,-67.73648 -4.46788,-9.27501 -5.33253,-9.80898 -14.63448,-9.03758 -4.87898,0.4046 -6.04921,0.93584 -8.89005,4.03573 -4.38317,4.78287 -6.39717,12.0659 -6.40721,23.16983 -0.0163,18.05504 -3.82758,41.77776 -9.54346,59.40229 -5.03811,15.5347 -14.95551,34.78597 -24.33869,47.24531 -20.68441,27.46553 -49.1526,46.22299 -100.10965,65.96145 l -14.5,5.61664 -0.25415,116.06196 -0.25416,116.06195 2.26702,0.56898 c 6.79449,1.70531 75.35873,10.01101 95.93811,11.62171 14.34584,1.12281 49.00865,0.35271 67.64363,-1.50283 z"
       id="path4160"
       inkscape:connector-curvature="0" />
  </g>
</svg>
