<?xml version="1.0" encoding="UTF-8" standalone="no"?>
<!-- Created with Inkscape (http://www.inkscape.org/) -->

<svg
   xmlns:dc="http://purl.org/dc/elements/1.1/"
   xmlns:cc="http://creativecommons.org/ns#"
   xmlns:rdf="http://www.w3.org/1999/02/22-rdf-syntax-ns#"
   xmlns:svg="http://www.w3.org/2000/svg"
   xmlns="http://www.w3.org/2000/svg"
   xmlns:sodipodi="http://sodipodi.sourceforge.net/DTD/sodipodi-0.dtd"
   xmlns:inkscape="http://www.inkscape.org/namespaces/inkscape"
   width="20.509087mm"
   height="12.297946mm"
   viewBox="0 0 72.669991 43.575398"
   id="svg4188"
   version="1.1"
   inkscape:version="0.91 r13725"
   sodipodi:docname="hands.svg">
  <defs
     id="defs4190" />
  <sodipodi:namedview
     id="base"
     pagecolor="#ffffff"
     bordercolor="#666666"
     borderopacity="1.0"
     inkscape:pageopacity="0.0"
     inkscape:pageshadow="2"
     inkscape:zoom="5.6"
     inkscape:cx="68.900353"
     inkscape:cy="25.606655"
     inkscape:document-units="px"
     inkscape:current-layer="layer1"
     showgrid="false"
     fit-margin-top="0"
     fit-margin-left="0"
     fit-margin-right="0"
     fit-margin-bottom="0"
     inkscape:window-width="1366"
     inkscape:window-height="705"
     inkscape:window-x="-8"
     inkscape:window-y="-8"
     inkscape:window-maximized="1" />
  <metadata
     id="metadata4193">
    <rdf:RDF>
      <cc:Work
         rdf:about="">
        <dc:format>image/svg+xml</dc:format>
        <dc:type
           rdf:resource="http://purl.org/dc/dcmitype/StillImage" />
        <dc:title></dc:title>
      </cc:Work>
    </rdf:RDF>
  </metadata>
  <g
     inkscape:label="Layer 1"
     inkscape:groupmode="layer"
     id="layer1"
     transform="translate(-280.12873,-500.34054)">
    <path
       style="fill:#ffffff"
       d="m 319.40584,543.3807 c -0.48546,-0.31145 -1.32522,-1.04443 -1.86614,-1.62885 -0.92755,-1.00205 -0.9583,-1.10305 -0.5406,-1.77471 0.24361,-0.3917 0.72739,-1.7067 1.07504,-2.92228 0.34768,-1.21554 0.75023,-2.16749 0.89464,-2.11547 0.14443,0.0518 1.26167,1.09814 2.48281,2.3247 2.02053,2.02949 2.22029,2.33716 2.22029,3.41978 0,1.57756 -0.4274,2.32048 -1.63238,2.83768 -1.29175,0.55439 -1.57359,0.53932 -2.63366,-0.14084 z m -6.80892,-2.75324 c -0.84274,-0.34934 -1.57618,-1.472 -1.57572,-2.41193 8e-4,-1.52752 1.99292,-7.07948 2.79536,-7.79033 1.69457,-1.50114 4.5364,-0.12612 4.553,2.20307 0.007,1.06685 -1.59087,6.40965 -2.12902,7.11621 -0.82473,1.08274 -2.29954,1.44016 -3.64362,0.88298 z m 12.98734,-0.66826 c -0.32364,-0.18982 -1.91238,-1.62517 -3.53054,-3.18965 -2.08371,-2.01462 -2.9148,-3.01602 -2.84859,-3.43226 0.16172,-1.01568 -0.53794,-2.63439 -1.49658,-3.46297 -0.81567,-0.70504 -1.11865,-0.78275 -2.6171,-0.67144 -1.65344,0.12289 -1.69898,0.10549 -1.87449,-0.71542 -0.0988,-0.46274 -0.55426,-1.25305 -1.01185,-1.75619 -0.71832,-0.78988 -1.03944,-0.91483 -2.3514,-0.91483 -0.8357,0 -1.80231,0.15554 -2.14801,0.34556 -0.47613,0.26173 -0.65663,0.25904 -0.74433,-0.0108 -0.29035,-0.89475 -1.67595,-2.16815 -2.70313,-2.48429 -0.99338,-0.3057 -1.29831,-0.26343 -2.53491,0.35148 -1.02737,0.51089 -1.43862,0.59746 -1.52807,0.32179 -0.39301,-1.21112 -1.46439,-1.94339 -3.03959,-2.07759 -2.25184,-0.19179 -3.22611,0.66859 -4.12918,3.64652 -0.36265,1.19587 -0.7553,2.31211 -0.87253,2.48049 -0.24677,0.35445 -2.9047,0.20823 -2.9047,-0.15984 0,-0.25344 4.8962,-14.69461 6.35114,-18.73251 0.44919,-1.24663 0.93676,-2.35005 1.08346,-2.45203 0.14671,-0.10191 1.87691,-0.27874 3.84489,-0.39278 1.96798,-0.11392 5.7555,-0.40064 8.41675,-0.63682 2.66122,-0.23617 4.88421,-0.38254 4.93998,-0.32524 0.0557,0.0572 -0.16225,0.56324 -0.48426,1.12441 -0.32213,0.56117 -1.70785,3.57053 -3.07945,6.68752 -2.72271,6.1874 -2.7012,6.00097 -0.8075,7.00688 2.06517,1.09698 4.41396,0.82505 6.02496,-0.69758 0.4624,-0.43705 1.5805,-2.40608 2.48459,-4.37563 l 1.64385,-3.58099 2.19776,0.21153 2.19777,0.21156 5.75452,5.48496 c 9.64437,9.19255 10.62417,10.21971 10.62417,11.13745 0,1.83147 -1.3389,3.26278 -3.05203,3.26278 -0.86498,0 -1.55334,-0.55639 -6.30376,-5.0953 -2.359,-2.25397 -3.71886,-3.35465 -3.9065,-3.1619 -0.18764,0.19273 1.2475,1.73893 4.12282,4.44178 3.56879,3.35478 4.44591,4.3392 4.59538,5.15781 0.33654,1.84257 -1.01222,3.4749 -2.88062,3.48633 -1.01346,0.006 -1.50249,-0.37346 -6.27164,-4.86894 -3.28044,-3.09217 -5.27509,-4.77021 -5.45302,-4.58748 -0.17793,0.18278 0.12522,0.66733 0.82882,1.32464 5.67022,5.29753 6.96392,6.58999 7.33646,7.32947 1.16997,2.3223 -1.65464,5.07132 -3.87354,3.76988 z m -18.59879,-1.35948 c -0.90869,-0.18072 -2.14304,-1.7839 -2.14304,-2.78348 0,-0.45847 0.47086,-2.38598 1.04638,-4.28338 1.20911,-3.98611 2.05382,-5.11198 3.83535,-5.11198 1.40955,0 2.76773,1.35386 2.76773,2.75893 0,0.93365 -1.78058,7.01498 -2.40734,8.22188 -0.23625,0.45498 -2.06811,1.51558 -2.36414,1.36879 -0.0456,-0.0226 -0.37636,-0.0994 -0.73494,-0.1708 z m -7.5154,-2.97355 c -1.07342,-1.02241 -1.05456,-2.29287 0.088,-5.91648 1.31555,-4.17257 1.46445,-4.48471 2.36913,-4.96526 1.61572,-0.85825 3.2502,-0.34312 4.05772,1.27881 0.48743,0.97908 0.42838,1.38818 -0.75221,5.20979 -1.29585,4.19475 -1.99937,5.16089 -3.75814,5.16089 -0.87567,0 -1.4154,-0.20674 -2.00442,-0.76775 z m 47.491,-0.99756 c -0.31771,-0.94059 -2.32234,-6.80999 -4.45468,-13.04318 -5.29715,-15.48428 -5.3809,-15.73645 -5.26021,-15.83618 0.0587,-0.0484 3.35016,-1.21876 7.31465,-2.60081 3.96446,-1.38202 7.43985,-2.63173 7.72301,-2.77712 0.48733,-0.2502 0.51488,0.65598 0.51488,16.9455 l 0,17.20983 -2.62996,0.90604 -2.62997,0.90603 -0.57772,-1.71011 z m -64.69931,0.60866 -2.13303,-0.78733 0,-17.00973 c 0,-14.31917 0.0646,-17.00976 0.40892,-17.00976 0.52262,0 14.96351,5.11424 15.25718,5.40332 0.12103,0.11912 -0.30132,1.70605 -0.9385,3.52646 -0.63717,1.82046 -2.69873,7.79778 -4.58121,13.28295 -1.88248,5.48521 -3.69552,10.75507 -4.02894,11.7108 -0.711,2.03786 -0.80185,2.05801 -3.98442,0.88329 z m 11.37804,-3.05109 c -1.08579,-1.11531 -1.11172,-2.19572 -0.12924,-5.39015 0.88663,-2.88308 1.73305,-3.83689 3.40483,-3.83689 1.59672,0 2.77203,1.18981 2.7478,2.78174 -0.0276,1.82029 -1.29894,5.56756 -2.20431,6.49761 -1.13442,1.16536 -2.6539,1.14451 -3.81903,-0.0522 z m 43.71285,-8.25039 C 322.38042,509.5781 324.54637,511.31018 321.56421,511.31018 l -2.47129,0 -1.80204,3.87555 c -1.21076,2.60395 -2.06018,4.04929 -2.58877,4.40507 -1.52637,1.02733 -4.05764,1.00279 -5.35204,-0.0518 l -0.64099,-0.52231 1.46854,-3.32434 c 3.74011,-8.46662 4.08557,-9.10971 5.25688,-9.78592 0.83382,-0.48138 1.61093,-0.63942 3.12876,-0.63615 2.01329,0.006 12.77571,0.72061 16.15696,1.07535 l 1.78073,0.18683 1.13006,3.37106 c 0.62156,1.85413 2.17023,6.3511 3.44152,9.99331 1.2713,3.64219 2.31145,6.70879 2.31145,6.81464 0,0.17132 -1.76241,0.93822 -2.08036,0.90523 -0.0695,-0.007 -1.84735,-1.66356 -3.95097,-3.68084 z"
       id="path4810"
       inkscape:connector-curvature="0" />
  </g>
</svg>
