<?xml version="1.0" encoding="UTF-8" standalone="no"?>
<!-- Created with Inkscape (http://www.inkscape.org/) -->

<svg
   xmlns:dc="http://purl.org/dc/elements/1.1/"
   xmlns:cc="http://creativecommons.org/ns#"
   xmlns:rdf="http://www.w3.org/1999/02/22-rdf-syntax-ns#"
   xmlns:svg="http://www.w3.org/2000/svg"
   xmlns="http://www.w3.org/2000/svg"
   xmlns:sodipodi="http://sodipodi.sourceforge.net/DTD/sodipodi-0.dtd"
   xmlns:inkscape="http://www.inkscape.org/namespaces/inkscape"
   width="12.602004mm"
   height="14.023607mm"
   viewBox="0 0 44.65277 49.689946"
   id="svg4188"
   version="1.1"
   inkscape:version="0.91 r13725"
   sodipodi:docname="injener.svg">
  <defs
     id="defs4190" />
  <sodipodi:namedview
     id="base"
     pagecolor="#ffffff"
     bordercolor="#666666"
     borderopacity="1.0"
     inkscape:pageopacity="0.0"
     inkscape:pageshadow="2"
     inkscape:zoom="7.9195959"
     inkscape:cx="17.857264"
     inkscape:cy="29.671532"
     inkscape:document-units="px"
     inkscape:current-layer="layer1"
     showgrid="false"
     fit-margin-top="0"
     fit-margin-left="0"
     fit-margin-right="0"
     fit-margin-bottom="0"
     inkscape:window-width="1366"
     inkscape:window-height="705"
     inkscape:window-x="-8"
     inkscape:window-y="-8"
     inkscape:window-maximized="1" />
  <metadata
     id="metadata4193">
    <rdf:RDF>
      <cc:Work
         rdf:about="">
        <dc:format>image/svg+xml</dc:format>
        <dc:type
           rdf:resource="http://purl.org/dc/dcmitype/StillImage" />
        <dc:title></dc:title>
      </cc:Work>
    </rdf:RDF>
  </metadata>
  <g
     inkscape:label="Layer 1"
     inkscape:groupmode="layer"
     id="layer1"
     transform="translate(-302.81303,-511.88457)">
    <path
       style="fill:#ffffff"
       d="m 323.19117,561.54105 -0.44571,-0.044 0.0558,-0.43408 c 0.0307,-0.23873 0.3183,-2.70194 0.63912,-5.47376 l 0.58332,-5.03967 -0.47482,-1.27923 -0.47482,-1.27922 0.38401,-0.41519 c 1.23973,-1.34047 1.42152,-1.503 1.68102,-1.503 0.25959,0 0.43991,0.16124 1.6827,1.5047 l 0.38564,0.41687 -0.47086,1.26754 -0.47085,1.26754 0.62174,5.46181 c 0.34196,3.00398 0.59752,5.48611 0.5679,5.51586 -0.066,0.0663 -3.64563,0.0946 -4.26422,0.0337 z m -4.68253,-0.14209 c -4.39957,-0.2727 -8.24186,-0.78419 -11.27565,-1.50103 -1.36501,-0.32253 -3.45766,-1.014 -4.00555,-1.32356 l -0.41441,-0.23412 0.0136,-1.29025 c 0.0215,-2.04676 0.61154,-4.32984 1.69896,-6.57392 0.62809,-1.29619 1.15551,-2.09566 1.96629,-2.98047 1.52895,-1.66857 3.05192,-2.50888 8.80516,-4.85826 l 2.22743,-0.9096 0.30903,0.38551 c 0.63677,0.7944 1.5768,1.71922 2.20332,2.16765 0.35612,0.25491 0.6475,0.49043 0.6475,0.52336 0,0.0329 -0.4467,1.45733 -0.99266,3.16531 -0.78532,2.45684 -0.96384,3.12382 -0.8547,3.1934 0.0759,0.0483 0.71392,0.4237 1.41791,0.83404 0.70398,0.41036 1.29876,0.79545 1.32174,0.85578 0.023,0.0603 -0.28484,0.87487 -0.68404,1.81006 l -0.72581,1.70036 0.0683,2.57321 0.0683,2.57319 -0.24968,-0.0151 c -0.13734,-0.008 -0.83245,-0.0514 -1.54471,-0.0954 z m 11.53259,-2.45742 0.0665,-2.58718 -0.72392,-1.69592 c -0.39815,-0.93275 -0.70512,-1.74531 -0.68214,-1.80564 0.0231,-0.0603 0.61777,-0.44542 1.32175,-0.85578 0.70397,-0.41034 1.34275,-0.78611 1.4195,-0.83502 0.11122,-0.071 -0.0639,-0.72418 -0.86404,-3.22197 -0.55197,-1.72316 -0.9644,-3.16532 -0.91655,-3.2048 0.048,-0.0395 0.34657,-0.26654 0.66379,-0.50459 0.5765,-0.43261 1.68232,-1.53879 2.16945,-2.17016 l 0.25823,-0.33466 2.22742,0.91055 c 5.71578,2.33658 7.25242,3.17982 8.75996,4.8071 2.10287,2.26985 3.67874,6.37065 3.71162,9.65847 l 0.013,1.23861 -0.4144,0.23503 c -0.67227,0.38129 -3.0903,1.12906 -4.92453,1.52292 -2.78477,0.59798 -6.61081,1.08352 -9.89046,1.25517 -0.62679,0.0329 -1.39195,0.0855 -1.70036,0.11729 l -0.56075,0.0577 0.0665,-2.5872 z m -6.19172,-14.28289 c -2.8863,-0.6186 -5.34896,-2.97894 -6.43484,-6.16749 -0.16429,-0.48242 -0.40733,-0.89457 -0.80146,-1.35917 -1.58516,-1.86859 -2.38875,-4.224 -2.15431,-6.31456 0.0879,-0.78361 0.40314,-1.56163 0.67506,-1.66597 0.0861,-0.033 0.42615,0.0329 0.75554,0.14662 0.84116,0.29036 2.81923,0.67467 4.58756,0.89129 2.13762,0.26185 7.1527,0.26224 9.11692,7.3e-4 1.60594,-0.21385 4.23828,-0.72963 4.88093,-0.95638 0.60306,-0.21276 0.7964,-0.11806 1.09641,0.53729 0.24346,0.5318 0.25611,0.64635 0.21895,1.98403 -0.0352,1.26414 -0.0745,1.51871 -0.35935,2.32402 -0.38404,1.08568 -0.9992,2.14919 -1.76589,3.05298 -0.39413,0.46459 -0.63717,0.87674 -0.80146,1.35916 -1.10261,3.2377 -3.55371,5.56457 -6.50349,6.17385 -0.96375,0.19907 -1.55907,0.19757 -2.51057,-0.007 z m -2.54365,-16.00151 c -4.18337,-0.36541 -7.28252,-1.48172 -8.13046,-2.92862 -0.41304,-0.70481 -0.36228,-0.88646 0.44852,-1.60527 l 0.70976,-0.62925 0.0646,-0.75415 c 0.20976,-2.44756 1.66021,-5.23234 3.62253,-6.95518 1.28522,-1.12835 3.16713,-2.13119 4.63529,-2.47009 0.50801,-0.1173 0.51456,-0.1239 0.51456,-0.52009 0,-0.28796 0.0719,-0.47316 0.25429,-0.65562 0.24593,-0.24592 0.30232,-0.2543 1.71413,-0.2543 1.41183,0 1.46821,0.008 1.71412,0.2543 0.183,0.18298 0.25431,0.3675 0.25431,0.65803 l 0,0.40374 0.69932,0.17987 c 1.08849,0.27994 2.86552,1.19977 3.85777,1.99683 2.20323,1.76983 3.71274,4.44539 4.0589,7.19428 l 0.12596,1.00032 0.70624,0.53859 c 1.02795,0.78394 1.06289,1.18901 0.17771,2.06033 -1.31206,1.29156 -4.18033,2.1739 -8.10342,2.49288 -1.52557,0.12402 -5.87334,0.12014 -7.32417,-0.007 z"
       id="path4771"
       inkscape:connector-curvature="0" />
  </g>
</svg>
