<?xml version="1.0" encoding="UTF-8" standalone="no"?>
<!-- Created with Inkscape (http://www.inkscape.org/) -->

<svg
   xmlns:dc="http://purl.org/dc/elements/1.1/"
   xmlns:cc="http://creativecommons.org/ns#"
   xmlns:rdf="http://www.w3.org/1999/02/22-rdf-syntax-ns#"
   xmlns:svg="http://www.w3.org/2000/svg"
   xmlns="http://www.w3.org/2000/svg"
   xmlns:sodipodi="http://sodipodi.sourceforge.net/DTD/sodipodi-0.dtd"
   xmlns:inkscape="http://www.inkscape.org/namespaces/inkscape"
   width="14.095524mm"
   height="14.086696mm"
   viewBox="0 0 49.944769 49.913488"
   id="svg4188"
   version="1.1"
   inkscape:version="0.91 r13725"
   sodipodi:docname="phone.svg">
  <defs
     id="defs4190" />
  <sodipodi:namedview
     id="base"
     pagecolor="#ffffff"
     bordercolor="#666666"
     borderopacity="1.0"
     inkscape:pageopacity="0.0"
     inkscape:pageshadow="2"
     inkscape:zoom="5.6"
     inkscape:cx="19.773995"
     inkscape:cy="30.061353"
     inkscape:document-units="px"
     inkscape:current-layer="layer1"
     showgrid="false"
     fit-margin-top="0"
     fit-margin-left="0"
     fit-margin-right="0"
     fit-margin-bottom="0"
     inkscape:window-width="1366"
     inkscape:window-height="705"
     inkscape:window-x="-8"
     inkscape:window-y="-8"
     inkscape:window-maximized="1" />
  <metadata
     id="metadata4193">
    <rdf:RDF>
      <cc:Work
         rdf:about="">
        <dc:format>image/svg+xml</dc:format>
        <dc:type
           rdf:resource="http://purl.org/dc/dcmitype/StillImage" />
        <dc:title></dc:title>
      </cc:Work>
    </rdf:RDF>
  </metadata>
  <g
     inkscape:label="Layer 1"
     inkscape:groupmode="layer"
     id="layer1"
     transform="translate(-300.09996,-511.83216)">
    <path
       style="fill:#ffffff"
       d="m 336.74336,561.65268 c -6.8416,-0.79377 -14.71641,-5.60231 -22.83938,-13.94628 -5.53106,-5.68153 -9.66244,-11.75653 -11.96587,-17.59524 -0.90991,-2.30641 -1.60092,-4.90595 -1.77575,-6.68013 l -0.0624,-0.63387 0.58788,-0.87767 c 1.84685,-2.75735 7.17799,-8.93609 8.50174,-9.85343 0.33036,-0.22895 0.42413,-0.25309 0.62585,-0.16117 0.64394,0.29339 3.22539,4.15735 5.58299,8.35675 0.81959,1.45984 1.90059,3.60911 2.02224,4.02057 0.087,0.29445 -0.46111,0.8717 -2.38556,2.51224 -1.66936,1.42308 -2.69651,2.46446 -2.78721,2.82581 -0.0855,0.34067 0.35967,2.00925 0.89145,3.3414 3.0914,7.74403 9.47193,14.45667 15.59383,16.40552 1.21101,0.38552 2.81554,0.632 3.53162,0.54254 0.6311,-0.0789 0.66211,-0.10312 2.81064,-2.19856 1.54727,-1.50904 2.46464,-2.24065 2.80959,-2.24065 0.7126,0 7.34626,4.04471 10.38337,6.33096 1.07628,0.81021 1.77634,1.46256 1.77634,1.65535 0,0.67644 -7.80844,6.68479 -10.35267,7.96603 -0.60536,0.30487 -0.73149,0.33239 -1.46919,0.32067 -0.44383,-0.008 -1.10959,-0.0479 -1.47944,-0.0909 z m -1.57673,-25.61837 c -0.005,-1.59094 -0.0274,-1.7986 -0.26883,-2.58684 -0.98054,-3.20031 -3.27086,-5.49389 -6.46149,-6.47068 -0.8036,-0.24602 -1.00237,-0.26682 -2.6054,-0.27258 -1.68366,-0.007 -1.73411,-0.0125 -1.69101,-0.20128 0.0245,-0.10736 0.16522,-1.06177 0.31288,-2.12107 l 0.26846,-1.92601 1.27626,3.8e-4 c 2.08923,7e-4 3.91601,0.39407 5.69931,1.22739 3.28502,1.53511 5.89935,4.44838 7.03692,7.84157 0.44865,1.33826 0.59782,2.24346 0.65218,3.9575 l 0.0529,1.66581 -1.98667,0.26645 c -1.09266,0.14654 -2.05247,0.28504 -2.13294,0.3078 -0.12591,0.0356 -0.14715,-0.19939 -0.15251,-1.68844 z m 10.55309,-1.1203 c -0.24955,-5.02772 -2.36602,-9.65217 -6.04455,-13.20734 -1.94312,-1.87796 -3.88587,-3.15114 -6.31642,-4.13951 -2.1187,-0.86156 -4.93358,-1.45011 -6.93536,-1.45011 -0.6787,0 -0.75869,-0.0195 -0.75869,-0.18414 0,-0.20886 0.46497,-3.54526 0.54333,-3.89855 0.0507,-0.22888 0.0585,-0.23016 0.99729,-0.16537 6.26564,0.43252 11.58472,2.82968 15.83977,7.13857 4.19563,4.24871 6.54882,9.53113 6.95369,15.60947 0.066,0.98962 0.065,0.99543 -0.16335,1.04509 -0.29342,0.0639 -3.75887,0.54402 -3.92592,0.54402 -0.0929,0 -0.14233,-0.33612 -0.18979,-1.29213 z"
       id="path4758"
       inkscape:connector-curvature="0" />
  </g>
</svg>
