<?xml version="1.0" encoding="UTF-8" standalone="no"?>
<!-- Created with Inkscape (http://www.inkscape.org/) -->

<svg
   xmlns:dc="http://purl.org/dc/elements/1.1/"
   xmlns:cc="http://creativecommons.org/ns#"
   xmlns:rdf="http://www.w3.org/1999/02/22-rdf-syntax-ns#"
   xmlns:svg="http://www.w3.org/2000/svg"
   xmlns="http://www.w3.org/2000/svg"
   xmlns:sodipodi="http://sodipodi.sourceforge.net/DTD/sodipodi-0.dtd"
   xmlns:inkscape="http://www.inkscape.org/namespaces/inkscape"
   width="11.867331mm"
   height="12.588073mm"
   viewBox="0 0 42.049596 44.603406"
   id="svg4188"
   version="1.1"
   inkscape:version="0.91 r13725"
   sodipodi:docname="timer.svg">
  <defs
     id="defs4190" />
  <sodipodi:namedview
     id="base"
     pagecolor="#ffffff"
     bordercolor="#666666"
     borderopacity="1.0"
     inkscape:pageopacity="0.0"
     inkscape:pageshadow="2"
     inkscape:zoom="7.9195959"
     inkscape:cx="27.127056"
     inkscape:cy="28.258893"
     inkscape:document-units="px"
     inkscape:current-layer="layer1"
     showgrid="false"
     fit-margin-top="0"
     fit-margin-left="0"
     fit-margin-right="0"
     fit-margin-bottom="0"
     inkscape:window-width="1366"
     inkscape:window-height="705"
     inkscape:window-x="-8"
     inkscape:window-y="-8"
     inkscape:window-maximized="1" />
  <metadata
     id="metadata4193">
    <rdf:RDF>
      <cc:Work
         rdf:about="">
        <dc:format>image/svg+xml</dc:format>
        <dc:type
           rdf:resource="http://purl.org/dc/dcmitype/StillImage" />
        <dc:title></dc:title>
      </cc:Work>
    </rdf:RDF>
  </metadata>
  <g
     inkscape:label="Layer 1"
     inkscape:groupmode="layer"
     id="layer1"
     transform="translate(-304.46598,-515.18174)">
    <path
       style="fill:#ffffff"
       d="m 325.48933,559.74783 c -3.18918,-0.33782 -5.53251,-1.0495 -7.9818,-2.42404 -4.10205,-2.3021 -7.31319,-6.19172 -8.78931,-10.64633 -0.36065,-1.08842 -0.83027,-3.08673 -0.83258,-3.54286 -4.3e-4,-0.10558 -0.0205,-0.26412 -0.0438,-0.35231 -0.0419,-0.15624 -0.068,-0.1604 -1.01458,-0.16207 -1.09327,-0.002 -1.40482,-0.0541 -1.7604,-0.29449 -0.31567,-0.21347 -0.60088,-0.77369 -0.60088,-1.1803 0,-0.30737 0.22864,-0.87777 0.59364,-1.48104 0.0949,-0.15678 0.3473,-0.58972 0.56098,-0.96208 0.21364,-0.37237 0.74065,-1.28636 1.17107,-2.03108 0.43045,-0.74475 1.08542,-1.87996 1.45551,-2.5227 0.37013,-0.64275 0.77671,-1.27091 0.90357,-1.39593 0.37566,-0.37022 1.05783,-0.50065 1.53548,-0.29354 0.41326,0.17918 0.67699,0.49261 1.23552,1.46842 0.53858,0.94095 2.15486,3.74737 2.6473,4.59666 0.13637,0.23517 0.31202,0.53985 0.39033,0.67703 0.0784,0.13719 0.29086,0.50598 0.47233,0.81956 0.31318,0.54115 0.32994,0.59755 0.32994,1.10984 0,0.60767 -0.142,0.90293 -0.57787,1.2016 -0.33246,0.22781 -0.65914,0.28613 -1.61356,0.28805 -0.46056,8.6e-4 -0.83729,0.0258 -0.83717,0.0553 8.6e-4,0.20851 0.31557,1.59985 0.48765,2.1558 0.20392,0.65888 0.6842,1.88775 0.79379,2.03109 0.0301,0.0391 0.17757,0.31179 0.32799,0.60577 0.88154,1.72289 2.62783,3.67645 4.34107,4.85636 0.55878,0.38483 1.91273,1.20125 1.99216,1.20125 0.0221,0 0.36866,0.13991 0.77007,0.31091 1.96129,0.83555 4.32211,1.22543 6.3901,1.05526 2.5996,-0.21389 4.73802,-0.91212 6.743,-2.20172 3.23672,-2.08183 5.47728,-5.30813 6.29916,-9.07043 0.35789,-1.6383 0.38927,-4.10664 0.0711,-5.59438 -0.49483,-2.31407 -1.16695,-3.85219 -2.57608,-5.89513 -0.43295,-0.62767 -1.43311,-1.69637 -2.22938,-2.38216 -1.45725,-1.25507 -3.42168,-2.30113 -5.4532,-2.90387 -2.08512,-0.61864 -5.03225,-0.66255 -7.23215,-0.10771 -0.7808,0.19692 -1.7408,0.52886 -2.42305,0.83779 -0.54176,0.24534 -0.73881,0.3509 -1.97924,1.06019 -0.94577,0.54081 -1.64021,0.62395 -2.50599,0.30003 -0.97156,-0.3635 -1.60815,-1.56238 -1.39026,-2.61826 0.20369,-0.9871 0.69219,-1.47433 2.45472,-2.44844 1.89675,-1.04828 3.89293,-1.75271 5.91508,-2.08737 l 0.92646,-0.15334 0.0194,-1.39793 0.0193,-1.39794 -1.19519,-0.0239 c -1.12796,-0.0226 -1.20868,-0.0335 -1.4351,-0.19496 -0.39798,-0.28383 -0.50501,-0.62453 -0.50681,-1.61324 -0.002,-1.05697 0.12488,-1.38654 0.63592,-1.65254 l 0.31679,-0.16491 4.85558,0.0194 4.85557,0.0194 0.26943,0.20553 c 0.4172,0.31825 0.53556,0.65765 0.53741,1.54095 0.002,0.87285 -0.0646,1.15866 -0.33554,1.44345 -0.33598,0.35314 -0.41515,0.37151 -1.76341,0.409 -1.27333,0.0354 -1.28091,0.0366 -1.27289,0.19598 0.004,0.0882 0.0116,0.71867 0.0159,1.40107 l 0.008,1.24073 0.51669,0.0826 c 1.19614,0.19113 3.07474,0.71832 4.1156,1.15499 1.7127,0.71851 3.60791,1.85348 4.87715,2.92073 0.27183,0.22859 0.51329,0.41563 0.53656,0.41563 0.0233,0 0.30972,-0.27685 0.63656,-0.61521 l 0.59424,-0.61521 -0.5421,-0.54287 c -0.29814,-0.29857 -0.56132,-0.56442 -0.58484,-0.59077 -0.11483,-0.12868 -0.17086,-0.65601 -0.0983,-0.92537 0.0872,-0.32395 1.21611,-1.62577 1.56722,-1.80733 0.22805,-0.11793 0.75609,-0.13966 1.00852,-0.0416 0.31647,0.12303 3.99619,3.52091 4.24461,3.91949 0.23192,0.37213 0.21608,0.81985 -0.0433,1.22266 -0.2833,0.43999 -1.13296,1.3377 -1.39374,1.47254 -0.11892,0.0615 -0.38214,0.11181 -0.58496,0.11181 -0.42339,0 -0.69499,-0.14112 -1.12783,-0.586 -0.15492,-0.15926 -0.31756,-0.28956 -0.36139,-0.28956 -0.0793,0 -1.31672,1.23499 -1.31672,1.31406 0,0.0228 0.18712,0.2736 0.41582,0.55738 1.95108,2.4211 3.42532,5.84321 3.90147,9.05638 0.17949,1.21131 0.2129,3.53178 0.0694,4.82197 -0.69302,6.23189 -4.29053,11.61568 -9.84506,14.73339 -0.35633,0.20001 -0.77322,0.41824 -0.92645,0.48499 -1.19342,0.51982 -1.51494,0.6474 -2.23839,0.88825 -1.42147,0.47319 -2.39748,0.68016 -4.2047,0.89161 -0.80189,0.0938 -2.56165,0.12476 -3.20698,0.0564 z m 7.86868,-11.13624 c -0.32461,-0.0765 -0.0302,0.14679 -3.05977,-2.31945 -0.48152,-0.39197 -1.18455,-0.96537 -1.5623,-1.27423 l -0.68683,-0.56157 -0.40096,0.0805 c -1.3419,0.26949 -2.6223,-0.0989 -3.55376,-1.02251 -0.97037,-0.96219 -1.35982,-2.27713 -1.05881,-3.57505 0.15737,-0.67857 0.42062,-1.17528 0.9003,-1.69876 0.69552,-0.75903 1.38779,-1.12409 2.36707,-1.24826 1.78353,-0.22613 3.42628,0.76528 4.07377,2.45857 0.24247,0.6341 0.30857,1.65086 0.14588,2.24462 -0.13099,0.47814 -0.24979,0.28399 1.48758,2.43109 2.35361,2.90868 2.52993,3.15088 2.52993,3.47512 0,0.64118 -0.59379,1.14847 -1.1821,1.0099 z"
       id="path4797"
       inkscape:connector-curvature="0" />
  </g>
</svg>
