<?xml version="1.0" encoding="UTF-8" standalone="no"?>
<!-- Created with Inkscape (http://www.inkscape.org/) -->

<svg
   xmlns:dc="http://purl.org/dc/elements/1.1/"
   xmlns:cc="http://creativecommons.org/ns#"
   xmlns:rdf="http://www.w3.org/1999/02/22-rdf-syntax-ns#"
   xmlns:svg="http://www.w3.org/2000/svg"
   xmlns="http://www.w3.org/2000/svg"
   xmlns:sodipodi="http://sodipodi.sourceforge.net/DTD/sodipodi-0.dtd"
   xmlns:inkscape="http://www.inkscape.org/namespaces/inkscape"
   width="83.152748mm"
   height="96.680565mm"
   viewBox="0 0 294.63572 342.56893"
   id="svg2"
   version="1.1"
   inkscape:version="0.91 r13725"
   sodipodi:docname="timesave.svg">
  <defs
     id="defs4" />
  <sodipodi:namedview
     id="base"
     pagecolor="#ffffff"
     bordercolor="#666666"
     borderopacity="1.0"
     inkscape:pageopacity="0.0"
     inkscape:pageshadow="2"
     inkscape:zoom="0.7"
     inkscape:cx="80.178666"
     inkscape:cy="200.70754"
     inkscape:document-units="px"
     inkscape:current-layer="layer1"
     showgrid="false"
     fit-margin-top="0"
     fit-margin-left="0"
     fit-margin-right="0"
     fit-margin-bottom="0"
     inkscape:window-width="1366"
     inkscape:window-height="705"
     inkscape:window-x="-8"
     inkscape:window-y="-8"
     inkscape:window-maximized="1" />
  <metadata
     id="metadata7">
    <rdf:RDF>
      <cc:Work
         rdf:about="">
        <dc:format>image/svg+xml</dc:format>
        <dc:type
           rdf:resource="http://purl.org/dc/dcmitype/StillImage" />
        <dc:title></dc:title>
      </cc:Work>
    </rdf:RDF>
  </metadata>
  <g
     inkscape:label="Layer 1"
     inkscape:groupmode="layer"
     id="layer1"
     transform="translate(-223.84497,-224.07216)">
    <path
       style="fill:#ff5555"
       d="m 334.56014,548.40085 -30.21108,-18.24025 -0.18737,-13.86508 -0.18738,-13.86506 2.0758,-2.16619 2.07581,-2.1662 -2.07554,-2.5468 -2.07553,-2.54679 0.18711,-13.81787 0.1871,-13.81786 2.24102,-0.66731 c 1.23256,-0.36701 2.24101,-0.85752 2.24101,-1.09003 0,-0.23249 -0.93088,-1.32476 -2.06863,-2.42727 l -2.06862,-2.00455 0,-14.39686 0,-14.39687 5.68872,-1.22348 c 19.33102,-4.15754 50.94576,-14.61594 75.6776,-25.03473 19.69924,-8.2987 43.32585,-20.40754 58.69646,-30.08241 2.77764,-1.74837 5.36857,-3.16771 5.75763,-3.1541 0.38906,0.0136 15.75664,8.72282 34.15019,19.35381 l 33.44281,19.32905 0.18672,13.69957 0.18671,13.69956 -3.11727,1.84775 c -1.7145,1.01626 -3.11727,1.97934 -3.11727,2.14018 0,0.16085 1.24118,0.63048 2.75817,1.04364 l 2.75817,0.7512 0,13.36056 0,13.36057 -1.79375,1.8937 -1.79376,1.89371 1.79376,1.18877 1.79375,1.18876 0,14.05697 0,14.05699 -9.48121,5.67372 c -13.39699,8.017 -19.11195,11.19528 -30.49287,16.95808 -39.63636,20.07011 -70.84975,31.52869 -105.30342,38.65735 l -7.71376,1.59602 -30.21108,-18.24025 z m 45.59603,5.41861 c 6.42381,-1.81185 21.00764,-6.45847 32.4085,-10.32581 l 20.72885,-7.03153 0.19498,-8.25578 c 0.18134,-7.67826 0.10899,-8.22215 -1.03431,-7.77506 -26.35042,10.30442 -49.43144,17.52927 -60.30538,18.87686 l -3.91268,0.48489 -26.51887,-14.71988 c -14.58539,-8.09594 -26.71034,-14.71989 -26.94435,-14.71989 -0.23401,0 -0.41217,3.37384 -0.39591,7.49742 l 0.0296,7.49742 26.6902,15.78931 c 14.67961,8.68412 26.84535,15.83139 27.03497,15.88282 0.18962,0.0514 5.60062,-1.38892 12.02442,-3.20077 z m 5.76318,-34.74352 c 7.28715,-2.10712 19.22083,-5.8988 26.51928,-8.42595 7.29846,-2.52715 15.20926,-5.26096 17.57956,-6.07515 l 4.30964,-1.48032 0,-8.21684 0,-8.21684 -3.62009,1.45872 c -16.13507,6.50161 -30.69383,11.36032 -43.38019,14.4773 -15.88599,3.90312 -10.85071,5.37116 -43.68652,-12.73679 -15.73137,-8.67537 -28.75798,-15.77339 -28.94804,-15.77339 -0.19006,0 -0.33972,3.37383 -0.33259,7.49741 l 0.013,7.49742 28.77543,16.8754 c 15.82649,9.28146 28.94323,16.89222 29.14831,16.91278 0.20508,0.0206 6.33509,-1.68662 13.62224,-3.79375 z m 106.67483,-11.0359 c 3.41323,-1.92914 8.61066,-5.05269 11.54984,-6.94123 l 5.34395,-3.43368 0,-7.95334 c 0,-4.37433 -0.121,-7.95334 -0.26889,-7.95334 -0.14789,0 -4.25929,2.23793 -9.13644,4.97318 -4.87715,2.73524 -14.84071,8.09747 -22.14124,11.91606 l -13.27369,6.94289 0,8.67382 0,8.67381 10.86029,-5.69531 c 5.97316,-3.13242 13.65294,-7.27371 17.06618,-9.20286 z m -11.47687,-26.29463 c 8.20852,-4.22665 17.56208,-9.33581 20.78569,-11.3537 l 5.86111,-3.66887 0.19445,-8.19514 0.19444,-8.19512 -5.71078,3.21048 c -3.14093,1.76576 -12.75631,6.71812 -21.36751,11.00525 l -15.65673,7.79478 -0.0303,8.54357 c -0.0167,4.69896 0.15762,8.54357 0.38737,8.54357 0.22977,0 7.13381,-3.45817 15.34233,-7.68482 z m -98.88136,3.43996 c 15.98035,-4.51641 50.55573,-16.28682 51.93237,-17.67922 0.55623,-0.5626 1.22326,-15.73737 0.69176,-15.73737 -0.27749,0 -3.57392,1.23684 -7.32541,2.74852 -15.75695,6.3494 -34.59035,12.2012 -46.97565,14.596 l -7.22469,1.39695 -28.84641,-15.99636 c -15.86553,-8.798 -28.98243,-15.99636 -29.14868,-15.99636 -0.16625,0 -0.30227,3.37502 -0.30227,7.50006 l 0,7.50005 28.78841,16.90187 c 15.83362,9.29603 29.2397,16.90559 29.79129,16.91014 0.55158,0.005 4.43026,-0.96038 8.61928,-2.14428 z m 8.72627,-30.31249 c 13.57915,-3.93062 37.78435,-11.92471 38.69123,-12.77828 0.27344,-0.25737 -9.50083,-6.38296 -21.72059,-13.61243 l -22.21778,-13.14447 -4.13725,1.58388 c -2.27549,0.87114 -14.44216,5.0666 -27.03704,9.32326 -12.59489,4.25665 -22.91217,7.91095 -22.92729,8.12068 -0.045,0.62394 43.66049,24.3629 44.86833,24.37056 0.61044,0.004 7.12661,-1.73456 14.48039,-3.8632 z m 14.34584,-14.28598 c -9.31689,-1.10186 -15.66391,-5.66953 -17.05716,-12.27529 -0.39372,-1.86673 -0.50476,-4.3572 -0.24675,-5.53437 l 0.4691,-2.14032 11.03269,6.52191 c 6.06797,3.58705 13.51503,7.99769 16.54902,9.80142 l 5.51634,3.27951 -3.79249,0.46477 c -4.72171,0.57867 -6.74451,0.55958 -12.47075,-0.11763 z m 73.49527,8.21701 c 10.09625,-5.09305 15.98727,-8.47112 24.22807,-13.89305 5.16824,-3.40037 6.37598,-4.52933 6.72304,-6.28453 0.56174,-2.84081 0.54429,-13.82157 -0.022,-13.82157 -0.24476,0 -4.04586,2.09466 -8.44689,4.6548 -4.40103,2.56014 -13.81988,7.58714 -20.93079,11.17111 l -12.92892,6.51632 0,8.40404 c 0,9.92632 -1.18187,9.58842 11.37745,3.25288 z m -4.8268,-25.20588 c 14.32147,-7.99838 23.32594,-13.72752 22.64192,-14.40605 -0.3171,-0.31457 -10.60385,-6.5747 -22.85944,-13.91143 l -22.28287,-13.33948 -6.33314,4.11136 c -7.85826,5.10145 -16.50692,10.27919 -23.05455,13.80219 -2.74955,1.47942 -4.99589,2.85919 -4.99186,3.06617 0.004,0.20697 9.70071,6.42623 21.5482,13.8206 17.37372,10.84344 21.87437,13.36583 23.26475,13.03873 0.94812,-0.22306 6.37826,-3.005 12.06699,-6.18209 z m -34.44115,-9.7278 -14.44443,-8.48083 2.96101,-0.21774 c 6.88276,-0.50614 15.18774,2.82592 20.68498,8.29906 3.24861,3.23437 7.03018,9.09145 5.77402,8.94308 -0.29213,-0.0345 -7.03116,-3.87911 -14.97558,-8.54357 z M 290.90299,493.1553 c -18.96882,-0.80739 -39.38813,-3.59833 -50.97548,-6.96739 -5.89473,-1.71393 -13.72799,-5.69815 -14.96883,-7.61358 -2.28433,-3.52623 -0.51964,-7.3196 4.84549,-10.41585 0.97322,-0.56165 1.33667,-2.25892 1.86682,-8.71792 3.35224,-40.84172 19.77817,-77.49636 43.15472,-96.30017 l 4.95378,-3.98476 -5.47589,-4.63616 c -23.01047,-19.48183 -39.42298,-56.40919 -42.63989,-95.93765 -0.58827,-7.22856 -0.80914,-8.12141 -2.24283,-9.06665 -3.67582,-2.42347 -5.57591,-4.6485 -5.57591,-6.52947 0,-11.86918 51.17891,-20.86668 105.50001,-18.5474 41.04271,1.75235 69.7002,8.6227 72.74244,17.43928 0.66035,1.91373 -1.28298,5.14524 -4.17218,6.93782 -2.56216,1.58966 -2.84119,2.05144 -3.16068,5.23075 -2.57574,25.63143 -5.07487,37.39557 -11.48432,54.06 -7.57255,19.68844 -19.98336,37.58287 -33.20015,47.86936 l -3.9719,3.09128 5.32805,4.38401 c 2.93044,2.4112 7.45854,6.87073 10.06248,9.91005 4.25816,4.97015 12.96484,17.49999 13.93235,20.05015 0.27364,0.72127 -1.06837,1.61234 -4.78567,3.17756 -2.84127,1.19637 -5.30649,2.17521 -5.47825,2.17521 -0.17177,0 -2.27804,-2.74615 -4.68061,-6.10255 -7.94108,-11.09373 -17.03392,-19.24382 -27.32504,-24.49198 -4.41828,-2.25319 -5.95222,-3.89735 -6.76849,-7.25482 -0.83275,-3.42526 0.83038,-5.94968 5.47595,-8.31184 22.44988,-11.41518 39.54926,-36.91877 47.60857,-71.00777 1.87348,-7.92437 3.83416,-20.18096 3.83416,-23.9681 l 0,-2.35683 -5.68873,1.34415 c -34.3582,8.11827 -94.97117,8.10844 -129.37826,-0.021 l -5.77776,-1.36511 0.47663,5.31994 c 2.07287,23.13679 10.48193,48.53098 21.64955,65.37867 7.64832,11.5384 15.77814,19.28064 26.02727,24.78646 6.81456,3.66077 8.43173,5.11428 8.98022,8.07145 0.73044,3.93819 -0.77064,6.31397 -5.51287,8.72528 -23.74413,12.07328 -41.41058,39.81394 -48.65428,76.39915 -1.12174,5.66549 -2.24799,12.70139 -2.50277,15.63533 l -0.46324,5.33442 3.94996,-0.9287 c 2.17248,-0.51079 4.04376,-1.02821 4.15841,-1.14983 0.11464,-0.12161 1.27689,-2.90781 2.58277,-6.19155 5.27018,-13.25231 12.64669,-23.5759 27.66682,-38.72033 10.39206,-10.47806 18.60296,-17.60734 28.26571,-24.54225 l 4.0425,-2.90129 5.26632,2.89928 c 10.42069,5.73695 25.60782,16.38056 25.60782,17.94675 0,0.30276 -8.30037,2.64284 -18.44526,5.20016 -10.1449,2.55733 -20.85004,5.2985 -23.78922,6.0915 l -5.34395,1.44182 0,34.79531 c 0,19.13743 -0.23272,34.73484 -0.51716,34.66093 -0.28444,-0.0739 -2.53407,-0.22022 -4.99918,-0.32515 z m 14.47962,-156.01378 c -4.36093,-3.99178 -9.44565,-8.84061 -11.29937,-10.77516 l -3.3704,-3.51738 2.68086,-0.70326 c 1.47447,-0.38679 4.07718,-1.0635 5.7838,-1.5038 6.27855,-1.61983 19.17862,-6.51599 26.89215,-10.20677 13.8323,-6.61852 24.53146,-14.42237 34.40051,-25.09137 5.57455,-6.0264 5.60554,-6.04734 4.20278,-2.83987 -5.32546,12.17685 -15.78314,27.14932 -29.38061,42.06479 -6.36248,6.9792 -19.61043,19.26725 -21.17263,19.63855 -0.44446,0.10564 -4.37615,-3.07394 -8.73709,-7.06573 z"
       id="path4195"
       inkscape:connector-curvature="0" />
  </g>
</svg>
