<?xml version="1.0" encoding="UTF-8" standalone="no"?>
<!-- Created with Inkscape (http://www.inkscape.org/) -->

<svg
   xmlns:dc="http://purl.org/dc/elements/1.1/"
   xmlns:cc="http://creativecommons.org/ns#"
   xmlns:rdf="http://www.w3.org/1999/02/22-rdf-syntax-ns#"
   xmlns:svg="http://www.w3.org/2000/svg"
   xmlns="http://www.w3.org/2000/svg"
   xmlns:sodipodi="http://sodipodi.sourceforge.net/DTD/sodipodi-0.dtd"
   xmlns:inkscape="http://www.inkscape.org/namespaces/inkscape"
   width="176.57094mm"
   height="146.69687mm"
   viewBox="0 0 625.64506 519.79205"
   id="svg2"
   version="1.1"
   inkscape:version="0.91 r13725"
   sodipodi:docname="Ñheck.svg">
  <defs
     id="defs4" />
  <sodipodi:namedview
     id="base"
     pagecolor="#ffffff"
     bordercolor="#666666"
     borderopacity="1.0"
     inkscape:pageopacity="0.0"
     inkscape:pageshadow="2"
     inkscape:zoom="0.49497475"
     inkscape:cx="295.30532"
     inkscape:cy="289.359"
     inkscape:document-units="px"
     inkscape:current-layer="layer1"
     showgrid="false"
     fit-margin-top="0"
     fit-margin-left="0"
     fit-margin-right="0"
     fit-margin-bottom="0"
     inkscape:window-width="1366"
     inkscape:window-height="705"
     inkscape:window-x="-8"
     inkscape:window-y="-8"
     inkscape:window-maximized="1" />
  <metadata
     id="metadata7">
    <rdf:RDF>
      <cc:Work
         rdf:about="">
        <dc:format>image/svg+xml</dc:format>
        <dc:type
           rdf:resource="http://purl.org/dc/dcmitype/StillImage" />
        <dc:title></dc:title>
      </cc:Work>
    </rdf:RDF>
  </metadata>
  <g
     inkscape:label="Layer 1"
     inkscape:groupmode="layer"
     id="layer1"
     transform="translate(-55.009026,-137.7942)">
    <path
       style="fill:#fd3e52;fill-opacity:1"
       d="m 55.019222,655.83628 c 1.90137,-6.65597 3.90858,-14.81911 18.62592,-75.75 1.59418,-6.6 4.69821,-19.425 6.89787,-28.5 2.19965,-9.075 5.84517,-24.15 8.10117,-33.5 2.256,-9.35 5.85807,-24.2 8.0046,-33 2.14654,-8.8 5.702008,-23.425 7.901038,-32.5 2.19904,-9.075 6.29505,-25.95 9.10226,-37.5 2.8072,-11.55 6.45759,-26.625 8.11196,-33.5 1.65438,-6.875 4.53668,-18.8 6.40511,-26.5 1.86843,-7.7 5.94,-24.575 9.04792,-37.5 3.10793,-12.925 6.67043,-27.55 7.91666,-32.5 l 2.26589,-9 148.85908,-0.25329 148.85907,-0.2533 -3.92081,3.2533 c -2.15644,1.78931 -9.34697,7.64079 -15.97895,13.00329 l -12.05814,9.75 -121.77433,0 -121.77433,0 -0.95732,2.25 c -0.52653,1.2375 -2.97141,10.575 -5.43308,20.75 -2.46166,10.175 -6.76756,27.95 -9.56865,39.5 -2.80109,11.55 -6.39422,26.4 -7.98474,33 -4.18109,17.3499 -10.22137,42.25994 -15.39771,63.5 -5.95456,24.43337 -13.97788,57.47203 -17.72778,73 -1.66027,6.875 -4.54466,18.8 -6.40976,26.5 -1.8651,7.7 -5.65482,23.45 -8.421588,35 -2.76677,11.55 -5.71134,23.58071 -6.54349,26.7349 -0.83215,3.1542 -1.513,6.4167 -1.513,7.25 0,1.34972 29.424678,1.5151 269.567388,1.5151 256.25603,0 269.54252,-0.0864 269.06376,-1.75 -1.00238,-3.48305 -2.61799,-9.95303 -5.05659,-20.25 -2.7667,-11.68233 -7.95314,-33.14706 -15.46409,-64 -2.74482,-11.275 -6.78823,-27.925 -8.98535,-37 -2.19712,-9.075 -6.34007,-26.175 -9.20655,-38 -2.86648,-11.825 -6.4527,-26.675 -7.96937,-33 -3.83599,-15.99727 -13.62218,-56.40851 -21.4205,-88.45411 -3.60761,-14.82476 -6.43991,-27.25351 -6.294,-27.61944 0.22135,-0.55512 15.49252,-13.49233 20.86502,-17.67613 1.75582,-1.36733 2.07356,-0.31609 10.80561,35.74968 2.19718,9.075 6.23683,25.725 8.97698,37 2.74016,11.275 6.61364,27.25 8.60775,35.5 1.99411,8.25 5.42042,22.425 7.61404,31.5 4.78041,19.7766 12.72896,52.57703 20.84045,86 8.13935,33.53777 13.27774,54.75535 17.55774,72.5 1.9899,8.25 5.84093,24.09251 8.55786,35.20558 2.71692,11.11307 4.93985,20.45057 4.93985,20.75 0,0.29943 -136.83032,0.54442 -304.06739,0.54442 -289.111758,0 -304.042798,-0.0861 -303.567478,-1.75 z m 99.071008,-88.04879 c 0.31697,-0.99869 2.18103,-9.44001 4.14236,-18.7585 1.96132,-9.31849 4.90185,-23.24271 6.53449,-30.94271 1.63265,-7.7 3.86279,-18.39152 4.95588,-23.75893 1.09308,-5.36741 2.41513,-10.8839 2.93789,-12.25885 l 0.95047,-2.49992 52.77138,0.25885 c 34.48116,0.16913 52.71403,0.60544 52.60588,1.25885 -1.40023,8.46008 -13.51196,80.22493 -14.09227,83.5 l -0.79735,4.5 -55.29252,0.2585 c -53.03188,0.24793 -55.26896,0.18426 -54.71621,-1.55729 z m 91.9943,-20.45121 c 0.35792,-1.21688 5.79043,-32.99792 7.09382,-41.5 l 0.65154,-4.25 -31.94325,0 -31.94324,0 -1.71118,8.25 c -0.94115,4.5375 -3.03124,14.45872 -4.64465,22.04715 -1.61342,7.58843 -2.93348,14.45093 -2.93348,15.25 0,1.24069 4.75051,1.45285 32.53138,1.45285 25.16236,0 32.61467,-0.28315 32.89906,-1.25 z m 87.56956,-109.32577 c 0,-1.28003 4.07339,-11.29016 14.00812,-34.42423 1.06287,-2.475 3.98383,-9.45 6.49102,-15.5 2.5072,-6.05 4.98372,-11.9 5.50338,-13 0.51967,-1.1 1.79586,-4.22972 2.83599,-6.95494 1.04013,-2.72522 2.32011,-5.09793 2.84441,-5.2727 0.5243,-0.17477 7.27866,7.22996 15.0097,16.45494 7.73103,9.22499 18.40286,21.91023 23.71518,28.18942 5.31231,6.2792 9.30628,11.73332 8.87548,12.12026 -0.43081,0.38695 -10.45828,3.02247 -22.28328,5.85671 -30.15332,7.22723 -54.27674,13.12067 -55.75,13.61993 -0.6875,0.23299 -1.25,-0.25724 -1.25,-1.08939 z m -152,-0.8397 c 0,-0.78841 0.87212,-5.40496 1.93804,-10.259 2.13623,-9.72808 5.83982,-27.24595 11.64395,-55.07553 l 3.80621,-18.25 50.52812,0 c 58.74839,0 55.29102,-1.26734 32.34488,11.85634 l -14.2388,8.14366 -25.2612,0.0153 c -13.89366,0.008 -25.7423,0.34592 -26.33032,0.75 -0.58802,0.40408 -1.83507,4.55969 -2.77123,9.23469 -0.93616,4.675 -2.81755,13.657 -4.18088,19.96001 -1.36332,6.30302 -2.47877,12.27202 -2.47877,13.26446 0,1.70582 1.67799,1.78999 30.69947,1.53999 l 30.69947,-0.26445 1.12912,-6.24526 c 0.62102,-3.43489 1.31875,-6.41927 1.55053,-6.63196 1.49732,-1.37403 21.27916,-12.59836 21.61375,-12.26377 0.36224,0.36223 -0.68174,6.94496 -6.04894,38.14099 l -1.20433,7 -51.71953,0.259 c -44.35986,0.22214 -51.71954,0.055 -51.71954,-1.17447 z m 56.74353,-33.33453 c -4.1518,-4.2625 -9.60174,-9.98205 -12.11097,-12.71011 -5.31603,-5.77962 -5.17132,-6.19574 3.82787,-11.00773 l 5.55034,-2.96784 6.86415,6.81155 6.86414,6.81156 8.38047,-4.71705 c 4.60926,-2.59437 11.98047,-6.83709 16.38047,-9.42826 4.4,-2.59118 12.30264,-7.24224 17.56142,-10.33569 5.25878,-3.09346 10.29179,-5.90474 11.18447,-6.24729 1.06509,-0.40871 3.88184,1.18726 8.1936,4.64248 l 6.57055,5.26531 -6.25502,3.66055 c -3.44026,2.01331 -15.25502,8.97348 -26.25502,15.46705 -19.67591,11.61518 -38.53915,22.50547 -38.98207,22.50547 -0.12412,0 -3.6226,-3.4875 -7.7744,-7.75 z m 176.41842,-8.5 c -32.80914,-38.6903 -38.16195,-45.12228 -38.16195,-45.85563 0,-0.91035 9.37365,-9.02055 46,-39.79975 14.575,-12.2482 28.99568,-24.42583 32.04595,-27.06139 3.05028,-2.63556 10.47528,-8.92285 16.5,-13.97175 10.96639,-9.19017 30.22624,-25.44476 63.46425,-53.56148 9.75269,-8.25 23.87396,-20.175 31.38061,-26.5 7.50664,-6.325 15.28388,-12.92306 17.28274,-14.66235 2.84314,-2.47393 3.98176,-2.93285 5.23038,-2.10814 0.87784,0.57981 6.99607,7.5686 13.59607,15.53064 6.6,7.96204 16.86247,20.16071 22.8055,27.10815 5.94302,6.94743 11.69406,13.84518 12.78009,15.32833 l 1.9746,2.69664 -15.7801,13.42977 c -62.16249,52.90386 -194.80668,164.67696 -195.42665,164.67696 -0.41778,0 -6.57895,-6.8625 -13.69149,-15.25 z M 641.98513,213.82405 c -3.94293,-4.80578 -13.5253,-16.16277 -21.29415,-25.23777 -7.76885,-9.075 -16.00115,-18.9158 -18.29401,-21.86843 l -4.16883,-5.36843 2.50731,-2.13157 c 1.37903,-1.17237 4.6959,-3.93157 7.37083,-6.13157 2.67493,-2.2 5.57997,-4.69978 6.45566,-5.55505 7.39051,-7.21828 14.88061,-10.51993 21.73435,-9.58052 6.23259,0.85427 9.42659,2.7866 14.60671,8.83684 2.49518,2.9143 9.28228,10.83704 15.08245,17.60608 11.40241,13.30711 14.66864,18.76675 14.66864,24.51927 0,7.15481 -3.29173,11.75834 -16.49849,23.07332 -6.80476,5.83003 -12.96387,10.59455 -13.6869,10.58783 -0.72304,-0.007 -4.54064,-3.94423 -8.48357,-8.75 z"
       id="path4147"
       inkscape:connector-curvature="0" />
  </g>
</svg>
