<?xml version="1.0" encoding="UTF-8" standalone="no"?>
<!-- Created with Inkscape (http://www.inkscape.org/) -->

<svg
   xmlns:dc="http://purl.org/dc/elements/1.1/"
   xmlns:cc="http://creativecommons.org/ns#"
   xmlns:rdf="http://www.w3.org/1999/02/22-rdf-syntax-ns#"
   xmlns:svg="http://www.w3.org/2000/svg"
   xmlns="http://www.w3.org/2000/svg"
   xmlns:sodipodi="http://sodipodi.sourceforge.net/DTD/sodipodi-0.dtd"
   xmlns:inkscape="http://www.inkscape.org/namespaces/inkscape"
   id="svg2"
   version="1.1"
   inkscape:version="0.91 r13725"
   width="400"
   height="208.95439"
   viewBox="0 0 400.00001 208.95439"
   sodipodi:docname="3m.svg">
  <metadata
     id="metadata8">
    <rdf:RDF>
      <cc:Work
         rdf:about="">
        <dc:format>image/svg+xml</dc:format>
        <dc:type
           rdf:resource="http://purl.org/dc/dcmitype/StillImage" />
        <dc:title></dc:title>
      </cc:Work>
    </rdf:RDF>
  </metadata>
  <defs
     id="defs6" />
  <sodipodi:namedview
     pagecolor="#ffffff"
     bordercolor="#666666"
     borderopacity="1"
     objecttolerance="10"
     gridtolerance="10"
     guidetolerance="10"
     inkscape:pageopacity="0"
     inkscape:pageshadow="2"
     inkscape:window-width="1366"
     inkscape:window-height="705"
     id="namedview4"
     showgrid="false"
     fit-margin-top="0"
     fit-margin-left="0"
     fit-margin-right="0"
     fit-margin-bottom="0"
     inkscape:zoom="0.95"
     inkscape:cx="219.47368"
     inkscape:cy="204.24536"
     inkscape:window-x="-8"
     inkscape:window-y="-8"
     inkscape:window-maximized="1"
     inkscape:current-layer="svg2" />
  <path
     style="fill:#000000"
     d="M 56.391707,206.41225 C 39.840898,201.64278 30.294327,196.07924 20.581998,185.54244 8.7190515,172.67261 2.5448761,158.4946 1.1306321,140.87463 L 0,126.79285 l 27.91097,0 27.910545,0 1.464692,9.15914 c 2.142987,13.40136 6.840176,21.0047 15.521074,25.12411 16.560559,7.8586 35.000839,1.68976 39.076969,-13.0726 4.83709,-17.51954 -5.39371,-27.90435 -27.491276,-27.90435 l -12.382689,0 0,-18.67205 0,-18.672047 17.141773,-1.100066 c 15.149282,-0.972208 17.742492,-1.798753 22.312072,-7.111536 7.07504,-8.224999 6.56208,-15.870903 -1.61264,-24.045753 -6.37724,-6.37728 -7.60029,-6.72465 -20.412853,-5.79789 -11.896861,0.8605 -14.437498,1.89083 -19.991034,8.10617 -3.499151,3.91618 -6.361978,9.11259 -6.361978,11.547582 0,4.179438 -1.561349,4.42727 -27.890621,4.42727 -15.339629,0 -27.8901965,-0.793096 -27.8901965,-1.762463 0,-6.645421 7.6295415,-28.753449 12.4221155,-35.995729 C 35.178047,7.6745976 73.919684,-4.7407824 111.27294,1.6852176 c 28.6927,4.93611 48.23521,17.6206904 56.80885,36.8735704 l 4.0189,9.02534 0.15685,-21.75451 0.15686,-21.7545204 42.30735,0 42.30734,0 2.20234,8.3671504 c 1.21118,4.60188 7.3951,29.95428 13.74182,56.338582 6.34629,26.384341 12.32758,49.43452 13.2916,51.22272 2.04633,3.79616 2.26381,3.05568 16.66188,-56.800801 5.60865,-23.316371 11.2084,-46.158621 12.44374,-50.760501 l 2.246,-8.3671504 41.19198,0 41.19155,0 0,100.4054324 0,100.40543 -26.77483,0 -26.77482,0 -0.26284,-32.91064 c -0.14414,-18.10088 -0.89789,-46.46542 -1.67327,-63.03229 l -1.41,-30.121661 -15.52998,63.032291 -15.5304,63.0323 -24.76284,0 -24.76325,0 -15.48716,-63.0323 -15.48759,-63.032291 -0.59266,63.032291 -0.59266,63.0323 -28.97122,0 -28.97123,0 -0.0975,-19.52327 -0.0975,-19.52326 -4.29997,8.13847 c -5.92193,11.2089 -19.97662,22.68005 -35.17931,28.71246 -15.79706,6.26833 -60.028217,8.42454 -76.347558,3.72189 z M 174.4904,94.013893 c 0.15262,-19.715307 -2.41388,-28.611478 -5.1296,-17.792257 -1.44773,5.768852 -9.3931,15.101506 -16.03318,18.832846 -4.05239,2.277204 -3.72087,2.96898 5.01259,10.456758 5.1436,4.41006 10.06123,10.24945 10.92818,12.97649 1.53124,4.81627 1.62663,4.83048 3.32067,0.49584 0.95936,-2.45437 1.81486,-13.69074 1.90134,-24.969677 z"
     id="path3333"
     inkscape:connector-curvature="0" />
</svg>
