<?xml version="1.0" encoding="UTF-8" standalone="no"?>
<!-- Created with Inkscape (http://www.inkscape.org/) -->

<svg
   xmlns:dc="http://purl.org/dc/elements/1.1/"
   xmlns:cc="http://creativecommons.org/ns#"
   xmlns:rdf="http://www.w3.org/1999/02/22-rdf-syntax-ns#"
   xmlns:svg="http://www.w3.org/2000/svg"
   xmlns="http://www.w3.org/2000/svg"
   xmlns:sodipodi="http://sodipodi.sourceforge.net/DTD/sodipodi-0.dtd"
   xmlns:inkscape="http://www.inkscape.org/namespaces/inkscape"
   id="svg2"
   version="1.1"
   inkscape:version="0.91 r13725"
   width="824.27875"
   height="265.89343"
   viewBox="0 0 824.27875 265.89343"
   sodipodi:docname="avery.svg"
   inkscape:export-filename="C:\Users\Gleb\Desktop\avery.png"
   inkscape:export-xdpi="90"
   inkscape:export-ydpi="90">
  <metadata
     id="metadata8">
    <rdf:RDF>
      <cc:Work
         rdf:about="">
        <dc:format>image/svg+xml</dc:format>
        <dc:type
           rdf:resource="http://purl.org/dc/dcmitype/StillImage" />
        <dc:title></dc:title>
      </cc:Work>
    </rdf:RDF>
  </metadata>
  <defs
     id="defs6" />
  <sodipodi:namedview
     pagecolor="#ffffff"
     bordercolor="#666666"
     borderopacity="1"
     objecttolerance="10"
     gridtolerance="10"
     guidetolerance="10"
     inkscape:pageopacity="0"
     inkscape:pageshadow="2"
     inkscape:window-width="1366"
     inkscape:window-height="705"
     id="namedview4"
     showgrid="false"
     fit-margin-top="0"
     fit-margin-left="0"
     fit-margin-right="0"
     fit-margin-bottom="0"
     inkscape:zoom="0.76"
     inkscape:cx="758.95187"
     inkscape:cy="205.79871"
     inkscape:window-x="-8"
     inkscape:window-y="-8"
     inkscape:window-maximized="1"
     inkscape:current-layer="svg2" />
  <path
     style="fill:#000000"
     d="m 640.52876,265.29751 c -1.7187,-0.30343 -4.9531,-0.84733 -7.1875,-1.2087 -4.0608,-0.65675 -4.0625,-0.66005 -4.0625,-8.18461 0,-6.5955 0.2709,-7.44319 2.1875,-6.84588 4.906,1.52889 19.6695,3.05286 23.0414,2.37848 3.9596,-0.79192 6.4278,-4.12753 5.2757,-7.12973 -0.6777,-1.76606 -6.511,-4.37701 -18.2546,-8.1706 -2.5437,-0.82172 -6.3406,-3.44801 -8.4375,-5.83621 -7.0911,-8.07635 -4.5438,-20.66819 5.1853,-25.63159 6.1798,-3.15267 16.3707,-4.27697 27.7357,-3.05989 l 8.2665,0.88528 0,6.56717 c 0,3.61194 -0.2584,6.82562 -0.5743,7.1415 -0.3159,0.31588 -4.8132,0.0369 -9.9941,-0.61998 -10.6413,-1.34919 -15.6816,-0.0204 -15.6816,4.13412 0,1.86551 1.6087,3.027 6.5295,4.7143 17.718,6.07544 23.8872,11.4425 23.8872,20.78135 0,12.14011 -9.5926,19.69628 -25.7711,20.30003 -4.9613,0.18513 -10.4268,0.0884 -12.1456,-0.21504 z m 62.4618,-1.17236 c -15.2719,-4.70783 -23.6746,-20.8206 -20.0251,-38.39992 2.2017,-10.60575 7.2198,-17.46606 15.8764,-21.70505 6.5779,-3.2211 8.504,-3.56721 19.1869,-3.4478 13.6847,0.15298 20.6083,2.55149 27.1242,9.39652 5.8101,6.1036 8.0428,12.46976 8.0843,23.0509 0.064,16.24305 -7.2363,27.12067 -20.9758,31.25565 -7.3701,2.21807 -21.8289,2.14382 -29.2709,-0.1503 z m 25.8771,-16.23028 c 10.5857,-6.93602 9.8744,-25.76069 -1.1716,-31.00232 -9.6444,-4.57659 -22.2105,-1.3893 -26.2278,6.65252 -5.3469,10.70336 -0.8202,23.01523 9.6464,26.23629 4.8829,1.50267 14.0706,0.52636 17.753,-1.88649 z M 42.774851,263.47748 C 17.227421,260.68159 0.08910106,242.65751 0.00128106,218.49319 c -0.0309,-8.5049 0.46467,-10.46096 5.06704004,-20 C 9.8217011,188.64118 81.376871,61.422274 98.482921,32.410114 106.68863,18.493074 114.93245,8.9610941 121.8648,5.3745841 c 14.71844,-7.614692 34.27823,-7.09006 47.29327,1.2685 8.97694,5.7651999 13.60083,11.7540299 26.94355,34.8971499 63.40801,109.981926 88.92962,154.638006 90.81924,158.909826 4.08794,9.24148 5.214,17.22902 3.55925,25.24707 -3.83155,18.5657 -15.28351,30.63409 -34.3263,36.17396 -6.81924,1.98383 -16.4067,2.20359 -105.625,2.42103 -53.968749,0.13152 -102.458039,-0.23506 -107.753959,-0.81464 z M 206.77881,242.29507 c 0,-0.6875 -0.49264,-1.25 -1.09475,-1.25 -0.60211,0 -2.99274,-2.798 -5.3125,-6.21776 l -4.21775,-6.21778 -77.07639,-0.0322 -77.076369,-0.0323 -3.23613,-3.84591 c -4.24077,-5.03986 -4.11382,-9.21869 0.41774,-13.75024 l 3.65384,-3.65381 70.096159,0 c 38.55287,0 70.09615,-0.33398 70.09615,-0.74216 0,-0.40819 -1.82813,-3.8108 -4.0625,-7.56136 l -4.0625,-6.81919 -66.875,0.37385 c -66.073399,0.36937 -66.936349,0.40668 -71.993349,3.11272 -6.79098,3.63389 -12.68666,10.53429 -13.72376,16.0625 -2.85671,15.22759 5.6801,28.06109 20.29855,30.51507 9.09582,1.52691 164.168559,1.58223 164.168559,0.0586 z m 48.64256,-2.44519 c 6.04379,-3.08331 10.8878,-8.78739 12.55243,-14.78112 2.71008,-9.75807 1.75013,-12.6242 -12.44215,-37.14869 -5.96783,-10.31246 -24.26667,-42.04192 -40.66409,-70.50991 -26.43409,-45.892866 -29.94261,-51.418756 -30.95251,-48.749996 -0.62647,1.65548 -1.92589,4.85717 -2.88763,7.11487 -0.96174,2.2577 -1.74861,4.99406 -1.74861,6.0808 0,1.08675 16.32756,30.288906 36.28347,64.893696 19.95592,34.60479 37.02508,64.68155 37.93149,66.83725 2.15213,5.11841 1.2353,9.4227 -2.65964,12.48646 -4.86548,3.8272 -9.96405,3.20355 -14.53272,-1.77762 -2.14369,-2.33723 -18.78216,-30.20651 -36.97441,-61.93175 -32.84245,-57.27358 -33.09224,-57.66194 -35.25381,-54.81301 -1.19737,1.5781 -3.0851,4.87331 -4.195,7.32271 l -2.01798,4.45345 29.52274,51.0438 c 16.23751,28.07411 30.34846,52.64059 31.35767,54.59219 2.5968,5.02163 9.25253,12.34604 13.66315,15.03584 5.16723,3.15118 16.69504,3.07661 23.0176,-0.14892 z M 56.765401,171.16307 c 4.26726,-0.83097 5.15943,-2.24726 41.25,-65.48271 20.288619,-35.548366 38.141529,-65.871306 39.673129,-67.384336 4.11565,-4.06574 11.06195,-3.74182 14.87727,0.69375 5.81171,6.75653 8.58821,1.07041 -50.90129,104.242796 -8.820219,15.29687 -15.637149,27.88033 -15.148739,27.96324 1.19705,0.2032 15.849399,-0.32286 16.034549,-0.57569 1.51669,-2.07097 64.17563,-112.487026 65.22982,-114.946356 2.32586,-5.42609 1.83707,-15.31498 -1.03528,-20.94524 -7.31725,-14.343 -27.70984,-17.85814 -39.14927,-6.7483 -2.33862,2.27123 -7.02752,9.09309 -10.41979,15.15968 -11.45209,20.48044 -70.658299,124.756226 -72.485329,127.663396 -1.99391,3.17271 -2.32016,3.16298 12.07493,0.35977 z m 105.693409,-1.05551 c -1.55141,-4.05229 -16.29656,-28.96905 -17.17099,-29.016 -0.98116,-0.0527 -17.25901,28.29924 -17.25901,30.06084 0,0.63621 7.81554,1.14266 17.63374,1.14266 16.27973,0 17.56942,-0.16796 16.79626,-2.1875 z m 159.0075,93.96615 c -0.51563,-0.51991 -0.9375,-14.35155 -0.9375,-30.73698 l 0,-29.79166 23.1748,0 c 20.59425,0 23.71255,0.27434 28.00409,2.46372 10.74227,5.4803 15.85235,16.3123 14.77815,31.32573 -0.83153,11.62168 -5.29661,19.13169 -14.05646,23.6421 -5.83409,3.00395 -7.50235,3.21864 -28.11385,3.61793 -12.05145,0.23344 -22.3336,-9.3e-4 -22.84923,-0.52084 z m 40.80362,-15.69509 c 4.72274,-2.15181 7.00888,-7.16738 7.00888,-15.37675 0,-5.87569 -0.54904,-7.53209 -3.64594,-10.99957 -3.56815,-3.99513 -3.90152,-4.09147 -15.625,-4.51539 l -11.97906,-0.43317 0,17.18133 0,17.18133 10.39739,-0.73375 c 5.71855,-0.40357 11.94823,-1.44038 13.84373,-2.30403 z m 31.59222,15.58311 c -0.45834,-0.45832 -0.83334,-14.23957 -0.83334,-30.625 l 0,-29.79166 27.5,0 27.5,0 0,6.25 0,6.25 -18.6187,0 -18.61871,0 -0.48302,5.06494 c -0.26566,2.78572 -0.231,5.31697 0.077,5.625 0.30803,0.30803 8.3413,0.56006 17.85173,0.56006 l 17.2917,0 0,5.625 0,5.625 -17.5,0 -17.5,0 -0.15625,3.75 c -0.086,2.0625 -0.22656,4.73437 -0.3125,5.9375 -0.14148,1.98066 1.6462,2.22012 18.90625,2.53256 l 19.0625,0.34505 0,6.84245 0,6.84244 -26.66666,0 c -14.66668,0 -27.04168,-0.375 -27.5,-0.83334 z m 61.66666,-29.79166 0,-30.625 11.07267,0 11.07268,0 12.3648,20.3125 12.3648,20.3125 0.3435,-20.3125 0.3435,-20.3125 8.094,0 8.094,0 0,30.67366 0,30.67368 -10.9375,-0.36118 -10.9375,-0.36116 -12.5,-20.625 -12.49995,-20.625 -0.34272,20.9375 -0.34273,20.9375 -8.09477,0 -8.09478,0 z m 74.58335,29.79166 c -0.4584,-0.45832 -0.8334,-14.23957 -0.8334,-30.625 l 0,-29.79166 11.15,0 11.15,0 12.2875,20.22685 12.2875,20.22685 0.3435,-20.22685 0.3435,-20.22685 8.094,0 8.094,0 0,30.67366 0,30.67368 -10.8387,-0.36118 -10.8387,-0.36116 -11.729,-19.375 c -6.451,-10.65625 -12.2611,-19.90938 -12.9113,-20.5625 -0.7432,-0.74651 -1.1823,6.56466 -1.1823,19.6875 l 0,20.875 -7.2916,0 c -4.0104,0 -7.6667,-0.375 -8.125,-0.83334 z m 73.75,0 c -0.4584,-0.45832 -0.8334,-14.23957 -0.8334,-30.625 l 0,-29.79166 8.75,0 8.75,0 0,30.625 0,30.625 -7.9166,0 c -4.3542,0 -8.2917,-0.375 -8.75,-0.83334 z m 157.5,0 c -0.4584,-0.45832 -0.8334,-14.23957 -0.8334,-30.625 l 0,-29.79166 11.15,0 11.15,0 12.2875,20.22685 12.2875,20.22685 0.3435,-20.22685 0.3435,-20.22685 8.094,0 8.094,0 0,30.67366 0,30.67368 -10.8387,-0.36118 -10.8387,-0.36116 -11.729,-19.375 c -6.451,-10.65625 -12.2611,-19.90938 -12.9113,-20.5625 -0.7432,-0.74651 -1.1823,6.56466 -1.1823,19.6875 l 0,20.875 -7.2916,0 c -4.0104,0 -7.6667,-0.375 -8.125,-0.83334 z m -442.08335,-81.3335 c 0,-0.50426 5.6808,-14.28552 12.62401,-30.625 l 12.62401,-29.70816 10.93603,0 10.93604,0 11.98637,28.4375 c 6.59251,15.64061 12.36319,29.42187 12.8237,30.625 0.75154,1.96343 -0.12387,2.1875 -8.54589,2.1875 l -9.38319,0 -2.22987,-6.20106 c -2.62658,-7.30429 -4.19666,-7.91805 -18.72408,-7.31951 l -9.6009,0.39556 -2.90433,6.5625 -2.90432,6.56251 -8.81879,0 c -4.85034,0 -8.81879,-0.41258 -8.81879,-0.91684 z m 43.75,-24.91957 c 0,-1.65383 -6.83029,-19.16329 -7.47026,-19.15004 -0.63878,0.0132 -7.52974,17.56039 -7.52974,19.17374 0,0.44698 3.375,0.81271 7.5,0.81271 4.125,0 7.5,-0.37639 7.5,-0.83641 z m 27.81182,-3.86944 c -7.04725,-16.31802 -12.81287,-30.09103 -12.8125,-30.60665 3.7e-4,-0.51563 4.16659,-0.9375 9.25826,-0.9375 l 9.25757,0 7.92993,19.98851 c 4.36146,10.99369 8.25688,19.99369 8.6565,20 0.39961,0.006 4.29141,-8.98851 8.64842,-19.98851 l 7.92185,-20 9.16407,0 c 5.04024,0 9.16408,0.45055 9.16408,1.00124 0,1.13751 -23.86981,56.28694 -25.40064,58.68626 -0.64811,1.01581 -4.14189,1.55607 -9.98564,1.54415 l -8.98872,-0.0183 -12.81318,-29.66915 z m 59.68818,-0.91915 0,-30.625 27.56533,0 27.56532,0 -0.3778,6.35165 -0.3779,6.35166 -18.75,0.21084 -18.74995,0.21085 -0.38268,5.27775 -0.38267,5.27775 17.8827,0.34725 17.8826,0.34725 0,5.625 0,5.625 -17.8125,0.34682 -17.81245,0.34682 0,5.59068 0,5.59067 19.37495,0 19.375,0 0,6.875 0,6.87501 -27.49995,0 -27.5,0 z m 62.49995,1.25 c 0,-16.15625 -0.1406,-29.79688 -0.3125,-30.3125 -0.1718,-0.51563 10.0938,-1.08384 22.8125,-1.2627 20.0101,-0.2814 23.7143,-0.0289 27.5,1.875 11.9428,6.00606 11.5526,26.11142 -0.625,32.2002 -2.75,1.375 -5.2106,2.61694 -5.4682,2.75987 -0.2575,0.14293 3.3484,4.92418 8.0131,10.62499 4.6647,5.70082 9.0224,11.06826 9.6838,11.92764 0.9401,1.22159 -1.1012,1.5625 -9.3556,1.5625 l -10.5581,0 -11.4918,-16.56251 -11.4917,-16.56249 9.2111,-0.625 c 10.7358,-0.72845 13.6243,-2.49237 13.0838,-7.99003 -0.5117,-5.20501 -4.4211,-6.89586 -15.2921,-6.61402 l -8.8343,0.22905 -0.3394,24.0625 -0.3395,24.0625 -8.098,0 -8.0981,0 z m 83.3334,28.54166 c -0.4584,-0.45832 -0.8334,-5.59918 -0.8334,-11.42411 l 0,-10.59078 -12.254,-17.63838 c -6.7397,-9.70112 -12.6791,-18.34152 -13.1987,-19.20089 -0.7246,-1.19828 1.3751,-1.5625 9.0076,-1.5625 l 9.9525,0 7.6815,12.5 c 4.2248,6.875 7.885,12.5 8.1336,12.5 0.2487,0 3.9286,-5.625 8.1775,-12.5 l 7.7255,-12.5 9.8873,0 c 5.438,0 9.8872,0.25965 9.8872,0.577 0,0.31735 -6.1875,9.28879 -13.75,19.93652 l -13.75,19.35952 0,10.68847 0,10.68849 -7.9166,0 c -4.3542,0 -8.2917,-0.375 -8.75,-0.83334 z"
     id="path3338"
     inkscape:connector-curvature="0"
     sodipodi:nodetypes="ssscscsssscssssssssssssscsssssssssssssssssssssscccsscssscsssssscssssssssssssscsssccsssssscssssssscssssscsssssssssscccsscscccccccscsccccccsscccscccccccccccccccccccccccscccccccccccccscscsccscccccsccscccccccccccccscscscsscccssscsscccssscssscsscscscssssccccccccccccccccccccccccccccscscscscscccssscccccscscscscssccssscccsc" />
</svg>
