<?xml version="1.0" encoding="UTF-8" standalone="no"?>
<!-- Created with Inkscape (http://www.inkscape.org/) -->

<svg
   xmlns:dc="http://purl.org/dc/elements/1.1/"
   xmlns:cc="http://creativecommons.org/ns#"
   xmlns:rdf="http://www.w3.org/1999/02/22-rdf-syntax-ns#"
   xmlns:svg="http://www.w3.org/2000/svg"
   xmlns="http://www.w3.org/2000/svg"
   xmlns:sodipodi="http://sodipodi.sourceforge.net/DTD/sodipodi-0.dtd"
   xmlns:inkscape="http://www.inkscape.org/namespaces/inkscape"
   id="svg2"
   version="1.1"
   inkscape:version="0.91 r13725"
   width="1280.4895"
   height="549.00873"
   viewBox="0 0 1280.4895 549.00873"
   sodipodi:docname="hexis.svg">
  <metadata
     id="metadata8">
    <rdf:RDF>
      <cc:Work
         rdf:about="">
        <dc:format>image/svg+xml</dc:format>
        <dc:type
           rdf:resource="http://purl.org/dc/dcmitype/StillImage" />
        <dc:title></dc:title>
      </cc:Work>
    </rdf:RDF>
  </metadata>
  <defs
     id="defs6" />
  <sodipodi:namedview
     pagecolor="#ffffff"
     bordercolor="#666666"
     borderopacity="1"
     objecttolerance="10"
     gridtolerance="10"
     guidetolerance="10"
     inkscape:pageopacity="0"
     inkscape:pageshadow="2"
     inkscape:window-width="1366"
     inkscape:window-height="705"
     id="namedview4"
     showgrid="false"
     fit-margin-top="0"
     fit-margin-left="0"
     fit-margin-right="0"
     fit-margin-bottom="0"
     inkscape:zoom="0.35730507"
     inkscape:cx="761.38633"
     inkscape:cy="302.19944"
     inkscape:window-x="-8"
     inkscape:window-y="-8"
     inkscape:window-maximized="1"
     inkscape:current-layer="svg2" />
  <path
     style="fill:#000000"
     d="m 26.825842,547.08987 c -3.115,-0.9962 -7.22293,-2.77498 -9.12874,-3.95284 -4.32656,-2.67396 -10.9800903,-9.82123 -13.2785903,-14.26396 -4.56827997,-8.82995 -4.40461997,0.61844 -4.41717997,-255.00902 -0.0117,-239.066314 0.01,-241.712484 1.99273997,-248.000004 C 5.5405617,14.620356 13.082622,6.7579562 24.489462,2.4131662 29.362512,0.55705619 36.568622,0.50870619 308.30544,0.50870619 l 278.81598,0 12.11007,19.99999981 c 6.66054,11 18.73676,30.94082 26.83604,44.31292 l 14.72597,24.31292 26.73094,-44.56292 26.73093,-44.56291981 277.18558,0 c 306.13025,0 282.24775,-0.50694 292.83475,6.21579001 5.6281,3.57384 11.8836,11.8749198 14.4147,19.1285098 1.7131,4.9095 1.799,16.85515 1.799,250.155704 l 0,245 -2.7985,6 c -3.673,7.87502 -11.3748,15.60984 -19.0969,19.1787 l -6.1046,2.8213 -251,0.24255 -250.99994,0.24256 -54.92147,-90.90756 -54.92148,-90.90756 -11.61484,19.16501 c -6.38817,10.54075 -31.12208,51.4525 -54.96425,90.915 l -43.34941,71.75 -249.11427,-0.0538 C 43.976042,548.90361 32.228322,548.81762 26.825842,547.08985 Z M 579.87423,428.90148 c 33.21163,-55.01278 60.74994,-99.65637 61.19626,-99.208 0.44632,0.44838 27.80192,45.36523 60.79022,99.81523 l 59.97873,99 241.21046,0.25204 c 159.3308,0.16649 242.4781,-0.0892 244.9445,-0.75339 5.1304,-1.38146 8.9014,-4.58216 11.0987,-9.42005 1.7116,-3.7687 1.854,-7.40276 1.8743,-47.8286 l 0.022,-43.75 -219.75,-0.0316 -219.74994,-0.0316 -59,-97.52904 c -32.45,-53.64098 -59.3904,-98.53018 -59.86755,-99.75378 -0.73295,-1.87958 7.08845,-15.40679 50.4127,-87.18941 28.20413,-46.730474 56.36577,-93.402074 62.58142,-103.714574 l 11.30119,-18.75 -60.71388,0.0285 -60.71388,0.0285 -32,53.42823 c -17.6,29.385524 -32.27121,53.447684 -32.60269,53.471464 -0.33147,0.0238 -15.12687,-24.03169 -32.87867,-53.456694 l -32.27598,-53.5 -60.37133,0 c -33.20423,0 -60.37133,0.22012 -60.37133,0.48915 0,0.26904 5.11719,8.93154 11.37153,19.25 6.25434,10.31847 34.38972,56.92475 62.52305,103.569514 l 51.15153,84.80866 -60.12169,99.44134 -60.12168,99.44134 -219.90137,0 -219.901368,0 0.022,43.75 c 0.0202,40.30819 0.16647,44.06468 1.85877,47.75 1.01025,2.2 2.77058,4.83029 3.91185,5.84508 5.36695,4.77219 -5.93645,4.56701 251.707418,4.56902 l 242,0.002 60.38477,-100.02321 z m -468.88477,-96.89277 0,-71 21.5,0 21.5,0 0,71 0,71 45.5,0 45.5,0 0,-191.5 0,-191.500004 -45.5,0 -45.5,0 0,70.5 0,70.500004 -21.5,0 -21.5,0 0,-70.543544 0,-70.54354 -39.250002,0.29354 -39.249996,0.29354 -4.24991,2.43409 c -2.80535,1.60674 -4.92974,3.83844 -6.25,6.56573 -1.97798,4.08597 -2.00009,6.17269 -2.00009,188.815904 l 0,184.68428 45.5,0 45.499998,0 0,-71 z m 332,19 0,-52 -42,0 -42,0 0,-19 0,-19 37,0 37,0 0,-50 0,-50 -37,0 -37,0 0,-18 0,-18 40,0 40,0 0,-52.500004 0,-52.5 -85.5,0 -85.5,0 0,191.500004 0,191.5 87.5,0 87.5,0 0,-52 z m 502.99995,-139.5 0,-191.500004 -52,0 -51.99995,0 0,191.500004 0,191.5 51.99995,0 52,0 0,-191.5 z m 314.99999,98.5651 c 0,-63.39974 -0.339,-93.82955 -1.0666,-95.75 -1.4209,-3.75024 -4.6624,-7.11893 -8.9334,-9.28391 -1.925,-0.9758 -40.5813,-14.52707 -85.9028,-30.11395 -92.0074,-31.64295 -89.0972,-30.36418 -89.0972,-39.15046 0,-5.6024 2.6945,-9.31003 7.7955,-10.72676 2.4073,-0.66859 34.0977,-1.03082 90.5015,-1.03444 l 86.7969,-0.006 -0.2969,-45.750004 c -0.266,-40.96887 -0.4761,-46.07719 -2.0111,-48.88088 -2.5857,-4.72296 -7.2795,-8.17438 -12.0407,-8.85374 -2.3348,-0.33315 -61.8806,-0.4729 -132.3239,-0.31056 l -128.07865,0.29518 -4.8665,3.00892 c -3.306,2.04408 -5.6029,4.44905 -7.1628,7.5 l -2.2962,4.49108 -0.051,85.573504 c -0.032,53.31799 0.3168,86.54048 0.9245,88.13891 1.4491,3.81147 6.6343,9.31945 11.4008,12.11051 6.5139,3.81423 70.92865,26.48989 139.70845,49.18099 20.3571,6.71598 23.8144,8.29838 27.3742,12.52897 3.4072,4.0492 3.6099,10.44638 0.4579,14.45344 -4.4757,5.68989 -1.462,5.51368 -94.3,5.51368 l -85.53205,4.2e-4 0,50 0,50 144.49995,0 144.5,0 0,-92.9349 z"
     id="path3338"
     inkscape:connector-curvature="0" />
</svg>
