<?xml version="1.0" encoding="UTF-8" standalone="no"?>
<!-- Created with Inkscape (http://www.inkscape.org/) -->

<svg
   xmlns:dc="http://purl.org/dc/elements/1.1/"
   xmlns:cc="http://creativecommons.org/ns#"
   xmlns:rdf="http://www.w3.org/1999/02/22-rdf-syntax-ns#"
   xmlns:svg="http://www.w3.org/2000/svg"
   xmlns="http://www.w3.org/2000/svg"
   xmlns:sodipodi="http://sodipodi.sourceforge.net/DTD/sodipodi-0.dtd"
   xmlns:inkscape="http://www.inkscape.org/namespaces/inkscape"
   id="svg2"
   version="1.1"
   inkscape:version="0.91 r13725"
   width="1005.2177"
   height="400.90344"
   viewBox="0 0 1005.2176 400.90344"
   sodipodi:docname="kpmf.svg">
  <metadata
     id="metadata8">
    <rdf:RDF>
      <cc:Work
         rdf:about="">
        <dc:format>image/svg+xml</dc:format>
        <dc:type
           rdf:resource="http://purl.org/dc/dcmitype/StillImage" />
        <dc:title></dc:title>
      </cc:Work>
    </rdf:RDF>
  </metadata>
  <defs
     id="defs6" />
  <sodipodi:namedview
     pagecolor="#ffffff"
     bordercolor="#666666"
     borderopacity="1"
     objecttolerance="10"
     gridtolerance="10"
     guidetolerance="10"
     inkscape:pageopacity="0"
     inkscape:pageshadow="2"
     inkscape:window-width="1366"
     inkscape:window-height="705"
     id="namedview4"
     showgrid="false"
     fit-margin-top="0"
     fit-margin-left="0"
     fit-margin-right="0"
     fit-margin-bottom="0"
     inkscape:zoom="0.37735849"
     inkscape:cx="495.06671"
     inkscape:cy="147.40752"
     inkscape:window-x="-8"
     inkscape:window-y="-8"
     inkscape:window-maximized="1"
     inkscape:current-layer="svg2" />
  <path
     style="fill:#000000"
     d="m 60.738712,400.32808 c -11.0288,-2.40347 -26.9308,-8.82616 -25.9164,-10.46745 0.2861,-0.46298 -0.1079,-0.60076 -0.8755,-0.30618 -0.7677,0.29459 -2.8637,-0.83556 -4.6577,-2.51145 -1.7941,-1.67589 -3.6295,-3.04707 -4.0789,-3.04707 -1.5171,0 -10.1477,-10.90589 -9.4824,-11.98236 0.3627,-0.58695 0.064,-0.94354 -0.6648,-0.79242 -0.7324,0.15198 -1.2631,-0.50253 -1.1872,-1.46446 0.075,-0.95658 -0.1972,-1.53266 -0.6057,-1.28017 -0.895,0.55314 -6.1068001,-10.00457 -8.4049001,-17.0259 -0.9082,-2.77492 -2.4332,-9.29992 -3.3889,-14.5 -1.61129997,-8.76752 -1.70029997,-19.0849 -1.22349997,-141.95469 l 0.5141,-132.499998 2.29339997,-7 c 1.2614,-3.85 2.5099,-8.05973 2.7745,-9.35496 0.5933,-2.90455 6.0501001,-13.85195 8.4045001,-16.86113 0.9536,-1.21885 2.0908,-1.89385 2.5269,-1.5 0.4362,0.39385 0.4574,0.13406 0.047,-0.5773 -0.9459,-1.63972 8.1274,-11.14292 14.6432,-15.33697 6.7699,-4.3576003 17.1321,-8.4985703 25.789,-10.3058603 6.7321,-1.40545996 52.056898,-1.56389996 446.151068,-1.559629958521 l 438.6576,0.0049999985 9.8152,2.55020996 c 13.0623,3.39386 29.3445,12.0543403 27.6914,14.7290403 -0.3512,0.56835 -0.1413,0.71825 0.4737,0.33818 1.1745,-0.7259 7.878,6.0179 7.4544,7.49928 -0.1375,0.48092 0.2305,0.76189 0.8179,0.62439 3.3462,-0.78339 13.28952,22.79104 15.89432,37.68366 0.6825,3.90241 1.0304,50.972288 1.0162,137.499998 -0.021,125.38866 -0.1106,131.96845 -1.9158,140.13011 -2.3818,10.76899 -7.67132,24.61787 -9.87332,25.85016 -0.9208,0.5153 -1.6776,1.75797 -1.6817,2.76149 0,1.00352 -0.5539,1.71748 -1.2216,1.58658 -0.6677,-0.13091 -0.9779,0.37742 -0.6892,1.1296 0.2886,0.75218 -0.6883,2.32179 -2.1709,3.488 -1.4826,1.16622 -2.2974,2.12637 -1.8108,2.13368 1.3724,0.0206 -9.9522,9.95844 -11.3651,9.97344 -0.6875,0.007 -1.25,0.35155 -1.25,0.765 0,1.06037 -10.8201,6.46031 -13.5,6.73736 -0.55,0.0569 -1.9774,0.6421 -3.1719,1.30054 -7.915,4.36275 11.6667,4.18692 -454.3281,4.0796 -241.725,-0.0557 -440.399968,-0.29736 -441.499968,-0.53707 z m 884.969968,-8.92122 c 8.9225,-1.8452 15.9351,-4.77016 23.2009,-9.67707 3.9104,-2.64087 5.4697,-3.21688 6.3967,-2.36299 0.9192,0.84672 1.0544,0.82478 0.5406,-0.0877 -0.3928,-0.69748 1.2224,-3.55888 3.7843,-6.70422 6.2875,-7.71939 9.2214,-13.05885 12.4738,-22.70148 5.381,-15.95339 5.3204,-14.06571 4.9557,-154.37746 l -0.338,-129.999998 -2.6065,-9 c -1.4336,-4.95 -3.8813,-11.7 -5.4395,-15 -1.5581,-3.3 -2.7949,-6.55766 -2.7484,-7.23924 0.047,-0.68158 -0.2654,-1.02294 -0.6931,-0.75858 -0.4278,0.26435 -1.5809,-0.74519 -2.5626,-2.24345 -0.9817,-1.49825 -3.3934,-4.25157 -5.3594,-6.11849 -1.966,-1.86692 -3.4245,-3.89972 -3.2412,-4.51732 0.1834,-0.61761 0.02,-0.81002 -0.362,-0.42758 -0.3824,0.38243 -3.0647,-0.64188 -5.9607,-2.27625 -6.9828,-3.94089 -17.0576,-7.9498903 -22.0106,-8.7585703 -4.5964,-0.75046 -877.088268,-0.90223 -885.643368,-0.15406 -3.1039,0.27144 -5.4953,0.74132 -5.3142,1.0441703 0.1811,0.30285 -1.7794,1.15717 -4.3566,1.89848 -2.5772,0.74132 -6.5241,2.40528 -8.7708,3.69769 -2.2468,1.29242 -4.4564,2.0131 -4.9104,1.60152 -0.4539,-0.41158 -0.5216,-0.21823 -0.1504,0.42967 0.3899,0.68065 -0.141,1.43695 -1.2575,1.79132 -3.3975,1.07829 -14.4838,13.84389 -17.9024,20.61406 -1.8181,3.60058 -4.5163,10.79229 -5.9958,15.98157 l -2.6902001,9.43505 -0.3112,130.499998 c -0.3284,137.68697 -0.3246,137.82098 4.2992001,152.38956 2.8827,9.08261 4.5196,12.36539 10.0893,20.23369 2.384,3.36779 4.015,6.44279 3.6245,6.83334 -0.3906,0.39054 -0.035,0.56008 0.7899,0.37674 0.825,-0.18333 1.3875,0.22917 1.25,0.91667 -0.1375,0.6875 0.1411,1.1375 0.6191,1 1.172,-0.33711 13.1309,7.40463 13.1309,8.50046 0,0.47717 0.4368,0.59763 0.9706,0.26769 0.5339,-0.32994 2.3287,0.10238 3.9885,0.9607 1.6598,0.85832 6.5105,2.41912 10.7793,3.46846 7.5742,1.86182 18.2903,1.90963 443.904568,1.98029 394.8381,0.0655 436.8708,-0.0781 443.827,-1.51667 z M 62.238712,379.30291 c -9.0669,-1.55002 -19.3274,-7.58962 -26.8039,-15.7775 -5.8945,-6.45533 -9.112,-12.17303 -11.8579,-21.07219 -1.7459,-5.6582 -1.8382,-12.76024 -1.8382,-141.45729 0,-148.450038 -0.3743,-139.066328 6.0646,-152.035918 5.9411,-11.96663 16.4068,-21.36456 28.4644,-25.56033 5.3467,-1.86052 15.4857,-1.90375 446.470968,-1.90375 429.561,0 441.1427,0.0489 446.5,1.88669 16.3838,5.6202 28.2022,18.29951 33.6613,36.11331 1.7462,5.69824 1.8387,12.7896 1.8387,140.999998 0,125.67751 -0.1207,135.38984 -1.7475,140.64531 -5.5978,18.08372 -16.5472,30.45731 -32.2525,36.4476 -4.8897,1.86502 -14.718,1.90968 -445.5,2.02427 -242.275,0.0644 -441.624968,-0.0751 -442.999968,-0.3102 z M 948.23868,369.08732 c 9.5471,-3.84232 17.6518,-11.58461 22.5933,-21.58299 2.869,-5.80498 3.6874,-8.90731 4.4983,-17.05218 0.616,-6.1875 0.8775,-58.21862 0.6908,-137.45622 -0.3,-127.342688 -0.303,-127.506888 -2.4315,-133.087168 -3.2564,-8.53722 -4.8559,-11.21004 -10.2227,-17.0822 -5.7981,-6.34401 -13.3797,-10.48579 -21.6836,-11.84558 -8.138,-1.33265 -868.755268,-1.33198 -876.893468,6.8e-4 -17.1785,2.81304 -30.7405,17.56476 -33.5694,36.51427 -0.6983,4.67736 -0.9427,50.466528 -0.7367,137.999998 0.2848,121.0027 0.44,131.37513 2.0336,135.91553 5,14.24528 15.4196,24.64651 28.1337,28.08414 7.7158,2.08619 882.389268,1.68385 887.587668,-0.40828 z m -217.2866,-9.17933 c -1.4975,-4.44836 -2.4691,-8.49836 -2.1591,-9 0.3101,-0.50163 0.1956,-0.91206 -0.2544,-0.91206 -1.0244,0 -3.8232,-12.35886 -5.7748,-25.5 -2.6813,-18.05511 -4.6273,-60.48698 -2.7751,-60.50886 0.4125,-0.005 0.8308,-6.40868 0.9296,-14.23068 0.231,-18.29648 1.7968,-33.74194 7.4267,-73.26046 1.6455,-11.55 3.4172,-22.575 3.9372,-24.5 0.5199,-1.925 0.9479,-4.7375 0.9509,-6.25 0,-1.5125 0.3431,-2.75323 0.7556,-2.75717 0.4125,-0.004 0.865,-2.34645 1.0056,-5.20556 0.1405,-2.85912 0.6679,-5.61072 1.1718,-6.11469 0.504,-0.50396 0.6888,-1.50909 0.4108,-2.23363 -0.3258,-0.84908 -2.1468,0.5272 -5.123,3.87186 -2.5396,2.85405 -5.0104,5.06554 -5.4907,4.91441 -0.4802,-0.15112 -0.61,0.15104 -0.2883,0.67148 0.3216,0.52044 -1.4273,3.88524 -3.8866,7.47733 -5.2847,7.71916 -12.133,18.95032 -16.2352,26.62597 -4.3514,8.14165 -5.7224,10.43263 -6.6498,11.1118 -0.4595,0.3365 -0.7506,0.7865 -0.647,1 0.5214,1.07406 -3.4852,7.71724 -4.3369,7.19086 -0.5443,-0.33642 -0.6868,-0.12151 -0.3165,0.47759 0.7424,1.20131 -3.2846,10.21975 -4.5635,10.21975 -0.4404,0 -0.8007,0.65119 -0.8007,1.44709 0,0.79589 -1.1832,3.60839 -2.6293,6.25 -4.9181,8.98395 -9.3795,18.16661 -19.3382,39.80291 -1.772,3.85 -4.0557,8.8 -5.0748,11 -6.4633,13.95279 -16.8359,40.53835 -19.5081,50 -0.9319,3.3 -1.8121,6.13519 -1.9558,6.30042 -0.1437,0.16524 -6.5011,-2.24287 -14.1276,-5.35134 -7.6264,-3.10847 -16.3412,-6.57253 -19.3662,-7.6979 -3.025,-1.12538 -5.7753,-2.46821 -6.1118,-2.98407 -0.3365,-0.51586 -1.0115,-0.8646 -1.5,-0.77497 -1.9467,0.35717 -8.2823,-2.35442 -7.7006,-3.29577 0.3418,-0.55296 0.1536,-0.71625 -0.4182,-0.36285 -1.2431,0.76825 -7.2694,-1.1786 -7.2694,-2.34844 0,-0.4506 0.8256,-2.76908 1.8348,-5.15217 7.2762,-17.18346 19.0279,-92.03996 21.7167,-138.33291 0.3514,-6.05 1.0014,-12.43215 1.4445,-14.18256 1.2282,-4.85234 -0.01,-4.79878 -3.5254,0.15315 -1.7522,2.46448 -3.547,4.1543 -3.9885,3.75514 -0.4415,-0.39915 -0.5312,-0.24766 -0.1994,0.33665 0.7601,1.33832 -2.6752,6.71176 -3.6608,5.72616 -0.4002,-0.40017 -0.4529,-0.0118 -0.1172,0.863 0.3357,0.87482 -0.091,2.29146 -0.9472,3.14809 -0.8566,0.85663 -1.5677,1.92716 -1.5801,2.37894 -0.052,1.89597 -6.6646,11.30734 -7.4455,10.59697 -0.4689,-0.42654 -0.5528,-0.25176 -0.1864,0.38843 0.3664,0.64018 -1.6989,5.04403 -4.5897,9.78635 -6.6877,10.97148 -6.5371,10.71245 -11.1929,19.24642 -2.1594,3.95821 -4.364,6.92618 -4.8991,6.59549 -0.535,-0.33069 -0.6713,-0.11338 -0.3028,0.48291 0.3686,0.59628 -0.7314,3.46107 -2.4443,6.36619 -1.7129,2.90511 -4.7086,8.22427 -6.657,11.82035 -1.9485,3.59608 -4.154,7.24875 -4.9012,8.11706 -0.7472,0.86831 -1.3585,1.87203 -1.3585,2.2305 0,1.03137 -10.6597,19.67895 -11.1023,19.42183 -0.2187,-0.12709 -0.2978,-0.0562 -0.1757,0.15757 0.4951,0.86685 -8.1743,15.94984 -8.9073,15.49683 -0.4355,-0.26914 -0.5238,0.20903 -0.1963,1.06259 0.3276,0.85357 0.097,1.55194 -0.5114,1.55194 -0.6089,0 -1.107,0.81 -1.107,1.8 0,0.99 -0.3944,2.2275 -0.8765,2.75 -0.4821,0.5225 -2.1045,3.2 -3.6053,5.95 -7.2361,13.25856 -9.7441,17.50127 -10.3543,17.51567 -1.8962,0.0447 -24.0379,-10.4105 -23.5881,-11.13828 0.2904,-0.46996 -0.079,-0.6215 -0.8211,-0.33674 -0.7421,0.28476 -4.478,-0.93204 -8.302,-2.70401 -6.9524,-3.22162 -7.6028,-3.47768 -9.4277,-3.71164 -0.5362,-0.0688 1.2073,-4.5125 3.8744,-9.875 2.6672,-5.3625 5.1633,-10.76903 5.547,-12.01452 0.3837,-1.24549 1.0188,-2.06603 1.4113,-1.82342 0.3926,0.24261 0.7506,-0.31336 0.7956,-1.23548 0.066,-1.35266 4.4504,-13.16907 12.8662,-34.67658 0.4304,-1.1 0.9064,-2.675 1.0577,-3.5 0.7088,-3.86555 4.9678,-16.5373 5.6583,-16.83541 0.4273,-0.18448 0.573,-0.66537 0.3238,-1.06865 -0.2492,-0.40327 0.4265,-4.07734 1.5016,-8.16459 8.3371,-31.6939 11.7418,-71.5349 6.2919,-73.62621 -2.305,-0.8845 -6.161,0.58754 -9.7165,3.70931 -1.8702,1.64205 -3.8606,2.98555 -4.4231,2.98555 -0.9451,0 -15.2132,-24.323058 -15.2132,-25.934148 0,-2.52607 12.7528,-9.66053 18.9404,-10.59606 1.4078,-0.21284 4.221,-0.68526 6.2516,-1.04981 2.9355,-0.52703 5.0354,-0.0341 10.25,2.40606 3.6069,1.68788 6.558,3.59762 6.558,4.24387 0,0.82475 -0.5216,0.76589 -1.75,-0.19746 -1.5726,-1.23334 -1.6159,-1.2011 -0.4269,0.31811 0.7277,0.92981 1.8748,1.47886 2.5491,1.22012 1.3545,-0.51978 5.9764,6.90735 4.9421,7.94166 -0.3562,0.35621 -0.096,0.64766 0.5781,0.64766 0.6741,0 0.9475,0.449998 0.6076,0.999998 -0.3399,0.55 -0.2356,1 0.2319,1 1.2052,0 4.2251,11.95182 3.8532,15.25 -0.1705,1.5125 0.1424,2.75 0.6954,2.75 1.3919,0 0.1969,41.50518 -1.7276,60 -2.1363,20.53078 -2.1511,20.33615 1.1792,15.48213 1.5027,-2.19017 2.7402,-4.33604 2.75,-4.7686 0.01,-0.43257 0.4679,-1.10757 1.0179,-1.5 0.55,-0.39244 1.1328,-1.33698 1.2952,-2.09898 0.1623,-0.76199 1.7275,-3.46199 3.4782,-6 1.7507,-2.538 3.9086,-5.96455 4.7953,-7.61455 3.8419,-7.14879 9.1246,-14.98128 9.9565,-14.762 0.4965,0.13091 0.6459,-0.43159 0.3318,-1.25 -0.3213,-0.83735 -0.014,-1.488 0.7027,-1.488 0.7005,0 1.0109,-0.26277 0.6897,-0.58393 -0.3212,-0.32116 3.843,-7.18366 9.2536,-15.25 14.5375,-21.67293 17.9532,-26.47938 20.1939,-28.41607 1.1136,-0.9625 1.715,-1.75 1.3366,-1.75 -0.3785,0 1.4426,-2.49406 4.0468,-5.54235 3.2849,-3.84501 5.0542,-5.223128 5.7774,-4.499998 0.5732,0.573288 1.4883,1.042348 2.0334,1.042348 0.5452,0 0.1614,-0.60673 -0.8527,-1.348298 -2.0782,-1.51956 -1.1834,-4.1132 1.1147,-3.23133 0.8737,0.33529 1.1865,0.12914 0.7864,-0.5183 -0.7523,-1.21722 10.1559,-11.96538 15.7299,-15.4991 l 3.6694,-2.32627 6.3306,2.0948 c 6.5483,2.16686 11.7295,5.40931 15.5237,9.71504 1.2061,1.36879 1.9671,2.85428 1.6909,3.30109 -0.2761,0.4468 -0.035,0.81237 0.5367,0.81237 0.5712,0 1.8771,1.6875 2.9018,3.75 3.8758,7.801038 4.6801,13.177788 4.5998,30.749998 -0.065,14.22455 -0.5832,19.93871 -3.1745,35 -3.5627,20.70783 -5.7386,37.3425 -4.9834,38.09769 0.2865,0.28654 1.9859,-2.09323 3.7764,-5.28836 1.7905,-3.19513 5.315,-8.95933 7.8323,-12.80933 2.5173,-3.85 5.4163,-8.53681 6.4423,-10.41514 1.026,-1.87833 3.543,-5.70333 5.5933,-8.5 2.0504,-2.79667 3.9888,-5.78978 4.3078,-6.65135 0.7684,-2.07581 12.6266,-19.15521 14.1868,-20.43351 0.6714,-0.55 1.5271,-1.81602 1.9016,-2.81338 0.3745,-0.99736 1.129,-1.53649 1.6766,-1.19806 0.5476,0.33842 0.7747,0.0294 0.5048,-0.68662 -0.5691,-1.50956 14.2745,-20.43794 15.7053,-20.02716 0.5264,0.15112 0.7037,-0.13509 0.3941,-0.63604 -0.7472,-1.20914 11.3538,-14.294178 12.5408,-13.560548 0.5077,0.31376 0.7994,-0.0255 0.6483,-0.75386 -0.1512,-0.72838 0.3212,-1.20068 1.0495,-1.04955 0.7284,0.15112 1.0731,-0.13178 0.766,-0.62867 -0.7871,-1.2736 8.5243,-8.31611 10.1636,-7.68705 0.7425,0.28492 1.0745,0.0724 0.7379,-0.47239 -0.8318,-1.34587 3.7962,-2.98667 8.4241,-2.98667 7.8959,0 19.3,5.34548 26.5916,12.46432 l 5.1861,5.063288 1.3016,9.98619 c 2.0375,15.63146 1.4519,40.78573 -1.5127,64.9862 -6.9567,56.78754 -8.4864,74.07989 -8.4775,95.82955 0.01,15.36353 2.3666,42.49816 5.0808,58.41017 1.1482,6.73184 1.9177,12.74985 1.7098,13.37335 -0.2078,0.62351 -2.0101,2.09063 -4.0051,3.26029 -1.9951,1.16965 -10.1968,6.06414 -18.2262,10.87664 -8.0293,4.8125 -14.9429,8.75 -15.3634,8.75 -0.4206,0 -1.99,-3.63957 -3.4875,-8.08794 z M 94.738712,313.13537 c -1.65,-1.0192 -3.9,-2.86468 -5,-4.10107 -1.9705,-2.21486 -2.0044,-3.87896 -2.2967,-112.89318 -0.2086,-77.80386 0.027,-111.762828 0.7948,-114.410628 0.7768,-2.68022 2.2823,-4.55355 5.2236,-6.5 l 4.1322,-2.73456 99.073068,0 c 94.3349,0 99.2165,0.0877 102.073,1.8344 1.65,1.00893 3.9,3.03393 5,4.5 1.9724,2.62881 2,4.2208 2,115.335038 l 0,112.66943 -2.5,2.70944 c -5.2427,5.68189 -0.7184,5.452 -107.2179,5.44795 -93.93517,-0.004 -98.414768,-0.0857 -101.282068,-1.85682 z m 32.499968,-120.63944 0,-94.499998 -5.5,0 -5.49997,0 0,94.499998 0,94.5 5.49997,0 5.5,0 0,-94.5 z m 18,0 0,-94.499998 -5.5,0 -5.5,0 0,94.499998 0,94.5 5.5,0 5.5,0 0,-94.5 z m 18,0 0,-94.499998 -5.5,0 -5.5,0 0,94.499998 0,94.5 5.5,0 5.5,0 0,-94.5 z m 18,0 0,-94.499998 -5.5,0 -5.5,0 0,94.499998 0,94.5 5.5,0 5.5,0 0,-94.5 z m 32.0321,47.14563 -24.0427,-47.35438 23.5053,-46.0273 c 12.9279,-25.31501 23.5053,-46.552998 23.5053,-47.195528 0,-0.78934 -1.8473,-1.07096 -5.6958,-0.86832 l -5.6958,0.2999 -19.7426,38.499998 -19.7426,38.5 -0.062,17.40225 -0.062,17.40225 18.6283,36.59775 c 10.2456,20.12876 19.0365,37.38525 19.5352,38.34775 0.7225,1.39426 2.2286,1.75 7.409,1.75 l 6.5022,0 -24.0426,-47.35437 z m 41.9679,46.83057 c 0,-0.28809 -10.705,-21.60542 -23.7888,-47.37183 l -23.7889,-46.84802 23.7515,-46.37818 c 13.0632,-25.50799 23.7682,-46.715668 23.7888,-47.128168 0.021,-0.4125 -2.6313,-0.75 -5.893,-0.75 l -5.9304,0 -6.1925,12.249998 c -3.4059,6.7375 -14.2652,28.09707 -24.1317,47.46571 l -17.9393,35.21571 23.66,47.03429 23.6599,47.03429 6.4022,0 c 3.5212,0 6.4022,-0.23571 6.4022,-0.5238 z m 13.2,-10.7262 c -3.2814,-6.1875 -14.1313,-27.56134 -24.1109,-47.49743 l -18.1446,-36.24743 23.5277,-46.01416 c 12.9403,-25.30779 23.5278,-46.481398 23.5278,-47.052468 0,-0.63214 -2.2493,-0.921 -5.75,-0.73841 l -5.75,0.2999 -24.0774,47.229898 -24.0773,47.22989 21.148,41.77011 c 11.6314,22.97355 22.3613,44.1326 23.8442,47.0201 l 2.6962,5.25 6.5663,0 6.5663,0 -5.9663,-11.25 z m 23.8,10.89849 c 0,-0.19333 -10.6292,-21.23083 -23.6204,-46.75 -12.9913,-25.51917 -23.6393,-46.84849 -23.6623,-47.39849 -0.023,-0.55 10.6209,-21.8728 23.6531,-47.38401 13.0322,-25.5112 23.4761,-46.602868 23.2085,-46.870378 -0.2675,-0.26751 -3.0947,-0.0947 -6.2826,0.384 l -5.7963,0.87039 -11.2707,21.999998 c -6.1988,12.1 -16.896,33.12005 -23.7714,46.71121 l -12.5009,24.71122 23.5236,47.03878 23.5236,47.03879 6.4979,0 c 3.5738,0 6.4979,-0.15818 6.4979,-0.35151 z m 483,-0.50345 c 0,-2.81597 0.097,-2.8631 7.0995,-3.45016 7.7777,-0.65205 11.4794,-2.45708 12.9451,-6.31228 1.3492,-3.54865 1.2793,-162.15494 -0.073,-166.03463 -1.3528,-3.88067 -5.9893,-6.50402 -12.8074,-7.2464 -4.9672,-0.54085 -5.5988,-0.87913 -6.2579,-3.351568 l -0.7331,-2.75 68.9135,0 68.9135,0 0.071,2.75 c 0.039,1.512498 0.836,9.415748 1.7706,17.562768 0.9345,8.14702 1.5024,15.00952 1.2619,15.25 -0.2404,0.24048 -1.2546,0.43723 -2.2537,0.43723 -1.18,0 -2.7219,-1.78677 -4.4005,-5.09942 -6.6295,-13.08269 -17.3103,-17.37146 -46.1997,-18.55112 l -16.25,-0.66354 0,36.65704 0,36.65704 10.75,-0.0309 c 27.8522,-0.08 36.3449,-4.14919 42.1988,-20.21912 0.7319,-2.00934 1.6817,-2.75 3.5265,-2.75 l 2.5247,0 0,30 0,30 -2.5313,0 c -1.5412,0 -2.7399,-0.68457 -3.0644,-1.75 -1.3847,-4.54705 -5.2526,-10.74369 -8.6129,-13.79856 -6.1128,-5.55709 -16.6445,-7.40659 -38.0414,-6.6805 l -6.75,0.22908 0,39.32569 0,39.32568 2.25,2.04935 c 3.6357,3.31143 6.3697,4.33902 13.2555,4.98203 6.3348,0.59154 6.4945,0.67669 6.4945,3.46185 l 0,2.8554 -47,0 -47,0 0,-2.85496 z m -442,-0.64504 c 0,-1.94781 0.5121,-2.5 2.3185,-2.5 4.6817,0 12.5793,-3.05463 14.6266,-5.65728 2.0356,-2.58792 2.0548,-3.38319 2.0396,-84.72758 -0.01,-45.16333 -0.3459,-82.58065 -0.75,-83.14961 -1.955,-2.75275 -6.8803,-5.45777 -11.7955,-6.47814 -4.8155,-0.99971 -5.4392,-1.41284 -5.4392,-3.603038 l 0,-2.47386 58.75,0.34894 c 52.8981,0.31418 59.3476,0.52711 64.75,2.13773 19.2547,5.740438 31.5556,17.098548 36.6375,33.829528 1.7719,5.83351 2.0305,8.61833 1.5903,17.12003 -0.6579,12.70225 -2.4236,18.39884 -8.668,27.96429 -14.1401,21.66042 -42.5822,30.84477 -80.8098,26.09455 l -4.25,-0.52811 0,34.92642 c 0,33.92627 0.06,35.00258 2.0924,37.58645 2.5188,3.20219 7.296,5.32701 13.9658,6.21178 4.3487,0.57688 4.9418,0.94015 4.9418,3.02673 l 0,2.37117 -45,0 -45,0 0,-2.5 z m 83.1717,-94.63025 c 14.8547,-3.18575 23.6442,-11.22685 27.4426,-25.10576 1.7754,-6.48721 2.0318,-24.67998 0.4336,-30.76399 -1.6697,-6.35619 -6.6054,-13.24235 -12.043,-16.80216 -5.1083,-3.34416 -16.6019,-6.19784 -24.9627,-6.19784 l -5.0422,0 0,40 0,40 4.4508,0 c 2.4479,0 6.8223,-0.50861 9.7209,-1.13025 z"
     id="path3340"
     inkscape:connector-curvature="0"
     inkscape:export-xdpi="90"
     inkscape:export-ydpi="90" />
</svg>
