<?xml version="1.0" encoding="UTF-8" standalone="no"?>
<!-- Created with Inkscape (http://www.inkscape.org/) -->

<svg
   xmlns:dc="http://purl.org/dc/elements/1.1/"
   xmlns:cc="http://creativecommons.org/ns#"
   xmlns:rdf="http://www.w3.org/1999/02/22-rdf-syntax-ns#"
   xmlns:svg="http://www.w3.org/2000/svg"
   xmlns="http://www.w3.org/2000/svg"
   xmlns:sodipodi="http://sodipodi.sourceforge.net/DTD/sodipodi-0.dtd"
   xmlns:inkscape="http://www.inkscape.org/namespaces/inkscape"
   id="svg2"
   version="1.1"
   inkscape:version="0.91 r13725"
   width="499.87155"
   height="173.93732"
   viewBox="0 0 499.87155 173.93732"
   sodipodi:docname="orafol.svg"
   inkscape:export-filename="C:\Users\Gleb\Desktop\new\Design\пленки\orafol.png"
   inkscape:export-xdpi="90"
   inkscape:export-ydpi="90">
  <metadata
     id="metadata8">
    <rdf:RDF>
      <cc:Work
         rdf:about="">
        <dc:format>image/svg+xml</dc:format>
        <dc:type
           rdf:resource="http://purl.org/dc/dcmitype/StillImage" />
        <dc:title></dc:title>
      </cc:Work>
    </rdf:RDF>
  </metadata>
  <defs
     id="defs6" />
  <sodipodi:namedview
     pagecolor="#ffffff"
     bordercolor="#666666"
     borderopacity="1"
     objecttolerance="10"
     gridtolerance="10"
     guidetolerance="10"
     inkscape:pageopacity="0"
     inkscape:pageshadow="2"
     inkscape:window-width="1366"
     inkscape:window-height="705"
     id="namedview4"
     showgrid="false"
     fit-margin-top="0"
     fit-margin-left="0"
     fit-margin-right="0"
     fit-margin-bottom="0"
     inkscape:zoom="0.81424417"
     inkscape:cx="329.92896"
     inkscape:cy="100.11081"
     inkscape:window-x="-8"
     inkscape:window-y="-8"
     inkscape:window-maximized="1"
     inkscape:current-layer="svg2" />
  <path
     style="fill:#000000"
     d="m 165.8893,171.92304 c -2.46511,-1.11816 -5.33598,-2.79578 -6.37971,-3.72804 -3.43518,-3.0683 -6.66991,-9.14668 -7.29515,-13.70834 l -0.61497,-4.48667 95.97764,0 95.97763,0 1.15009,3.83864 c 2.32835,7.77135 10.16838,15.9703 17.91446,18.73461 3.18131,1.13529 -11.15476,1.3423 -94.24797,1.3609 -96.4183,0.0216 -98.07234,-0.0109 -102.48202,-2.0111 z m 198.83422,-4.31397 c -8.65922,-3.0934 -13.80871,-9.69071 -16.28144,-20.85908 l -0.60886,-2.75 -70.48095,0 c -38.76452,0 -70.48038,-0.3375 -70.47967,-0.75 7e-4,-0.4125 2.9257,-7.62512 6.5,-16.02804 3.57429,-8.40292 6.49872,-15.49042 6.49872,-15.75 0,-0.25958 -0.83886,-0.47196 -1.86414,-0.47196 -1.28969,0 -2.39683,-1.39481 -3.59272,-4.5262 l -1.72857,-4.5262 -14.5656,0.2762 -14.5656,0.2762 -1.54834,4.25 -1.54834,4.25 -18.82702,0 -18.82702,0 -8.50785,-12.999996 -8.50785,-13 -7.45848,0 -7.45847,0 0,13 0,12.999996 -13.500004,0 -13.5,0 0,-3.5 c 0,-1.925 -0.21842,-3.5 -0.48538,-3.5 -0.26696,0 -3.07946,1.34162 -6.25,2.98139 -8.56349,4.42893 -16.34223,6.13137 -28.26462,6.18594 -29.30264,0.13412 -47.3285092,-13.02368 -48.77767924,-35.604776 -1.02302,-15.94088 6.36488904,-28.71574 20.77630924,-35.92547 16.34189,-8.17552 43.50776,-7.2865 58.06021,1.90006 2.14578,1.35457 4.13536,2.46286 4.42129,2.46286 0.28593,0 0.51987,-1.8 0.51987,-4 l 0,-4 26.776234,0 c 14.72693,0 30.58089,0.47706 35.23101,1.06014 14.97518,1.87773 23.4434,8.69929 24.83517,20.00593 l 0.65759,5.34224 5.13272,-12.95416 5.13271,-12.95415 16.8634,0 16.8634,0 6.21889,14.5 6.21888,14.5 0.035,-14.71826 0.035,-14.71827 11.62009,-0.28173 11.62009,-0.28174 5.82811,-13.39895 C 263.17809,9.758642 266.46294,5.344287 273.39372,1.989155 277.40178,0.048887 279.70978,0 367.30341,0 l 89.80066,0 -3.7291,4.127595 c -2.0509,2.270177 -4.5473,5.982677 -5.5474,8.249999 -2.4366,5.52391 -27.9562,75.54646 -27.9562,76.7082 0,0.50281 4.95,0.9142 11,0.9142 l 11,0 0,10.473946 0,10.47396 -15.2017,0.27604 -15.2017,0.27605 -2.6354,7 c -1.4495,3.85 -5.2677,14.16754 -8.485,22.92786 -3.9,10.61905 -6.8682,17.08795 -8.9057,19.40846 -6.20358,7.0655 -17.72417,9.98583 -26.71835,6.77276 z M 69.153626,105.07497 c 3.18027,-1.23357 7.68027,-3.69005 10,-5.458836 l 4.21769,-3.21598 0.26972,-21.14133 0.26971,-21.14133 -2.76971,-2.62811 c -10.33533,-9.80694 -34.21311,-13.21873 -52.53877,-7.50703 -8.98878,2.80161 -16.2502,8.72646 -20.2282802,16.50498 -2.660359,5.20191 -2.998599,6.84833 -2.966969,14.44195 0.0271,6.51327 0.53471,9.65096 2.114419,13.07071 3.9320602,8.51211 12.8508502,15.220586 24.6144302,18.514336 8.2129,2.29957 29.51368,1.47133 37.01776,-1.43936 z m -30.22272,-9.376336 c -4.94013,-1.57546 -11.62945,-8.39345 -12.94955,-13.19864 -3.23918,-11.79075 0.972,-23.03972 10.40313,-27.78905 11.56949,-5.82617 28.7824,-0.92725 32.89997,9.36356 3.25387,8.13224 1.71822,20.73904 -3.20128,26.28063 -0.94152,1.06058 -3.96186,2.98515 -6.71186,4.27683 -5.50744,2.58684 -14.24405,3.04276 -20.44041,1.06667 z m 19.959,-6.34687 c 4.42768,-2.58502 6.98141,-8.03924 6.98141,-14.9108 0,-11.20792 -5.64868,-16.56597 -17.46452,-16.56597 -11.0773,0 -16.56557,4.17147 -17.99058,13.67413 -1.31563,8.77324 2.62903,16.3054 9.9551,19.00886 5.0825,1.87554 14.2645,1.27746 18.51859,-1.20622 z M 353.15363,105.07497 c 3.18027,-1.23357 7.68027,-3.69005 10,-5.458836 l 4.21769,-3.21598 0.26961,-21.10537 0.26961,-21.10537 -4.19026,-3.58671 c -10.78872,-9.23474 -33.2976,-12.14649 -51.11801,-6.61261 -9.16869,2.8472 -16.30737,8.6747 -20.23095,16.51508 -2.64205,5.27955 -2.99574,7.009 -2.9643,14.49482 0.0426,10.13809 2.19602,15.80093 8.23876,21.66521 8.70185,8.444856 18.72456,11.442436 36.72554,10.983816 10.53909,-0.2685 14.0946,-0.75577 18.78231,-2.57405 z m -30.78231,-9.577726 c -16.63824,-5.88564 -18.34407,-32.41421 -2.60074,-40.44586 11.75251,-5.99568 28.58807,-1.79927 33.15728,8.26475 2.37539,5.23197 2.58317,16.21706 0.40532,21.42938 -2.14937,5.14418 -4.20157,7.18084 -9.96186,9.88645 -5.83002,2.73835 -14.67473,3.10279 -21,0.86528 z m -216.5,-2.49725 0,-13 11.40798,0 11.40799,0 8.60663,13.05419 8.60662,13.054196 4.7121,-0.3042 c 4.58141,-0.29575 4.7577,-0.42805 6.35672,-4.77042 l 1.64464,-4.466226 -4.94147,-7.88473 c -6.6259,-10.57246 -6.57642,-10.30323 -2.02741,-11.03065 5.72327,-0.91519 11.88723,-5.76966 13.16403,-10.36744 2.01392,-7.25215 0.90053,-11.75173 -4.22189,-17.06212 -5.36115,-5.55788 -9.71253,-6.26845 -42.46594,-6.93452 l -29.250004,-0.59482 0,31.65337 0,31.653366 8.5,0 8.500004,0 0,-12.999996 z m 0,-31 0,-8.12368 18.59037,0.31184 c 18.15338,0.30451 18.63525,0.36733 20.5,2.67262 1.0503,1.29844 1.90963,3.61108 1.90963,5.13922 0,1.52814 -0.85933,3.84078 -1.90963,5.13922 -1.86475,2.30529 -2.34662,2.36811 -20.5,2.67262 l -18.59037,0.31184 0,-8.12368 z m 35.63416,1.70204 c 0.43731,-0.43888 0.31271,-1.56388 -0.27689,-2.5 -1.53907,-2.44365 -29.07026,-3.11356 -29.98506,-0.72962 -0.3224,0.84017 -0.31442,2.2358 0.0178,3.1014 0.519,1.3525 2.63218,1.52829 15.02652,1.25 7.93242,-0.1781 14.78038,-0.6829 15.21768,-1.12178 z m 36.91899,37.797956 1.71857,-4.499996 17.89968,0 17.89967,0 1.92893,4.499996 c 1.83088,4.27128 2.13404,4.5 5.96446,4.5 l 4.03554,0 0,-12.373036 0,-12.37305 -8.10152,-19.12695 -8.10153,-19.12696 -12.86329,0 c -11.75782,0 -12.95355,0.16865 -13.91357,1.96246 -1.02226,1.91011 -24.02009,60.026666 -24.02009,60.699856 0,0.18572 3.56278,0.33768 7.91729,0.33768 l 7.91729,0 1.71857,-4.5 z m 7.44685,-14.780496 c 0,-0.15428 2.89116,-7.46678 6.42479,-16.25 l 6.42479,-15.9695 1.59327,3.76111 c 3.63525,8.58143 11.55715,28.02765 11.55715,28.3698 0,0.203 -5.85,0.36909 -13,0.36909 -7.15,0 -13,-0.12623 -13,-0.2805 z m 18,-6.19099 c 0,-0.25931 -1.15819,-3.07181 -2.57376,-6.25 l -2.57377,-5.77851 -2.42623,5.91987 c -1.33443,3.25593 -2.42624,6.06843 -2.42624,6.25 0,0.18157 2.25,0.33013 5,0.33013 2.75,0 5,-0.21217 5,-0.47149 z m 48,11.47149 0,-14 16,0 16,0 0,-5 0,-5 -16,0 -16,0 0,-7 0,-7 18.71565,0 18.71565,0 4.78435,-4.71241 c 2.63139,-2.59182 4.78435,-5.07297 4.78435,-5.51366 0,-0.44069 -14.7375,-0.68261 -32.75,-0.53759 l -32.75,0.26366 -0.26425,31.25 -0.26424,31.249996 9.51424,0 9.51425,0 0,-13.999996 z m 185.00005,9.018766 0,-4.981216 -22.75,-0.26878 -22.75,-0.26877 -0.2666,-26.25 -0.2667,-26.25 -8.98335,0 -8.9834,0 0,31.5 0,31.499996 32.00005,0 32,0 0,-4.98123 z M 163.58646,84.249994 c 4.06096,-10.59004 4.03814,-10.04788 0.29046,-6.90163 -1.86607,1.5666 -4.44701,3.24915 -5.73542,3.73901 l -2.34255,0.89063 2.28618,4.0033 c 1.25741,2.2018 2.51348,4.00675 2.79128,4.01099 0.2778,0.004 1.49732,-2.5798 2.71005,-5.7423 z m 287.57151,-64.35072 c 1.4061,-10.48271 11.0094,-19.004962 22.2203,-19.718816 7.8389,-0.499148 12.6073,1.026838 17.7807,5.690232 4.1861,3.773419 8.6857,11.983684 8.7026,15.879304 l 0.01,2.25 -24.6317,0 -24.6317,0 0.5501,-4.10072 z"
     id="path3338"
     inkscape:connector-curvature="0" />
</svg>
