<?xml version="1.0" encoding="UTF-8" standalone="no"?>
<!-- Created with Inkscape (http://www.inkscape.org/) -->

<svg
   xmlns:dc="http://purl.org/dc/elements/1.1/"
   xmlns:cc="http://creativecommons.org/ns#"
   xmlns:rdf="http://www.w3.org/1999/02/22-rdf-syntax-ns#"
   xmlns:svg="http://www.w3.org/2000/svg"
   xmlns="http://www.w3.org/2000/svg"
   xmlns:sodipodi="http://sodipodi.sourceforge.net/DTD/sodipodi-0.dtd"
   xmlns:inkscape="http://www.inkscape.org/namespaces/inkscape"
   id="svg2"
   version="1.1"
   inkscape:version="0.91 r13725"
   width="391.88248"
   height="451.59879"
   viewBox="0 0 391.88248 451.59879"
   sodipodi:docname="stp.svg"
   inkscape:export-filename="C:\Users\Gleb\Desktop\bitmap.png"
   inkscape:export-xdpi="90"
   inkscape:export-ydpi="90">
  <metadata
     id="metadata8">
    <rdf:RDF>
      <cc:Work
         rdf:about="">
        <dc:format>image/svg+xml</dc:format>
        <dc:type
           rdf:resource="http://purl.org/dc/dcmitype/StillImage" />
        <dc:title></dc:title>
      </cc:Work>
    </rdf:RDF>
  </metadata>
  <defs
     id="defs6" />
  <sodipodi:namedview
     pagecolor="#ffffff"
     bordercolor="#666666"
     borderopacity="1"
     objecttolerance="10"
     gridtolerance="10"
     guidetolerance="10"
     inkscape:pageopacity="0"
     inkscape:pageshadow="2"
     inkscape:window-width="1366"
     inkscape:window-height="705"
     id="namedview4"
     showgrid="false"
     fit-margin-top="0"
     fit-margin-left="0"
     fit-margin-right="0"
     fit-margin-bottom="0"
     inkscape:zoom="1.1942248"
     inkscape:cx="170.16576"
     inkscape:cy="200.38541"
     inkscape:window-x="-8"
     inkscape:window-y="-8"
     inkscape:window-maximized="1"
     inkscape:current-layer="svg2"
     showguides="true" />
  <path
     style="fill:#000000"
     d="m 181.41372,444.1378 c -7.21875,-4.2585 -31.47656,-18.31583 -53.90625,-31.23851 -22.42969,-12.92269 -60.1875,-34.68905 -83.90625,-48.3697 L 0.47622,339.65568 0.2381,226.27827 0,112.90087 72.89435,70.880393 C 112.98626,47.769128 157.04504,22.366431 170.80276,14.429955 L 195.81679,0 253.77151,33.484135 c 31.87509,18.416276 74.40787,42.978792 94.51717,54.583367 20.1094,11.60458 38.1446,22.095608 40.0782,23.313408 l 3.5156,2.21418 0,112.74047 0,112.74047 -25.0781,14.45192 c -13.793,7.94855 -39.4219,22.74489 -56.95316,32.88076 -17.53125,10.13585 -49.9611,28.88431 -72.06634,41.66322 -22.10524,12.77891 -40.87868,23.36359 -41.71875,23.5215 -0.84007,0.1579 -7.43366,-3.19712 -14.65241,-7.45563 z m 45.56938,-26.18905 c 17.21809,-9.96756 57.03999,-33.01969 88.49312,-51.22696 31.45316,-18.20728 58.34766,-33.91668 59.76566,-34.90977 l 2.5781,-1.80563 -0.014,-103.76428 c -0.01,-57.07036 -0.3243,-104.22682 -0.7031,-104.79213 -0.3789,-0.56531 -23.2592,-14.03582 -50.8451,-29.934458 C 276.7358,62.974624 255.63077,50.79379 216.96335,28.436072 206.09377,22.151222 196.65038,17.009071 195.97804,17.009071 c -0.67234,0 -9.91967,4.989611 -20.54963,11.088025 C 150.75324,42.25326 95.80976,73.861719 50.16372,100.16068 l -35.625,20.52533 0,105.26276 0,105.26275 62.8125,36.3052 c 34.54687,19.96786 75.25781,43.53773 90.46875,52.37748 15.21094,8.83975 27.70153,16.09592 27.75688,16.12482 0.0553,0.0289 14.18815,-8.10273 31.40625,-18.07027 z M 137.81997,386.72362 C 106.10903,368.3947 68.35122,346.58181 53.91372,338.25056 l -26.25,-15.14774 -0.23871,-97.04456 -0.2387,-97.04457 83.6762,-48.267928 c 46.02192,-26.54737 84.30902,-48.24338 85.08246,-48.213363 1.27333,0.04942 19.27768,10.364599 132.89061,76.136651 l 34.9219,20.21674 -0.012,97.10851 -0.012,97.10852 -18.9727,10.92962 c -26.11141,15.04198 -89.35842,51.62314 -121.84453,70.47311 -14.81385,8.59569 -27.04823,15.60937 -27.1875,15.58596 -0.13933,-0.0234 -26.19859,-15.03896 -57.90953,-33.36789 z m 78.46069,5.33024 c 117.85312,-67.69349 132.88592,-76.55657 133.37732,-78.63686 0.2782,-1.1775 0.3919,-41.45645 0.2528,-89.5088 l -0.2529,-87.36788 -13.3408,-7.63245 C 328.97958,124.71003 306.31216,111.6627 285.94497,99.913822 265.57778,88.164932 236.95474,71.666754 222.33821,63.2512 l -26.5755,-15.301006 -17.487,10.143213 c -9.61784,5.578767 -26.5573,15.358333 -37.64324,21.732375 -11.08594,6.37403 -36.1875,20.833068 -55.78125,32.131178 -19.59375,11.29811 -37.41797,21.57458 -39.60938,22.83659 l -3.98437,2.29456 0,88.86575 0,88.86575 51.79687,29.85254 c 28.48829,16.4189 62.97657,36.30653 76.64063,44.19475 13.66406,7.88821 25.34637,14.35344 25.96069,14.36719 0.61432,0.0138 9.89557,-5.01736 20.625,-11.18023 z M 96.13771,291.64834 c -13.59282,-2.11919 -23.71729,-6.54357 -31.53373,-13.78022 -6.50116,-6.01893 -10.77025,-13.93458 -11.63955,-21.58183 -0.33581,-2.95404 -0.81536,-6.10925 -1.06568,-7.0116 -0.42276,-1.5239 0.91074,-1.64062 18.74439,-1.64062 l 19.19952,0 0.60723,3.59419 c 1.51599,8.97303 7.78653,13.49595 18.71731,13.50075 10.17692,0.005 15.86459,-3.09591 17.02478,-9.28026 1.23006,-6.55685 -3.05364,-9.54584 -21.29981,-14.86213 -29.74873,-8.66773 -37.80588,-12.55421 -42.99743,-20.74043 -4.18206,-6.59444 -4.95669,-9.91767 -4.52811,-19.42616 0.60691,-13.4653 5.58691,-22.71483 15.95886,-29.64094 18.47947,-12.34012 51.52323,-12.2892 70.08818,0.10799 6.68808,4.46613 12.43938,12.53612 14.06972,19.74206 0.61891,2.73552 1.32782,5.71196 1.57536,6.61431 0.38044,1.38679 1.60066,1.64062 7.8869,1.64062 l 7.43682,0 0,-14.0625 0,-14.0625 16.875,0 16.875,0 0.11719,12.65625 c 0.0645,6.96094 0.16992,13.18359 0.23437,13.82813 0.0829,0.82886 2.79272,1.25041 9.25781,1.44019 l 9.14063,0.26832 0,10.24461 0,10.24461 -9.14063,0.26832 -9.14062,0.26832 -0.30279,14.53125 c -0.54909,26.35141 0.56836,29.0625 11.97893,29.0625 l 6.60511,0 0,12.98345 0,12.98344 -12.0728,0.53693 c -24.90243,1.10752 -34.13587,-2.25909 -38.5495,-14.05554 -1.71119,-4.57358 -1.8777,-7.30172 -1.8777,-30.7647 l 0,-25.74608 -7.96875,0 -7.96875,0 0,-8.90625 0,-8.90625 -17.60802,0 -17.60802,0 -0.20876,-2.52225 c -0.47982,-5.79759 -7.38296,-10.02463 -16.28711,-9.97317 -10.60216,0.0612 -16.64384,5.57822 -12.37308,11.29845 2.8759,3.85194 8.65487,6.23089 25.531,10.50995 27.31002,6.92466 36.09348,12.08284 41.79211,24.54284 1.9922,4.35595 2.41376,6.69673 2.44808,13.59375 0.0236,4.74807 -0.54479,10.24303 -1.32155,12.77545 -4.26122,13.89264 -15.59381,23.27536 -33.63771,27.85006 -8.53872,2.16484 -25.13749,3.10782 -33.0342,1.87669 z m 133.55726,-65.18217 0,-62.41788 37.73437,0.33852 c 36.52297,0.32765 37.92839,0.40758 43.77754,2.48976 21.2307,7.5577 32.5731,28.25713 27.801,50.73535 -2.8679,13.5085 -9.6837,22.79132 -20.70923,28.20494 -8.64988,4.24715 -16.62964,5.53245 -34.46305,5.55093 l -15.70313,0.0163 0,18.75 0,18.75 -19.21875,0 -19.21875,0 0,-62.4179 z m 62.8613,-5.18014 c 2.8225,-0.60533 6.02596,-2.1054 7.71062,-3.61064 2.47898,-2.21498 2.93902,-3.363 3.28955,-8.20911 0.37403,-5.17078 0.18488,-5.88321 -2.30043,-8.66475 -3.38356,-3.78685 -7.38015,-4.63454 -22.10792,-4.68913 l -11.01562,-0.0408 0,12.5 c 0,6.875 0.28125,12.78125 0.625,13.125 1.01564,1.01565 18.5599,0.71299 23.7988,-0.41054 z"
     id="path3338"
     inkscape:connector-curvature="0" />
</svg>
