<?xml version="1.0" encoding="UTF-8" standalone="no"?>
<!-- Created with Inkscape (http://www.inkscape.org/) -->

<svg
   xmlns:dc="http://purl.org/dc/elements/1.1/"
   xmlns:cc="http://creativecommons.org/ns#"
   xmlns:rdf="http://www.w3.org/1999/02/22-rdf-syntax-ns#"
   xmlns:svg="http://www.w3.org/2000/svg"
   xmlns="http://www.w3.org/2000/svg"
   xmlns:sodipodi="http://sodipodi.sourceforge.net/DTD/sodipodi-0.dtd"
   xmlns:inkscape="http://www.inkscape.org/namespaces/inkscape"
   id="svg2"
   version="1.1"
   inkscape:version="0.91 r13725"
   width="215"
   height="215"
   viewBox="0 0 215 215"
   sodipodi:docname="save.svg">
  <metadata
     id="metadata8">
    <rdf:RDF>
      <cc:Work
         rdf:about="">
        <dc:format>image/svg+xml</dc:format>
        <dc:type
           rdf:resource="http://purl.org/dc/dcmitype/StillImage" />
        <dc:title></dc:title>
      </cc:Work>
    </rdf:RDF>
  </metadata>
  <defs
     id="defs6" />
  <sodipodi:namedview
     pagecolor="#ffffff"
     bordercolor="#666666"
     borderopacity="1"
     objecttolerance="10"
     gridtolerance="10"
     guidetolerance="10"
     inkscape:pageopacity="0"
     inkscape:pageshadow="2"
     inkscape:window-width="1366"
     inkscape:window-height="705"
     id="namedview4"
     showgrid="false"
     inkscape:zoom="1.0976744"
     inkscape:cx="-39.629237"
     inkscape:cy="107.5"
     inkscape:window-x="-8"
     inkscape:window-y="-8"
     inkscape:window-maximized="1"
     inkscape:current-layer="svg2" />
  <path
     style="fill:#f54e4e;fill-opacity:1"
     d="m 56.597088,198.30612 c -3.82029,-1.22241 -5.68607,-2.9161 -5.68607,-5.16161 0,-1.64914 -0.8212,-1.88023 -6.75,-1.89952 -10.68897,-0.0348 -19.30031,-5.43822 -22.11589,-13.87726 -1.51018,-4.5264 -1.59403,-137.904616 -0.0901,-143.319726 1.33499,-4.806856 5.20952,-9.359587 10.07986,-11.844246 3.76506,-1.920793 5.86131,-1.968033 75.710222,-1.70615 l 71.83796,0.269341 4.1288,2.86163 c 2.34786,1.627278 5.00667,4.675049 6.16397,7.065724 1.98808,4.106818 2.03517,5.840547 2.03517,74.928207 0,67.55168 -0.0854,70.89054 -1.90268,74.43428 -4.00583,7.81122 -10.32636,11.21016 -20.84596,11.21016 -6.55919,0 -6.85263,0.10529 -7.88014,2.82749 -2.61269,6.92181 -22.37122,6.1706 -22.37122,-0.85054 0,-1.92871 -0.79299,-1.97695 -32.5,-1.97695 -31.707002,0 -32.499992,0.0482 -32.499992,1.97695 0,1.08732 -1.06808,2.67678 -2.37352,3.53213 -2.91104,1.90739 -11.13052,2.74917 -14.94041,1.53009 z M 168.89115,177.01695 c 6.13414,-3.13398 9.78138,-8.09264 11.06678,-15.04599 0.69258,-3.74649 0.95638,-24.82777 0.75776,-60.55559 l -0.30468,-54.808282 -3.00892,-4.86531 c -2.13699,-3.455413 -4.44776,-5.605642 -7.9741,-7.420069 l -4.96517,-2.55476 -58.0259,0 c -57.492332,0 -58.062682,0.01979 -62.025902,2.152682 -7.8409,4.219738 -11.5,10.524599 -11.5,19.815199 0,4.198786 -0.48203,6.014153 -2,7.532119 -1.80941,1.809408 -2,3.333333 -2,15.991526 0,12.908519 0.15481,14.088206 2,15.240547 1.79408,1.120424 2,2.332027 2,11.767928 0,9.4359 -0.20592,10.6475 -2,11.76793 -1.84519,1.15234 -2,2.33202 -2,15.24054 0,12.3277 0.22209,14.21363 1.86765,15.85918 1.43501,1.43501 1.97078,3.80944 2.31286,10.25 0.56043,10.55196 3.40629,15.50091 11.12579,19.34769 l 5.08639,2.53466 57.591752,0 57.59177,0 4.40392,-2.25 z M 46.783818,169.58324 c -6.05873,-3.76019 -5.8742,-1.745 -5.85806,-63.97058 0.0159,-61.122832 -0.0999,-59.732753 5.30767,-63.749312 2.77493,-2.061125 3.75925,-2.101217 58.500012,-2.382715 63.78125,-0.327988 62.41951,-0.47679 66.14952,7.22837 2.05811,4.251496 2.08794,5.24604 1.81032,60.367897 -0.2776,55.11729 -0.31698,56.09192 -2.37867,58.86762 -4.01892,5.41076 -2.60416,5.29384 -63.9036,5.28108 -50.940062,-0.0106 -57.279302,-0.18521 -59.627192,-1.64236 z m 63.092012,-23.25055 c 0.56935,-1.06384 1.03518,-4.38636 1.03518,-7.38337 0,-4.8056 0.26571,-5.52032 2.25,-6.05208 3.94539,-1.05733 4.51785,-0.72878 7.67741,4.40615 3.41977,5.55784 5.3432,6.81379 7.58532,4.95299 2.16099,-1.79346 1.83985,-4.35689 -1.236,-9.86599 l -2.72326,-4.8776 2.34202,-2.43336 2.34202,-2.43335 5.857,3.06043 c 6.35354,3.3199 9.09041,2.9687 9.71921,-1.24718 0.24531,-1.64475 -0.89937,-2.78799 -5.24997,-5.24331 -3.06003,-1.72697 -5.74518,-3.4345 -5.96701,-3.79451 -0.22182,-0.36001 0.14006,-1.98279 0.80419,-3.60619 1.14081,-2.78858 1.49087,-2.93659 6.33707,-2.67938 6.62749,0.35176 9.48352,-1.12357 9.07193,-4.68625 -0.29942,-2.59175 -0.54734,-2.69295 -7.30993,-2.98367 -7.67111,-0.32977 -7.95223,-0.46912 -8.87776,-4.400545 -0.57989,-2.463209 -0.12824,-2.998166 5.12089,-6.065356 4.39463,-2.567892 5.75687,-3.914198 5.75687,-5.689539 0,-4.50591 -2.9614,-4.876523 -9.62312,-1.204311 l -6.05782,3.33932 -2.3924,-2.247538 -2.39239,-2.247539 2.98286,-5.213508 c 3.40563,-5.952412 3.7592,-8.984208 1.20705,-10.350079 -2.62104,-1.402735 -4.62545,0.157417 -8.09066,6.297442 -2.84695,5.044518 -3.26047,5.375987 -5.84854,4.688086 -2.65555,-0.705835 -2.80822,-1.075837 -3.28498,-7.961135 -0.33947,-4.90261 -0.98158,-7.524747 -2,-8.16732 -4.09269,-2.582284 -5.81967,-0.215542 -6.19955,8.496193 -0.29283,6.715275 -0.37646,6.910156 -3.300443,7.690588 -1.65,0.440397 -3.116,0.460707 -3.25777,0.04513 -0.14178,-0.415574 -1.71999,-2.995098 -3.50714,-5.732276 -2.34892,-3.597591 -3.985649,-5.062075 -5.906379,-5.284825 -4.27912,-0.496255 -4.49669,2.743858 -0.65047,9.686977 3.246669,5.860818 3.266179,5.9726 1.40214,8.032347 -2.41609,2.669751 -2.52709,2.657963 -8.58038,-0.911183 -6.25407,-3.687533 -8.75286,-3.832849 -9.57509,-0.556835 -0.81756,3.257399 -0.29458,3.912478 5.99744,7.512409 l 5.38009,3.078175 -1.069,3.483117 -1.069,3.483135 -6.79704,0 c -5.9635,0 -6.9403,0.2677 -7.96534,2.183 -1.84844,3.45384 1.84183,5.817 9.08372,5.817 5.68537,0 5.77298,0.0438 6.40455,3.20167 0.42189,2.10944 0.20868,3.4651 -0.625,3.97389 -0.69593,0.42473 -3.06533,1.81079 -5.26533,3.08015 -3.24331,1.87133 -4,2.86683 -4,5.26241 0,4.11319 2.673,4.35909 9.17164,0.84371 l 5.28556,-2.85917 2.59612,2.59612 2.59612,2.59612 -3.07472,4.84833 c -3.60732,5.68816 -3.84705,7.97306 -0.99658,9.49859 3.01965,1.61607 4.390669,0.70481 7.480309,-4.97188 1.51767,-2.78847 3.08164,-5.06994 3.47548,-5.06994 0.39384,0 2.12232,0.28125 3.84107,0.625 3.095143,0.61903 3.125003,0.684 3.125003,6.8 0,3.46944 0.52578,6.70078 1.2,7.375 1.80185,1.80186 4.59813,1.4457 5.76481,-0.73426 z M 98.982117,120.5154 c -1.88589,-0.96165 -4.81089,-3.47911 -6.5,-5.59435 -2.70695,-3.38988 -3.06895,-4.59691 -3.05298,-10.17957 0.0159,-5.546585 0.39752,-6.808445 3.07111,-10.154102 5.73271,-7.173791 13.778323,-9.153234 22.009693,-5.414995 5.92622,2.691365 8.74749,7.171192 9.22343,14.645657 0.479,7.52254 -1.22207,11.27712 -7.00827,15.46863 -4.90864,3.55579 -12.1904,4.06007 -17.742983,1.22873 z"
     id="path3338"
     inkscape:connector-curvature="0" />
</svg>
